M48
INCH,TZ
T1C0.016
T2C0.030
T3C0.030
T4C0.031
T5C0.032
T6C0.032
T7C0.032
T8C0.035
T9C0.039
T10C0.039
T11C0.040
T12C0.047
T13C0.049
T14C0.118
T15C0.126
T16C0.138
%
G90
G05
T1
X16750Y-23750
X16750Y-24500
X16750Y-25250
X16750Y-26000
X16750Y-26800
X17400Y-24500
X17400Y-25250
X17400Y-26000
X17400Y-26800
X17500Y-23750
X17650Y-38750
X17650Y-39400
X17650Y-40050
X17650Y-40700
X17850Y-46850
X17850Y-47500
X17900Y-30400
X17900Y-31150
X17900Y-31800
X17900Y-32400
X17900Y-33100
X17900Y-45500
X17900Y-46150
X18000Y-50350
X18000Y-51150
X18100Y-26850
X18150Y-23750
X18150Y-24450
X18150Y-25300
X18150Y-26000
X18300Y-38750
X18300Y-39350
X18300Y-40050
X18300Y-40750
X18500Y-45450
X18500Y-46150
X18500Y-46850
X18500Y-47450
X18540Y-30400
X18750Y-24450
X18750Y-25300
X18750Y-26000
X18750Y-26850
X18900Y-23750
X18950Y-40800
X19000Y-39350
X19000Y-40050
X19050Y-38750
X19050Y-46150
X19050Y-46850
X20800Y-56720
X20850Y-49300
X20850Y-50000
X20850Y-50800
X20880Y-56120
X20900Y-51500
X20980Y-54320
X21240Y-22380
X21650Y-51500
X21700Y-24750
X21780Y-50320
X22240Y-22740
X22500Y-54650
X22600Y-54050
X23100Y-54100
X23100Y-54650
X23200Y-42720
X23220Y-23100
X23220Y-41180
X24040Y-50560
X24160Y-42120
X24200Y-43860
X24260Y-23460
X24400Y-50560
X24640Y-43420
X24980Y-48320
X25220Y-23840
X25740Y-44000
X25800Y-46400
X26180Y-24260
X26180Y-43660
X26560Y-50800
X26760Y-44180
X26780Y-46360
X27140Y-44660
X27240Y-24640
X27580Y-48200
X27640Y-41440
X27940Y-49480
X28090Y-51095
X28200Y-25050
X28200Y-38980
X28520Y-50508
X28900Y-47180
X29130Y-51338
X29140Y-39300
X29150Y-25450
X29660Y-46820
X29880Y-48320
X30200Y-46440
X30250Y-25850
X30500Y-56400
X30520Y-41840
X30520Y-50600
X30540Y-46100
X31200Y-26250
X31220Y-39620
X31460Y-45760
X31460Y-50860
X31460Y-54460
X31600Y-56480
X31777Y-49302
X31780Y-45400
X31800Y-52500
X32100Y-56400
X32180Y-44320
X32180Y-49340
X32250Y-26650
X32420Y-54360
X32487Y-55580
X32500Y-51740
X32500Y-56350
X32560Y-44740
X32860Y-45060
X32860Y-51701
X32872Y-55200
X32900Y-54000
X32920Y-53479
X32941Y-56000
X33240Y-44400
X33250Y-27050
X33480Y-41840
X33580Y-44140
X33856Y-54771
X33940Y-44380
X34250Y-27450
X34460Y-55580
X34462Y-54323
X34500Y-43840
X34660Y-55200
X34825Y-52510
X34880Y-56360
X34900Y-40440
X34900Y-44400
X35040Y-54380
X35073Y-53049
X35160Y-55260
X35250Y-27850
X35288Y-51899
X35440Y-44460
X35575Y-45400
X35620Y-51660
X35632Y-51149
X35641Y-47814
X35664Y-53751
X35665Y-47500
X35699Y-47180
X35716Y-45760
X35737Y-46820
X35830Y-46440
X35857Y-46100
X35940Y-53600
X36000Y-44460
X36069Y-52280
X36250Y-28250
X36260Y-51320
X36520Y-44440
X36560Y-52220
X36680Y-48920
X37040Y-54300
X37100Y-44440
X37160Y-51620
X37160Y-52180
X37250Y-28650
X37360Y-50840
X37620Y-44400
X37740Y-51600
X37740Y-52140
X38060Y-44420
X38168Y-48328
X38220Y-54023
X38250Y-29100
X38620Y-44380
X38956Y-48837
X39120Y-44420
X39180Y-49080
X39220Y-54397
X39250Y-29500
X39500Y-48958
X39740Y-44380
X40200Y-44400
X40250Y-29900
X40500Y-54260
X40620Y-44400
X41120Y-44360
X41250Y-30300
X41520Y-53960
X41540Y-44420
X42040Y-44420
X42160Y-56240
X42250Y-30700
X42520Y-54040
X42560Y-44420
X43180Y-44460
X43250Y-31100
X43500Y-54020
X43600Y-44460
X44040Y-44460
X44040Y-54820
X44250Y-31500
X44500Y-53980
X44980Y-55980
X45250Y-31900
X45520Y-53980
X45960Y-56500
X46250Y-32300
X47120Y-54800
X47250Y-32700
X48250Y-33100
X49120Y-54300
X49250Y-33500
X49880Y-39200
X50250Y-33940
X50360Y-38780
X50700Y-38340
X51144Y-34336
X51160Y-37940
X51285Y-34695
X51330Y-35150
X51350Y-54500
X51400Y-52340
X51442Y-35502
X51502Y-35942
X51560Y-37520
X51600Y-36360
X51980Y-37120
X52000Y-54500
X52700Y-54500
X52760Y-36360
X53160Y-35940
X53500Y-35520
X53500Y-54500
X53940Y-35120
X54380Y-34720
X55360Y-34340
X55380Y-33980
X57920Y-23100
X57940Y-22740
X57940Y-23460
X57940Y-23840
X57950Y-25000
X57950Y-25400
X57950Y-25800
X57950Y-26200
X57950Y-26600
X57950Y-27000
X57950Y-27400
X57950Y-27800
X57950Y-28250
X57950Y-28700
X57950Y-29100
X57950Y-29500
X57950Y-29900
X57950Y-30300
X57950Y-30700
X57950Y-31100
X57950Y-31500
X57950Y-31900
X57950Y-32300
X57950Y-32700
X57950Y-33100
X57950Y-33500
X57960Y-24220
X57960Y-24600
X58660Y-39660
X59040Y-39700
X59080Y-25729
X59265Y-22380
X59440Y-39660
X59820Y-39660
X59822Y-26600
X60240Y-39680
X60408Y-23460
X60700Y-39600
X60785Y-25000
X61105Y-52612
X61800Y-19000
X62240Y-52800
X62350Y-19000
X62900Y-19000
X63280Y-53124
X63400Y-19000
X63950Y-19000
X64380Y-53300
X64450Y-19000
X64950Y-19000
X65450Y-19000
X65950Y-56250
X66450Y-56250
X66900Y-56250
X67450Y-56250
X68320Y-53560
X69840Y-48000
X70120Y-47680
X70380Y-47360
X70640Y-47060
X70960Y-46800
X71320Y-46580
X78800Y-56000
X78940Y-39180
X79000Y-55400
X79280Y-38760
X79400Y-56800
X79600Y-55200
X80200Y-55200
X84080Y-34040
X84160Y-33400
X85080Y-36000
X85520Y-35000
X85940Y-32040
X86000Y-34020
X86120Y-36720
X86500Y-38000
X86500Y-38700
X86500Y-39350
X86500Y-40050
X86500Y-40700
X86620Y-33400
X87100Y-38000
X87150Y-38700
X87150Y-39400
X87150Y-40050
X87150Y-40700
X87400Y-32020
X87600Y-49250
X87800Y-38000
X87800Y-38700
X87800Y-39400
X87800Y-40050
X87800Y-40700
X88400Y-49250
X88450Y-38700
X88450Y-39450
X88450Y-40050
X88450Y-40700
X88500Y-38000
X89200Y-49250
X89900Y-49250
X91000Y-39000
X91050Y-39650
X91050Y-40200
X91050Y-40800
X91050Y-41350
X91050Y-42000
X91700Y-39000
X91700Y-39550
X91700Y-40100
X91700Y-40750
X91700Y-41350
X91700Y-42000
X91800Y-42900
X92300Y-39000
X92300Y-39550
X92300Y-40100
X92300Y-40750
X92300Y-41350
X92300Y-42050
X92300Y-42900
T2
X19250Y-52700
X23250Y-52700
X70750Y-54766
X70750Y-55750
X71750Y-54766
X71750Y-55750
X72750Y-54766
X72750Y-55750
X73750Y-54766
X73750Y-55750
X74750Y-54766
X74750Y-55750
X75750Y-54766
X75750Y-55750
X76750Y-54766
X76750Y-55750
X82800Y-49250
X86800Y-49250
T3
X20000Y-53941
X20000Y-56500
X21772Y-53941
X21772Y-56500
T4
X18000Y-48500
X18500Y-43700
X18540Y-28500
X19500Y-48500
X19500Y-51500
X22500Y-48500
X22500Y-51500
X23200Y-56300
X54500Y-54500
X61000Y-19000
X68000Y-56000
X70750Y-49750
X70750Y-52750
X71750Y-49750
X71750Y-52750
X72750Y-49750
X72750Y-52750
X73750Y-49750
X73750Y-52750
X74750Y-49750
X74750Y-52750
X75750Y-49750
X75750Y-52750
X76750Y-49750
X76750Y-52750
X81250Y-56250
X87348Y-56250
X88136Y-56250
X88923Y-56250
X91800Y-44500
T5
X18000Y-49484
X18500Y-44684
X18540Y-29484
X23200Y-55316
X54500Y-55484
X61000Y-19984
X68984Y-56000
X79750Y-52500
X79750Y-54000
X80266Y-56250
X91800Y-43516
T6
X82000Y-54251
X86000Y-54251
T7
X25000Y-50000
X25000Y-51000
X25000Y-52000
X25000Y-53000
X25000Y-54000
X25000Y-55000
X26000Y-49000
X26000Y-50000
X26000Y-51000
X26000Y-52000
X26000Y-53000
X26000Y-54000
X26000Y-55000
X26000Y-56000
X27000Y-49000
X27000Y-50000
X27000Y-55000
X27000Y-56000
X28000Y-49000
X28000Y-50000
X28000Y-55000
X28000Y-56000
X29000Y-49000
X29000Y-50000
X29000Y-55000
X29000Y-56000
X30000Y-49000
X30000Y-50000
X30000Y-55000
X30000Y-56000
X31000Y-49000
X31000Y-50000
X31000Y-51000
X31000Y-52000
X31000Y-53000
X31000Y-54000
X31000Y-55000
X31000Y-56000
X32000Y-50000
X32000Y-51000
X32000Y-52000
X32000Y-53000
X32000Y-54000
X32000Y-55000
T8
X83031Y-51750
X85000Y-51750
T9
X36500Y-49500
X36500Y-55500
X37500Y-49500
X37500Y-55500
X38500Y-49500
X38500Y-55500
X39500Y-49500
X39500Y-55500
X40500Y-49500
X40500Y-55500
X41500Y-49500
X41500Y-55500
X42500Y-49500
X42500Y-55500
X43500Y-49500
X43500Y-55500
X44500Y-49500
X44500Y-55500
X45500Y-49500
X45500Y-55500
X46500Y-49500
X46500Y-55500
X47500Y-49500
X47500Y-55500
X48500Y-49500
X48500Y-55500
X49500Y-49500
X49500Y-55500
X56000Y-48750
X56000Y-54750
X57000Y-48750
X57000Y-54750
X58000Y-48750
X58000Y-54750
X59000Y-48750
X59000Y-54750
X60000Y-48750
X60000Y-54750
X61000Y-48750
X61000Y-54750
X62000Y-48750
X62000Y-54750
X63000Y-48750
X63000Y-54750
X64000Y-48750
X64000Y-54750
X65000Y-48750
X65000Y-54750
X66000Y-48750
X66000Y-54750
X67000Y-48750
X67000Y-54750
X68000Y-48750
X68000Y-54750
X69000Y-48750
X69000Y-54750
T10
X80750Y-49250
X80750Y-50250
T11
X20500Y-22750
X20500Y-23750
X20500Y-24750
X20500Y-25750
X20500Y-26750
X20500Y-27750
X20500Y-28750
X20500Y-29750
X20500Y-30750
X20500Y-31750
X20500Y-32750
X20500Y-33750
X20500Y-34750
X20500Y-35750
X20500Y-36750
X20500Y-37750
X20500Y-38750
X20500Y-39750
X20500Y-40750
X20500Y-41750
X20500Y-42750
X20500Y-43750
X20500Y-44750
X20500Y-45750
X20500Y-46750
X21250Y-19250
X21250Y-21500
X22250Y-19250
X22250Y-21500
X23250Y-19250
X23250Y-21500
X24250Y-19250
X24250Y-21500
X25250Y-19250
X25250Y-21500
X26250Y-19250
X26250Y-21500
X27250Y-19250
X27250Y-21500
X28250Y-19250
X28250Y-21500
X29250Y-19250
X29250Y-21500
X30250Y-19250
X30250Y-21500
X31250Y-19250
X31250Y-21500
X32250Y-19250
X32250Y-21500
X33250Y-19250
X33250Y-21500
X34250Y-19250
X34250Y-21500
X35250Y-19250
X35250Y-21500
X36250Y-19250
X36250Y-21500
X37250Y-19250
X37250Y-21500
X38250Y-19250
X38250Y-21500
X39250Y-19250
X39250Y-21500
X40250Y-19250
X40250Y-21500
X41250Y-19250
X41250Y-21500
X42250Y-19250
X42250Y-21500
X43250Y-19250
X43250Y-21500
X44250Y-19250
X44250Y-21500
X45250Y-19250
X45250Y-21500
X46250Y-19250
X46250Y-21500
X47250Y-19250
X47250Y-21500
X48250Y-19250
X48250Y-21500
X49250Y-19250
X49250Y-21500
X49250Y-21500
X50250Y-19250
X50250Y-21500
X50250Y-21500
X51250Y-19250
X51250Y-21500
X51250Y-21500
X52250Y-19250
X52250Y-21500
X52250Y-21500
X53250Y-19250
X53250Y-21500
X53250Y-21500
X54250Y-19250
X54250Y-21500
X54250Y-21500
X55250Y-19250
X55250Y-21500
X55250Y-21500
X56250Y-19250
X56250Y-21500
X56250Y-21500
X57250Y-19250
X57250Y-21500
X57250Y-21500
X58250Y-19250
X58250Y-21500
X58250Y-21500
X59250Y-19250
X59250Y-21500
X59250Y-21500
X60250Y-21500
X60250Y-21500
X61250Y-21500
X61250Y-21500
X62250Y-21500
X62250Y-21500
X63250Y-21500
X63250Y-21500
X64250Y-21500
X64250Y-21500
X65250Y-21500
X65250Y-21500
X66250Y-21500
X66250Y-21500
X67250Y-21500
X67250Y-21500
X68250Y-21500
X68250Y-21500
X69250Y-21500
X69250Y-21500
X70250Y-21500
X70250Y-21500
X71250Y-21500
X71250Y-21500
X72250Y-21500
X72250Y-21500
X73250Y-21500
X73250Y-21500
X74250Y-21500
X74250Y-21500
X75250Y-21500
X75250Y-21500
X76250Y-21500
X76250Y-21500
X77250Y-21500
X77250Y-21500
X78250Y-21500
X79250Y-21500
X80250Y-21500
X81250Y-21500
X82250Y-21500
X83250Y-21500
X84250Y-21500
X85250Y-21500
X86250Y-21500
X87250Y-21500
X88250Y-21500
X89500Y-23000
X89500Y-24000
X89500Y-25000
X89500Y-26000
X89500Y-27000
X89500Y-28000
X89500Y-29000
X89500Y-30000
X89500Y-31000
X89500Y-32000
X89500Y-33000
X89500Y-34000
X89500Y-35000
X89500Y-36000
X89500Y-37000
X89500Y-38000
X89500Y-39000
X89500Y-40000
X89500Y-41000
X89500Y-42000
X89500Y-43000
X89500Y-44000
X89500Y-45000
X89500Y-46000
X89500Y-47000
T12
X83000Y-56000
X84000Y-56000
X85000Y-56000
X87250Y-50750
X87250Y-51750
X87250Y-52750
T13
X86522Y-56250
X89750Y-56250
T14
X91681Y-49400
X92862Y-51250
T15
X18000Y-20500
X18000Y-55500
X92000Y-20500
X92000Y-55500
T16
X90500Y-51250
T0
M30
