G04 #@! TF.FileFunction,Copper,L1,Top,Signal*
%FSLAX46Y46*%
G04 Gerber Fmt 4.6, Leading zero omitted, Abs format (unit mm)*
G04 Created by KiCad (PCBNEW (2015-08-16 BZR 6097, Git b384c94)-product) date 10/3/2015 5:34:03 PM*
%MOMM*%
G01*
G04 APERTURE LIST*
%ADD10C,0.100000*%
%ADD11C,0.150000*%
%ADD12C,5.000000*%
%ADD13C,4.500000*%
%ADD14C,4.000000*%
%ADD15R,2.000000X1.900000*%
%ADD16C,1.900000*%
%ADD17C,1.400000*%
%ADD18C,1.300000*%
%ADD19C,1.800000*%
%ADD20R,1.524000X1.524000*%
%ADD21C,1.524000*%
%ADD22R,1.397000X1.397000*%
%ADD23C,1.397000*%
%ADD24R,1.300000X1.300000*%
%ADD25R,1.400000X1.400000*%
%ADD26C,1.699260*%
%ADD27R,1.699260X1.699260*%
%ADD28O,1.727200X2.032000*%
%ADD29R,1.600000X1.600000*%
%ADD30C,1.600000*%
%ADD31O,2.500000X1.600000*%
%ADD32O,1.600000X2.500000*%
%ADD33O,2.032000X1.727200*%
%ADD34C,1.501140*%
%ADD35C,0.600000*%
%ADD36C,0.381000*%
%ADD37C,0.635000*%
%ADD38C,1.270000*%
%ADD39C,0.254000*%
%ADD40C,0.250000*%
G04 APERTURE END LIST*
D10*
D11*
X206375000Y-131445000D02*
X205359000Y-131445000D01*
X205867000Y-130937000D02*
X205867000Y-131953000D01*
D12*
X45720000Y-52070000D03*
X45720000Y-140970000D03*
X233680000Y-140970000D03*
X233680000Y-52070000D03*
D13*
X229870000Y-130175000D03*
D14*
X235870000Y-130175000D03*
X232870000Y-125475000D03*
D15*
X205105000Y-127635000D03*
D16*
X205105000Y-125095000D03*
D17*
X50800000Y-143510000D03*
X50800000Y-137010000D03*
X55300000Y-143510000D03*
X55300000Y-137010000D03*
D18*
X221865000Y-142875000D03*
X225865000Y-142875000D03*
D19*
X219765000Y-142875000D03*
X227965000Y-142875000D03*
D18*
X223865000Y-142875000D03*
D20*
X49530000Y-130810000D03*
D21*
X57150000Y-130810000D03*
X49530000Y-123190000D03*
X57150000Y-123190000D03*
D22*
X66040000Y-132080000D03*
D23*
X63500000Y-134620000D03*
X66040000Y-134620000D03*
X63500000Y-137160000D03*
X66040000Y-137160000D03*
X63500000Y-139700000D03*
X66040000Y-142240000D03*
X66040000Y-139700000D03*
X68580000Y-142240000D03*
X68580000Y-139700000D03*
X71120000Y-142240000D03*
X71120000Y-139700000D03*
X73660000Y-142240000D03*
X73660000Y-139700000D03*
X76200000Y-142240000D03*
X76200000Y-139700000D03*
X78740000Y-142240000D03*
X81280000Y-139700000D03*
X78740000Y-139700000D03*
X81280000Y-137160000D03*
X78740000Y-137160000D03*
X81280000Y-134620000D03*
X78740000Y-134620000D03*
X81280000Y-132080000D03*
X78740000Y-132080000D03*
X81280000Y-129540000D03*
X78740000Y-129540000D03*
X81280000Y-127000000D03*
X78740000Y-124460000D03*
X78740000Y-127000000D03*
X76200000Y-124460000D03*
X76200000Y-127000000D03*
X73660000Y-124460000D03*
X73660000Y-127000000D03*
X71120000Y-124460000D03*
X71120000Y-127000000D03*
X68580000Y-124460000D03*
X68580000Y-127000000D03*
X66040000Y-124460000D03*
X63500000Y-127000000D03*
X66040000Y-127000000D03*
X63500000Y-129540000D03*
X66040000Y-129540000D03*
X63500000Y-132080000D03*
D24*
X58928000Y-143002000D03*
D18*
X58928000Y-140502000D03*
D25*
X215900000Y-131445000D03*
D17*
X210900000Y-131445000D03*
D24*
X138430000Y-138430000D03*
D18*
X138430000Y-140930000D03*
D24*
X206375000Y-142875000D03*
D18*
X203875000Y-142875000D03*
D24*
X45720000Y-123190000D03*
D18*
X45720000Y-125690000D03*
D24*
X172720000Y-142240000D03*
D18*
X175220000Y-142240000D03*
D24*
X233172000Y-113030000D03*
D18*
X233172000Y-110530000D03*
D24*
X46990000Y-110998000D03*
D18*
X46990000Y-113498000D03*
D24*
X47091600Y-72390000D03*
D18*
X47091600Y-74890000D03*
D24*
X154940000Y-48260000D03*
D18*
X154940000Y-50760000D03*
D26*
X208279480Y-137797540D03*
D27*
X218439480Y-137797540D03*
D28*
X109855000Y-54610000D03*
X112395000Y-54610000D03*
X114935000Y-54610000D03*
X117475000Y-54610000D03*
X120015000Y-54610000D03*
X122555000Y-54610000D03*
X125095000Y-54610000D03*
X127635000Y-54610000D03*
X130175000Y-54610000D03*
X132715000Y-54610000D03*
X135255000Y-54610000D03*
X137795000Y-54610000D03*
X140335000Y-54610000D03*
X142875000Y-54610000D03*
X145415000Y-54610000D03*
X147955000Y-54610000D03*
X150495000Y-54610000D03*
X153035000Y-54610000D03*
X155575000Y-54610000D03*
X158115000Y-54610000D03*
X160655000Y-54610000D03*
X163195000Y-54610000D03*
X165735000Y-54610000D03*
X168275000Y-54610000D03*
X170815000Y-54610000D03*
X173355000Y-54610000D03*
X175895000Y-54610000D03*
X178435000Y-54610000D03*
X180975000Y-54610000D03*
X183515000Y-54610000D03*
X186055000Y-54610000D03*
X188595000Y-54610000D03*
X191135000Y-54610000D03*
X193675000Y-54610000D03*
X196215000Y-54610000D03*
X221615000Y-54610000D03*
X219075000Y-54610000D03*
X216535000Y-54610000D03*
X213995000Y-54610000D03*
X211455000Y-54610000D03*
X208915000Y-54610000D03*
X206375000Y-54610000D03*
X203835000Y-54610000D03*
X201295000Y-54610000D03*
X198755000Y-54610000D03*
X196215000Y-54610000D03*
X193675000Y-54610000D03*
X191135000Y-54610000D03*
X188595000Y-54610000D03*
X186055000Y-54610000D03*
X183515000Y-54610000D03*
X180975000Y-54610000D03*
X178435000Y-54610000D03*
X175895000Y-54610000D03*
X173355000Y-54610000D03*
X170815000Y-54610000D03*
X168275000Y-54610000D03*
X165735000Y-54610000D03*
X163195000Y-54610000D03*
X160655000Y-54610000D03*
X158115000Y-54610000D03*
X155575000Y-54610000D03*
X153035000Y-54610000D03*
X150495000Y-54610000D03*
X147955000Y-54610000D03*
X145415000Y-54610000D03*
X142875000Y-54610000D03*
X140335000Y-54610000D03*
X137795000Y-54610000D03*
X135255000Y-54610000D03*
X132715000Y-54610000D03*
X130175000Y-54610000D03*
X127635000Y-54610000D03*
X125095000Y-54610000D03*
X107315000Y-54610000D03*
X104775000Y-54610000D03*
X102235000Y-54610000D03*
X99695000Y-54610000D03*
X97155000Y-54610000D03*
X94615000Y-54610000D03*
X92075000Y-54610000D03*
X89535000Y-54610000D03*
X86995000Y-54610000D03*
X84455000Y-54610000D03*
X81915000Y-54610000D03*
X79375000Y-54610000D03*
X76835000Y-54610000D03*
X74295000Y-54610000D03*
X71755000Y-54610000D03*
X69215000Y-54610000D03*
X66675000Y-54610000D03*
X64135000Y-54610000D03*
X61595000Y-54610000D03*
X59055000Y-54610000D03*
X56515000Y-54610000D03*
X53975000Y-54610000D03*
X224155000Y-54610000D03*
D29*
X175260000Y-123825000D03*
D30*
X172720000Y-123825000D03*
X170180000Y-123825000D03*
X167640000Y-123825000D03*
X165100000Y-123825000D03*
X162560000Y-123825000D03*
X160020000Y-123825000D03*
X157480000Y-123825000D03*
X154940000Y-123825000D03*
X152400000Y-123825000D03*
X149860000Y-123825000D03*
X147320000Y-123825000D03*
X144780000Y-123825000D03*
X142240000Y-123825000D03*
X142240000Y-139065000D03*
X144780000Y-139065000D03*
X147320000Y-139065000D03*
X149860000Y-139065000D03*
X152400000Y-139065000D03*
X154940000Y-139065000D03*
X157480000Y-139065000D03*
X160020000Y-139065000D03*
X162560000Y-139065000D03*
X165100000Y-139065000D03*
X167640000Y-139065000D03*
X170180000Y-139065000D03*
X172720000Y-139065000D03*
X175260000Y-139065000D03*
D29*
X125730000Y-125730000D03*
D30*
X123190000Y-125730000D03*
X120650000Y-125730000D03*
X118110000Y-125730000D03*
X115570000Y-125730000D03*
X113030000Y-125730000D03*
X110490000Y-125730000D03*
X107950000Y-125730000D03*
X105410000Y-125730000D03*
X102870000Y-125730000D03*
X100330000Y-125730000D03*
X97790000Y-125730000D03*
X95250000Y-125730000D03*
X92710000Y-125730000D03*
X92710000Y-140970000D03*
X95250000Y-140970000D03*
X97790000Y-140970000D03*
X100330000Y-140970000D03*
X102870000Y-140970000D03*
X105410000Y-140970000D03*
X107950000Y-140970000D03*
X110490000Y-140970000D03*
X113030000Y-140970000D03*
X115570000Y-140970000D03*
X118110000Y-140970000D03*
X120650000Y-140970000D03*
X123190000Y-140970000D03*
X125730000Y-140970000D03*
D31*
X221615000Y-131445000D03*
X221615000Y-128905000D03*
X221615000Y-133985000D03*
D32*
X213360000Y-142240000D03*
X215900000Y-142240000D03*
X210820000Y-142240000D03*
D33*
X227330000Y-119380000D03*
X227330000Y-116840000D03*
X227330000Y-114300000D03*
X227330000Y-111760000D03*
X227330000Y-109220000D03*
X227330000Y-106680000D03*
X227330000Y-104140000D03*
X227330000Y-101600000D03*
X227330000Y-99060000D03*
X227330000Y-96520000D03*
X227330000Y-93980000D03*
X227330000Y-91440000D03*
X227330000Y-88900000D03*
X227330000Y-86360000D03*
X227330000Y-83820000D03*
X227330000Y-81280000D03*
X227330000Y-78740000D03*
X227330000Y-76200000D03*
X227330000Y-73660000D03*
X227330000Y-71120000D03*
X227330000Y-68580000D03*
X227330000Y-66040000D03*
X227330000Y-63500000D03*
X227330000Y-60960000D03*
X227330000Y-58420000D03*
X52070000Y-118745000D03*
X52070000Y-116205000D03*
X52070000Y-113665000D03*
X52070000Y-111125000D03*
X52070000Y-108585000D03*
X52070000Y-106045000D03*
X52070000Y-103505000D03*
X52070000Y-100965000D03*
X52070000Y-98425000D03*
X52070000Y-95885000D03*
X52070000Y-93345000D03*
X52070000Y-90805000D03*
X52070000Y-88265000D03*
X52070000Y-85725000D03*
X52070000Y-83185000D03*
X52070000Y-80645000D03*
X52070000Y-78105000D03*
X52070000Y-75565000D03*
X52070000Y-73025000D03*
X52070000Y-70485000D03*
X52070000Y-67945000D03*
X52070000Y-65405000D03*
X52070000Y-62865000D03*
X52070000Y-60325000D03*
X52070000Y-57785000D03*
D28*
X150495000Y-48895000D03*
X147955000Y-48895000D03*
X145415000Y-48895000D03*
X142875000Y-48895000D03*
X140335000Y-48895000D03*
X137795000Y-48895000D03*
X135255000Y-48895000D03*
X132715000Y-48895000D03*
X130175000Y-48895000D03*
X127635000Y-48895000D03*
X125095000Y-48895000D03*
X122555000Y-48895000D03*
X120015000Y-48895000D03*
X117475000Y-48895000D03*
X114935000Y-48895000D03*
X112395000Y-48895000D03*
X109855000Y-48895000D03*
X107315000Y-48895000D03*
X104775000Y-48895000D03*
X102235000Y-48895000D03*
X99695000Y-48895000D03*
X97155000Y-48895000D03*
X94615000Y-48895000D03*
X92075000Y-48895000D03*
X89535000Y-48895000D03*
X86995000Y-48895000D03*
X84455000Y-48895000D03*
X81915000Y-48895000D03*
X79375000Y-48895000D03*
X76835000Y-48895000D03*
X74295000Y-48895000D03*
X71755000Y-48895000D03*
X69215000Y-48895000D03*
X66675000Y-48895000D03*
X64135000Y-48895000D03*
X61595000Y-48895000D03*
X59055000Y-48895000D03*
X56515000Y-48895000D03*
X53975000Y-48895000D03*
D25*
X194945000Y-126365000D03*
D17*
X192405000Y-126365000D03*
X189865000Y-126365000D03*
X187325000Y-126365000D03*
X184785000Y-126365000D03*
X182245000Y-126365000D03*
X179705000Y-126365000D03*
X179705000Y-133985000D03*
X182245000Y-133985000D03*
X184785000Y-133985000D03*
X187325000Y-133985000D03*
X189865000Y-133985000D03*
X192405000Y-133985000D03*
X194945000Y-133985000D03*
X179705000Y-139105640D03*
X179705000Y-141605000D03*
X182245000Y-139105640D03*
X182245000Y-141605000D03*
X184785000Y-139105640D03*
X184785000Y-141605000D03*
X187325000Y-139105640D03*
X187325000Y-141605000D03*
X189865000Y-139105640D03*
X189865000Y-141605000D03*
X192405000Y-139105640D03*
X192405000Y-141605000D03*
X194945000Y-139105640D03*
X194945000Y-141605000D03*
D34*
X202565000Y-137160000D03*
X202565000Y-133350000D03*
D17*
X59055000Y-133858000D03*
X48895000Y-133858000D03*
X210312000Y-125095000D03*
X220472000Y-125095000D03*
D35*
X92862400Y-132638800D03*
X94386400Y-132537200D03*
X95859600Y-132435600D03*
X95859600Y-131064000D03*
X94386400Y-131114800D03*
X92100400Y-130352800D03*
X228346000Y-125095000D03*
X226568000Y-125095000D03*
X224536000Y-125095000D03*
X222504000Y-125095000D03*
X45720000Y-129921000D03*
X45720000Y-127889000D03*
X52959000Y-125222000D03*
X52959000Y-127000000D03*
X52959000Y-129032000D03*
X53086000Y-130810000D03*
X54991000Y-130810000D03*
X57150000Y-138811000D03*
X57404000Y-137287000D03*
X58674000Y-137414000D03*
X58674000Y-138811000D03*
X79908400Y-138328400D03*
X80264000Y-143459200D03*
X82550000Y-143129000D03*
X81534000Y-143256000D03*
X77470000Y-143256000D03*
X130429000Y-138430000D03*
X132080000Y-138430000D03*
X133858000Y-138430000D03*
X135890000Y-138430000D03*
X167513000Y-142875000D03*
X168783000Y-142875000D03*
X169926000Y-142875000D03*
X171323000Y-142875000D03*
X234442000Y-99060000D03*
X234442000Y-100457000D03*
X234442000Y-101854000D03*
X234442000Y-103505000D03*
X234442000Y-105029000D03*
X234442000Y-106807000D03*
X234442000Y-108966000D03*
X233172000Y-108966000D03*
X232918000Y-99060000D03*
X232918000Y-100457000D03*
X232918000Y-101854000D03*
X232918000Y-103505000D03*
X232918000Y-105029000D03*
X232918000Y-106680000D03*
X231267000Y-106680000D03*
X231267000Y-105029000D03*
X231267000Y-103632000D03*
X231267000Y-102108000D03*
X231267000Y-100711000D03*
X231140000Y-99060000D03*
X224663000Y-98298000D03*
X224663000Y-100203000D03*
X224663000Y-101727000D03*
X224663000Y-103378000D03*
X223012000Y-103378000D03*
X223012000Y-101727000D03*
X223012000Y-100076000D03*
X223012000Y-98298000D03*
X221361000Y-98298000D03*
X221361000Y-100076000D03*
X221361000Y-101727000D03*
X221361000Y-103378000D03*
X219710000Y-103378000D03*
X219710000Y-101727000D03*
X219710000Y-99949000D03*
X219710000Y-98298000D03*
X219710000Y-96520000D03*
X221234000Y-96520000D03*
X223012000Y-96520000D03*
X224790000Y-96520000D03*
X55118000Y-62865000D03*
X156972000Y-48260000D03*
X158369000Y-48260000D03*
X159766000Y-48260000D03*
X161036000Y-48260000D03*
X162433000Y-48260000D03*
X166243000Y-48260000D03*
X164973000Y-48260000D03*
X163703000Y-48260000D03*
X47625000Y-62103000D03*
X47625000Y-64262000D03*
X47625000Y-66040000D03*
X47625000Y-68199000D03*
X45974000Y-68199000D03*
X46101000Y-66040000D03*
X46101000Y-64262000D03*
X46101000Y-62103000D03*
X44196000Y-62230000D03*
X44196000Y-64135000D03*
X44196000Y-66040000D03*
X44196000Y-68072000D03*
X42545000Y-68072000D03*
X42545000Y-66040000D03*
X42545000Y-64135000D03*
X42545000Y-62230000D03*
X42545000Y-60325000D03*
X44450000Y-60325000D03*
X46101000Y-60325000D03*
X48006000Y-60325000D03*
X47091600Y-77216000D03*
X45466000Y-84074000D03*
X45466000Y-82296000D03*
X45466000Y-80772000D03*
X45466000Y-79121000D03*
X45466000Y-77216000D03*
X48133000Y-103632000D03*
X48260000Y-101727000D03*
X48260000Y-99949000D03*
X46482000Y-99949000D03*
X46482000Y-101727000D03*
X46482000Y-103505000D03*
X44831000Y-103378000D03*
X44831000Y-101727000D03*
X44831000Y-100076000D03*
X44831000Y-98425000D03*
X46482000Y-98425000D03*
X48387000Y-98425000D03*
X46990000Y-115443000D03*
X45466000Y-115570000D03*
X45466000Y-117221000D03*
X45339000Y-118999000D03*
X45339000Y-120650000D03*
X46990000Y-120523000D03*
X46990000Y-118999000D03*
X46990000Y-117221000D03*
X48387000Y-117221000D03*
X48387000Y-118999000D03*
X53289200Y-137972800D03*
X53035200Y-142544800D03*
X52832000Y-144068800D03*
X93167200Y-124256800D03*
X203708000Y-140208000D03*
X202184000Y-140208000D03*
X200660000Y-140716000D03*
X200152000Y-142240000D03*
X201676000Y-144272000D03*
X125095000Y-85090000D03*
X147193000Y-85090000D03*
X102108000Y-112776000D03*
X90528030Y-121448481D03*
X122555000Y-84074000D03*
X147193000Y-84074000D03*
X90587973Y-120650718D03*
X100939600Y-112725200D03*
X120015000Y-83058000D03*
X147193000Y-83058000D03*
X72441761Y-128290680D03*
X99364800Y-112826800D03*
X90674858Y-119837200D03*
X73406000Y-119837200D03*
X117475000Y-82042000D03*
X147193000Y-82042000D03*
X71348265Y-129780278D03*
X98094800Y-112725200D03*
X90772095Y-118922800D03*
X75336400Y-118922800D03*
X114935000Y-81026000D03*
X147193000Y-81026000D03*
X96672400Y-112826800D03*
X91009019Y-117957600D03*
X76708000Y-117957600D03*
X75895200Y-122732800D03*
X112395000Y-80010000D03*
X147193000Y-80010000D03*
X73990971Y-130397643D03*
X95554800Y-112776000D03*
X91075669Y-117094000D03*
X77571600Y-117094000D03*
X109855000Y-78994000D03*
X147193000Y-78994000D03*
X94234000Y-112877600D03*
X90717940Y-116230400D03*
X79908400Y-116230400D03*
X77520800Y-128524000D03*
X107315000Y-77978000D03*
X147193000Y-77978000D03*
X92760800Y-112877600D03*
X90359871Y-115316000D03*
X80714503Y-125228103D03*
X80721200Y-115316000D03*
X104775000Y-76962000D03*
X147193000Y-76962000D03*
X91440000Y-112928400D03*
X83670206Y-142240000D03*
X88595200Y-143154400D03*
X116738400Y-143510000D03*
X102235000Y-75946000D03*
X147193000Y-75946000D03*
X90017600Y-112928400D03*
X83495025Y-140208000D03*
X115620800Y-137109200D03*
X163525200Y-135382000D03*
X114249200Y-142189200D03*
X88036400Y-140208000D03*
X99695000Y-74930000D03*
X147193000Y-74930000D03*
X88646000Y-112776000D03*
X82516142Y-141173200D03*
X155205444Y-133634120D03*
X108000800Y-137261600D03*
X87528400Y-141173200D03*
X107086400Y-142849600D03*
X97155000Y-73914000D03*
X147193000Y-73914000D03*
X87532438Y-137980104D03*
X86207600Y-112725200D03*
X83566000Y-137160000D03*
X160731916Y-134935426D03*
X113030000Y-137109200D03*
X111861600Y-139242800D03*
X94615000Y-72771000D03*
X147193000Y-72898000D03*
X87630000Y-111353600D03*
X83464400Y-114452400D03*
X83464400Y-131319511D03*
X92075000Y-71755000D03*
X147193000Y-71755000D03*
X83616800Y-135836001D03*
X85293200Y-112115600D03*
X89001600Y-138125200D03*
X119684800Y-139192000D03*
X89535000Y-70739000D03*
X147193000Y-70612000D03*
X88646000Y-102717600D03*
X85039200Y-106273600D03*
X82702400Y-113639600D03*
X82550000Y-131419600D03*
X86995000Y-69723000D03*
X147193000Y-69596000D03*
X84429600Y-112776000D03*
X80772000Y-133350000D03*
X84455000Y-68707000D03*
X147193000Y-68580000D03*
X77520800Y-106273600D03*
X179425600Y-119532400D03*
X151942800Y-100736400D03*
X151948621Y-67564000D03*
X81915000Y-67691000D03*
X147193000Y-67564000D03*
X68935600Y-113436400D03*
X68021200Y-117754400D03*
X65532000Y-117856000D03*
X61976000Y-128422400D03*
X79248000Y-66675000D03*
X147193000Y-66548000D03*
X79298800Y-100634800D03*
X178104800Y-121107200D03*
X149961600Y-100838000D03*
X150063200Y-65351002D03*
X76835000Y-65659000D03*
X147193000Y-65532000D03*
X70205600Y-105257600D03*
X61061600Y-128422400D03*
X74041000Y-64643000D03*
X147193000Y-64516000D03*
X74015600Y-99822000D03*
X181152800Y-118313200D03*
X154178000Y-100584000D03*
X154393560Y-63500000D03*
X71628000Y-63627000D03*
X147193000Y-63500000D03*
X71628000Y-99009200D03*
X69189600Y-62585600D03*
X147218400Y-62484000D03*
X67970400Y-112217200D03*
X67462400Y-129032000D03*
X66497200Y-61620400D03*
X147218400Y-61518800D03*
X66497200Y-110896400D03*
X64058800Y-60553600D03*
X147167600Y-60553600D03*
X180238400Y-118872000D03*
X153009600Y-100787200D03*
X153436503Y-59588400D03*
X61620400Y-59588400D03*
X147167600Y-59588400D03*
X61366400Y-106984800D03*
X61468000Y-111404400D03*
X63449200Y-122732800D03*
X58978800Y-58674000D03*
X147116800Y-58674000D03*
X58978800Y-104597200D03*
X58928000Y-108508800D03*
X177393600Y-121920000D03*
X148996400Y-100736400D03*
X56489600Y-57759600D03*
X147167600Y-57759600D03*
X62585600Y-110286800D03*
X65379600Y-111760000D03*
X70053200Y-122428000D03*
X70967600Y-125679200D03*
X53949600Y-56845200D03*
X178765200Y-120294400D03*
X150977600Y-100736400D03*
X150532733Y-56845200D03*
X55321200Y-127812800D03*
X111861600Y-112928400D03*
X100330000Y-124352458D03*
X131064000Y-92354400D03*
X134010400Y-92354400D03*
X110744000Y-112928400D03*
X99517200Y-124663200D03*
X135026400Y-91287600D03*
X130816236Y-91293836D03*
X98948979Y-124046706D03*
X109677200Y-112928400D03*
X96946128Y-122752528D03*
X130663836Y-90176236D03*
X135890000Y-90220800D03*
X108102400Y-112826800D03*
X94894400Y-129133600D03*
X90474800Y-131216400D03*
X85994468Y-139118990D03*
X89306400Y-140360400D03*
X82346800Y-138074400D03*
X79908400Y-129184400D03*
X81737200Y-112572800D03*
X81737200Y-125323600D03*
X130378200Y-89281000D03*
X137007600Y-89204800D03*
X106781600Y-112826800D03*
X90504920Y-129919249D03*
X94081600Y-137922000D03*
X97078800Y-137219030D03*
X130263880Y-88125320D03*
X138125200Y-88188800D03*
X91615330Y-132790844D03*
X105511600Y-112826800D03*
X89632279Y-131823793D03*
X90585352Y-136527232D03*
X140614400Y-87223600D03*
X129904502Y-87214698D03*
X89086667Y-134745570D03*
X104444800Y-112674400D03*
X99618800Y-138167788D03*
X127635000Y-86207600D03*
X140665200Y-86309200D03*
X103174800Y-112776000D03*
X88456486Y-133375772D03*
X102870000Y-137820400D03*
X91287600Y-136144000D03*
X216103200Y-91440000D03*
X200507600Y-99517200D03*
X126695200Y-99568000D03*
X217220800Y-88900000D03*
X201371200Y-98450400D03*
X127914400Y-98501200D03*
X218440000Y-86410800D03*
X213563200Y-86461600D03*
X128778000Y-97383600D03*
X213766400Y-84836000D03*
X129946400Y-96367600D03*
X220014800Y-84836000D03*
X218744800Y-93268800D03*
X173532800Y-136042400D03*
X124764800Y-137922000D03*
X158089600Y-134112000D03*
X221996000Y-81330800D03*
X110490000Y-137210800D03*
X218287600Y-81381600D03*
X130962400Y-95300800D03*
X132029200Y-94284800D03*
X130556000Y-132943600D03*
X105460800Y-137058400D03*
D36*
X92710000Y-125730000D02*
X92710000Y-129743200D01*
X95758000Y-132537200D02*
X94386400Y-132537200D01*
X95859600Y-132435600D02*
X95758000Y-132537200D01*
X94437200Y-131064000D02*
X95859600Y-131064000D01*
X94386400Y-131114800D02*
X94437200Y-131064000D01*
X92710000Y-129743200D02*
X92100400Y-130352800D01*
D37*
X220472000Y-125095000D02*
X222504000Y-125095000D01*
X224536000Y-125095000D02*
X226568000Y-125095000D01*
X45720000Y-125690000D02*
X45720000Y-127889000D01*
X57150000Y-130810000D02*
X54991000Y-130810000D01*
X52959000Y-127000000D02*
X52959000Y-125222000D01*
X52959000Y-130683000D02*
X52959000Y-129032000D01*
X53086000Y-130810000D02*
X52959000Y-130683000D01*
X58928000Y-140502000D02*
X58928000Y-139065000D01*
X58547000Y-137287000D02*
X57404000Y-137287000D01*
X58674000Y-137414000D02*
X58547000Y-137287000D01*
X58928000Y-139065000D02*
X58674000Y-138811000D01*
D36*
X80264000Y-143459200D02*
X81330800Y-143459200D01*
D37*
X78740000Y-137160000D02*
X79908400Y-138328400D01*
D36*
X81330800Y-143459200D02*
X81534000Y-143256000D01*
D37*
X138430000Y-138430000D02*
X135890000Y-138430000D01*
X133858000Y-138430000D02*
X132080000Y-138430000D01*
X172720000Y-142240000D02*
X171958000Y-142240000D01*
X169926000Y-142875000D02*
X168783000Y-142875000D01*
X171958000Y-142240000D02*
X171323000Y-142875000D01*
X233172000Y-110530000D02*
X233172000Y-108966000D01*
X234442000Y-101854000D02*
X234442000Y-100457000D01*
X234442000Y-105029000D02*
X234442000Y-103505000D01*
X234442000Y-108966000D02*
X234442000Y-106807000D01*
X227330000Y-99060000D02*
X231140000Y-99060000D01*
X232918000Y-101854000D02*
X232918000Y-100457000D01*
X232918000Y-105029000D02*
X232918000Y-103505000D01*
X231267000Y-106680000D02*
X232918000Y-106680000D01*
X231267000Y-103632000D02*
X231267000Y-105029000D01*
X231267000Y-100711000D02*
X231267000Y-102108000D01*
X227330000Y-96520000D02*
X224790000Y-96520000D01*
X224663000Y-101727000D02*
X224663000Y-100203000D01*
X223012000Y-103378000D02*
X224663000Y-103378000D01*
X223012000Y-100076000D02*
X223012000Y-101727000D01*
X221361000Y-98298000D02*
X223012000Y-98298000D01*
X221361000Y-101727000D02*
X221361000Y-100076000D01*
X219710000Y-103378000D02*
X221361000Y-103378000D01*
X219710000Y-99949000D02*
X219710000Y-101727000D01*
X219710000Y-96520000D02*
X219710000Y-98298000D01*
X223012000Y-96520000D02*
X221234000Y-96520000D01*
X158369000Y-48260000D02*
X159766000Y-48260000D01*
X161036000Y-48260000D02*
X162433000Y-48260000D01*
X154940000Y-48260000D02*
X156972000Y-48260000D01*
X163703000Y-48260000D02*
X164973000Y-48260000D01*
X52070000Y-60325000D02*
X48006000Y-60325000D01*
X47625000Y-66040000D02*
X47625000Y-64262000D01*
X45974000Y-68199000D02*
X47625000Y-68199000D01*
X46101000Y-64262000D02*
X46101000Y-66040000D01*
X44323000Y-62103000D02*
X46101000Y-62103000D01*
X44196000Y-62230000D02*
X44323000Y-62103000D01*
X44196000Y-66040000D02*
X44196000Y-64135000D01*
X42545000Y-68072000D02*
X44196000Y-68072000D01*
X42545000Y-64135000D02*
X42545000Y-66040000D01*
X42545000Y-60325000D02*
X42545000Y-62230000D01*
X46101000Y-60325000D02*
X44450000Y-60325000D01*
X47091600Y-77216000D02*
X45466000Y-77216000D01*
X45466000Y-82296000D02*
X45466000Y-84074000D01*
X45466000Y-79121000D02*
X45466000Y-80772000D01*
X52070000Y-98425000D02*
X48387000Y-98425000D01*
X48260000Y-99949000D02*
X48260000Y-101727000D01*
X46482000Y-101727000D02*
X46482000Y-99949000D01*
X44958000Y-103505000D02*
X46482000Y-103505000D01*
X44831000Y-103378000D02*
X44958000Y-103505000D01*
X44831000Y-100076000D02*
X44831000Y-101727000D01*
X46482000Y-98425000D02*
X44831000Y-98425000D01*
X46990000Y-113498000D02*
X46990000Y-115443000D01*
X45466000Y-115570000D02*
X45466000Y-117221000D01*
X45339000Y-118999000D02*
X45339000Y-120650000D01*
X46990000Y-120523000D02*
X46990000Y-118999000D01*
X46990000Y-117221000D02*
X48387000Y-117221000D01*
X48387000Y-118999000D02*
X48260000Y-119126000D01*
X48260000Y-119126000D02*
X48260000Y-120523000D01*
X52832000Y-144068800D02*
X52832000Y-142748000D01*
X52832000Y-142748000D02*
X53035200Y-142544800D01*
X203875000Y-142875000D02*
X203073000Y-142875000D01*
X202184000Y-140208000D02*
X203708000Y-140208000D01*
X200660000Y-141732000D02*
X200660000Y-140716000D01*
X200152000Y-142240000D02*
X200660000Y-141732000D01*
X203073000Y-142875000D02*
X201676000Y-144272000D01*
D38*
X58928000Y-143002000D02*
X58547000Y-143002000D01*
X58547000Y-143002000D02*
X55499000Y-139954000D01*
X42545000Y-132080000D02*
X42545000Y-125095000D01*
X50419000Y-139954000D02*
X42545000Y-132080000D01*
X55499000Y-139954000D02*
X50419000Y-139954000D01*
X139700000Y-144780000D02*
X60706000Y-144780000D01*
X60706000Y-144780000D02*
X58928000Y-143002000D01*
D37*
X66040000Y-139700000D02*
X66040000Y-139954000D01*
X66040000Y-139954000D02*
X62992000Y-143002000D01*
X62992000Y-143002000D02*
X58928000Y-143002000D01*
D38*
X233172000Y-113030000D02*
X234315000Y-113030000D01*
X226655000Y-50760000D02*
X154940000Y-50760000D01*
X236220000Y-60325000D02*
X226655000Y-50760000D01*
X236220000Y-111125000D02*
X236220000Y-60325000D01*
X234315000Y-113030000D02*
X236220000Y-111125000D01*
X229616000Y-113030000D02*
X233172000Y-113030000D01*
X205105000Y-125095000D02*
X205105000Y-122555000D01*
X229870000Y-113030000D02*
X229616000Y-113030000D01*
X229616000Y-113030000D02*
X227330000Y-113030000D01*
X231267000Y-114427000D02*
X229870000Y-113030000D01*
X231267000Y-119380000D02*
X231267000Y-114427000D01*
X229362000Y-121285000D02*
X231267000Y-119380000D01*
X206375000Y-121285000D02*
X229362000Y-121285000D01*
X205105000Y-122555000D02*
X206375000Y-121285000D01*
X46990000Y-110998000D02*
X45212000Y-110998000D01*
X45212000Y-110998000D02*
X42545000Y-113665000D01*
X52070000Y-111125000D02*
X47117000Y-111125000D01*
X47117000Y-111125000D02*
X46990000Y-110998000D01*
X42545000Y-113792000D02*
X42545000Y-113665000D01*
X42545000Y-114300000D02*
X42545000Y-113792000D01*
X42545000Y-125095000D02*
X42545000Y-114300000D01*
X42545000Y-113665000D02*
X42545000Y-75565000D01*
X42545000Y-75565000D02*
X45720000Y-72390000D01*
X45720000Y-72390000D02*
X47091600Y-72390000D01*
X47091600Y-72390000D02*
X51435000Y-72390000D01*
X51435000Y-72390000D02*
X52070000Y-73025000D01*
X52070000Y-116205000D02*
X52070000Y-118745000D01*
X52070000Y-113665000D02*
X52070000Y-116205000D01*
X52070000Y-111125000D02*
X52070000Y-113665000D01*
X52070000Y-108585000D02*
X52070000Y-111125000D01*
X196850000Y-144145000D02*
X196850000Y-143510000D01*
X196850000Y-143510000D02*
X194945000Y-141605000D01*
X193675000Y-144780000D02*
X193675000Y-144145000D01*
X192405000Y-142875000D02*
X192405000Y-141605000D01*
X193675000Y-144145000D02*
X192405000Y-142875000D01*
X191770000Y-144780000D02*
X189865000Y-142875000D01*
X189865000Y-142875000D02*
X189865000Y-141605000D01*
X189230000Y-144780000D02*
X187325000Y-142875000D01*
X187325000Y-142875000D02*
X187325000Y-141605000D01*
X187325000Y-144780000D02*
X186690000Y-144780000D01*
X184785000Y-142875000D02*
X184785000Y-141605000D01*
X186690000Y-144780000D02*
X184785000Y-142875000D01*
X184150000Y-144780000D02*
X182245000Y-142875000D01*
X182245000Y-142875000D02*
X182245000Y-141605000D01*
X180975000Y-144780000D02*
X179705000Y-143510000D01*
X179705000Y-143510000D02*
X179705000Y-141605000D01*
X138430000Y-140930000D02*
X125770000Y-140930000D01*
X125770000Y-140930000D02*
X125730000Y-140970000D01*
X140970000Y-144780000D02*
X139700000Y-144780000D01*
X138430000Y-143510000D02*
X138430000Y-140930000D01*
X139700000Y-144780000D02*
X138430000Y-143510000D01*
X175220000Y-142240000D02*
X175220000Y-139105000D01*
X175220000Y-139105000D02*
X175260000Y-139065000D01*
X177165000Y-144780000D02*
X176530000Y-144780000D01*
X175220000Y-143470000D02*
X175220000Y-142240000D01*
X176530000Y-144780000D02*
X175220000Y-143470000D01*
X45720000Y-123190000D02*
X49530000Y-123190000D01*
X42545000Y-125095000D02*
X42545000Y-124460000D01*
X42545000Y-124460000D02*
X43815000Y-123190000D01*
X43815000Y-123190000D02*
X45720000Y-123190000D01*
X52070000Y-70485000D02*
X52070000Y-67945000D01*
X52070000Y-73025000D02*
X52070000Y-70485000D01*
X52070000Y-75565000D02*
X52070000Y-78105000D01*
X52070000Y-73025000D02*
X52070000Y-75565000D01*
X51435000Y-72390000D02*
X52070000Y-73025000D01*
X202565000Y-133350000D02*
X200025000Y-133350000D01*
X196215000Y-144780000D02*
X193675000Y-144780000D01*
X193675000Y-144780000D02*
X191770000Y-144780000D01*
X191770000Y-144780000D02*
X189230000Y-144780000D01*
X189230000Y-144780000D02*
X187325000Y-144780000D01*
X187325000Y-144780000D02*
X184150000Y-144780000D01*
X184150000Y-144780000D02*
X180975000Y-144780000D01*
X180975000Y-144780000D02*
X177165000Y-144780000D01*
X177165000Y-144780000D02*
X140970000Y-144780000D01*
X198120000Y-142875000D02*
X196850000Y-144145000D01*
X196850000Y-144145000D02*
X196215000Y-144780000D01*
X198120000Y-135255000D02*
X198120000Y-142875000D01*
X200025000Y-133350000D02*
X198120000Y-135255000D01*
X154940000Y-50760000D02*
X153075000Y-50760000D01*
X153075000Y-50760000D02*
X152400000Y-51435000D01*
X152400000Y-51435000D02*
X147955000Y-51435000D01*
X147955000Y-54610000D02*
X147955000Y-52070000D01*
X147955000Y-52070000D02*
X147955000Y-51435000D01*
X147955000Y-51435000D02*
X147955000Y-48895000D01*
X227330000Y-109220000D02*
X227330000Y-106680000D01*
X227330000Y-111760000D02*
X227330000Y-109220000D01*
X227330000Y-114300000D02*
X227330000Y-113030000D01*
X227330000Y-113030000D02*
X227330000Y-111760000D01*
X227330000Y-116840000D02*
X227330000Y-114300000D01*
X227330000Y-119380000D02*
X227330000Y-116840000D01*
X202565000Y-133350000D02*
X202565000Y-129540000D01*
X202565000Y-125095000D02*
X205105000Y-125095000D01*
X201295000Y-126365000D02*
X202565000Y-125095000D01*
X201295000Y-128270000D02*
X201295000Y-126365000D01*
X202565000Y-129540000D02*
X201295000Y-128270000D01*
X208279480Y-137797540D02*
X208279480Y-134619480D01*
X207010000Y-133350000D02*
X202565000Y-133350000D01*
X208279480Y-134619480D02*
X207010000Y-133350000D01*
X206375000Y-142875000D02*
X206375000Y-139702020D01*
X206375000Y-139702020D02*
X208279480Y-137797540D01*
X210820000Y-142240000D02*
X208280000Y-142240000D01*
X207645000Y-142875000D02*
X206375000Y-142875000D01*
X208280000Y-142240000D02*
X207645000Y-142875000D01*
D37*
X224155000Y-54610000D02*
X224155000Y-56769000D01*
X195834000Y-85090000D02*
X147193000Y-85090000D01*
X224155000Y-56769000D02*
X195834000Y-85090000D01*
D36*
X70002400Y-140817600D02*
X70002400Y-129741072D01*
X68580000Y-142240000D02*
X70002400Y-140817600D01*
X72570999Y-123203329D02*
X74435338Y-121338990D01*
X90138982Y-121338990D02*
X90248473Y-121448481D01*
X74435338Y-121338990D02*
X90138982Y-121338990D01*
X90248473Y-121448481D02*
X90528030Y-121448481D01*
X70002400Y-129741072D02*
X72570999Y-127172473D01*
X72570999Y-127172473D02*
X72570999Y-123203329D01*
D37*
X102108000Y-112623600D02*
X125095000Y-89636600D01*
X125095000Y-89636600D02*
X125095000Y-85090000D01*
X125095000Y-85090000D02*
X125095000Y-54610000D01*
X102108000Y-112776000D02*
X102108000Y-112623600D01*
D36*
X90528030Y-121448481D02*
X90911355Y-121448481D01*
X102070001Y-124930001D02*
X102870000Y-125730000D01*
X98478990Y-121338990D02*
X102070001Y-124930001D01*
X90911355Y-121448481D02*
X91020846Y-121338990D01*
X91020846Y-121338990D02*
X98478990Y-121338990D01*
D39*
X107188000Y-131318000D02*
X102870000Y-127000000D01*
X102870000Y-127000000D02*
X102870000Y-125730000D01*
X128778000Y-131318000D02*
X107188000Y-131318000D01*
X131064000Y-129032000D02*
X128778000Y-131318000D01*
X131064000Y-122428000D02*
X131064000Y-129032000D01*
X131572000Y-121920000D02*
X131064000Y-122428000D01*
X151384000Y-121920000D02*
X131572000Y-121920000D01*
X152400000Y-122936000D02*
X151384000Y-121920000D01*
X152400000Y-123825000D02*
X152400000Y-122936000D01*
D37*
X125095000Y-48895000D02*
X125095000Y-54610000D01*
X221615000Y-54610000D02*
X221615000Y-56769000D01*
X194310000Y-84074000D02*
X147193000Y-84074000D01*
X221615000Y-56769000D02*
X194310000Y-84074000D01*
D36*
X73317560Y-120650718D02*
X90163709Y-120650718D01*
X100330718Y-120650718D02*
X90587973Y-120650718D01*
X68580000Y-139700000D02*
X68580000Y-128611722D01*
X105410000Y-125730000D02*
X100330718Y-120650718D01*
X90163709Y-120650718D02*
X90587973Y-120650718D01*
X68580000Y-128611722D02*
X70030999Y-127160723D01*
X70030999Y-127160723D02*
X70030999Y-123937279D01*
X70030999Y-123937279D02*
X73317560Y-120650718D01*
D37*
X100939600Y-112522000D02*
X122555000Y-90906600D01*
X122555000Y-90906600D02*
X122555000Y-84074000D01*
X122555000Y-84074000D02*
X122555000Y-54610000D01*
X100939600Y-112725200D02*
X100939600Y-112522000D01*
D39*
X109220000Y-130810000D02*
X105410000Y-127000000D01*
X105410000Y-127000000D02*
X105410000Y-125730000D01*
X128524000Y-130810000D02*
X109220000Y-130810000D01*
X130556000Y-128778000D02*
X128524000Y-130810000D01*
X130556000Y-121920000D02*
X130556000Y-128778000D01*
X131064000Y-121412000D02*
X130556000Y-121920000D01*
X154178000Y-121412000D02*
X131064000Y-121412000D01*
X154940000Y-122174000D02*
X154178000Y-121412000D01*
X154940000Y-123825000D02*
X154940000Y-122174000D01*
D37*
X122555000Y-48895000D02*
X122555000Y-54610000D01*
D36*
X103733600Y-119837200D02*
X107950000Y-124053600D01*
X107950000Y-124053600D02*
X107950000Y-125730000D01*
X90674858Y-119837200D02*
X103733600Y-119837200D01*
D37*
X219075000Y-54610000D02*
X219075000Y-56769000D01*
X192786000Y-83058000D02*
X147193000Y-83058000D01*
X219075000Y-56769000D02*
X192786000Y-83058000D01*
D36*
X72441761Y-128714944D02*
X72441761Y-128290680D01*
X72441761Y-140918239D02*
X72441761Y-128714944D01*
X71120000Y-142240000D02*
X72441761Y-140918239D01*
D37*
X99364800Y-112776000D02*
X120015000Y-92125800D01*
X120015000Y-92125800D02*
X120015000Y-83058000D01*
X120015000Y-83058000D02*
X120015000Y-54610000D01*
X99364800Y-112826800D02*
X99364800Y-112776000D01*
D36*
X73406000Y-119837200D02*
X90674858Y-119837200D01*
D39*
X156718000Y-120904000D02*
X157480000Y-121666000D01*
X157480000Y-121666000D02*
X157480000Y-123825000D01*
X130810000Y-120904000D02*
X156718000Y-120904000D01*
X130048000Y-121666000D02*
X130810000Y-120904000D01*
X130048000Y-128524000D02*
X130048000Y-121666000D01*
X128270000Y-130302000D02*
X130048000Y-128524000D01*
X111252000Y-130302000D02*
X128270000Y-130302000D01*
X107950000Y-127000000D02*
X111252000Y-130302000D01*
X107950000Y-125730000D02*
X107950000Y-127000000D01*
D37*
X120015000Y-48895000D02*
X120015000Y-54610000D01*
D40*
X110490000Y-125730000D02*
X110490000Y-127406400D01*
X110490000Y-127406400D02*
X112877600Y-129794000D01*
X112877600Y-129794000D02*
X127000000Y-129794000D01*
X127000000Y-129794000D02*
X128016000Y-129794000D01*
D37*
X216535000Y-54610000D02*
X216535000Y-56642000D01*
X191135000Y-82042000D02*
X147193000Y-82042000D01*
X216535000Y-56642000D02*
X191135000Y-82042000D01*
D36*
X71120000Y-130008543D02*
X71348265Y-129780278D01*
X71120000Y-139700000D02*
X71120000Y-130008543D01*
D37*
X98145600Y-112725200D02*
X117475000Y-93395800D01*
X117475000Y-93395800D02*
X117475000Y-82042000D01*
X117475000Y-82042000D02*
X117475000Y-54610000D01*
X98094800Y-112725200D02*
X98145600Y-112725200D01*
D36*
X90772095Y-118922800D02*
X106222800Y-118922800D01*
X75336400Y-118922800D02*
X90772095Y-118922800D01*
X106222800Y-118922800D02*
X110490000Y-123190000D01*
X110490000Y-123190000D02*
X110490000Y-125730000D01*
D39*
X129540000Y-128270000D02*
X128016000Y-129794000D01*
X129540000Y-121412000D02*
X129540000Y-128270000D01*
X130556000Y-120396000D02*
X129540000Y-121412000D01*
X159004000Y-120396000D02*
X130556000Y-120396000D01*
X160020000Y-121412000D02*
X159004000Y-120396000D01*
X160020000Y-123825000D02*
X160020000Y-121412000D01*
D37*
X117475000Y-48895000D02*
X117475000Y-54610000D01*
D36*
X107950000Y-117957600D02*
X113030000Y-123037600D01*
X113030000Y-123037600D02*
X113030000Y-125730000D01*
X91009019Y-117957600D02*
X107950000Y-117957600D01*
D40*
X117348000Y-129286000D02*
X115062000Y-129286000D01*
X115062000Y-129286000D02*
X113030000Y-127254000D01*
X113030000Y-127254000D02*
X113030000Y-125730000D01*
D37*
X213995000Y-54610000D02*
X213995000Y-56642000D01*
X189611000Y-81026000D02*
X147193000Y-81026000D01*
X213995000Y-56642000D02*
X189611000Y-81026000D01*
X96774000Y-112826800D02*
X114935000Y-94665800D01*
X114935000Y-94665800D02*
X114935000Y-81026000D01*
X114935000Y-81026000D02*
X114935000Y-54610000D01*
X96672400Y-112826800D02*
X96774000Y-112826800D01*
D36*
X76708000Y-117957600D02*
X91009019Y-117957600D01*
X73660000Y-142240000D02*
X74749001Y-141150999D01*
X74749001Y-141150999D02*
X74749001Y-123878999D01*
X74749001Y-123878999D02*
X75895200Y-122732800D01*
D39*
X162052000Y-119888000D02*
X162560000Y-120396000D01*
X162560000Y-120396000D02*
X162560000Y-123825000D01*
X130302000Y-119888000D02*
X162052000Y-119888000D01*
X129032000Y-121158000D02*
X130302000Y-119888000D01*
X129032000Y-128016000D02*
X129032000Y-121158000D01*
X127762000Y-129286000D02*
X129032000Y-128016000D01*
X117348000Y-129286000D02*
X127762000Y-129286000D01*
D37*
X114935000Y-48895000D02*
X114935000Y-54610000D01*
D36*
X109677200Y-117094000D02*
X115570000Y-122986800D01*
X115570000Y-122986800D02*
X115570000Y-125730000D01*
X91075669Y-117094000D02*
X109677200Y-117094000D01*
D37*
X211455000Y-54610000D02*
X211455000Y-57023000D01*
X188468000Y-80010000D02*
X147193000Y-80010000D01*
X211455000Y-57023000D02*
X188468000Y-80010000D01*
D36*
X73660000Y-130728614D02*
X73690972Y-130697642D01*
X73660000Y-139700000D02*
X73660000Y-130728614D01*
X73690972Y-130697642D02*
X73990971Y-130397643D01*
D37*
X95554800Y-112725200D02*
X112395000Y-95885000D01*
X112395000Y-95885000D02*
X112395000Y-80010000D01*
X112395000Y-80010000D02*
X112395000Y-54610000D01*
X95554800Y-112776000D02*
X95554800Y-112725200D01*
D36*
X77571600Y-117094000D02*
X91075669Y-117094000D01*
D39*
X115570000Y-125730000D02*
X115570000Y-126746000D01*
X165100000Y-120904000D02*
X165100000Y-123825000D01*
X163576000Y-119380000D02*
X165100000Y-120904000D01*
X130048000Y-119380000D02*
X163576000Y-119380000D01*
X128524000Y-120904000D02*
X130048000Y-119380000D01*
X128524000Y-127762000D02*
X128524000Y-120904000D01*
X127508000Y-128778000D02*
X128524000Y-127762000D01*
X117602000Y-128778000D02*
X127508000Y-128778000D01*
X115570000Y-126746000D02*
X117602000Y-128778000D01*
D37*
X112395000Y-48895000D02*
X112395000Y-54610000D01*
X208915000Y-54610000D02*
X208915000Y-56769000D01*
X186690000Y-78994000D02*
X147193000Y-78994000D01*
X208915000Y-56769000D02*
X186690000Y-78994000D01*
X94234000Y-112776000D02*
X109855000Y-97155000D01*
X109855000Y-97155000D02*
X109855000Y-78994000D01*
X109855000Y-78994000D02*
X109855000Y-54610000D01*
X94234000Y-112877600D02*
X94234000Y-112776000D01*
D36*
X90717940Y-116230400D02*
X111006872Y-116230400D01*
X79908400Y-116230400D02*
X90717940Y-116230400D01*
X111006872Y-116230400D02*
X118110000Y-123333528D01*
X118110000Y-123333528D02*
X118110000Y-125730000D01*
X76200000Y-142240000D02*
X77470000Y-140970000D01*
X77470000Y-140970000D02*
X77470000Y-128574800D01*
X77470000Y-128574800D02*
X77520800Y-128524000D01*
D39*
X167640000Y-123825000D02*
X167640000Y-119634000D01*
X118110000Y-127000000D02*
X118110000Y-125730000D01*
X119380000Y-128270000D02*
X118110000Y-127000000D01*
X127254000Y-128270000D02*
X119380000Y-128270000D01*
X128016000Y-127508000D02*
X127254000Y-128270000D01*
X128016000Y-120396000D02*
X128016000Y-127508000D01*
X129593998Y-118818002D02*
X128016000Y-120396000D01*
X166824002Y-118818002D02*
X129593998Y-118818002D01*
X167640000Y-119634000D02*
X166824002Y-118818002D01*
D37*
X109855000Y-48895000D02*
X109855000Y-54610000D01*
D40*
X127394030Y-120154370D02*
X129184400Y-118364000D01*
X129184400Y-118364000D02*
X168656000Y-118364000D01*
X127394030Y-127038430D02*
X127394030Y-120154370D01*
X127394030Y-127367970D02*
X127394030Y-127038430D01*
X127394030Y-127038430D02*
X127392038Y-127036438D01*
X121310400Y-127762000D02*
X120650000Y-127101600D01*
X120650000Y-127101600D02*
X120650000Y-125730000D01*
X123444000Y-127762000D02*
X121310400Y-127762000D01*
D37*
X206375000Y-54610000D02*
X206375000Y-56896000D01*
X185293000Y-77978000D02*
X147193000Y-77978000D01*
X206375000Y-56896000D02*
X185293000Y-77978000D01*
X92811600Y-112877600D02*
X107315000Y-98374200D01*
X107315000Y-98374200D02*
X107315000Y-77978000D01*
X107315000Y-77978000D02*
X107315000Y-54610000D01*
X92760800Y-112877600D02*
X92811600Y-112877600D01*
D36*
X90359871Y-115316000D02*
X112877600Y-115316000D01*
X80721200Y-115316000D02*
X90359871Y-115316000D01*
X80290239Y-125228103D02*
X80714503Y-125228103D01*
X79969341Y-125549001D02*
X80290239Y-125228103D01*
X78579277Y-125549001D02*
X79969341Y-125549001D01*
X77289001Y-127522721D02*
X77289001Y-126839277D01*
X76200000Y-139700000D02*
X76200000Y-128611722D01*
X77289001Y-126839277D02*
X78579277Y-125549001D01*
X76200000Y-128611722D02*
X77289001Y-127522721D01*
X112877600Y-115316000D02*
X120650000Y-123088400D01*
X120650000Y-123088400D02*
X120650000Y-125730000D01*
D39*
X123444000Y-127762000D02*
X127000000Y-127762000D01*
X127000000Y-127762000D02*
X127394030Y-127367970D01*
X168656000Y-118364000D02*
X170180000Y-119888000D01*
X170180000Y-119888000D02*
X170180000Y-123825000D01*
D37*
X107315000Y-48895000D02*
X107315000Y-54610000D01*
X203835000Y-54610000D02*
X203835000Y-56769000D01*
X183642000Y-76962000D02*
X147193000Y-76962000D01*
X203835000Y-56769000D02*
X183642000Y-76962000D01*
X91440000Y-112928400D02*
X104775000Y-99593400D01*
X104775000Y-99593400D02*
X104775000Y-76962000D01*
X104775000Y-76962000D02*
X104775000Y-54610000D01*
D36*
X83670206Y-142240000D02*
X87680800Y-142240000D01*
X78740000Y-142240000D02*
X83670206Y-142240000D01*
X87680800Y-142240000D02*
X88595200Y-143154400D01*
X116738400Y-143510000D02*
X118110000Y-142138400D01*
X118110000Y-142138400D02*
X118110000Y-140970000D01*
D40*
X121005600Y-136753600D02*
X118110000Y-139649200D01*
X118110000Y-139649200D02*
X118110000Y-140970000D01*
X139496800Y-136753600D02*
X121005600Y-136753600D01*
X140817600Y-138074400D02*
X139496800Y-136753600D01*
X140817600Y-140512800D02*
X140817600Y-138074400D01*
X141427200Y-141122400D02*
X140817600Y-140512800D01*
X166725600Y-141122400D02*
X141427200Y-141122400D01*
X167640000Y-140208000D02*
X166725600Y-141122400D01*
X167640000Y-139065000D02*
X167640000Y-140208000D01*
D37*
X104775000Y-48895000D02*
X104775000Y-54610000D01*
X201295000Y-54610000D02*
X201295000Y-56896000D01*
X182245000Y-75946000D02*
X147193000Y-75946000D01*
X201295000Y-56896000D02*
X182245000Y-75946000D01*
X90017600Y-112877600D02*
X102235000Y-100660200D01*
X102235000Y-100660200D02*
X102235000Y-75946000D01*
X102235000Y-75946000D02*
X102235000Y-54610000D01*
X90017600Y-112928400D02*
X90017600Y-112877600D01*
D36*
X83495025Y-140208000D02*
X81788000Y-140208000D01*
X88036400Y-140208000D02*
X83495025Y-140208000D01*
X81788000Y-140208000D02*
X81280000Y-139700000D01*
D40*
X115570000Y-140970000D02*
X115570000Y-137160000D01*
X115570000Y-137160000D02*
X115620800Y-137109200D01*
X163525200Y-135382000D02*
X165100000Y-136956800D01*
X165100000Y-136956800D02*
X165100000Y-139065000D01*
D36*
X114249200Y-142189200D02*
X115468400Y-140970000D01*
D40*
X115468400Y-140970000D02*
X115570000Y-140970000D01*
D37*
X102235000Y-48895000D02*
X102235000Y-54610000D01*
X198755000Y-54610000D02*
X198755000Y-56896000D01*
X99695000Y-74930000D02*
X99695000Y-75057000D01*
X180721000Y-74930000D02*
X147193000Y-74930000D01*
X198755000Y-56896000D02*
X180721000Y-74930000D01*
X88747600Y-112776000D02*
X99695000Y-101828600D01*
X99695000Y-101828600D02*
X99695000Y-75057000D01*
X99695000Y-75057000D02*
X99695000Y-54610000D01*
X88646000Y-112776000D02*
X88747600Y-112776000D01*
D36*
X82516142Y-141173200D02*
X87528400Y-141173200D01*
X80314800Y-141173200D02*
X82516142Y-141173200D01*
D40*
X155505443Y-133934119D02*
X155205444Y-133634120D01*
X157480000Y-139065000D02*
X157480000Y-135908676D01*
X157480000Y-135908676D02*
X155505443Y-133934119D01*
X107950000Y-140970000D02*
X107950000Y-137312400D01*
X107950000Y-137312400D02*
X108000800Y-137261600D01*
D37*
X78740000Y-139700000D02*
X78841600Y-139700000D01*
D36*
X78841600Y-139700000D02*
X80314800Y-141173200D01*
X107086400Y-142849600D02*
X107950000Y-141986000D01*
X107950000Y-141986000D02*
X107950000Y-140970000D01*
X78740000Y-139700000D02*
X78740000Y-140004800D01*
X107950000Y-141173200D02*
X107950000Y-140970000D01*
D37*
X99695000Y-48895000D02*
X99695000Y-54610000D01*
X196215000Y-54610000D02*
X196215000Y-56515000D01*
X178816000Y-73914000D02*
X147193000Y-73914000D01*
X196215000Y-56515000D02*
X178816000Y-73914000D01*
D36*
X87232439Y-137680105D02*
X87532438Y-137980104D01*
X86712334Y-137160000D02*
X87232439Y-137680105D01*
X83566000Y-137160000D02*
X86712334Y-137160000D01*
D37*
X87477600Y-112725200D02*
X97155000Y-103047800D01*
X97155000Y-103047800D02*
X97155000Y-73914000D01*
X97155000Y-73914000D02*
X97155000Y-54610000D01*
X86207600Y-112725200D02*
X87477600Y-112725200D01*
D36*
X81280000Y-137160000D02*
X83566000Y-137160000D01*
D40*
X162560000Y-136763510D02*
X161031915Y-135235425D01*
X162560000Y-139065000D02*
X162560000Y-136763510D01*
X161031915Y-135235425D02*
X160731916Y-134935426D01*
X113030000Y-140970000D02*
X113030000Y-137109200D01*
D36*
X111861600Y-139242800D02*
X113030000Y-140411200D01*
D40*
X113030000Y-140411200D02*
X113030000Y-140970000D01*
D37*
X97155000Y-48895000D02*
X97155000Y-54610000D01*
D36*
X83464400Y-114452400D02*
X114350800Y-114452400D01*
X114350800Y-114452400D02*
X123190000Y-123291600D01*
X123190000Y-123291600D02*
X123190000Y-125730000D01*
D40*
X126940028Y-119846372D02*
X128930400Y-117856000D01*
X128930400Y-117856000D02*
X171450000Y-117856000D01*
X126940028Y-127059972D02*
X126940028Y-119846372D01*
D37*
X193675000Y-54610000D02*
X193675000Y-56642000D01*
X177419000Y-72898000D02*
X147193000Y-72898000D01*
X193675000Y-56642000D02*
X177419000Y-72898000D01*
X87630000Y-111099600D02*
X94615000Y-104114600D01*
X94615000Y-104114600D02*
X94615000Y-72771000D01*
X94615000Y-72771000D02*
X94615000Y-54610000D01*
X87630000Y-111353600D02*
X87630000Y-111099600D01*
D36*
X81280000Y-134620000D02*
X83464400Y-132435600D01*
X83464400Y-132435600D02*
X83464400Y-131319511D01*
D39*
X123190000Y-125730000D02*
X123190000Y-126492000D01*
X123190000Y-126492000D02*
X123952000Y-127254000D01*
X123952000Y-127254000D02*
X126746000Y-127254000D01*
X126746000Y-127254000D02*
X126940028Y-127059972D01*
X171450000Y-117856000D02*
X172720000Y-119126000D01*
X172720000Y-119126000D02*
X172720000Y-123825000D01*
D37*
X94615000Y-48895000D02*
X94615000Y-54610000D01*
X191135000Y-54610000D02*
X191135000Y-56261000D01*
X175641000Y-71755000D02*
X147193000Y-71755000D01*
X191135000Y-56261000D02*
X175641000Y-71755000D01*
X92075000Y-54610000D02*
X92075000Y-71755000D01*
X92075000Y-71755000D02*
X92075000Y-105333800D01*
X85293200Y-112115600D02*
X92075000Y-105333800D01*
D36*
X86712401Y-135836001D02*
X89001600Y-138125200D01*
X83616800Y-135836001D02*
X86712401Y-135836001D01*
X119684800Y-139192000D02*
X120650000Y-140157200D01*
X78740000Y-134620000D02*
X79956001Y-135836001D01*
X79956001Y-135836001D02*
X83616800Y-135836001D01*
D40*
X120650000Y-140157200D02*
X120650000Y-140970000D01*
X169011600Y-141782800D02*
X170180000Y-140614400D01*
X170180000Y-140614400D02*
X170180000Y-139065000D01*
X140563600Y-141782800D02*
X169011600Y-141782800D01*
X140360400Y-141579600D02*
X140563600Y-141782800D01*
X140360400Y-138328400D02*
X140360400Y-141579600D01*
X139242800Y-137210800D02*
X140360400Y-138328400D01*
X123596400Y-137210800D02*
X139242800Y-137210800D01*
X120650000Y-140157200D02*
X123596400Y-137210800D01*
X120650000Y-140970000D02*
X120650000Y-140157200D01*
D37*
X92075000Y-48895000D02*
X92075000Y-54610000D01*
D40*
X125730000Y-120345200D02*
X128727200Y-117348000D01*
X128727200Y-117348000D02*
X171704000Y-117348000D01*
X125730000Y-123291873D02*
X125730000Y-120345200D01*
D37*
X188595000Y-54610000D02*
X188595000Y-56769000D01*
X174752000Y-70612000D02*
X147193000Y-70612000D01*
X188595000Y-56769000D02*
X174752000Y-70612000D01*
X88646000Y-102717600D02*
X89535000Y-101828600D01*
X89535000Y-101828600D02*
X89535000Y-70739000D01*
X89535000Y-70739000D02*
X89535000Y-54610000D01*
X82702400Y-113639600D02*
X82702400Y-108610400D01*
X82702400Y-108610400D02*
X85039200Y-106273600D01*
D39*
X125730000Y-125730000D02*
X125730000Y-123291873D01*
D36*
X82702400Y-113639600D02*
X116077727Y-113639600D01*
X116077727Y-113639600D02*
X125730000Y-123291873D01*
X81889600Y-132080000D02*
X82550000Y-131419600D01*
X81280000Y-132080000D02*
X81889600Y-132080000D01*
D39*
X175260000Y-120904000D02*
X175260000Y-123825000D01*
X171704000Y-117348000D02*
X175260000Y-120904000D01*
D37*
X89535000Y-48895000D02*
X89535000Y-54610000D01*
X186055000Y-54610000D02*
X186055000Y-56642000D01*
X173101000Y-69596000D02*
X147193000Y-69596000D01*
X186055000Y-56642000D02*
X173101000Y-69596000D01*
X84429600Y-109372400D02*
X86995000Y-106807000D01*
X86995000Y-106807000D02*
X86995000Y-69723000D01*
X86995000Y-69723000D02*
X86995000Y-54610000D01*
X84429600Y-112776000D02*
X84429600Y-109372400D01*
D36*
X78740000Y-132842000D02*
X79248000Y-133350000D01*
X79248000Y-133350000D02*
X80772000Y-133350000D01*
X78740000Y-132080000D02*
X78740000Y-132842000D01*
D37*
X86995000Y-48895000D02*
X86995000Y-54610000D01*
X183515000Y-54610000D02*
X183515000Y-56388000D01*
X171323000Y-68580000D02*
X147193000Y-68580000D01*
X183515000Y-56388000D02*
X171323000Y-68580000D01*
X79146400Y-106273600D02*
X84455000Y-100965000D01*
X84455000Y-100965000D02*
X84455000Y-68707000D01*
X84455000Y-68707000D02*
X84455000Y-54610000D01*
X77520800Y-106273600D02*
X79146400Y-106273600D01*
X84455000Y-48895000D02*
X84455000Y-54610000D01*
X164185600Y-113487200D02*
X173380400Y-113487200D01*
X173380400Y-113487200D02*
X179425600Y-119532400D01*
X151942800Y-101244400D02*
X164185600Y-113487200D01*
X151942800Y-100736400D02*
X151942800Y-101244400D01*
X151948621Y-67564000D02*
X147193000Y-67564000D01*
X169926000Y-67564000D02*
X151948621Y-67564000D01*
X180975000Y-54610000D02*
X180975000Y-56515000D01*
X180975000Y-56515000D02*
X169926000Y-67564000D01*
X68935600Y-113436400D02*
X81915000Y-100457000D01*
X81915000Y-100457000D02*
X81915000Y-67691000D01*
X81915000Y-67691000D02*
X81915000Y-54610000D01*
X65532000Y-117856000D02*
X65633600Y-117754400D01*
X65633600Y-117754400D02*
X68021200Y-117754400D01*
X63296800Y-134620000D02*
X61976000Y-133299200D01*
X61976000Y-133299200D02*
X61976000Y-128422400D01*
X63500000Y-134620000D02*
X63296800Y-134620000D01*
X81915000Y-48895000D02*
X81915000Y-54610000D01*
X178435000Y-54610000D02*
X178435000Y-56388000D01*
X168275000Y-66548000D02*
X147193000Y-66548000D01*
X178435000Y-56388000D02*
X168275000Y-66548000D01*
X79248000Y-66675000D02*
X79298800Y-66675000D01*
X79298800Y-66675000D02*
X79248000Y-66675000D01*
X79248000Y-66675000D02*
X79298800Y-66675000D01*
X79298800Y-100634800D02*
X79298800Y-66675000D01*
X79298800Y-66675000D02*
X79298800Y-54686200D01*
X79298800Y-54686200D02*
X79375000Y-54610000D01*
X79375000Y-48895000D02*
X79375000Y-54610000D01*
X163372800Y-115519200D02*
X172516800Y-115519200D01*
X172516800Y-115519200D02*
X178104800Y-121107200D01*
X149961600Y-102108000D02*
X163372800Y-115519200D01*
X149961600Y-100838000D02*
X149961600Y-102108000D01*
X150063200Y-65532000D02*
X150063200Y-65351002D01*
X175895000Y-54610000D02*
X175895000Y-56261000D01*
X166624000Y-65532000D02*
X150063200Y-65532000D01*
X150063200Y-65532000D02*
X147193000Y-65532000D01*
X175895000Y-56261000D02*
X166624000Y-65532000D01*
X71678800Y-105257600D02*
X76835000Y-100101400D01*
X76835000Y-100101400D02*
X76835000Y-65659000D01*
X76835000Y-65659000D02*
X76835000Y-54610000D01*
X70205600Y-105257600D02*
X71678800Y-105257600D01*
X63500000Y-136499600D02*
X61061600Y-134061200D01*
X61061600Y-134061200D02*
X61061600Y-128422400D01*
X63500000Y-137160000D02*
X63500000Y-136499600D01*
X76835000Y-48895000D02*
X76835000Y-54610000D01*
X173355000Y-54610000D02*
X173355000Y-56261000D01*
X165100000Y-64516000D02*
X147193000Y-64516000D01*
X173355000Y-56261000D02*
X165100000Y-64516000D01*
X74041000Y-64643000D02*
X74015600Y-64643000D01*
X74015600Y-64643000D02*
X74041000Y-64643000D01*
X74041000Y-64643000D02*
X74015600Y-64643000D01*
X74015600Y-99822000D02*
X74015600Y-64643000D01*
X74015600Y-64643000D02*
X74015600Y-54889400D01*
X74015600Y-54889400D02*
X74295000Y-54610000D01*
X74295000Y-48895000D02*
X74295000Y-54610000D01*
X165150800Y-111404400D02*
X174244000Y-111404400D01*
X174244000Y-111404400D02*
X181152800Y-118313200D01*
X154330400Y-100584000D02*
X165150800Y-111404400D01*
X154178000Y-100584000D02*
X154330400Y-100584000D01*
X154393560Y-63500000D02*
X147193000Y-63500000D01*
X163576000Y-63500000D02*
X154393560Y-63500000D01*
X170815000Y-54610000D02*
X170815000Y-56261000D01*
X170815000Y-56261000D02*
X163576000Y-63500000D01*
X71628000Y-99009200D02*
X71628000Y-63627000D01*
X71628000Y-63627000D02*
X71628000Y-54737000D01*
X71628000Y-54737000D02*
X71755000Y-54610000D01*
X71755000Y-48895000D02*
X71755000Y-54610000D01*
X168275000Y-54610000D02*
X168275000Y-56464200D01*
X162255200Y-62484000D02*
X147218400Y-62484000D01*
X168275000Y-56464200D02*
X162255200Y-62484000D01*
X69189600Y-62585600D02*
X69215000Y-62585600D01*
X69215000Y-62585600D02*
X69189600Y-62585600D01*
X69189600Y-62585600D02*
X69215000Y-62585600D01*
X69215000Y-54610000D02*
X69215000Y-62585600D01*
X69215000Y-62585600D02*
X69215000Y-110972600D01*
X69215000Y-110972600D02*
X67970400Y-112217200D01*
D36*
X66040000Y-141630400D02*
X67462400Y-140208000D01*
X67462400Y-140208000D02*
X67462400Y-129032000D01*
X66040000Y-142240000D02*
X66040000Y-141630400D01*
D37*
X66040000Y-142240000D02*
X66090800Y-142240000D01*
X69215000Y-48895000D02*
X69215000Y-54610000D01*
X63500000Y-127000000D02*
X60833000Y-127000000D01*
X59055000Y-128778000D02*
X59055000Y-133858000D01*
X60833000Y-127000000D02*
X59055000Y-128778000D01*
X165735000Y-54610000D02*
X165735000Y-56311800D01*
X160528000Y-61518800D02*
X147218400Y-61518800D01*
X165735000Y-56311800D02*
X160528000Y-61518800D01*
X66497200Y-110896400D02*
X66497200Y-61620400D01*
X66497200Y-61620400D02*
X66497200Y-54787800D01*
X66497200Y-54787800D02*
X66675000Y-54610000D01*
X66675000Y-48895000D02*
X66675000Y-54610000D01*
X163195000Y-54610000D02*
X163195000Y-56616600D01*
X159258000Y-60553600D02*
X147167600Y-60553600D01*
X163195000Y-56616600D02*
X159258000Y-60553600D01*
X64058800Y-60553600D02*
X64135000Y-60553600D01*
X64135000Y-60553600D02*
X64058800Y-60553600D01*
X64058800Y-60553600D02*
X64135000Y-60553600D01*
X66040000Y-124460000D02*
X66040000Y-121564400D01*
X64135000Y-119659400D02*
X64135000Y-60553600D01*
X64135000Y-60553600D02*
X64135000Y-54610000D01*
X66040000Y-121564400D02*
X64135000Y-119659400D01*
X64135000Y-48895000D02*
X64135000Y-54610000D01*
X164642800Y-112420400D02*
X173786800Y-112420400D01*
X173786800Y-112420400D02*
X180238400Y-118872000D01*
X164592000Y-112369600D02*
X164642800Y-112420400D01*
X153009600Y-100787200D02*
X164592000Y-112369600D01*
X153436503Y-59588400D02*
X147167600Y-59588400D01*
X157632400Y-59588400D02*
X153436503Y-59588400D01*
X160655000Y-54610000D02*
X160655000Y-56565800D01*
X160655000Y-56565800D02*
X157632400Y-59588400D01*
X61620400Y-59588400D02*
X61595000Y-59588400D01*
X61595000Y-59588400D02*
X61620400Y-59588400D01*
X61620400Y-59588400D02*
X61595000Y-59588400D01*
X61366400Y-106984800D02*
X61595000Y-106756200D01*
X61595000Y-106756200D02*
X61595000Y-59588400D01*
X61595000Y-59588400D02*
X61595000Y-54610000D01*
X63246000Y-122732800D02*
X61468000Y-120954800D01*
X61468000Y-120954800D02*
X61468000Y-111404400D01*
X63449200Y-122732800D02*
X63246000Y-122732800D01*
X61595000Y-48895000D02*
X61595000Y-54610000D01*
X158115000Y-54610000D02*
X158115000Y-56413400D01*
X155854400Y-58674000D02*
X147116800Y-58674000D01*
X158115000Y-56413400D02*
X155854400Y-58674000D01*
X58978800Y-104597200D02*
X58978800Y-58674000D01*
X58978800Y-58674000D02*
X58978800Y-54686200D01*
X58978800Y-54686200D02*
X59055000Y-54610000D01*
X57150000Y-123190000D02*
X57150000Y-110286800D01*
X57150000Y-110286800D02*
X58928000Y-108508800D01*
X59055000Y-48895000D02*
X59055000Y-54610000D01*
X57150000Y-123190000D02*
X62230000Y-123190000D01*
D36*
X67945000Y-125730000D02*
X68580000Y-125095000D01*
X64770000Y-125730000D02*
X67945000Y-125730000D01*
D37*
X62230000Y-123190000D02*
X64770000Y-125730000D01*
D36*
X68580000Y-125095000D02*
X68580000Y-124460000D01*
D37*
X163068000Y-116586000D02*
X172059600Y-116586000D01*
X172059600Y-116586000D02*
X177393600Y-121920000D01*
X148996400Y-102514400D02*
X163068000Y-116586000D01*
X148996400Y-100736400D02*
X148996400Y-102514400D01*
X148996400Y-100736400D02*
X148996400Y-100888800D01*
X155575000Y-56210200D02*
X154025600Y-57759600D01*
X154025600Y-57759600D02*
X147167600Y-57759600D01*
X155575000Y-54610000D02*
X155575000Y-56210200D01*
X56515000Y-57860951D02*
X56515000Y-54610000D01*
X56515000Y-104216200D02*
X56515000Y-57860951D01*
X62585600Y-110286800D02*
X56515000Y-104216200D01*
X70053200Y-122428000D02*
X70053200Y-116433600D01*
X70053200Y-116433600D02*
X65379600Y-111760000D01*
D36*
X71120000Y-127000000D02*
X71120000Y-125831600D01*
X71120000Y-125831600D02*
X70967600Y-125679200D01*
D37*
X56515000Y-48895000D02*
X56515000Y-54610000D01*
X53949600Y-56845200D02*
X53975000Y-56845200D01*
X53975000Y-56845200D02*
X53949600Y-56845200D01*
X53949600Y-56845200D02*
X53975000Y-56845200D01*
X163779200Y-114503200D02*
X172974000Y-114503200D01*
X172974000Y-114503200D02*
X178765200Y-120294400D01*
X150977600Y-101701600D02*
X163779200Y-114503200D01*
X150977600Y-100736400D02*
X150977600Y-101701600D01*
X151587200Y-56845200D02*
X150532733Y-56845200D01*
X153035000Y-55397400D02*
X151587200Y-56845200D01*
X153035000Y-54610000D02*
X153035000Y-55397400D01*
X55321200Y-119532400D02*
X53975000Y-118186200D01*
X53975000Y-118186200D02*
X53975000Y-56845200D01*
X53975000Y-56845200D02*
X53975000Y-54610000D01*
X55321200Y-127812800D02*
X55321200Y-119532400D01*
X53975000Y-48895000D02*
X53975000Y-54610000D01*
X111861600Y-112826800D02*
X131398045Y-93290355D01*
X217932000Y-76200000D02*
X200841645Y-93290355D01*
X131398045Y-93290355D02*
X145415000Y-79273400D01*
X200841645Y-93290355D02*
X131398045Y-93290355D01*
X227330000Y-76200000D02*
X217932000Y-76200000D01*
X145415000Y-79273400D02*
X145415000Y-54610000D01*
X111861600Y-112928400D02*
X111861600Y-112826800D01*
D36*
X73660000Y-124460000D02*
X73660000Y-123472172D01*
X73660000Y-123472172D02*
X75212172Y-121920000D01*
X75212172Y-121920000D02*
X89898320Y-121920000D01*
X91261508Y-121920000D02*
X97897542Y-121920000D01*
X100330000Y-124352458D02*
X100330000Y-124598630D01*
X90117302Y-122138982D02*
X91042526Y-122138982D01*
X97897542Y-121920000D02*
X100330000Y-124352458D01*
X91042526Y-122138982D02*
X91261508Y-121920000D01*
X100330000Y-124598630D02*
X100330000Y-125730000D01*
X89898320Y-121920000D02*
X90117302Y-122138982D01*
D39*
X105156000Y-131826000D02*
X100330000Y-127000000D01*
X100330000Y-127000000D02*
X100330000Y-125730000D01*
X129032000Y-131826000D02*
X105156000Y-131826000D01*
X131572000Y-129286000D02*
X129032000Y-131826000D01*
X131572000Y-122936000D02*
X131572000Y-129286000D01*
X132080000Y-122428000D02*
X131572000Y-122936000D01*
X149352000Y-122428000D02*
X132080000Y-122428000D01*
X149860000Y-122936000D02*
X149352000Y-122428000D01*
X149860000Y-123825000D02*
X149860000Y-122936000D01*
D37*
X145415000Y-48895000D02*
X145415000Y-54610000D01*
X227330000Y-73660000D02*
X218998800Y-73660000D01*
X200406000Y-92252800D02*
X218998800Y-73660000D01*
X134112000Y-92252800D02*
X200406000Y-92252800D01*
X134010400Y-92354400D02*
X134112000Y-92252800D01*
X110744000Y-112674400D02*
X131064000Y-92354400D01*
X131064000Y-92354400D02*
X142875000Y-80543400D01*
X142875000Y-80543400D02*
X142875000Y-54610000D01*
X110744000Y-112928400D02*
X110744000Y-112674400D01*
D36*
X97790000Y-125730000D02*
X98450400Y-125730000D01*
X98450400Y-125730000D02*
X99517200Y-124663200D01*
X96481165Y-124930001D02*
X96990001Y-124930001D01*
X94922163Y-123370999D02*
X96481165Y-124930001D01*
X78217279Y-123370999D02*
X94922163Y-123370999D01*
X77289001Y-125910999D02*
X77289001Y-124299277D01*
X77289001Y-124299277D02*
X78217279Y-123370999D01*
X76200000Y-127000000D02*
X77289001Y-125910999D01*
X96990001Y-124930001D02*
X97790000Y-125730000D01*
D40*
X146710400Y-125882400D02*
X147320000Y-125272800D01*
X147320000Y-125272800D02*
X147320000Y-123825000D01*
X133604000Y-125882400D02*
X146710400Y-125882400D01*
X132588000Y-126898400D02*
X133604000Y-125882400D01*
X132588000Y-129743200D02*
X132588000Y-126898400D01*
X129489200Y-132842000D02*
X132588000Y-129743200D01*
X99517200Y-132842000D02*
X129489200Y-132842000D01*
X93929200Y-127254000D02*
X99517200Y-132842000D01*
X93929200Y-124612400D02*
X93929200Y-127254000D01*
X94488000Y-124053600D02*
X93929200Y-124612400D01*
X96977200Y-124053600D02*
X94488000Y-124053600D01*
X97790000Y-124866400D02*
X96977200Y-124053600D01*
X97790000Y-125730000D02*
X97790000Y-124866400D01*
D39*
X147320000Y-123825000D02*
X147320000Y-123190000D01*
D37*
X142875000Y-48895000D02*
X142875000Y-54610000D01*
X130860800Y-91338400D02*
X130816236Y-91293836D01*
X220065600Y-71120000D02*
X227330000Y-71120000D01*
X199948800Y-91236800D02*
X220065600Y-71120000D01*
X135077200Y-91236800D02*
X199948800Y-91236800D01*
X135026400Y-91287600D02*
X135077200Y-91236800D01*
D36*
X98648980Y-123746707D02*
X98948979Y-124046706D01*
X97654801Y-122752528D02*
X98648980Y-123746707D01*
X96946128Y-122752528D02*
X97654801Y-122752528D01*
D37*
X109677200Y-112522000D02*
X130860800Y-91338400D01*
X130860800Y-91338400D02*
X140335000Y-81864200D01*
X140335000Y-81864200D02*
X140335000Y-54610000D01*
X109677200Y-112928400D02*
X109677200Y-112522000D01*
D36*
X96521864Y-122752528D02*
X96946128Y-122752528D01*
X77907472Y-122752528D02*
X96521864Y-122752528D01*
X76200000Y-124460000D02*
X77907472Y-122752528D01*
D40*
X100584000Y-132384800D02*
X95250000Y-127050800D01*
X95250000Y-127050800D02*
X95250000Y-125730000D01*
X129184400Y-132384800D02*
X100584000Y-132384800D01*
X132080000Y-129489200D02*
X129184400Y-132384800D01*
X132080000Y-126644400D02*
X132080000Y-129489200D01*
X133299200Y-125425200D02*
X132080000Y-126644400D01*
X144373600Y-125425200D02*
X133299200Y-125425200D01*
X144780000Y-125018800D02*
X144373600Y-125425200D01*
X144780000Y-123825000D02*
X144780000Y-125018800D01*
D37*
X140335000Y-48895000D02*
X140335000Y-54610000D01*
X130708400Y-90220800D02*
X130663836Y-90176236D01*
X227330000Y-68580000D02*
X220878400Y-68580000D01*
X199237600Y-90220800D02*
X135890000Y-90220800D01*
X220878400Y-68580000D02*
X199237600Y-90220800D01*
X108102400Y-112826800D02*
X130708400Y-90220800D01*
X130708400Y-90220800D02*
X137795000Y-83134200D01*
X137795000Y-83134200D02*
X137795000Y-54610000D01*
D36*
X90474800Y-131216400D02*
X92811600Y-131216400D01*
X92811600Y-131216400D02*
X94894400Y-129133600D01*
D40*
X94315202Y-136296400D02*
X92710000Y-137901602D01*
X92710000Y-137901602D02*
X92710000Y-139838630D01*
X140602770Y-136296400D02*
X94315202Y-136296400D01*
X92710000Y-139838630D02*
X92710000Y-140970000D01*
X142240000Y-139065000D02*
X142240000Y-137933630D01*
X142240000Y-137933630D02*
X140602770Y-136296400D01*
D36*
X85994468Y-139118990D02*
X88064990Y-139118990D01*
X83391390Y-139118990D02*
X85994468Y-139118990D01*
X82346800Y-138074400D02*
X83391390Y-139118990D01*
X88064990Y-139118990D02*
X89306400Y-140360400D01*
X78740000Y-127000000D02*
X79908400Y-128168400D01*
X79908400Y-128168400D02*
X79908400Y-129184400D01*
X80816829Y-125910999D02*
X81149801Y-125910999D01*
X78740000Y-127000000D02*
X79727828Y-127000000D01*
X79727828Y-127000000D02*
X80816829Y-125910999D01*
X81149801Y-125910999D02*
X81737200Y-125323600D01*
X78740000Y-127000000D02*
X79197200Y-127000000D01*
D37*
X137795000Y-48895000D02*
X137795000Y-54610000D01*
X227330000Y-66040000D02*
X221996000Y-66040000D01*
X198831200Y-89204800D02*
X221996000Y-66040000D01*
X137007600Y-89204800D02*
X198831200Y-89204800D01*
D40*
X94135992Y-135839200D02*
X141554200Y-135839200D01*
X143980001Y-138265001D02*
X144780000Y-139065000D01*
X92202000Y-142138400D02*
X91541600Y-141478000D01*
X91541600Y-141478000D02*
X91541600Y-138433592D01*
X91541600Y-138433592D02*
X94135992Y-135839200D01*
X95250000Y-140970000D02*
X94081600Y-142138400D01*
X94081600Y-142138400D02*
X92202000Y-142138400D01*
X141554200Y-135839200D02*
X143980001Y-138265001D01*
D37*
X106832400Y-112826800D02*
X130378200Y-89281000D01*
X130378200Y-89281000D02*
X135255000Y-84404200D01*
X135255000Y-84404200D02*
X135255000Y-54610000D01*
X106781600Y-112826800D02*
X106832400Y-112826800D01*
D36*
X78740000Y-124460000D02*
X85045671Y-124460000D01*
X90204921Y-129619250D02*
X90504920Y-129919249D01*
X85045671Y-124460000D02*
X90204921Y-129619250D01*
D40*
X95250000Y-140970000D02*
X95250000Y-139090400D01*
X95250000Y-139090400D02*
X94081600Y-137922000D01*
D37*
X135255000Y-48895000D02*
X135255000Y-54610000D01*
D40*
X97378799Y-137519029D02*
X97078800Y-137219030D01*
X97790000Y-137930230D02*
X97378799Y-137519029D01*
X97790000Y-140970000D02*
X97790000Y-137930230D01*
D37*
X198170800Y-88188800D02*
X222859600Y-63500000D01*
X222859600Y-63500000D02*
X227330000Y-63500000D01*
X138125200Y-88188800D02*
X198170800Y-88188800D01*
X130263880Y-88125320D02*
X132715000Y-85674200D01*
X105562400Y-112826800D02*
X130263880Y-88125320D01*
D36*
X89632279Y-131823793D02*
X90599330Y-132790844D01*
X90599330Y-132790844D02*
X91615330Y-132790844D01*
D40*
X93956782Y-135382000D02*
X143637000Y-135382000D01*
X97790000Y-140970000D02*
X96164400Y-142595600D01*
X96164400Y-142595600D02*
X91998800Y-142595600D01*
X91998800Y-142595600D02*
X91084400Y-141681200D01*
X146520001Y-138265001D02*
X147320000Y-139065000D01*
X143637000Y-135382000D02*
X146520001Y-138265001D01*
X91084400Y-138254382D02*
X93956782Y-135382000D01*
X91084400Y-141681200D02*
X91084400Y-138254382D01*
D37*
X132715000Y-85674200D02*
X132715000Y-54610000D01*
X105511600Y-112826800D02*
X105562400Y-112826800D01*
D36*
X84808486Y-127000000D02*
X89632279Y-131823793D01*
X81280000Y-127000000D02*
X84808486Y-127000000D01*
D37*
X132715000Y-48895000D02*
X132715000Y-54610000D01*
D36*
X90585352Y-136244255D02*
X90585352Y-136527232D01*
X89086667Y-134745570D02*
X90585352Y-136244255D01*
D37*
X197561200Y-87223600D02*
X223824800Y-60960000D01*
X223824800Y-60960000D02*
X227330000Y-60960000D01*
X140614400Y-87223600D02*
X197561200Y-87223600D01*
X129904502Y-87214698D02*
X130175000Y-86944200D01*
X104444800Y-112674400D02*
X129904502Y-87214698D01*
D36*
X84371809Y-130629001D02*
X88488378Y-134745570D01*
D40*
X100330000Y-140970000D02*
X98247200Y-143052800D01*
X149060001Y-138265001D02*
X149860000Y-139065000D01*
D36*
X88488378Y-134745570D02*
X88662403Y-134745570D01*
X88662403Y-134745570D02*
X89086667Y-134745570D01*
X79829001Y-130629001D02*
X84371809Y-130629001D01*
X78740000Y-129540000D02*
X79829001Y-130629001D01*
D40*
X98247200Y-143052800D02*
X91795600Y-143052800D01*
X90627200Y-141884400D02*
X90627200Y-138075172D01*
X91795600Y-143052800D02*
X90627200Y-141884400D01*
X90627200Y-138075172D02*
X93777572Y-134924800D01*
X145719800Y-134924800D02*
X149060001Y-138265001D01*
X93777572Y-134924800D02*
X145719800Y-134924800D01*
D37*
X130175000Y-86944200D02*
X130175000Y-54610000D01*
D40*
X99618800Y-138167788D02*
X99618800Y-140258800D01*
X99618800Y-140258800D02*
X100330000Y-140970000D01*
D37*
X130175000Y-48895000D02*
X130175000Y-54610000D01*
X227330000Y-58420000D02*
X224688400Y-58420000D01*
X196951600Y-86156800D02*
X224688400Y-58420000D01*
X140817600Y-86156800D02*
X196951600Y-86156800D01*
X140665200Y-86309200D02*
X140817600Y-86156800D01*
X103174800Y-112776000D02*
X103474799Y-112476001D01*
X103474799Y-112476001D02*
X103474799Y-112463519D01*
X103474799Y-112463519D02*
X127635000Y-88303318D01*
X127635000Y-88303318D02*
X127635000Y-86207600D01*
X127635000Y-86207600D02*
X127635000Y-56261000D01*
X127635000Y-56261000D02*
X127635000Y-54610000D01*
D40*
X102870000Y-137820400D02*
X102870000Y-140970000D01*
X91592400Y-143510000D02*
X90170000Y-142087600D01*
X100330000Y-143510000D02*
X91592400Y-143510000D01*
X151600001Y-138265001D02*
X152400000Y-139065000D01*
X102870000Y-140970000D02*
X100330000Y-143510000D01*
X147802600Y-134467600D02*
X151600001Y-138265001D01*
X93598362Y-134467600D02*
X147802600Y-134467600D01*
X90170000Y-137895962D02*
X93598362Y-134467600D01*
X90170000Y-142087600D02*
X90170000Y-137895962D01*
D36*
X88880750Y-133375772D02*
X88456486Y-133375772D01*
X91287600Y-135782622D02*
X88880750Y-133375772D01*
X91287600Y-136144000D02*
X91287600Y-135782622D01*
X88156487Y-133075773D02*
X88456486Y-133375772D01*
X84620714Y-129540000D02*
X88156487Y-133075773D01*
X81280000Y-129540000D02*
X84620714Y-129540000D01*
D37*
X127635000Y-48895000D02*
X127635000Y-54610000D01*
X126746000Y-99517200D02*
X200507600Y-99517200D01*
X126695200Y-99568000D02*
X126746000Y-99517200D01*
D36*
X172720000Y-139065000D02*
X172720000Y-135432800D01*
X213360000Y-91440000D02*
X216103200Y-91440000D01*
X216103200Y-91440000D02*
X227330000Y-91440000D01*
X180848000Y-123952000D02*
X213360000Y-91440000D01*
X180848000Y-127304800D02*
X180848000Y-123952000D01*
X172720000Y-135432800D02*
X180848000Y-127304800D01*
D37*
X127965200Y-98450400D02*
X201371200Y-98450400D01*
X127914400Y-98501200D02*
X127965200Y-98450400D01*
D36*
X227330000Y-88900000D02*
X217220800Y-88900000D01*
X217220800Y-88900000D02*
X214976728Y-88900000D01*
X214976728Y-88900000D02*
X180573490Y-123303238D01*
X180573490Y-123354038D02*
X169917128Y-134010400D01*
X180573490Y-123303238D02*
X180573490Y-123354038D01*
X169917128Y-134010400D02*
X160680400Y-134010400D01*
X160680400Y-134010400D02*
X159766000Y-134924800D01*
X159766000Y-134924800D02*
X159766000Y-137679630D01*
X159766000Y-137679630D02*
X160020000Y-137933630D01*
X160020000Y-137933630D02*
X160020000Y-139065000D01*
D37*
X213410800Y-86461600D02*
X213563200Y-86461600D01*
X202488800Y-97383600D02*
X213410800Y-86461600D01*
X128778000Y-97383600D02*
X202488800Y-97383600D01*
X218440000Y-86410800D02*
X218440000Y-86360000D01*
X218440000Y-86360000D02*
X218440000Y-86410800D01*
X218440000Y-86410800D02*
X218440000Y-86360000D01*
D36*
X158829499Y-139874501D02*
X158829499Y-134988829D01*
X160417528Y-133400800D02*
X169621200Y-133400800D01*
X216662000Y-86360000D02*
X218440000Y-86360000D01*
X218440000Y-86360000D02*
X225933000Y-86360000D01*
X154940000Y-139065000D02*
X156130501Y-140255501D01*
X156130501Y-140255501D02*
X158448499Y-140255501D01*
X158448499Y-140255501D02*
X158829499Y-139874501D01*
X158829499Y-134988829D02*
X160417528Y-133400800D01*
X169621200Y-133400800D02*
X216662000Y-86360000D01*
X225933000Y-86360000D02*
X227330000Y-86360000D01*
D37*
X129946400Y-96367600D02*
X202234800Y-96367600D01*
X202234800Y-96367600D02*
X213766400Y-84836000D01*
D36*
X224028000Y-84836000D02*
X225044000Y-83820000D01*
X225044000Y-83820000D02*
X227330000Y-83820000D01*
X220014800Y-84836000D02*
X224028000Y-84836000D01*
X194945000Y-126365000D02*
X194945000Y-117068600D01*
X194945000Y-117068600D02*
X218744800Y-93268800D01*
D40*
X123190000Y-140970000D02*
X123190000Y-139496800D01*
X194945000Y-128041400D02*
X194945000Y-126365000D01*
X194005200Y-128981200D02*
X194945000Y-128041400D01*
X180594000Y-128981200D02*
X194005200Y-128981200D01*
X173532800Y-136042400D02*
X180594000Y-128981200D01*
X123190000Y-139496800D02*
X124764800Y-137922000D01*
D36*
X222046800Y-81280000D02*
X217932000Y-85394800D01*
X217932000Y-85394800D02*
X216805516Y-85394800D01*
X216805516Y-85394800D02*
X169380534Y-132819782D01*
X169380534Y-132819782D02*
X159889818Y-132819782D01*
X159889818Y-132819782D02*
X158089600Y-134112000D01*
D37*
X227330000Y-81280000D02*
X222046800Y-81280000D01*
D40*
X110490000Y-137210800D02*
X110490000Y-140970000D01*
D37*
X201879200Y-95300800D02*
X215798400Y-81381600D01*
X215798400Y-81381600D02*
X218287600Y-81381600D01*
X130962400Y-95300800D02*
X201879200Y-95300800D01*
X132029200Y-94284800D02*
X201371200Y-94284800D01*
X201371200Y-94284800D02*
X216916000Y-78740000D01*
X222850521Y-78740000D02*
X227330000Y-78740000D01*
D36*
X222554800Y-78740000D02*
X222850521Y-78740000D01*
D37*
X216916000Y-78740000D02*
X222850521Y-78740000D01*
D36*
X176688780Y-124606020D02*
X222554800Y-78740000D01*
X176688780Y-124689876D02*
X176688780Y-124606020D01*
X131260820Y-132238780D02*
X169139876Y-132238780D01*
X169139876Y-132238780D02*
X176688780Y-124689876D01*
X130556000Y-132943600D02*
X131260820Y-132238780D01*
D40*
X105410000Y-140970000D02*
X105410000Y-137109200D01*
X105410000Y-137109200D02*
X105460800Y-137058400D01*
D37*
X179705000Y-139105640D02*
X179705000Y-133985000D01*
X182245000Y-139105640D02*
X182245000Y-133985000D01*
X184785000Y-139105640D02*
X184785000Y-133985000D01*
X187325000Y-139105640D02*
X187325000Y-133985000D01*
X189865000Y-139105640D02*
X189865000Y-133985000D01*
X192405000Y-139105640D02*
X192405000Y-133985000D01*
X194945000Y-139105640D02*
X194945000Y-133985000D01*
X48895000Y-133858000D02*
X53721000Y-133858000D01*
X55300000Y-135437000D02*
X55300000Y-137010000D01*
X53721000Y-133858000D02*
X55300000Y-135437000D01*
D38*
X221615000Y-133985000D02*
X220345000Y-133985000D01*
X217805000Y-131445000D02*
X215900000Y-131445000D01*
X220345000Y-133985000D02*
X217805000Y-131445000D01*
X218439480Y-137797540D02*
X219072460Y-137797540D01*
X219072460Y-137797540D02*
X221615000Y-135255000D01*
X221615000Y-135255000D02*
X221615000Y-133985000D01*
X215900000Y-142240000D02*
X215900000Y-141605000D01*
X215900000Y-141605000D02*
X218439480Y-139065520D01*
X218439480Y-139065520D02*
X218439480Y-137797540D01*
X221865000Y-142875000D02*
X221865000Y-139450000D01*
X224155000Y-131445000D02*
X221615000Y-131445000D01*
X225425000Y-132715000D02*
X224155000Y-131445000D01*
X225425000Y-135890000D02*
X225425000Y-132715000D01*
X221865000Y-139450000D02*
X225425000Y-135890000D01*
D37*
X205105000Y-127635000D02*
X209423000Y-127635000D01*
X210312000Y-126746000D02*
X210312000Y-125095000D01*
X209423000Y-127635000D02*
X210312000Y-126746000D01*
D38*
X229870000Y-130175000D02*
X229870000Y-133985000D01*
X223865000Y-139990000D02*
X223865000Y-142875000D01*
X229870000Y-133985000D02*
X223865000Y-139990000D01*
D39*
G36*
X153655000Y-47974250D02*
X153813750Y-48133000D01*
X154813000Y-48133000D01*
X154813000Y-48113000D01*
X155067000Y-48113000D01*
X155067000Y-48133000D01*
X156066250Y-48133000D01*
X156225000Y-47974250D01*
X156225000Y-47675000D01*
X238075000Y-47675000D01*
X238075000Y-128676090D01*
X237745022Y-128479584D01*
X236049605Y-130175000D01*
X237745022Y-131870416D01*
X238075000Y-131673910D01*
X238075000Y-145365000D01*
X197426052Y-145365000D01*
X197748023Y-145043028D01*
X197748026Y-145043026D01*
X199017035Y-143774016D01*
X203155590Y-143774016D01*
X203211271Y-144004611D01*
X203694078Y-144172622D01*
X204204428Y-144143083D01*
X204538729Y-144004611D01*
X204594410Y-143774016D01*
X203875000Y-143054605D01*
X203155590Y-143774016D01*
X199017035Y-143774016D01*
X199018023Y-143773028D01*
X199018026Y-143773026D01*
X199293327Y-143361008D01*
X199390000Y-142875000D01*
X199390000Y-142694078D01*
X202577378Y-142694078D01*
X202606917Y-143204428D01*
X202745389Y-143538729D01*
X202975984Y-143594410D01*
X203695395Y-142875000D01*
X202975984Y-142155590D01*
X202745389Y-142211271D01*
X202577378Y-142694078D01*
X199390000Y-142694078D01*
X199390000Y-141975984D01*
X203155590Y-141975984D01*
X203875000Y-142695395D01*
X204594410Y-141975984D01*
X204538729Y-141745389D01*
X204055922Y-141577378D01*
X203545572Y-141606917D01*
X203211271Y-141745389D01*
X203155590Y-141975984D01*
X199390000Y-141975984D01*
X199390000Y-138131930D01*
X201772675Y-138131930D01*
X201840735Y-138372931D01*
X202360034Y-138557767D01*
X202910538Y-138529805D01*
X203289265Y-138372931D01*
X203357325Y-138131930D01*
X202565000Y-137339605D01*
X201772675Y-138131930D01*
X199390000Y-138131930D01*
X199390000Y-136955034D01*
X201167233Y-136955034D01*
X201195195Y-137505538D01*
X201352069Y-137884265D01*
X201593070Y-137952325D01*
X202385395Y-137160000D01*
X202744605Y-137160000D01*
X203536930Y-137952325D01*
X203777931Y-137884265D01*
X203962767Y-137364966D01*
X203934805Y-136814462D01*
X203777931Y-136435735D01*
X203536930Y-136367675D01*
X202744605Y-137160000D01*
X202385395Y-137160000D01*
X201593070Y-136367675D01*
X201352069Y-136435735D01*
X201167233Y-136955034D01*
X199390000Y-136955034D01*
X199390000Y-136188070D01*
X201772675Y-136188070D01*
X202565000Y-136980395D01*
X203357325Y-136188070D01*
X203289265Y-135947069D01*
X202769966Y-135762233D01*
X202219462Y-135790195D01*
X201840735Y-135947069D01*
X201772675Y-136188070D01*
X199390000Y-136188070D01*
X199390000Y-135781052D01*
X200551051Y-134620000D01*
X202010441Y-134620000D01*
X202288184Y-134735329D01*
X202839398Y-134735810D01*
X203119679Y-134620000D01*
X206483948Y-134620000D01*
X207009480Y-135145531D01*
X207009480Y-136984669D01*
X206805811Y-137475158D01*
X205476974Y-138803994D01*
X205201673Y-139216012D01*
X205104999Y-139702020D01*
X205105000Y-139702025D01*
X205105000Y-142089497D01*
X205077560Y-142225000D01*
X205077560Y-142387385D01*
X205004611Y-142211271D01*
X204774016Y-142155590D01*
X204054605Y-142875000D01*
X204774016Y-143594410D01*
X205004611Y-143538729D01*
X205077560Y-143329098D01*
X205077560Y-143525000D01*
X205121838Y-143760317D01*
X205260910Y-143976441D01*
X205473110Y-144121431D01*
X205725000Y-144172440D01*
X207025000Y-144172440D01*
X207170831Y-144145000D01*
X207644995Y-144145000D01*
X207645000Y-144145001D01*
X208131008Y-144048327D01*
X208543026Y-143773026D01*
X208806052Y-143510000D01*
X209650534Y-143510000D01*
X209805302Y-143741627D01*
X210270849Y-144052696D01*
X210820000Y-144161929D01*
X211369151Y-144052696D01*
X211834698Y-143741627D01*
X212087864Y-143362738D01*
X212435104Y-143794500D01*
X212928181Y-144064367D01*
X213010961Y-144081904D01*
X213233000Y-143959915D01*
X213233000Y-142367000D01*
X213213000Y-142367000D01*
X213213000Y-142113000D01*
X213233000Y-142113000D01*
X213233000Y-140520085D01*
X213487000Y-140520085D01*
X213487000Y-142113000D01*
X213507000Y-142113000D01*
X213507000Y-142367000D01*
X213487000Y-142367000D01*
X213487000Y-143959915D01*
X213709039Y-144081904D01*
X213791819Y-144064367D01*
X214284896Y-143794500D01*
X214632136Y-143362738D01*
X214885302Y-143741627D01*
X215350849Y-144052696D01*
X215900000Y-144161929D01*
X216449151Y-144052696D01*
X216914698Y-143741627D01*
X217225767Y-143276080D01*
X217335000Y-142726929D01*
X217335000Y-141966052D01*
X219337506Y-139963546D01*
X219612807Y-139551528D01*
X219694486Y-139140902D01*
X219740551Y-139111260D01*
X219885541Y-138899060D01*
X219919906Y-138729363D01*
X219970486Y-138695566D01*
X222513023Y-136153028D01*
X222513026Y-136153026D01*
X222788327Y-135741008D01*
X222798978Y-135687463D01*
X222885001Y-135255000D01*
X222885000Y-135254995D01*
X222885000Y-135154466D01*
X223116627Y-134999698D01*
X223427696Y-134534151D01*
X223536929Y-133985000D01*
X223427696Y-133435849D01*
X223116627Y-132970302D01*
X222734541Y-132715000D01*
X223628948Y-132715000D01*
X224155000Y-133241051D01*
X224155000Y-135363949D01*
X220966974Y-138551974D01*
X220691673Y-138963992D01*
X220594999Y-139450000D01*
X220595000Y-139450005D01*
X220595000Y-141557573D01*
X220071670Y-141340267D01*
X219461009Y-141339735D01*
X218896629Y-141572932D01*
X218464449Y-142004357D01*
X218230267Y-142568330D01*
X218229735Y-143178991D01*
X218462932Y-143743371D01*
X218894357Y-144175551D01*
X219458330Y-144409733D01*
X220068991Y-144410265D01*
X220633371Y-144177068D01*
X220991869Y-143819196D01*
X221136155Y-143963735D01*
X221608276Y-144159777D01*
X222119481Y-144160223D01*
X222591943Y-143965005D01*
X222865160Y-143692266D01*
X223136155Y-143963735D01*
X223608276Y-144159777D01*
X224119481Y-144160223D01*
X224591943Y-143965005D01*
X224865160Y-143692266D01*
X225136155Y-143963735D01*
X225608276Y-144159777D01*
X226119481Y-144160223D01*
X226591943Y-143965005D01*
X226738316Y-143818887D01*
X227094357Y-144175551D01*
X227658330Y-144409733D01*
X228268991Y-144410265D01*
X228833371Y-144177068D01*
X229265551Y-143745643D01*
X229499733Y-143181670D01*
X229500265Y-142571009D01*
X229267068Y-142006629D01*
X228852020Y-141590854D01*
X230544457Y-141590854D01*
X231020727Y-142743515D01*
X231901847Y-143626174D01*
X233053674Y-144104454D01*
X234300854Y-144105543D01*
X235453515Y-143629273D01*
X236336174Y-142748153D01*
X236814454Y-141596326D01*
X236815543Y-140349146D01*
X236339273Y-139196485D01*
X235458153Y-138313826D01*
X234306326Y-137835546D01*
X233059146Y-137834457D01*
X231906485Y-138310727D01*
X231023826Y-139191847D01*
X230545546Y-140343674D01*
X230544457Y-141590854D01*
X228852020Y-141590854D01*
X228835643Y-141574449D01*
X228271670Y-141340267D01*
X227661009Y-141339735D01*
X227096629Y-141572932D01*
X226738131Y-141930804D01*
X226593845Y-141786265D01*
X226121724Y-141590223D01*
X225610519Y-141589777D01*
X225138057Y-141784995D01*
X225135000Y-141788047D01*
X225135000Y-140516052D01*
X230768023Y-134883028D01*
X230768026Y-134883026D01*
X231043327Y-134471008D01*
X231140000Y-133985000D01*
X231140000Y-132771821D01*
X231502086Y-132622210D01*
X232075273Y-132050022D01*
X234174584Y-132050022D01*
X234395353Y-132420743D01*
X235367012Y-132814119D01*
X236415247Y-132805713D01*
X237344647Y-132420743D01*
X237565416Y-132050022D01*
X235870000Y-130354605D01*
X234174584Y-132050022D01*
X232075273Y-132050022D01*
X232314357Y-131811355D01*
X232754498Y-130751380D01*
X232755439Y-129672012D01*
X233230881Y-129672012D01*
X233239287Y-130720247D01*
X233624257Y-131649647D01*
X233994978Y-131870416D01*
X235690395Y-130175000D01*
X233994978Y-128479584D01*
X233624257Y-128700353D01*
X233230881Y-129672012D01*
X232755439Y-129672012D01*
X232755499Y-129603656D01*
X232317210Y-128542914D01*
X232074698Y-128299978D01*
X234174584Y-128299978D01*
X235870000Y-129995395D01*
X237565416Y-128299978D01*
X237344647Y-127929257D01*
X236372988Y-127535881D01*
X235324753Y-127544287D01*
X234395353Y-127929257D01*
X234174584Y-128299978D01*
X232074698Y-128299978D01*
X231559651Y-127784032D01*
X232343567Y-128109542D01*
X233391834Y-128110457D01*
X234360658Y-127710147D01*
X235102542Y-126969557D01*
X235504542Y-126001433D01*
X235505457Y-124953166D01*
X235105147Y-123984342D01*
X234364557Y-123242458D01*
X233396433Y-122840458D01*
X232348166Y-122839543D01*
X231379342Y-123239853D01*
X230637458Y-123980443D01*
X230235458Y-124948567D01*
X230234543Y-125996834D01*
X230634853Y-126965658D01*
X231322147Y-127654153D01*
X230446380Y-127290502D01*
X229298656Y-127289501D01*
X228237914Y-127727790D01*
X227425643Y-128538645D01*
X226985502Y-129598620D01*
X226984501Y-130746344D01*
X227422790Y-131807086D01*
X228233645Y-132619357D01*
X228600000Y-132771481D01*
X228600000Y-133458949D01*
X226695000Y-135363949D01*
X226695000Y-132715000D01*
X226598327Y-132228992D01*
X226323026Y-131816974D01*
X226323023Y-131816972D01*
X225053026Y-130546974D01*
X224641008Y-130271673D01*
X224155000Y-130174999D01*
X224154995Y-130175000D01*
X222740393Y-130175000D01*
X223169500Y-129829896D01*
X223439367Y-129336819D01*
X223456904Y-129254039D01*
X223334915Y-129032000D01*
X221742000Y-129032000D01*
X221742000Y-129052000D01*
X221488000Y-129052000D01*
X221488000Y-129032000D01*
X219895085Y-129032000D01*
X219773096Y-129254039D01*
X219790633Y-129336819D01*
X220060500Y-129829896D01*
X220492262Y-130177136D01*
X220113373Y-130430302D01*
X219802304Y-130895849D01*
X219693071Y-131445000D01*
X219715920Y-131559868D01*
X218703026Y-130546974D01*
X218291008Y-130271673D01*
X217805000Y-130174999D01*
X217804995Y-130175000D01*
X216890573Y-130175000D01*
X216851890Y-130148569D01*
X216600000Y-130097560D01*
X215200000Y-130097560D01*
X214964683Y-130141838D01*
X214748559Y-130280910D01*
X214603569Y-130493110D01*
X214552560Y-130745000D01*
X214552560Y-132145000D01*
X214596838Y-132380317D01*
X214735910Y-132596441D01*
X214948110Y-132741431D01*
X215200000Y-132792440D01*
X216600000Y-132792440D01*
X216835317Y-132748162D01*
X216886852Y-132715000D01*
X217278948Y-132715000D01*
X219446972Y-134883023D01*
X219446974Y-134883026D01*
X219858992Y-135158327D01*
X219906226Y-135167722D01*
X218773478Y-136300470D01*
X217589850Y-136300470D01*
X217354533Y-136344748D01*
X217138409Y-136483820D01*
X216993419Y-136696020D01*
X216942410Y-136947910D01*
X216942410Y-138647170D01*
X216961314Y-138747634D01*
X215142287Y-140566661D01*
X214885302Y-140738373D01*
X214632136Y-141117262D01*
X214284896Y-140685500D01*
X213791819Y-140415633D01*
X213709039Y-140398096D01*
X213487000Y-140520085D01*
X213233000Y-140520085D01*
X213010961Y-140398096D01*
X212928181Y-140415633D01*
X212435104Y-140685500D01*
X212087864Y-141117262D01*
X211834698Y-140738373D01*
X211369151Y-140427304D01*
X210820000Y-140318071D01*
X210270849Y-140427304D01*
X209805302Y-140738373D01*
X209650534Y-140970000D01*
X208280005Y-140970000D01*
X208280000Y-140969999D01*
X207793992Y-141066673D01*
X207645000Y-141166226D01*
X207645000Y-140228072D01*
X208602717Y-139270354D01*
X209119357Y-139056882D01*
X209537354Y-138639614D01*
X209763852Y-138094147D01*
X209764368Y-137503524D01*
X209549480Y-136983457D01*
X209549480Y-134619485D01*
X209549481Y-134619480D01*
X209452807Y-134133472D01*
X209418196Y-134081673D01*
X209177506Y-133721454D01*
X209177503Y-133721452D01*
X207908026Y-132451974D01*
X207800721Y-132380275D01*
X210144331Y-132380275D01*
X210206169Y-132616042D01*
X210707122Y-132792419D01*
X211237440Y-132763664D01*
X211593831Y-132616042D01*
X211655669Y-132380275D01*
X210900000Y-131624605D01*
X210144331Y-132380275D01*
X207800721Y-132380275D01*
X207496008Y-132176673D01*
X207010000Y-132079999D01*
X207009995Y-132080000D01*
X206678065Y-132080000D01*
X206877046Y-131947046D01*
X207030954Y-131716705D01*
X207085000Y-131445000D01*
X207046634Y-131252122D01*
X209552581Y-131252122D01*
X209581336Y-131782440D01*
X209728958Y-132138831D01*
X209964725Y-132200669D01*
X210720395Y-131445000D01*
X211079605Y-131445000D01*
X211835275Y-132200669D01*
X212071042Y-132138831D01*
X212247419Y-131637878D01*
X212218664Y-131107560D01*
X212071042Y-130751169D01*
X211835275Y-130689331D01*
X211079605Y-131445000D01*
X210720395Y-131445000D01*
X209964725Y-130689331D01*
X209728958Y-130751169D01*
X209552581Y-131252122D01*
X207046634Y-131252122D01*
X207030954Y-131173295D01*
X206877046Y-130942954D01*
X206646705Y-130789046D01*
X206543486Y-130768514D01*
X206522954Y-130665295D01*
X206419007Y-130509725D01*
X210144331Y-130509725D01*
X210900000Y-131265395D01*
X211655669Y-130509725D01*
X211593831Y-130273958D01*
X211092878Y-130097581D01*
X210562560Y-130126336D01*
X210206169Y-130273958D01*
X210144331Y-130509725D01*
X206419007Y-130509725D01*
X206369046Y-130434954D01*
X206138705Y-130281046D01*
X205867000Y-130227000D01*
X205595295Y-130281046D01*
X205364954Y-130434954D01*
X205211046Y-130665295D01*
X205190514Y-130768514D01*
X205087295Y-130789046D01*
X204856954Y-130942954D01*
X204703046Y-131173295D01*
X204649000Y-131445000D01*
X204703046Y-131716705D01*
X204856954Y-131947046D01*
X205055935Y-132080000D01*
X203835000Y-132080000D01*
X203835000Y-129540000D01*
X203749609Y-129110712D01*
X203853110Y-129181431D01*
X204105000Y-129232440D01*
X206105000Y-129232440D01*
X206340317Y-129188162D01*
X206556441Y-129049090D01*
X206701431Y-128836890D01*
X206751934Y-128587500D01*
X209423000Y-128587500D01*
X209581556Y-128555961D01*
X219773096Y-128555961D01*
X219895085Y-128778000D01*
X221488000Y-128778000D01*
X221488000Y-127470000D01*
X221742000Y-127470000D01*
X221742000Y-128778000D01*
X223334915Y-128778000D01*
X223456904Y-128555961D01*
X223439367Y-128473181D01*
X223169500Y-127980104D01*
X222731483Y-127627834D01*
X222192000Y-127470000D01*
X221742000Y-127470000D01*
X221488000Y-127470000D01*
X221038000Y-127470000D01*
X220498517Y-127627834D01*
X220060500Y-127980104D01*
X219790633Y-128473181D01*
X219773096Y-128555961D01*
X209581556Y-128555961D01*
X209787506Y-128514995D01*
X210096519Y-128308519D01*
X210985519Y-127419519D01*
X211191995Y-127110506D01*
X211264500Y-126746000D01*
X211264500Y-126030491D01*
X211264716Y-126030275D01*
X219716331Y-126030275D01*
X219778169Y-126266042D01*
X220279122Y-126442419D01*
X220809440Y-126413664D01*
X221165831Y-126266042D01*
X221227669Y-126030275D01*
X220472000Y-125274605D01*
X219716331Y-126030275D01*
X211264716Y-126030275D01*
X211443098Y-125852204D01*
X211646768Y-125361713D01*
X211647168Y-124902122D01*
X219124581Y-124902122D01*
X219153336Y-125432440D01*
X219300958Y-125788831D01*
X219536725Y-125850669D01*
X220292395Y-125095000D01*
X220651605Y-125095000D01*
X221407275Y-125850669D01*
X221643042Y-125788831D01*
X221819419Y-125287878D01*
X221790664Y-124757560D01*
X221643042Y-124401169D01*
X221407275Y-124339331D01*
X220651605Y-125095000D01*
X220292395Y-125095000D01*
X219536725Y-124339331D01*
X219300958Y-124401169D01*
X219124581Y-124902122D01*
X211647168Y-124902122D01*
X211647231Y-124830617D01*
X211444418Y-124339771D01*
X211264686Y-124159725D01*
X219716331Y-124159725D01*
X220472000Y-124915395D01*
X221227669Y-124159725D01*
X221165831Y-123923958D01*
X220664878Y-123747581D01*
X220134560Y-123776336D01*
X219778169Y-123923958D01*
X219716331Y-124159725D01*
X211264686Y-124159725D01*
X211069204Y-123963902D01*
X210578713Y-123760232D01*
X210047617Y-123759769D01*
X209556771Y-123962582D01*
X209180902Y-124337796D01*
X208977232Y-124828287D01*
X208976769Y-125359383D01*
X209179582Y-125850229D01*
X209359500Y-126030461D01*
X209359500Y-126351462D01*
X209028462Y-126682500D01*
X206751970Y-126682500D01*
X206708162Y-126449683D01*
X206569090Y-126233559D01*
X206356890Y-126088569D01*
X206353808Y-126087945D01*
X206447914Y-125994003D01*
X206689724Y-125411659D01*
X206690275Y-124781107D01*
X206449481Y-124198343D01*
X206375000Y-124123732D01*
X206375000Y-123081052D01*
X206901051Y-122555000D01*
X229361995Y-122555000D01*
X229362000Y-122555001D01*
X229848008Y-122458327D01*
X230260026Y-122183026D01*
X232165023Y-120278028D01*
X232165026Y-120278026D01*
X232440327Y-119866008D01*
X232448441Y-119825218D01*
X232537001Y-119380000D01*
X232537000Y-119379995D01*
X232537000Y-114427000D01*
X232516995Y-114326426D01*
X232522000Y-114327440D01*
X233822000Y-114327440D01*
X233967831Y-114300000D01*
X234314995Y-114300000D01*
X234315000Y-114300001D01*
X234801008Y-114203327D01*
X235213026Y-113928026D01*
X237118023Y-112023028D01*
X237118026Y-112023026D01*
X237393327Y-111611008D01*
X237401500Y-111569919D01*
X237490001Y-111125000D01*
X237490000Y-111124995D01*
X237490000Y-60325005D01*
X237490001Y-60325000D01*
X237393327Y-59838992D01*
X237350702Y-59775199D01*
X237118026Y-59426974D01*
X237118023Y-59426972D01*
X232783191Y-55092140D01*
X233053674Y-55204454D01*
X234300854Y-55205543D01*
X235453515Y-54729273D01*
X236336174Y-53848153D01*
X236814454Y-52696326D01*
X236815543Y-51449146D01*
X236339273Y-50296485D01*
X235458153Y-49413826D01*
X234306326Y-48935546D01*
X233059146Y-48934457D01*
X231906485Y-49410727D01*
X231023826Y-50291847D01*
X230545546Y-51443674D01*
X230544457Y-52690854D01*
X230658915Y-52967863D01*
X227553026Y-49861974D01*
X227141008Y-49586673D01*
X226655000Y-49489999D01*
X226654995Y-49490000D01*
X155849092Y-49490000D01*
X155949699Y-49448327D01*
X156128327Y-49269698D01*
X156225000Y-49036309D01*
X156225000Y-48545750D01*
X156066250Y-48387000D01*
X155067000Y-48387000D01*
X155067000Y-48407000D01*
X154813000Y-48407000D01*
X154813000Y-48387000D01*
X153813750Y-48387000D01*
X153655000Y-48545750D01*
X153655000Y-49036309D01*
X153751673Y-49269698D01*
X153930301Y-49448327D01*
X154030908Y-49490000D01*
X153075000Y-49490000D01*
X152588992Y-49586673D01*
X152176974Y-49861974D01*
X151873948Y-50165000D01*
X151469167Y-50165000D01*
X151786954Y-49809320D01*
X151980184Y-49256913D01*
X151835924Y-49022000D01*
X150622000Y-49022000D01*
X150622000Y-49042000D01*
X150368000Y-49042000D01*
X150368000Y-49022000D01*
X150348000Y-49022000D01*
X150348000Y-48768000D01*
X150368000Y-48768000D01*
X150368000Y-48748000D01*
X150622000Y-48748000D01*
X150622000Y-48768000D01*
X151835924Y-48768000D01*
X151980184Y-48533087D01*
X151786954Y-47980680D01*
X151513840Y-47675000D01*
X153655000Y-47675000D01*
X153655000Y-47974250D01*
X153655000Y-47974250D01*
G37*
X153655000Y-47974250D02*
X153813750Y-48133000D01*
X154813000Y-48133000D01*
X154813000Y-48113000D01*
X155067000Y-48113000D01*
X155067000Y-48133000D01*
X156066250Y-48133000D01*
X156225000Y-47974250D01*
X156225000Y-47675000D01*
X238075000Y-47675000D01*
X238075000Y-128676090D01*
X237745022Y-128479584D01*
X236049605Y-130175000D01*
X237745022Y-131870416D01*
X238075000Y-131673910D01*
X238075000Y-145365000D01*
X197426052Y-145365000D01*
X197748023Y-145043028D01*
X197748026Y-145043026D01*
X199017035Y-143774016D01*
X203155590Y-143774016D01*
X203211271Y-144004611D01*
X203694078Y-144172622D01*
X204204428Y-144143083D01*
X204538729Y-144004611D01*
X204594410Y-143774016D01*
X203875000Y-143054605D01*
X203155590Y-143774016D01*
X199017035Y-143774016D01*
X199018023Y-143773028D01*
X199018026Y-143773026D01*
X199293327Y-143361008D01*
X199390000Y-142875000D01*
X199390000Y-142694078D01*
X202577378Y-142694078D01*
X202606917Y-143204428D01*
X202745389Y-143538729D01*
X202975984Y-143594410D01*
X203695395Y-142875000D01*
X202975984Y-142155590D01*
X202745389Y-142211271D01*
X202577378Y-142694078D01*
X199390000Y-142694078D01*
X199390000Y-141975984D01*
X203155590Y-141975984D01*
X203875000Y-142695395D01*
X204594410Y-141975984D01*
X204538729Y-141745389D01*
X204055922Y-141577378D01*
X203545572Y-141606917D01*
X203211271Y-141745389D01*
X203155590Y-141975984D01*
X199390000Y-141975984D01*
X199390000Y-138131930D01*
X201772675Y-138131930D01*
X201840735Y-138372931D01*
X202360034Y-138557767D01*
X202910538Y-138529805D01*
X203289265Y-138372931D01*
X203357325Y-138131930D01*
X202565000Y-137339605D01*
X201772675Y-138131930D01*
X199390000Y-138131930D01*
X199390000Y-136955034D01*
X201167233Y-136955034D01*
X201195195Y-137505538D01*
X201352069Y-137884265D01*
X201593070Y-137952325D01*
X202385395Y-137160000D01*
X202744605Y-137160000D01*
X203536930Y-137952325D01*
X203777931Y-137884265D01*
X203962767Y-137364966D01*
X203934805Y-136814462D01*
X203777931Y-136435735D01*
X203536930Y-136367675D01*
X202744605Y-137160000D01*
X202385395Y-137160000D01*
X201593070Y-136367675D01*
X201352069Y-136435735D01*
X201167233Y-136955034D01*
X199390000Y-136955034D01*
X199390000Y-136188070D01*
X201772675Y-136188070D01*
X202565000Y-136980395D01*
X203357325Y-136188070D01*
X203289265Y-135947069D01*
X202769966Y-135762233D01*
X202219462Y-135790195D01*
X201840735Y-135947069D01*
X201772675Y-136188070D01*
X199390000Y-136188070D01*
X199390000Y-135781052D01*
X200551051Y-134620000D01*
X202010441Y-134620000D01*
X202288184Y-134735329D01*
X202839398Y-134735810D01*
X203119679Y-134620000D01*
X206483948Y-134620000D01*
X207009480Y-135145531D01*
X207009480Y-136984669D01*
X206805811Y-137475158D01*
X205476974Y-138803994D01*
X205201673Y-139216012D01*
X205104999Y-139702020D01*
X205105000Y-139702025D01*
X205105000Y-142089497D01*
X205077560Y-142225000D01*
X205077560Y-142387385D01*
X205004611Y-142211271D01*
X204774016Y-142155590D01*
X204054605Y-142875000D01*
X204774016Y-143594410D01*
X205004611Y-143538729D01*
X205077560Y-143329098D01*
X205077560Y-143525000D01*
X205121838Y-143760317D01*
X205260910Y-143976441D01*
X205473110Y-144121431D01*
X205725000Y-144172440D01*
X207025000Y-144172440D01*
X207170831Y-144145000D01*
X207644995Y-144145000D01*
X207645000Y-144145001D01*
X208131008Y-144048327D01*
X208543026Y-143773026D01*
X208806052Y-143510000D01*
X209650534Y-143510000D01*
X209805302Y-143741627D01*
X210270849Y-144052696D01*
X210820000Y-144161929D01*
X211369151Y-144052696D01*
X211834698Y-143741627D01*
X212087864Y-143362738D01*
X212435104Y-143794500D01*
X212928181Y-144064367D01*
X213010961Y-144081904D01*
X213233000Y-143959915D01*
X213233000Y-142367000D01*
X213213000Y-142367000D01*
X213213000Y-142113000D01*
X213233000Y-142113000D01*
X213233000Y-140520085D01*
X213487000Y-140520085D01*
X213487000Y-142113000D01*
X213507000Y-142113000D01*
X213507000Y-142367000D01*
X213487000Y-142367000D01*
X213487000Y-143959915D01*
X213709039Y-144081904D01*
X213791819Y-144064367D01*
X214284896Y-143794500D01*
X214632136Y-143362738D01*
X214885302Y-143741627D01*
X215350849Y-144052696D01*
X215900000Y-144161929D01*
X216449151Y-144052696D01*
X216914698Y-143741627D01*
X217225767Y-143276080D01*
X217335000Y-142726929D01*
X217335000Y-141966052D01*
X219337506Y-139963546D01*
X219612807Y-139551528D01*
X219694486Y-139140902D01*
X219740551Y-139111260D01*
X219885541Y-138899060D01*
X219919906Y-138729363D01*
X219970486Y-138695566D01*
X222513023Y-136153028D01*
X222513026Y-136153026D01*
X222788327Y-135741008D01*
X222798978Y-135687463D01*
X222885001Y-135255000D01*
X222885000Y-135254995D01*
X222885000Y-135154466D01*
X223116627Y-134999698D01*
X223427696Y-134534151D01*
X223536929Y-133985000D01*
X223427696Y-133435849D01*
X223116627Y-132970302D01*
X222734541Y-132715000D01*
X223628948Y-132715000D01*
X224155000Y-133241051D01*
X224155000Y-135363949D01*
X220966974Y-138551974D01*
X220691673Y-138963992D01*
X220594999Y-139450000D01*
X220595000Y-139450005D01*
X220595000Y-141557573D01*
X220071670Y-141340267D01*
X219461009Y-141339735D01*
X218896629Y-141572932D01*
X218464449Y-142004357D01*
X218230267Y-142568330D01*
X218229735Y-143178991D01*
X218462932Y-143743371D01*
X218894357Y-144175551D01*
X219458330Y-144409733D01*
X220068991Y-144410265D01*
X220633371Y-144177068D01*
X220991869Y-143819196D01*
X221136155Y-143963735D01*
X221608276Y-144159777D01*
X222119481Y-144160223D01*
X222591943Y-143965005D01*
X222865160Y-143692266D01*
X223136155Y-143963735D01*
X223608276Y-144159777D01*
X224119481Y-144160223D01*
X224591943Y-143965005D01*
X224865160Y-143692266D01*
X225136155Y-143963735D01*
X225608276Y-144159777D01*
X226119481Y-144160223D01*
X226591943Y-143965005D01*
X226738316Y-143818887D01*
X227094357Y-144175551D01*
X227658330Y-144409733D01*
X228268991Y-144410265D01*
X228833371Y-144177068D01*
X229265551Y-143745643D01*
X229499733Y-143181670D01*
X229500265Y-142571009D01*
X229267068Y-142006629D01*
X228852020Y-141590854D01*
X230544457Y-141590854D01*
X231020727Y-142743515D01*
X231901847Y-143626174D01*
X233053674Y-144104454D01*
X234300854Y-144105543D01*
X235453515Y-143629273D01*
X236336174Y-142748153D01*
X236814454Y-141596326D01*
X236815543Y-140349146D01*
X236339273Y-139196485D01*
X235458153Y-138313826D01*
X234306326Y-137835546D01*
X233059146Y-137834457D01*
X231906485Y-138310727D01*
X231023826Y-139191847D01*
X230545546Y-140343674D01*
X230544457Y-141590854D01*
X228852020Y-141590854D01*
X228835643Y-141574449D01*
X228271670Y-141340267D01*
X227661009Y-141339735D01*
X227096629Y-141572932D01*
X226738131Y-141930804D01*
X226593845Y-141786265D01*
X226121724Y-141590223D01*
X225610519Y-141589777D01*
X225138057Y-141784995D01*
X225135000Y-141788047D01*
X225135000Y-140516052D01*
X230768023Y-134883028D01*
X230768026Y-134883026D01*
X231043327Y-134471008D01*
X231140000Y-133985000D01*
X231140000Y-132771821D01*
X231502086Y-132622210D01*
X232075273Y-132050022D01*
X234174584Y-132050022D01*
X234395353Y-132420743D01*
X235367012Y-132814119D01*
X236415247Y-132805713D01*
X237344647Y-132420743D01*
X237565416Y-132050022D01*
X235870000Y-130354605D01*
X234174584Y-132050022D01*
X232075273Y-132050022D01*
X232314357Y-131811355D01*
X232754498Y-130751380D01*
X232755439Y-129672012D01*
X233230881Y-129672012D01*
X233239287Y-130720247D01*
X233624257Y-131649647D01*
X233994978Y-131870416D01*
X235690395Y-130175000D01*
X233994978Y-128479584D01*
X233624257Y-128700353D01*
X233230881Y-129672012D01*
X232755439Y-129672012D01*
X232755499Y-129603656D01*
X232317210Y-128542914D01*
X232074698Y-128299978D01*
X234174584Y-128299978D01*
X235870000Y-129995395D01*
X237565416Y-128299978D01*
X237344647Y-127929257D01*
X236372988Y-127535881D01*
X235324753Y-127544287D01*
X234395353Y-127929257D01*
X234174584Y-128299978D01*
X232074698Y-128299978D01*
X231559651Y-127784032D01*
X232343567Y-128109542D01*
X233391834Y-128110457D01*
X234360658Y-127710147D01*
X235102542Y-126969557D01*
X235504542Y-126001433D01*
X235505457Y-124953166D01*
X235105147Y-123984342D01*
X234364557Y-123242458D01*
X233396433Y-122840458D01*
X232348166Y-122839543D01*
X231379342Y-123239853D01*
X230637458Y-123980443D01*
X230235458Y-124948567D01*
X230234543Y-125996834D01*
X230634853Y-126965658D01*
X231322147Y-127654153D01*
X230446380Y-127290502D01*
X229298656Y-127289501D01*
X228237914Y-127727790D01*
X227425643Y-128538645D01*
X226985502Y-129598620D01*
X226984501Y-130746344D01*
X227422790Y-131807086D01*
X228233645Y-132619357D01*
X228600000Y-132771481D01*
X228600000Y-133458949D01*
X226695000Y-135363949D01*
X226695000Y-132715000D01*
X226598327Y-132228992D01*
X226323026Y-131816974D01*
X226323023Y-131816972D01*
X225053026Y-130546974D01*
X224641008Y-130271673D01*
X224155000Y-130174999D01*
X224154995Y-130175000D01*
X222740393Y-130175000D01*
X223169500Y-129829896D01*
X223439367Y-129336819D01*
X223456904Y-129254039D01*
X223334915Y-129032000D01*
X221742000Y-129032000D01*
X221742000Y-129052000D01*
X221488000Y-129052000D01*
X221488000Y-129032000D01*
X219895085Y-129032000D01*
X219773096Y-129254039D01*
X219790633Y-129336819D01*
X220060500Y-129829896D01*
X220492262Y-130177136D01*
X220113373Y-130430302D01*
X219802304Y-130895849D01*
X219693071Y-131445000D01*
X219715920Y-131559868D01*
X218703026Y-130546974D01*
X218291008Y-130271673D01*
X217805000Y-130174999D01*
X217804995Y-130175000D01*
X216890573Y-130175000D01*
X216851890Y-130148569D01*
X216600000Y-130097560D01*
X215200000Y-130097560D01*
X214964683Y-130141838D01*
X214748559Y-130280910D01*
X214603569Y-130493110D01*
X214552560Y-130745000D01*
X214552560Y-132145000D01*
X214596838Y-132380317D01*
X214735910Y-132596441D01*
X214948110Y-132741431D01*
X215200000Y-132792440D01*
X216600000Y-132792440D01*
X216835317Y-132748162D01*
X216886852Y-132715000D01*
X217278948Y-132715000D01*
X219446972Y-134883023D01*
X219446974Y-134883026D01*
X219858992Y-135158327D01*
X219906226Y-135167722D01*
X218773478Y-136300470D01*
X217589850Y-136300470D01*
X217354533Y-136344748D01*
X217138409Y-136483820D01*
X216993419Y-136696020D01*
X216942410Y-136947910D01*
X216942410Y-138647170D01*
X216961314Y-138747634D01*
X215142287Y-140566661D01*
X214885302Y-140738373D01*
X214632136Y-141117262D01*
X214284896Y-140685500D01*
X213791819Y-140415633D01*
X213709039Y-140398096D01*
X213487000Y-140520085D01*
X213233000Y-140520085D01*
X213010961Y-140398096D01*
X212928181Y-140415633D01*
X212435104Y-140685500D01*
X212087864Y-141117262D01*
X211834698Y-140738373D01*
X211369151Y-140427304D01*
X210820000Y-140318071D01*
X210270849Y-140427304D01*
X209805302Y-140738373D01*
X209650534Y-140970000D01*
X208280005Y-140970000D01*
X208280000Y-140969999D01*
X207793992Y-141066673D01*
X207645000Y-141166226D01*
X207645000Y-140228072D01*
X208602717Y-139270354D01*
X209119357Y-139056882D01*
X209537354Y-138639614D01*
X209763852Y-138094147D01*
X209764368Y-137503524D01*
X209549480Y-136983457D01*
X209549480Y-134619485D01*
X209549481Y-134619480D01*
X209452807Y-134133472D01*
X209418196Y-134081673D01*
X209177506Y-133721454D01*
X209177503Y-133721452D01*
X207908026Y-132451974D01*
X207800721Y-132380275D01*
X210144331Y-132380275D01*
X210206169Y-132616042D01*
X210707122Y-132792419D01*
X211237440Y-132763664D01*
X211593831Y-132616042D01*
X211655669Y-132380275D01*
X210900000Y-131624605D01*
X210144331Y-132380275D01*
X207800721Y-132380275D01*
X207496008Y-132176673D01*
X207010000Y-132079999D01*
X207009995Y-132080000D01*
X206678065Y-132080000D01*
X206877046Y-131947046D01*
X207030954Y-131716705D01*
X207085000Y-131445000D01*
X207046634Y-131252122D01*
X209552581Y-131252122D01*
X209581336Y-131782440D01*
X209728958Y-132138831D01*
X209964725Y-132200669D01*
X210720395Y-131445000D01*
X211079605Y-131445000D01*
X211835275Y-132200669D01*
X212071042Y-132138831D01*
X212247419Y-131637878D01*
X212218664Y-131107560D01*
X212071042Y-130751169D01*
X211835275Y-130689331D01*
X211079605Y-131445000D01*
X210720395Y-131445000D01*
X209964725Y-130689331D01*
X209728958Y-130751169D01*
X209552581Y-131252122D01*
X207046634Y-131252122D01*
X207030954Y-131173295D01*
X206877046Y-130942954D01*
X206646705Y-130789046D01*
X206543486Y-130768514D01*
X206522954Y-130665295D01*
X206419007Y-130509725D01*
X210144331Y-130509725D01*
X210900000Y-131265395D01*
X211655669Y-130509725D01*
X211593831Y-130273958D01*
X211092878Y-130097581D01*
X210562560Y-130126336D01*
X210206169Y-130273958D01*
X210144331Y-130509725D01*
X206419007Y-130509725D01*
X206369046Y-130434954D01*
X206138705Y-130281046D01*
X205867000Y-130227000D01*
X205595295Y-130281046D01*
X205364954Y-130434954D01*
X205211046Y-130665295D01*
X205190514Y-130768514D01*
X205087295Y-130789046D01*
X204856954Y-130942954D01*
X204703046Y-131173295D01*
X204649000Y-131445000D01*
X204703046Y-131716705D01*
X204856954Y-131947046D01*
X205055935Y-132080000D01*
X203835000Y-132080000D01*
X203835000Y-129540000D01*
X203749609Y-129110712D01*
X203853110Y-129181431D01*
X204105000Y-129232440D01*
X206105000Y-129232440D01*
X206340317Y-129188162D01*
X206556441Y-129049090D01*
X206701431Y-128836890D01*
X206751934Y-128587500D01*
X209423000Y-128587500D01*
X209581556Y-128555961D01*
X219773096Y-128555961D01*
X219895085Y-128778000D01*
X221488000Y-128778000D01*
X221488000Y-127470000D01*
X221742000Y-127470000D01*
X221742000Y-128778000D01*
X223334915Y-128778000D01*
X223456904Y-128555961D01*
X223439367Y-128473181D01*
X223169500Y-127980104D01*
X222731483Y-127627834D01*
X222192000Y-127470000D01*
X221742000Y-127470000D01*
X221488000Y-127470000D01*
X221038000Y-127470000D01*
X220498517Y-127627834D01*
X220060500Y-127980104D01*
X219790633Y-128473181D01*
X219773096Y-128555961D01*
X209581556Y-128555961D01*
X209787506Y-128514995D01*
X210096519Y-128308519D01*
X210985519Y-127419519D01*
X211191995Y-127110506D01*
X211264500Y-126746000D01*
X211264500Y-126030491D01*
X211264716Y-126030275D01*
X219716331Y-126030275D01*
X219778169Y-126266042D01*
X220279122Y-126442419D01*
X220809440Y-126413664D01*
X221165831Y-126266042D01*
X221227669Y-126030275D01*
X220472000Y-125274605D01*
X219716331Y-126030275D01*
X211264716Y-126030275D01*
X211443098Y-125852204D01*
X211646768Y-125361713D01*
X211647168Y-124902122D01*
X219124581Y-124902122D01*
X219153336Y-125432440D01*
X219300958Y-125788831D01*
X219536725Y-125850669D01*
X220292395Y-125095000D01*
X220651605Y-125095000D01*
X221407275Y-125850669D01*
X221643042Y-125788831D01*
X221819419Y-125287878D01*
X221790664Y-124757560D01*
X221643042Y-124401169D01*
X221407275Y-124339331D01*
X220651605Y-125095000D01*
X220292395Y-125095000D01*
X219536725Y-124339331D01*
X219300958Y-124401169D01*
X219124581Y-124902122D01*
X211647168Y-124902122D01*
X211647231Y-124830617D01*
X211444418Y-124339771D01*
X211264686Y-124159725D01*
X219716331Y-124159725D01*
X220472000Y-124915395D01*
X221227669Y-124159725D01*
X221165831Y-123923958D01*
X220664878Y-123747581D01*
X220134560Y-123776336D01*
X219778169Y-123923958D01*
X219716331Y-124159725D01*
X211264686Y-124159725D01*
X211069204Y-123963902D01*
X210578713Y-123760232D01*
X210047617Y-123759769D01*
X209556771Y-123962582D01*
X209180902Y-124337796D01*
X208977232Y-124828287D01*
X208976769Y-125359383D01*
X209179582Y-125850229D01*
X209359500Y-126030461D01*
X209359500Y-126351462D01*
X209028462Y-126682500D01*
X206751970Y-126682500D01*
X206708162Y-126449683D01*
X206569090Y-126233559D01*
X206356890Y-126088569D01*
X206353808Y-126087945D01*
X206447914Y-125994003D01*
X206689724Y-125411659D01*
X206690275Y-124781107D01*
X206449481Y-124198343D01*
X206375000Y-124123732D01*
X206375000Y-123081052D01*
X206901051Y-122555000D01*
X229361995Y-122555000D01*
X229362000Y-122555001D01*
X229848008Y-122458327D01*
X230260026Y-122183026D01*
X232165023Y-120278028D01*
X232165026Y-120278026D01*
X232440327Y-119866008D01*
X232448441Y-119825218D01*
X232537001Y-119380000D01*
X232537000Y-119379995D01*
X232537000Y-114427000D01*
X232516995Y-114326426D01*
X232522000Y-114327440D01*
X233822000Y-114327440D01*
X233967831Y-114300000D01*
X234314995Y-114300000D01*
X234315000Y-114300001D01*
X234801008Y-114203327D01*
X235213026Y-113928026D01*
X237118023Y-112023028D01*
X237118026Y-112023026D01*
X237393327Y-111611008D01*
X237401500Y-111569919D01*
X237490001Y-111125000D01*
X237490000Y-111124995D01*
X237490000Y-60325005D01*
X237490001Y-60325000D01*
X237393327Y-59838992D01*
X237350702Y-59775199D01*
X237118026Y-59426974D01*
X237118023Y-59426972D01*
X232783191Y-55092140D01*
X233053674Y-55204454D01*
X234300854Y-55205543D01*
X235453515Y-54729273D01*
X236336174Y-53848153D01*
X236814454Y-52696326D01*
X236815543Y-51449146D01*
X236339273Y-50296485D01*
X235458153Y-49413826D01*
X234306326Y-48935546D01*
X233059146Y-48934457D01*
X231906485Y-49410727D01*
X231023826Y-50291847D01*
X230545546Y-51443674D01*
X230544457Y-52690854D01*
X230658915Y-52967863D01*
X227553026Y-49861974D01*
X227141008Y-49586673D01*
X226655000Y-49489999D01*
X226654995Y-49490000D01*
X155849092Y-49490000D01*
X155949699Y-49448327D01*
X156128327Y-49269698D01*
X156225000Y-49036309D01*
X156225000Y-48545750D01*
X156066250Y-48387000D01*
X155067000Y-48387000D01*
X155067000Y-48407000D01*
X154813000Y-48407000D01*
X154813000Y-48387000D01*
X153813750Y-48387000D01*
X153655000Y-48545750D01*
X153655000Y-49036309D01*
X153751673Y-49269698D01*
X153930301Y-49448327D01*
X154030908Y-49490000D01*
X153075000Y-49490000D01*
X152588992Y-49586673D01*
X152176974Y-49861974D01*
X151873948Y-50165000D01*
X151469167Y-50165000D01*
X151786954Y-49809320D01*
X151980184Y-49256913D01*
X151835924Y-49022000D01*
X150622000Y-49022000D01*
X150622000Y-49042000D01*
X150368000Y-49042000D01*
X150368000Y-49022000D01*
X150348000Y-49022000D01*
X150348000Y-48768000D01*
X150368000Y-48768000D01*
X150368000Y-48748000D01*
X150622000Y-48748000D01*
X150622000Y-48768000D01*
X151835924Y-48768000D01*
X151980184Y-48533087D01*
X151786954Y-47980680D01*
X151513840Y-47675000D01*
X153655000Y-47675000D01*
X153655000Y-47974250D01*
G36*
X41371673Y-132566008D02*
X41646974Y-132978026D01*
X46616809Y-137947860D01*
X46346326Y-137835546D01*
X45099146Y-137834457D01*
X43946485Y-138310727D01*
X43063826Y-139191847D01*
X42585546Y-140343674D01*
X42584457Y-141590854D01*
X43060727Y-142743515D01*
X43941847Y-143626174D01*
X45093674Y-144104454D01*
X46340854Y-144105543D01*
X47493515Y-143629273D01*
X47806211Y-143317122D01*
X49452581Y-143317122D01*
X49481336Y-143847440D01*
X49628958Y-144203831D01*
X49864725Y-144265669D01*
X50620395Y-143510000D01*
X50979605Y-143510000D01*
X51735275Y-144265669D01*
X51971042Y-144203831D01*
X52122243Y-143774383D01*
X53964769Y-143774383D01*
X54167582Y-144265229D01*
X54542796Y-144641098D01*
X55033287Y-144844768D01*
X55564383Y-144845231D01*
X56055229Y-144642418D01*
X56431098Y-144267204D01*
X56634768Y-143776713D01*
X56635231Y-143245617D01*
X56432418Y-142754771D01*
X56057204Y-142378902D01*
X55566713Y-142175232D01*
X55035617Y-142174769D01*
X54544771Y-142377582D01*
X54168902Y-142752796D01*
X53965232Y-143243287D01*
X53964769Y-143774383D01*
X52122243Y-143774383D01*
X52147419Y-143702878D01*
X52118664Y-143172560D01*
X51971042Y-142816169D01*
X51735275Y-142754331D01*
X50979605Y-143510000D01*
X50620395Y-143510000D01*
X49864725Y-142754331D01*
X49628958Y-142816169D01*
X49452581Y-143317122D01*
X47806211Y-143317122D01*
X48376174Y-142748153D01*
X48448187Y-142574725D01*
X50044331Y-142574725D01*
X50800000Y-143330395D01*
X51555669Y-142574725D01*
X51493831Y-142338958D01*
X50992878Y-142162581D01*
X50462560Y-142191336D01*
X50106169Y-142338958D01*
X50044331Y-142574725D01*
X48448187Y-142574725D01*
X48854454Y-141596326D01*
X48855543Y-140349146D01*
X48741085Y-140072136D01*
X49520972Y-140852023D01*
X49520974Y-140852026D01*
X49817565Y-141050201D01*
X49932992Y-141127327D01*
X50419000Y-141224001D01*
X50419005Y-141224000D01*
X54972948Y-141224000D01*
X57648974Y-143900026D01*
X57708693Y-143939929D01*
X57813910Y-144103441D01*
X58026110Y-144248431D01*
X58278000Y-144299440D01*
X58429388Y-144299440D01*
X59494949Y-145365000D01*
X41325000Y-145365000D01*
X41325000Y-144445275D01*
X50044331Y-144445275D01*
X50106169Y-144681042D01*
X50607122Y-144857419D01*
X51137440Y-144828664D01*
X51493831Y-144681042D01*
X51555669Y-144445275D01*
X50800000Y-143689605D01*
X50044331Y-144445275D01*
X41325000Y-144445275D01*
X41325000Y-132331369D01*
X41371673Y-132566008D01*
X41371673Y-132566008D01*
G37*
X41371673Y-132566008D02*
X41646974Y-132978026D01*
X46616809Y-137947860D01*
X46346326Y-137835546D01*
X45099146Y-137834457D01*
X43946485Y-138310727D01*
X43063826Y-139191847D01*
X42585546Y-140343674D01*
X42584457Y-141590854D01*
X43060727Y-142743515D01*
X43941847Y-143626174D01*
X45093674Y-144104454D01*
X46340854Y-144105543D01*
X47493515Y-143629273D01*
X47806211Y-143317122D01*
X49452581Y-143317122D01*
X49481336Y-143847440D01*
X49628958Y-144203831D01*
X49864725Y-144265669D01*
X50620395Y-143510000D01*
X50979605Y-143510000D01*
X51735275Y-144265669D01*
X51971042Y-144203831D01*
X52122243Y-143774383D01*
X53964769Y-143774383D01*
X54167582Y-144265229D01*
X54542796Y-144641098D01*
X55033287Y-144844768D01*
X55564383Y-144845231D01*
X56055229Y-144642418D01*
X56431098Y-144267204D01*
X56634768Y-143776713D01*
X56635231Y-143245617D01*
X56432418Y-142754771D01*
X56057204Y-142378902D01*
X55566713Y-142175232D01*
X55035617Y-142174769D01*
X54544771Y-142377582D01*
X54168902Y-142752796D01*
X53965232Y-143243287D01*
X53964769Y-143774383D01*
X52122243Y-143774383D01*
X52147419Y-143702878D01*
X52118664Y-143172560D01*
X51971042Y-142816169D01*
X51735275Y-142754331D01*
X50979605Y-143510000D01*
X50620395Y-143510000D01*
X49864725Y-142754331D01*
X49628958Y-142816169D01*
X49452581Y-143317122D01*
X47806211Y-143317122D01*
X48376174Y-142748153D01*
X48448187Y-142574725D01*
X50044331Y-142574725D01*
X50800000Y-143330395D01*
X51555669Y-142574725D01*
X51493831Y-142338958D01*
X50992878Y-142162581D01*
X50462560Y-142191336D01*
X50106169Y-142338958D01*
X50044331Y-142574725D01*
X48448187Y-142574725D01*
X48854454Y-141596326D01*
X48855543Y-140349146D01*
X48741085Y-140072136D01*
X49520972Y-140852023D01*
X49520974Y-140852026D01*
X49817565Y-141050201D01*
X49932992Y-141127327D01*
X50419000Y-141224001D01*
X50419005Y-141224000D01*
X54972948Y-141224000D01*
X57648974Y-143900026D01*
X57708693Y-143939929D01*
X57813910Y-144103441D01*
X58026110Y-144248431D01*
X58278000Y-144299440D01*
X58429388Y-144299440D01*
X59494949Y-145365000D01*
X41325000Y-145365000D01*
X41325000Y-144445275D01*
X50044331Y-144445275D01*
X50106169Y-144681042D01*
X50607122Y-144857419D01*
X51137440Y-144828664D01*
X51493831Y-144681042D01*
X51555669Y-144445275D01*
X50800000Y-143689605D01*
X50044331Y-144445275D01*
X41325000Y-144445275D01*
X41325000Y-132331369D01*
X41371673Y-132566008D01*
G36*
X171502757Y-139876800D02*
X171906077Y-140280824D01*
X172433309Y-140499750D01*
X173004187Y-140500248D01*
X173531800Y-140282243D01*
X173935824Y-139878923D01*
X173950000Y-139844783D01*
X173950000Y-141330908D01*
X173908327Y-141230301D01*
X173729698Y-141051673D01*
X173496309Y-140955000D01*
X173005750Y-140955000D01*
X172847000Y-141113750D01*
X172847000Y-142113000D01*
X172867000Y-142113000D01*
X172867000Y-142367000D01*
X172847000Y-142367000D01*
X172847000Y-142387000D01*
X172593000Y-142387000D01*
X172593000Y-142367000D01*
X171593750Y-142367000D01*
X171435000Y-142525750D01*
X171435000Y-143016310D01*
X171531673Y-143249699D01*
X171710302Y-143428327D01*
X171907478Y-143510000D01*
X140226051Y-143510000D01*
X139700000Y-142983948D01*
X139700000Y-141932919D01*
X139822999Y-142117001D01*
X140026199Y-142320201D01*
X140272760Y-142484948D01*
X140563600Y-142542800D01*
X169011600Y-142542800D01*
X169302439Y-142484948D01*
X169549001Y-142320201D01*
X170405512Y-141463690D01*
X171435000Y-141463690D01*
X171435000Y-141954250D01*
X171593750Y-142113000D01*
X172593000Y-142113000D01*
X172593000Y-141113750D01*
X172434250Y-140955000D01*
X171943691Y-140955000D01*
X171710302Y-141051673D01*
X171531673Y-141230301D01*
X171435000Y-141463690D01*
X170405512Y-141463690D01*
X170717401Y-141151801D01*
X170882148Y-140905239D01*
X170940000Y-140614400D01*
X170940000Y-140303646D01*
X170991800Y-140282243D01*
X171395824Y-139878923D01*
X171449862Y-139748785D01*
X171502757Y-139876800D01*
X171502757Y-139876800D01*
G37*
X171502757Y-139876800D02*
X171906077Y-140280824D01*
X172433309Y-140499750D01*
X173004187Y-140500248D01*
X173531800Y-140282243D01*
X173935824Y-139878923D01*
X173950000Y-139844783D01*
X173950000Y-141330908D01*
X173908327Y-141230301D01*
X173729698Y-141051673D01*
X173496309Y-140955000D01*
X173005750Y-140955000D01*
X172847000Y-141113750D01*
X172847000Y-142113000D01*
X172867000Y-142113000D01*
X172867000Y-142367000D01*
X172847000Y-142367000D01*
X172847000Y-142387000D01*
X172593000Y-142387000D01*
X172593000Y-142367000D01*
X171593750Y-142367000D01*
X171435000Y-142525750D01*
X171435000Y-143016310D01*
X171531673Y-143249699D01*
X171710302Y-143428327D01*
X171907478Y-143510000D01*
X140226051Y-143510000D01*
X139700000Y-142983948D01*
X139700000Y-141932919D01*
X139822999Y-142117001D01*
X140026199Y-142320201D01*
X140272760Y-142484948D01*
X140563600Y-142542800D01*
X169011600Y-142542800D01*
X169302439Y-142484948D01*
X169549001Y-142320201D01*
X170405512Y-141463690D01*
X171435000Y-141463690D01*
X171435000Y-141954250D01*
X171593750Y-142113000D01*
X172593000Y-142113000D01*
X172593000Y-141113750D01*
X172434250Y-140955000D01*
X171943691Y-140955000D01*
X171710302Y-141051673D01*
X171531673Y-141230301D01*
X171435000Y-141463690D01*
X170405512Y-141463690D01*
X170717401Y-141151801D01*
X170882148Y-140905239D01*
X170940000Y-140614400D01*
X170940000Y-140303646D01*
X170991800Y-140282243D01*
X171395824Y-139878923D01*
X171449862Y-139748785D01*
X171502757Y-139876800D01*
G36*
X77608854Y-142994380D02*
X77983647Y-143369827D01*
X78321221Y-143510000D01*
X76618327Y-143510000D01*
X76954380Y-143371146D01*
X77329827Y-142996353D01*
X77470094Y-142658554D01*
X77608854Y-142994380D01*
X77608854Y-142994380D01*
G37*
X77608854Y-142994380D02*
X77983647Y-143369827D01*
X78321221Y-143510000D01*
X76618327Y-143510000D01*
X76954380Y-143371146D01*
X77329827Y-142996353D01*
X77470094Y-142658554D01*
X77608854Y-142994380D01*
G36*
X154683276Y-52044777D02*
X155194481Y-52045223D01*
X155231323Y-52030000D01*
X226128948Y-52030000D01*
X234950000Y-60851051D01*
X234950000Y-110598949D01*
X234185278Y-111363670D01*
X234071018Y-111249410D01*
X234301611Y-111193729D01*
X234469622Y-110710922D01*
X234440083Y-110200572D01*
X234301611Y-109866271D01*
X234071016Y-109810590D01*
X233351605Y-110530000D01*
X233365748Y-110544142D01*
X233186142Y-110723748D01*
X233172000Y-110709605D01*
X232452590Y-111429016D01*
X232508271Y-111659611D01*
X232717902Y-111732560D01*
X232522000Y-111732560D01*
X232376169Y-111760000D01*
X229870005Y-111760000D01*
X229870000Y-111759999D01*
X229869995Y-111760000D01*
X229013345Y-111760000D01*
X228899271Y-111186511D01*
X228600000Y-110738621D01*
X228600000Y-110349078D01*
X231874378Y-110349078D01*
X231903917Y-110859428D01*
X232042389Y-111193729D01*
X232272984Y-111249410D01*
X232992395Y-110530000D01*
X232272984Y-109810590D01*
X232042389Y-109866271D01*
X231874378Y-110349078D01*
X228600000Y-110349078D01*
X228600000Y-110241379D01*
X228899271Y-109793489D01*
X228931595Y-109630984D01*
X232452590Y-109630984D01*
X233172000Y-110350395D01*
X233891410Y-109630984D01*
X233835729Y-109400389D01*
X233352922Y-109232378D01*
X232842572Y-109261917D01*
X232508271Y-109400389D01*
X232452590Y-109630984D01*
X228931595Y-109630984D01*
X229013345Y-109220000D01*
X228899271Y-108646511D01*
X228600000Y-108198621D01*
X228600000Y-107701379D01*
X228899271Y-107253489D01*
X229013345Y-106680000D01*
X228899271Y-106106511D01*
X228574415Y-105620330D01*
X228264931Y-105413539D01*
X228680732Y-105042036D01*
X228934709Y-104514791D01*
X228937358Y-104499026D01*
X228816217Y-104267000D01*
X227457000Y-104267000D01*
X227457000Y-104287000D01*
X227203000Y-104287000D01*
X227203000Y-104267000D01*
X225843783Y-104267000D01*
X225722642Y-104499026D01*
X225725291Y-104514791D01*
X225979268Y-105042036D01*
X226395069Y-105413539D01*
X226085585Y-105620330D01*
X225760729Y-106106511D01*
X225646655Y-106680000D01*
X225760729Y-107253489D01*
X226060000Y-107701379D01*
X226060000Y-108198621D01*
X225760729Y-108646511D01*
X225646655Y-109220000D01*
X225760729Y-109793489D01*
X226060000Y-110241379D01*
X226060000Y-110738621D01*
X225760729Y-111186511D01*
X225646655Y-111760000D01*
X225760729Y-112333489D01*
X226060000Y-112781379D01*
X226060000Y-113278621D01*
X225760729Y-113726511D01*
X225646655Y-114300000D01*
X225760729Y-114873489D01*
X226060000Y-115321379D01*
X226060000Y-115818621D01*
X225760729Y-116266511D01*
X225646655Y-116840000D01*
X225760729Y-117413489D01*
X226060000Y-117861379D01*
X226060000Y-118358621D01*
X225760729Y-118806511D01*
X225646655Y-119380000D01*
X225760729Y-119953489D01*
X225801829Y-120015000D01*
X206375000Y-120015000D01*
X205888992Y-120111673D01*
X205476974Y-120386974D01*
X205476972Y-120386977D01*
X204206974Y-121656974D01*
X203931673Y-122068992D01*
X203834999Y-122555000D01*
X203835000Y-122555005D01*
X203835000Y-123825000D01*
X202565000Y-123825000D01*
X202078992Y-123921673D01*
X201666974Y-124196974D01*
X201666972Y-124196977D01*
X200396974Y-125466974D01*
X200121673Y-125878992D01*
X200024999Y-126365000D01*
X200025000Y-126365005D01*
X200025000Y-128269995D01*
X200024999Y-128270000D01*
X200121673Y-128756008D01*
X200396974Y-129168026D01*
X201295000Y-130066051D01*
X201295000Y-132080000D01*
X200025005Y-132080000D01*
X200025000Y-132079999D01*
X199580427Y-132168431D01*
X199538992Y-132176673D01*
X199126974Y-132451974D01*
X199126972Y-132451977D01*
X197221974Y-134356974D01*
X196946673Y-134768992D01*
X196849999Y-135255000D01*
X196850000Y-135255005D01*
X196850000Y-141713949D01*
X196141913Y-141005861D01*
X196077418Y-140849771D01*
X195702204Y-140473902D01*
X195416530Y-140355280D01*
X195700229Y-140238058D01*
X196076098Y-139862844D01*
X196279768Y-139372353D01*
X196280231Y-138841257D01*
X196077418Y-138350411D01*
X195897500Y-138170179D01*
X195897500Y-134920491D01*
X196076098Y-134742204D01*
X196279768Y-134251713D01*
X196280231Y-133720617D01*
X196077418Y-133229771D01*
X195702204Y-132853902D01*
X195211713Y-132650232D01*
X194680617Y-132649769D01*
X194189771Y-132852582D01*
X193813902Y-133227796D01*
X193674909Y-133562527D01*
X193537418Y-133229771D01*
X193162204Y-132853902D01*
X192671713Y-132650232D01*
X192140617Y-132649769D01*
X191649771Y-132852582D01*
X191273902Y-133227796D01*
X191134909Y-133562527D01*
X190997418Y-133229771D01*
X190622204Y-132853902D01*
X190131713Y-132650232D01*
X189600617Y-132649769D01*
X189109771Y-132852582D01*
X188733902Y-133227796D01*
X188594909Y-133562527D01*
X188457418Y-133229771D01*
X188082204Y-132853902D01*
X187591713Y-132650232D01*
X187060617Y-132649769D01*
X186569771Y-132852582D01*
X186193902Y-133227796D01*
X186054909Y-133562527D01*
X185917418Y-133229771D01*
X185542204Y-132853902D01*
X185051713Y-132650232D01*
X184520617Y-132649769D01*
X184029771Y-132852582D01*
X183653902Y-133227796D01*
X183514909Y-133562527D01*
X183377418Y-133229771D01*
X183002204Y-132853902D01*
X182511713Y-132650232D01*
X181980617Y-132649769D01*
X181489771Y-132852582D01*
X181113902Y-133227796D01*
X180974909Y-133562527D01*
X180837418Y-133229771D01*
X180462204Y-132853902D01*
X179971713Y-132650232D01*
X179440617Y-132649769D01*
X178949771Y-132852582D01*
X178573902Y-133227796D01*
X178370232Y-133718287D01*
X178369769Y-134249383D01*
X178572582Y-134740229D01*
X178752500Y-134920461D01*
X178752500Y-138170149D01*
X178573902Y-138348436D01*
X178370232Y-138838927D01*
X178369769Y-139370023D01*
X178572582Y-139860869D01*
X178947796Y-140236738D01*
X179233470Y-140355360D01*
X178949771Y-140472582D01*
X178573902Y-140847796D01*
X178370232Y-141338287D01*
X178369769Y-141869383D01*
X178435000Y-142027254D01*
X178435000Y-143509995D01*
X178434999Y-143510000D01*
X177056051Y-143510000D01*
X176490000Y-142943948D01*
X176490000Y-142532311D01*
X176504777Y-142496724D01*
X176505223Y-141985519D01*
X176490000Y-141948677D01*
X176490000Y-139844783D01*
X176694750Y-139351691D01*
X176695248Y-138780813D01*
X176477243Y-138253200D01*
X176073923Y-137849176D01*
X175546691Y-137630250D01*
X174975813Y-137629752D01*
X174448200Y-137847757D01*
X174044176Y-138251077D01*
X173990138Y-138381215D01*
X173937243Y-138253200D01*
X173545500Y-137860773D01*
X173545500Y-136977412D01*
X173717967Y-136977562D01*
X174061743Y-136835517D01*
X174324992Y-136572727D01*
X174467638Y-136229199D01*
X174467679Y-136182323D01*
X180908802Y-129741200D01*
X194005200Y-129741200D01*
X194296039Y-129683348D01*
X194542601Y-129518601D01*
X195482401Y-128578801D01*
X195647148Y-128332239D01*
X195705000Y-128041400D01*
X195705000Y-127701150D01*
X195880317Y-127668162D01*
X196096441Y-127529090D01*
X196241431Y-127316890D01*
X196292440Y-127065000D01*
X196292440Y-125665000D01*
X196248162Y-125429683D01*
X196109090Y-125213559D01*
X195896890Y-125068569D01*
X195770500Y-125042974D01*
X195770500Y-117410534D01*
X211222008Y-101959026D01*
X225722642Y-101959026D01*
X225725291Y-101974791D01*
X225979268Y-102502036D01*
X226391108Y-102870000D01*
X225979268Y-103237964D01*
X225725291Y-103765209D01*
X225722642Y-103780974D01*
X225843783Y-104013000D01*
X227203000Y-104013000D01*
X227203000Y-101727000D01*
X227457000Y-101727000D01*
X227457000Y-104013000D01*
X228816217Y-104013000D01*
X228937358Y-103780974D01*
X228934709Y-103765209D01*
X228680732Y-103237964D01*
X228268892Y-102870000D01*
X228680732Y-102502036D01*
X228934709Y-101974791D01*
X228937358Y-101959026D01*
X228816217Y-101727000D01*
X227457000Y-101727000D01*
X227203000Y-101727000D01*
X225843783Y-101727000D01*
X225722642Y-101959026D01*
X211222008Y-101959026D01*
X213762008Y-99419026D01*
X225722642Y-99419026D01*
X225725291Y-99434791D01*
X225979268Y-99962036D01*
X226391108Y-100330000D01*
X225979268Y-100697964D01*
X225725291Y-101225209D01*
X225722642Y-101240974D01*
X225843783Y-101473000D01*
X227203000Y-101473000D01*
X227203000Y-99187000D01*
X227457000Y-99187000D01*
X227457000Y-101473000D01*
X228816217Y-101473000D01*
X228937358Y-101240974D01*
X228934709Y-101225209D01*
X228680732Y-100697964D01*
X228268892Y-100330000D01*
X228680732Y-99962036D01*
X228934709Y-99434791D01*
X228937358Y-99419026D01*
X228816217Y-99187000D01*
X227457000Y-99187000D01*
X227203000Y-99187000D01*
X225843783Y-99187000D01*
X225722642Y-99419026D01*
X213762008Y-99419026D01*
X216302008Y-96879026D01*
X225722642Y-96879026D01*
X225725291Y-96894791D01*
X225979268Y-97422036D01*
X226391108Y-97790000D01*
X225979268Y-98157964D01*
X225725291Y-98685209D01*
X225722642Y-98700974D01*
X225843783Y-98933000D01*
X227203000Y-98933000D01*
X227203000Y-96647000D01*
X227457000Y-96647000D01*
X227457000Y-98933000D01*
X228816217Y-98933000D01*
X228937358Y-98700974D01*
X228934709Y-98685209D01*
X228680732Y-98157964D01*
X228268892Y-97790000D01*
X228680732Y-97422036D01*
X228934709Y-96894791D01*
X228937358Y-96879026D01*
X228816217Y-96647000D01*
X227457000Y-96647000D01*
X227203000Y-96647000D01*
X225843783Y-96647000D01*
X225722642Y-96879026D01*
X216302008Y-96879026D01*
X218842008Y-94339026D01*
X225722642Y-94339026D01*
X225725291Y-94354791D01*
X225979268Y-94882036D01*
X226391108Y-95250000D01*
X225979268Y-95617964D01*
X225725291Y-96145209D01*
X225722642Y-96160974D01*
X225843783Y-96393000D01*
X227203000Y-96393000D01*
X227203000Y-94107000D01*
X227457000Y-94107000D01*
X227457000Y-96393000D01*
X228816217Y-96393000D01*
X228937358Y-96160974D01*
X228934709Y-96145209D01*
X228680732Y-95617964D01*
X228268892Y-95250000D01*
X228680732Y-94882036D01*
X228934709Y-94354791D01*
X228937358Y-94339026D01*
X228816217Y-94107000D01*
X227457000Y-94107000D01*
X227203000Y-94107000D01*
X225843783Y-94107000D01*
X225722642Y-94339026D01*
X218842008Y-94339026D01*
X219010240Y-94170794D01*
X219273743Y-94061917D01*
X219536992Y-93799127D01*
X219679638Y-93455599D01*
X219679962Y-93083633D01*
X219537917Y-92739857D01*
X219275127Y-92476608D01*
X218931599Y-92333962D01*
X218559633Y-92333638D01*
X218215857Y-92475683D01*
X217952608Y-92738473D01*
X217842482Y-93003684D01*
X194361283Y-116484883D01*
X194182337Y-116752694D01*
X194122026Y-117055900D01*
X194119500Y-117068600D01*
X194119500Y-125041174D01*
X194009683Y-125061838D01*
X193793559Y-125200910D01*
X193648569Y-125413110D01*
X193597560Y-125665000D01*
X193597560Y-125755326D01*
X193537418Y-125609771D01*
X193162204Y-125233902D01*
X192671713Y-125030232D01*
X192140617Y-125029769D01*
X191649771Y-125232582D01*
X191273902Y-125607796D01*
X191134909Y-125942527D01*
X190997418Y-125609771D01*
X190622204Y-125233902D01*
X190131713Y-125030232D01*
X189600617Y-125029769D01*
X189109771Y-125232582D01*
X188733902Y-125607796D01*
X188594909Y-125942527D01*
X188457418Y-125609771D01*
X188082204Y-125233902D01*
X187591713Y-125030232D01*
X187060617Y-125029769D01*
X186569771Y-125232582D01*
X186193902Y-125607796D01*
X186054909Y-125942527D01*
X185917418Y-125609771D01*
X185542204Y-125233902D01*
X185051713Y-125030232D01*
X184520617Y-125029769D01*
X184029771Y-125232582D01*
X183653902Y-125607796D01*
X183514909Y-125942527D01*
X183377418Y-125609771D01*
X183002204Y-125233902D01*
X182511713Y-125030232D01*
X181980617Y-125029769D01*
X181673500Y-125156667D01*
X181673500Y-124293934D01*
X213701933Y-92265500D01*
X215653087Y-92265500D01*
X215916401Y-92374838D01*
X216288367Y-92375162D01*
X216553770Y-92265500D01*
X225929117Y-92265500D01*
X226085585Y-92499670D01*
X226395069Y-92706461D01*
X225979268Y-93077964D01*
X225725291Y-93605209D01*
X225722642Y-93620974D01*
X225843783Y-93853000D01*
X227203000Y-93853000D01*
X227203000Y-93833000D01*
X227457000Y-93833000D01*
X227457000Y-93853000D01*
X228816217Y-93853000D01*
X228937358Y-93620974D01*
X228934709Y-93605209D01*
X228680732Y-93077964D01*
X228264931Y-92706461D01*
X228574415Y-92499670D01*
X228899271Y-92013489D01*
X229013345Y-91440000D01*
X228899271Y-90866511D01*
X228574415Y-90380330D01*
X228259634Y-90170000D01*
X228574415Y-89959670D01*
X228899271Y-89473489D01*
X229013345Y-88900000D01*
X228899271Y-88326511D01*
X228574415Y-87840330D01*
X228259634Y-87630000D01*
X228574415Y-87419670D01*
X228899271Y-86933489D01*
X229013345Y-86360000D01*
X228899271Y-85786511D01*
X228574415Y-85300330D01*
X228259634Y-85090000D01*
X228574415Y-84879670D01*
X228899271Y-84393489D01*
X229013345Y-83820000D01*
X228899271Y-83246511D01*
X228574415Y-82760330D01*
X228259634Y-82550000D01*
X228574415Y-82339670D01*
X228899271Y-81853489D01*
X229013345Y-81280000D01*
X228899271Y-80706511D01*
X228574415Y-80220330D01*
X228259634Y-80010000D01*
X228574415Y-79799670D01*
X228899271Y-79313489D01*
X229013345Y-78740000D01*
X228899271Y-78166511D01*
X228574415Y-77680330D01*
X228259634Y-77470000D01*
X228574415Y-77259670D01*
X228899271Y-76773489D01*
X229013345Y-76200000D01*
X228899271Y-75626511D01*
X228574415Y-75140330D01*
X228259634Y-74930000D01*
X228574415Y-74719670D01*
X228899271Y-74233489D01*
X229013345Y-73660000D01*
X228899271Y-73086511D01*
X228574415Y-72600330D01*
X228259634Y-72390000D01*
X228574415Y-72179670D01*
X228899271Y-71693489D01*
X229013345Y-71120000D01*
X228899271Y-70546511D01*
X228574415Y-70060330D01*
X228259634Y-69850000D01*
X228574415Y-69639670D01*
X228899271Y-69153489D01*
X229013345Y-68580000D01*
X228899271Y-68006511D01*
X228574415Y-67520330D01*
X228259634Y-67310000D01*
X228574415Y-67099670D01*
X228899271Y-66613489D01*
X229013345Y-66040000D01*
X228899271Y-65466511D01*
X228574415Y-64980330D01*
X228259634Y-64770000D01*
X228574415Y-64559670D01*
X228899271Y-64073489D01*
X229013345Y-63500000D01*
X228899271Y-62926511D01*
X228574415Y-62440330D01*
X228259634Y-62230000D01*
X228574415Y-62019670D01*
X228899271Y-61533489D01*
X229013345Y-60960000D01*
X228899271Y-60386511D01*
X228574415Y-59900330D01*
X228259634Y-59690000D01*
X228574415Y-59479670D01*
X228899271Y-58993489D01*
X229013345Y-58420000D01*
X228899271Y-57846511D01*
X228574415Y-57360330D01*
X228088234Y-57035474D01*
X227514745Y-56921400D01*
X227145255Y-56921400D01*
X226571766Y-57035474D01*
X226085585Y-57360330D01*
X226013976Y-57467500D01*
X224803538Y-57467500D01*
X224828519Y-57442519D01*
X225034995Y-57133506D01*
X225055186Y-57031999D01*
X225107500Y-56769000D01*
X225107500Y-55926024D01*
X225214670Y-55854415D01*
X225539526Y-55368234D01*
X225653600Y-54794745D01*
X225653600Y-54425255D01*
X225539526Y-53851766D01*
X225214670Y-53365585D01*
X224728489Y-53040729D01*
X224155000Y-52926655D01*
X223581511Y-53040729D01*
X223095330Y-53365585D01*
X222885000Y-53680366D01*
X222674670Y-53365585D01*
X222188489Y-53040729D01*
X221615000Y-52926655D01*
X221041511Y-53040729D01*
X220555330Y-53365585D01*
X220345000Y-53680366D01*
X220134670Y-53365585D01*
X219648489Y-53040729D01*
X219075000Y-52926655D01*
X218501511Y-53040729D01*
X218015330Y-53365585D01*
X217805000Y-53680366D01*
X217594670Y-53365585D01*
X217108489Y-53040729D01*
X216535000Y-52926655D01*
X215961511Y-53040729D01*
X215475330Y-53365585D01*
X215265000Y-53680366D01*
X215054670Y-53365585D01*
X214568489Y-53040729D01*
X213995000Y-52926655D01*
X213421511Y-53040729D01*
X212935330Y-53365585D01*
X212725000Y-53680366D01*
X212514670Y-53365585D01*
X212028489Y-53040729D01*
X211455000Y-52926655D01*
X210881511Y-53040729D01*
X210395330Y-53365585D01*
X210185000Y-53680366D01*
X209974670Y-53365585D01*
X209488489Y-53040729D01*
X208915000Y-52926655D01*
X208341511Y-53040729D01*
X207855330Y-53365585D01*
X207645000Y-53680366D01*
X207434670Y-53365585D01*
X206948489Y-53040729D01*
X206375000Y-52926655D01*
X205801511Y-53040729D01*
X205315330Y-53365585D01*
X205105000Y-53680366D01*
X204894670Y-53365585D01*
X204408489Y-53040729D01*
X203835000Y-52926655D01*
X203261511Y-53040729D01*
X202775330Y-53365585D01*
X202565000Y-53680366D01*
X202354670Y-53365585D01*
X201868489Y-53040729D01*
X201295000Y-52926655D01*
X200721511Y-53040729D01*
X200235330Y-53365585D01*
X200025000Y-53680366D01*
X199814670Y-53365585D01*
X199328489Y-53040729D01*
X198755000Y-52926655D01*
X198181511Y-53040729D01*
X197695330Y-53365585D01*
X197485000Y-53680366D01*
X197274670Y-53365585D01*
X196788489Y-53040729D01*
X196215000Y-52926655D01*
X195641511Y-53040729D01*
X195155330Y-53365585D01*
X194945000Y-53680366D01*
X194734670Y-53365585D01*
X194248489Y-53040729D01*
X193675000Y-52926655D01*
X193101511Y-53040729D01*
X192615330Y-53365585D01*
X192405000Y-53680366D01*
X192194670Y-53365585D01*
X191708489Y-53040729D01*
X191135000Y-52926655D01*
X190561511Y-53040729D01*
X190075330Y-53365585D01*
X189865000Y-53680366D01*
X189654670Y-53365585D01*
X189168489Y-53040729D01*
X188595000Y-52926655D01*
X188021511Y-53040729D01*
X187535330Y-53365585D01*
X187325000Y-53680366D01*
X187114670Y-53365585D01*
X186628489Y-53040729D01*
X186055000Y-52926655D01*
X185481511Y-53040729D01*
X184995330Y-53365585D01*
X184785000Y-53680366D01*
X184574670Y-53365585D01*
X184088489Y-53040729D01*
X183515000Y-52926655D01*
X182941511Y-53040729D01*
X182455330Y-53365585D01*
X182245000Y-53680366D01*
X182034670Y-53365585D01*
X181548489Y-53040729D01*
X180975000Y-52926655D01*
X180401511Y-53040729D01*
X179915330Y-53365585D01*
X179705000Y-53680366D01*
X179494670Y-53365585D01*
X179008489Y-53040729D01*
X178435000Y-52926655D01*
X177861511Y-53040729D01*
X177375330Y-53365585D01*
X177165000Y-53680366D01*
X176954670Y-53365585D01*
X176468489Y-53040729D01*
X175895000Y-52926655D01*
X175321511Y-53040729D01*
X174835330Y-53365585D01*
X174625000Y-53680366D01*
X174414670Y-53365585D01*
X173928489Y-53040729D01*
X173355000Y-52926655D01*
X172781511Y-53040729D01*
X172295330Y-53365585D01*
X172085000Y-53680366D01*
X171874670Y-53365585D01*
X171388489Y-53040729D01*
X170815000Y-52926655D01*
X170241511Y-53040729D01*
X169755330Y-53365585D01*
X169545000Y-53680366D01*
X169334670Y-53365585D01*
X168848489Y-53040729D01*
X168275000Y-52926655D01*
X167701511Y-53040729D01*
X167215330Y-53365585D01*
X167005000Y-53680366D01*
X166794670Y-53365585D01*
X166308489Y-53040729D01*
X165735000Y-52926655D01*
X165161511Y-53040729D01*
X164675330Y-53365585D01*
X164465000Y-53680366D01*
X164254670Y-53365585D01*
X163768489Y-53040729D01*
X163195000Y-52926655D01*
X162621511Y-53040729D01*
X162135330Y-53365585D01*
X161925000Y-53680366D01*
X161714670Y-53365585D01*
X161228489Y-53040729D01*
X160655000Y-52926655D01*
X160081511Y-53040729D01*
X159595330Y-53365585D01*
X159385000Y-53680366D01*
X159174670Y-53365585D01*
X158688489Y-53040729D01*
X158115000Y-52926655D01*
X157541511Y-53040729D01*
X157055330Y-53365585D01*
X156845000Y-53680366D01*
X156634670Y-53365585D01*
X156148489Y-53040729D01*
X155575000Y-52926655D01*
X155001511Y-53040729D01*
X154515330Y-53365585D01*
X154305000Y-53680366D01*
X154094670Y-53365585D01*
X153608489Y-53040729D01*
X153035000Y-52926655D01*
X152461511Y-53040729D01*
X151975330Y-53365585D01*
X151768539Y-53675069D01*
X151397036Y-53259268D01*
X150869791Y-53005291D01*
X150854026Y-53002642D01*
X150622000Y-53123783D01*
X150622000Y-54483000D01*
X150642000Y-54483000D01*
X150642000Y-54737000D01*
X150622000Y-54737000D01*
X150622000Y-54757000D01*
X150368000Y-54757000D01*
X150368000Y-54737000D01*
X150348000Y-54737000D01*
X150348000Y-54483000D01*
X150368000Y-54483000D01*
X150368000Y-53123783D01*
X150135974Y-53002642D01*
X150120209Y-53005291D01*
X149592964Y-53259268D01*
X149225000Y-53671108D01*
X149225000Y-52705000D01*
X152399995Y-52705000D01*
X152400000Y-52705001D01*
X152886008Y-52608327D01*
X153298026Y-52333026D01*
X153601052Y-52030000D01*
X154647689Y-52030000D01*
X154683276Y-52044777D01*
X154683276Y-52044777D01*
G37*
X154683276Y-52044777D02*
X155194481Y-52045223D01*
X155231323Y-52030000D01*
X226128948Y-52030000D01*
X234950000Y-60851051D01*
X234950000Y-110598949D01*
X234185278Y-111363670D01*
X234071018Y-111249410D01*
X234301611Y-111193729D01*
X234469622Y-110710922D01*
X234440083Y-110200572D01*
X234301611Y-109866271D01*
X234071016Y-109810590D01*
X233351605Y-110530000D01*
X233365748Y-110544142D01*
X233186142Y-110723748D01*
X233172000Y-110709605D01*
X232452590Y-111429016D01*
X232508271Y-111659611D01*
X232717902Y-111732560D01*
X232522000Y-111732560D01*
X232376169Y-111760000D01*
X229870005Y-111760000D01*
X229870000Y-111759999D01*
X229869995Y-111760000D01*
X229013345Y-111760000D01*
X228899271Y-111186511D01*
X228600000Y-110738621D01*
X228600000Y-110349078D01*
X231874378Y-110349078D01*
X231903917Y-110859428D01*
X232042389Y-111193729D01*
X232272984Y-111249410D01*
X232992395Y-110530000D01*
X232272984Y-109810590D01*
X232042389Y-109866271D01*
X231874378Y-110349078D01*
X228600000Y-110349078D01*
X228600000Y-110241379D01*
X228899271Y-109793489D01*
X228931595Y-109630984D01*
X232452590Y-109630984D01*
X233172000Y-110350395D01*
X233891410Y-109630984D01*
X233835729Y-109400389D01*
X233352922Y-109232378D01*
X232842572Y-109261917D01*
X232508271Y-109400389D01*
X232452590Y-109630984D01*
X228931595Y-109630984D01*
X229013345Y-109220000D01*
X228899271Y-108646511D01*
X228600000Y-108198621D01*
X228600000Y-107701379D01*
X228899271Y-107253489D01*
X229013345Y-106680000D01*
X228899271Y-106106511D01*
X228574415Y-105620330D01*
X228264931Y-105413539D01*
X228680732Y-105042036D01*
X228934709Y-104514791D01*
X228937358Y-104499026D01*
X228816217Y-104267000D01*
X227457000Y-104267000D01*
X227457000Y-104287000D01*
X227203000Y-104287000D01*
X227203000Y-104267000D01*
X225843783Y-104267000D01*
X225722642Y-104499026D01*
X225725291Y-104514791D01*
X225979268Y-105042036D01*
X226395069Y-105413539D01*
X226085585Y-105620330D01*
X225760729Y-106106511D01*
X225646655Y-106680000D01*
X225760729Y-107253489D01*
X226060000Y-107701379D01*
X226060000Y-108198621D01*
X225760729Y-108646511D01*
X225646655Y-109220000D01*
X225760729Y-109793489D01*
X226060000Y-110241379D01*
X226060000Y-110738621D01*
X225760729Y-111186511D01*
X225646655Y-111760000D01*
X225760729Y-112333489D01*
X226060000Y-112781379D01*
X226060000Y-113278621D01*
X225760729Y-113726511D01*
X225646655Y-114300000D01*
X225760729Y-114873489D01*
X226060000Y-115321379D01*
X226060000Y-115818621D01*
X225760729Y-116266511D01*
X225646655Y-116840000D01*
X225760729Y-117413489D01*
X226060000Y-117861379D01*
X226060000Y-118358621D01*
X225760729Y-118806511D01*
X225646655Y-119380000D01*
X225760729Y-119953489D01*
X225801829Y-120015000D01*
X206375000Y-120015000D01*
X205888992Y-120111673D01*
X205476974Y-120386974D01*
X205476972Y-120386977D01*
X204206974Y-121656974D01*
X203931673Y-122068992D01*
X203834999Y-122555000D01*
X203835000Y-122555005D01*
X203835000Y-123825000D01*
X202565000Y-123825000D01*
X202078992Y-123921673D01*
X201666974Y-124196974D01*
X201666972Y-124196977D01*
X200396974Y-125466974D01*
X200121673Y-125878992D01*
X200024999Y-126365000D01*
X200025000Y-126365005D01*
X200025000Y-128269995D01*
X200024999Y-128270000D01*
X200121673Y-128756008D01*
X200396974Y-129168026D01*
X201295000Y-130066051D01*
X201295000Y-132080000D01*
X200025005Y-132080000D01*
X200025000Y-132079999D01*
X199580427Y-132168431D01*
X199538992Y-132176673D01*
X199126974Y-132451974D01*
X199126972Y-132451977D01*
X197221974Y-134356974D01*
X196946673Y-134768992D01*
X196849999Y-135255000D01*
X196850000Y-135255005D01*
X196850000Y-141713949D01*
X196141913Y-141005861D01*
X196077418Y-140849771D01*
X195702204Y-140473902D01*
X195416530Y-140355280D01*
X195700229Y-140238058D01*
X196076098Y-139862844D01*
X196279768Y-139372353D01*
X196280231Y-138841257D01*
X196077418Y-138350411D01*
X195897500Y-138170179D01*
X195897500Y-134920491D01*
X196076098Y-134742204D01*
X196279768Y-134251713D01*
X196280231Y-133720617D01*
X196077418Y-133229771D01*
X195702204Y-132853902D01*
X195211713Y-132650232D01*
X194680617Y-132649769D01*
X194189771Y-132852582D01*
X193813902Y-133227796D01*
X193674909Y-133562527D01*
X193537418Y-133229771D01*
X193162204Y-132853902D01*
X192671713Y-132650232D01*
X192140617Y-132649769D01*
X191649771Y-132852582D01*
X191273902Y-133227796D01*
X191134909Y-133562527D01*
X190997418Y-133229771D01*
X190622204Y-132853902D01*
X190131713Y-132650232D01*
X189600617Y-132649769D01*
X189109771Y-132852582D01*
X188733902Y-133227796D01*
X188594909Y-133562527D01*
X188457418Y-133229771D01*
X188082204Y-132853902D01*
X187591713Y-132650232D01*
X187060617Y-132649769D01*
X186569771Y-132852582D01*
X186193902Y-133227796D01*
X186054909Y-133562527D01*
X185917418Y-133229771D01*
X185542204Y-132853902D01*
X185051713Y-132650232D01*
X184520617Y-132649769D01*
X184029771Y-132852582D01*
X183653902Y-133227796D01*
X183514909Y-133562527D01*
X183377418Y-133229771D01*
X183002204Y-132853902D01*
X182511713Y-132650232D01*
X181980617Y-132649769D01*
X181489771Y-132852582D01*
X181113902Y-133227796D01*
X180974909Y-133562527D01*
X180837418Y-133229771D01*
X180462204Y-132853902D01*
X179971713Y-132650232D01*
X179440617Y-132649769D01*
X178949771Y-132852582D01*
X178573902Y-133227796D01*
X178370232Y-133718287D01*
X178369769Y-134249383D01*
X178572582Y-134740229D01*
X178752500Y-134920461D01*
X178752500Y-138170149D01*
X178573902Y-138348436D01*
X178370232Y-138838927D01*
X178369769Y-139370023D01*
X178572582Y-139860869D01*
X178947796Y-140236738D01*
X179233470Y-140355360D01*
X178949771Y-140472582D01*
X178573902Y-140847796D01*
X178370232Y-141338287D01*
X178369769Y-141869383D01*
X178435000Y-142027254D01*
X178435000Y-143509995D01*
X178434999Y-143510000D01*
X177056051Y-143510000D01*
X176490000Y-142943948D01*
X176490000Y-142532311D01*
X176504777Y-142496724D01*
X176505223Y-141985519D01*
X176490000Y-141948677D01*
X176490000Y-139844783D01*
X176694750Y-139351691D01*
X176695248Y-138780813D01*
X176477243Y-138253200D01*
X176073923Y-137849176D01*
X175546691Y-137630250D01*
X174975813Y-137629752D01*
X174448200Y-137847757D01*
X174044176Y-138251077D01*
X173990138Y-138381215D01*
X173937243Y-138253200D01*
X173545500Y-137860773D01*
X173545500Y-136977412D01*
X173717967Y-136977562D01*
X174061743Y-136835517D01*
X174324992Y-136572727D01*
X174467638Y-136229199D01*
X174467679Y-136182323D01*
X180908802Y-129741200D01*
X194005200Y-129741200D01*
X194296039Y-129683348D01*
X194542601Y-129518601D01*
X195482401Y-128578801D01*
X195647148Y-128332239D01*
X195705000Y-128041400D01*
X195705000Y-127701150D01*
X195880317Y-127668162D01*
X196096441Y-127529090D01*
X196241431Y-127316890D01*
X196292440Y-127065000D01*
X196292440Y-125665000D01*
X196248162Y-125429683D01*
X196109090Y-125213559D01*
X195896890Y-125068569D01*
X195770500Y-125042974D01*
X195770500Y-117410534D01*
X211222008Y-101959026D01*
X225722642Y-101959026D01*
X225725291Y-101974791D01*
X225979268Y-102502036D01*
X226391108Y-102870000D01*
X225979268Y-103237964D01*
X225725291Y-103765209D01*
X225722642Y-103780974D01*
X225843783Y-104013000D01*
X227203000Y-104013000D01*
X227203000Y-101727000D01*
X227457000Y-101727000D01*
X227457000Y-104013000D01*
X228816217Y-104013000D01*
X228937358Y-103780974D01*
X228934709Y-103765209D01*
X228680732Y-103237964D01*
X228268892Y-102870000D01*
X228680732Y-102502036D01*
X228934709Y-101974791D01*
X228937358Y-101959026D01*
X228816217Y-101727000D01*
X227457000Y-101727000D01*
X227203000Y-101727000D01*
X225843783Y-101727000D01*
X225722642Y-101959026D01*
X211222008Y-101959026D01*
X213762008Y-99419026D01*
X225722642Y-99419026D01*
X225725291Y-99434791D01*
X225979268Y-99962036D01*
X226391108Y-100330000D01*
X225979268Y-100697964D01*
X225725291Y-101225209D01*
X225722642Y-101240974D01*
X225843783Y-101473000D01*
X227203000Y-101473000D01*
X227203000Y-99187000D01*
X227457000Y-99187000D01*
X227457000Y-101473000D01*
X228816217Y-101473000D01*
X228937358Y-101240974D01*
X228934709Y-101225209D01*
X228680732Y-100697964D01*
X228268892Y-100330000D01*
X228680732Y-99962036D01*
X228934709Y-99434791D01*
X228937358Y-99419026D01*
X228816217Y-99187000D01*
X227457000Y-99187000D01*
X227203000Y-99187000D01*
X225843783Y-99187000D01*
X225722642Y-99419026D01*
X213762008Y-99419026D01*
X216302008Y-96879026D01*
X225722642Y-96879026D01*
X225725291Y-96894791D01*
X225979268Y-97422036D01*
X226391108Y-97790000D01*
X225979268Y-98157964D01*
X225725291Y-98685209D01*
X225722642Y-98700974D01*
X225843783Y-98933000D01*
X227203000Y-98933000D01*
X227203000Y-96647000D01*
X227457000Y-96647000D01*
X227457000Y-98933000D01*
X228816217Y-98933000D01*
X228937358Y-98700974D01*
X228934709Y-98685209D01*
X228680732Y-98157964D01*
X228268892Y-97790000D01*
X228680732Y-97422036D01*
X228934709Y-96894791D01*
X228937358Y-96879026D01*
X228816217Y-96647000D01*
X227457000Y-96647000D01*
X227203000Y-96647000D01*
X225843783Y-96647000D01*
X225722642Y-96879026D01*
X216302008Y-96879026D01*
X218842008Y-94339026D01*
X225722642Y-94339026D01*
X225725291Y-94354791D01*
X225979268Y-94882036D01*
X226391108Y-95250000D01*
X225979268Y-95617964D01*
X225725291Y-96145209D01*
X225722642Y-96160974D01*
X225843783Y-96393000D01*
X227203000Y-96393000D01*
X227203000Y-94107000D01*
X227457000Y-94107000D01*
X227457000Y-96393000D01*
X228816217Y-96393000D01*
X228937358Y-96160974D01*
X228934709Y-96145209D01*
X228680732Y-95617964D01*
X228268892Y-95250000D01*
X228680732Y-94882036D01*
X228934709Y-94354791D01*
X228937358Y-94339026D01*
X228816217Y-94107000D01*
X227457000Y-94107000D01*
X227203000Y-94107000D01*
X225843783Y-94107000D01*
X225722642Y-94339026D01*
X218842008Y-94339026D01*
X219010240Y-94170794D01*
X219273743Y-94061917D01*
X219536992Y-93799127D01*
X219679638Y-93455599D01*
X219679962Y-93083633D01*
X219537917Y-92739857D01*
X219275127Y-92476608D01*
X218931599Y-92333962D01*
X218559633Y-92333638D01*
X218215857Y-92475683D01*
X217952608Y-92738473D01*
X217842482Y-93003684D01*
X194361283Y-116484883D01*
X194182337Y-116752694D01*
X194122026Y-117055900D01*
X194119500Y-117068600D01*
X194119500Y-125041174D01*
X194009683Y-125061838D01*
X193793559Y-125200910D01*
X193648569Y-125413110D01*
X193597560Y-125665000D01*
X193597560Y-125755326D01*
X193537418Y-125609771D01*
X193162204Y-125233902D01*
X192671713Y-125030232D01*
X192140617Y-125029769D01*
X191649771Y-125232582D01*
X191273902Y-125607796D01*
X191134909Y-125942527D01*
X190997418Y-125609771D01*
X190622204Y-125233902D01*
X190131713Y-125030232D01*
X189600617Y-125029769D01*
X189109771Y-125232582D01*
X188733902Y-125607796D01*
X188594909Y-125942527D01*
X188457418Y-125609771D01*
X188082204Y-125233902D01*
X187591713Y-125030232D01*
X187060617Y-125029769D01*
X186569771Y-125232582D01*
X186193902Y-125607796D01*
X186054909Y-125942527D01*
X185917418Y-125609771D01*
X185542204Y-125233902D01*
X185051713Y-125030232D01*
X184520617Y-125029769D01*
X184029771Y-125232582D01*
X183653902Y-125607796D01*
X183514909Y-125942527D01*
X183377418Y-125609771D01*
X183002204Y-125233902D01*
X182511713Y-125030232D01*
X181980617Y-125029769D01*
X181673500Y-125156667D01*
X181673500Y-124293934D01*
X213701933Y-92265500D01*
X215653087Y-92265500D01*
X215916401Y-92374838D01*
X216288367Y-92375162D01*
X216553770Y-92265500D01*
X225929117Y-92265500D01*
X226085585Y-92499670D01*
X226395069Y-92706461D01*
X225979268Y-93077964D01*
X225725291Y-93605209D01*
X225722642Y-93620974D01*
X225843783Y-93853000D01*
X227203000Y-93853000D01*
X227203000Y-93833000D01*
X227457000Y-93833000D01*
X227457000Y-93853000D01*
X228816217Y-93853000D01*
X228937358Y-93620974D01*
X228934709Y-93605209D01*
X228680732Y-93077964D01*
X228264931Y-92706461D01*
X228574415Y-92499670D01*
X228899271Y-92013489D01*
X229013345Y-91440000D01*
X228899271Y-90866511D01*
X228574415Y-90380330D01*
X228259634Y-90170000D01*
X228574415Y-89959670D01*
X228899271Y-89473489D01*
X229013345Y-88900000D01*
X228899271Y-88326511D01*
X228574415Y-87840330D01*
X228259634Y-87630000D01*
X228574415Y-87419670D01*
X228899271Y-86933489D01*
X229013345Y-86360000D01*
X228899271Y-85786511D01*
X228574415Y-85300330D01*
X228259634Y-85090000D01*
X228574415Y-84879670D01*
X228899271Y-84393489D01*
X229013345Y-83820000D01*
X228899271Y-83246511D01*
X228574415Y-82760330D01*
X228259634Y-82550000D01*
X228574415Y-82339670D01*
X228899271Y-81853489D01*
X229013345Y-81280000D01*
X228899271Y-80706511D01*
X228574415Y-80220330D01*
X228259634Y-80010000D01*
X228574415Y-79799670D01*
X228899271Y-79313489D01*
X229013345Y-78740000D01*
X228899271Y-78166511D01*
X228574415Y-77680330D01*
X228259634Y-77470000D01*
X228574415Y-77259670D01*
X228899271Y-76773489D01*
X229013345Y-76200000D01*
X228899271Y-75626511D01*
X228574415Y-75140330D01*
X228259634Y-74930000D01*
X228574415Y-74719670D01*
X228899271Y-74233489D01*
X229013345Y-73660000D01*
X228899271Y-73086511D01*
X228574415Y-72600330D01*
X228259634Y-72390000D01*
X228574415Y-72179670D01*
X228899271Y-71693489D01*
X229013345Y-71120000D01*
X228899271Y-70546511D01*
X228574415Y-70060330D01*
X228259634Y-69850000D01*
X228574415Y-69639670D01*
X228899271Y-69153489D01*
X229013345Y-68580000D01*
X228899271Y-68006511D01*
X228574415Y-67520330D01*
X228259634Y-67310000D01*
X228574415Y-67099670D01*
X228899271Y-66613489D01*
X229013345Y-66040000D01*
X228899271Y-65466511D01*
X228574415Y-64980330D01*
X228259634Y-64770000D01*
X228574415Y-64559670D01*
X228899271Y-64073489D01*
X229013345Y-63500000D01*
X228899271Y-62926511D01*
X228574415Y-62440330D01*
X228259634Y-62230000D01*
X228574415Y-62019670D01*
X228899271Y-61533489D01*
X229013345Y-60960000D01*
X228899271Y-60386511D01*
X228574415Y-59900330D01*
X228259634Y-59690000D01*
X228574415Y-59479670D01*
X228899271Y-58993489D01*
X229013345Y-58420000D01*
X228899271Y-57846511D01*
X228574415Y-57360330D01*
X228088234Y-57035474D01*
X227514745Y-56921400D01*
X227145255Y-56921400D01*
X226571766Y-57035474D01*
X226085585Y-57360330D01*
X226013976Y-57467500D01*
X224803538Y-57467500D01*
X224828519Y-57442519D01*
X225034995Y-57133506D01*
X225055186Y-57031999D01*
X225107500Y-56769000D01*
X225107500Y-55926024D01*
X225214670Y-55854415D01*
X225539526Y-55368234D01*
X225653600Y-54794745D01*
X225653600Y-54425255D01*
X225539526Y-53851766D01*
X225214670Y-53365585D01*
X224728489Y-53040729D01*
X224155000Y-52926655D01*
X223581511Y-53040729D01*
X223095330Y-53365585D01*
X222885000Y-53680366D01*
X222674670Y-53365585D01*
X222188489Y-53040729D01*
X221615000Y-52926655D01*
X221041511Y-53040729D01*
X220555330Y-53365585D01*
X220345000Y-53680366D01*
X220134670Y-53365585D01*
X219648489Y-53040729D01*
X219075000Y-52926655D01*
X218501511Y-53040729D01*
X218015330Y-53365585D01*
X217805000Y-53680366D01*
X217594670Y-53365585D01*
X217108489Y-53040729D01*
X216535000Y-52926655D01*
X215961511Y-53040729D01*
X215475330Y-53365585D01*
X215265000Y-53680366D01*
X215054670Y-53365585D01*
X214568489Y-53040729D01*
X213995000Y-52926655D01*
X213421511Y-53040729D01*
X212935330Y-53365585D01*
X212725000Y-53680366D01*
X212514670Y-53365585D01*
X212028489Y-53040729D01*
X211455000Y-52926655D01*
X210881511Y-53040729D01*
X210395330Y-53365585D01*
X210185000Y-53680366D01*
X209974670Y-53365585D01*
X209488489Y-53040729D01*
X208915000Y-52926655D01*
X208341511Y-53040729D01*
X207855330Y-53365585D01*
X207645000Y-53680366D01*
X207434670Y-53365585D01*
X206948489Y-53040729D01*
X206375000Y-52926655D01*
X205801511Y-53040729D01*
X205315330Y-53365585D01*
X205105000Y-53680366D01*
X204894670Y-53365585D01*
X204408489Y-53040729D01*
X203835000Y-52926655D01*
X203261511Y-53040729D01*
X202775330Y-53365585D01*
X202565000Y-53680366D01*
X202354670Y-53365585D01*
X201868489Y-53040729D01*
X201295000Y-52926655D01*
X200721511Y-53040729D01*
X200235330Y-53365585D01*
X200025000Y-53680366D01*
X199814670Y-53365585D01*
X199328489Y-53040729D01*
X198755000Y-52926655D01*
X198181511Y-53040729D01*
X197695330Y-53365585D01*
X197485000Y-53680366D01*
X197274670Y-53365585D01*
X196788489Y-53040729D01*
X196215000Y-52926655D01*
X195641511Y-53040729D01*
X195155330Y-53365585D01*
X194945000Y-53680366D01*
X194734670Y-53365585D01*
X194248489Y-53040729D01*
X193675000Y-52926655D01*
X193101511Y-53040729D01*
X192615330Y-53365585D01*
X192405000Y-53680366D01*
X192194670Y-53365585D01*
X191708489Y-53040729D01*
X191135000Y-52926655D01*
X190561511Y-53040729D01*
X190075330Y-53365585D01*
X189865000Y-53680366D01*
X189654670Y-53365585D01*
X189168489Y-53040729D01*
X188595000Y-52926655D01*
X188021511Y-53040729D01*
X187535330Y-53365585D01*
X187325000Y-53680366D01*
X187114670Y-53365585D01*
X186628489Y-53040729D01*
X186055000Y-52926655D01*
X185481511Y-53040729D01*
X184995330Y-53365585D01*
X184785000Y-53680366D01*
X184574670Y-53365585D01*
X184088489Y-53040729D01*
X183515000Y-52926655D01*
X182941511Y-53040729D01*
X182455330Y-53365585D01*
X182245000Y-53680366D01*
X182034670Y-53365585D01*
X181548489Y-53040729D01*
X180975000Y-52926655D01*
X180401511Y-53040729D01*
X179915330Y-53365585D01*
X179705000Y-53680366D01*
X179494670Y-53365585D01*
X179008489Y-53040729D01*
X178435000Y-52926655D01*
X177861511Y-53040729D01*
X177375330Y-53365585D01*
X177165000Y-53680366D01*
X176954670Y-53365585D01*
X176468489Y-53040729D01*
X175895000Y-52926655D01*
X175321511Y-53040729D01*
X174835330Y-53365585D01*
X174625000Y-53680366D01*
X174414670Y-53365585D01*
X173928489Y-53040729D01*
X173355000Y-52926655D01*
X172781511Y-53040729D01*
X172295330Y-53365585D01*
X172085000Y-53680366D01*
X171874670Y-53365585D01*
X171388489Y-53040729D01*
X170815000Y-52926655D01*
X170241511Y-53040729D01*
X169755330Y-53365585D01*
X169545000Y-53680366D01*
X169334670Y-53365585D01*
X168848489Y-53040729D01*
X168275000Y-52926655D01*
X167701511Y-53040729D01*
X167215330Y-53365585D01*
X167005000Y-53680366D01*
X166794670Y-53365585D01*
X166308489Y-53040729D01*
X165735000Y-52926655D01*
X165161511Y-53040729D01*
X164675330Y-53365585D01*
X164465000Y-53680366D01*
X164254670Y-53365585D01*
X163768489Y-53040729D01*
X163195000Y-52926655D01*
X162621511Y-53040729D01*
X162135330Y-53365585D01*
X161925000Y-53680366D01*
X161714670Y-53365585D01*
X161228489Y-53040729D01*
X160655000Y-52926655D01*
X160081511Y-53040729D01*
X159595330Y-53365585D01*
X159385000Y-53680366D01*
X159174670Y-53365585D01*
X158688489Y-53040729D01*
X158115000Y-52926655D01*
X157541511Y-53040729D01*
X157055330Y-53365585D01*
X156845000Y-53680366D01*
X156634670Y-53365585D01*
X156148489Y-53040729D01*
X155575000Y-52926655D01*
X155001511Y-53040729D01*
X154515330Y-53365585D01*
X154305000Y-53680366D01*
X154094670Y-53365585D01*
X153608489Y-53040729D01*
X153035000Y-52926655D01*
X152461511Y-53040729D01*
X151975330Y-53365585D01*
X151768539Y-53675069D01*
X151397036Y-53259268D01*
X150869791Y-53005291D01*
X150854026Y-53002642D01*
X150622000Y-53123783D01*
X150622000Y-54483000D01*
X150642000Y-54483000D01*
X150642000Y-54737000D01*
X150622000Y-54737000D01*
X150622000Y-54757000D01*
X150368000Y-54757000D01*
X150368000Y-54737000D01*
X150348000Y-54737000D01*
X150348000Y-54483000D01*
X150368000Y-54483000D01*
X150368000Y-53123783D01*
X150135974Y-53002642D01*
X150120209Y-53005291D01*
X149592964Y-53259268D01*
X149225000Y-53671108D01*
X149225000Y-52705000D01*
X152399995Y-52705000D01*
X152400000Y-52705001D01*
X152886008Y-52608327D01*
X153298026Y-52333026D01*
X153601052Y-52030000D01*
X154647689Y-52030000D01*
X154683276Y-52044777D01*
G36*
X83483407Y-143174838D02*
X83855373Y-143175162D01*
X84120776Y-143065500D01*
X87338866Y-143065500D01*
X87693206Y-143419840D01*
X87730459Y-143510000D01*
X79158327Y-143510000D01*
X79494380Y-143371146D01*
X79800559Y-143065500D01*
X83220093Y-143065500D01*
X83483407Y-143174838D01*
X83483407Y-143174838D01*
G37*
X83483407Y-143174838D02*
X83855373Y-143175162D01*
X84120776Y-143065500D01*
X87338866Y-143065500D01*
X87693206Y-143419840D01*
X87730459Y-143510000D01*
X79158327Y-143510000D01*
X79494380Y-143371146D01*
X79800559Y-143065500D01*
X83220093Y-143065500D01*
X83483407Y-143174838D01*
G36*
X46340000Y-112295440D02*
X46502385Y-112295440D01*
X46326271Y-112368389D01*
X46270590Y-112598984D01*
X46990000Y-113318395D01*
X47709410Y-112598984D01*
X47660155Y-112395000D01*
X50800000Y-112395000D01*
X50800000Y-112643621D01*
X50500729Y-113091511D01*
X50386655Y-113665000D01*
X50500729Y-114238489D01*
X50800000Y-114686379D01*
X50800000Y-115183621D01*
X50500729Y-115631511D01*
X50386655Y-116205000D01*
X50500729Y-116778489D01*
X50800000Y-117226379D01*
X50800000Y-117723621D01*
X50500729Y-118171511D01*
X50386655Y-118745000D01*
X50500729Y-119318489D01*
X50825585Y-119804670D01*
X51311766Y-120129526D01*
X51885255Y-120243600D01*
X52254745Y-120243600D01*
X52828234Y-120129526D01*
X53314415Y-119804670D01*
X53639271Y-119318489D01*
X53659343Y-119217581D01*
X54368700Y-119926938D01*
X54368700Y-127812800D01*
X54386123Y-127900391D01*
X54386038Y-127997967D01*
X54423628Y-128088943D01*
X54441205Y-128177306D01*
X54490821Y-128251561D01*
X54528083Y-128341743D01*
X54597628Y-128411410D01*
X54647681Y-128486319D01*
X54721936Y-128535935D01*
X54790873Y-128604992D01*
X54881784Y-128642742D01*
X54956694Y-128692795D01*
X55044283Y-128710218D01*
X55134401Y-128747638D01*
X55232838Y-128747724D01*
X55321200Y-128765300D01*
X55408791Y-128747877D01*
X55506367Y-128747962D01*
X55597343Y-128710372D01*
X55685706Y-128692795D01*
X55759961Y-128643179D01*
X55850143Y-128605917D01*
X55919810Y-128536372D01*
X55994719Y-128486319D01*
X56044335Y-128412064D01*
X56113392Y-128343127D01*
X56151142Y-128252216D01*
X56201195Y-128177306D01*
X56218618Y-128089717D01*
X56256038Y-127999599D01*
X56256124Y-127901162D01*
X56273700Y-127812800D01*
X56273700Y-124289552D01*
X56357630Y-124373629D01*
X56870900Y-124586757D01*
X57426661Y-124587242D01*
X57940303Y-124375010D01*
X58173219Y-124142500D01*
X61835462Y-124142500D01*
X63359338Y-125666377D01*
X63235914Y-125666269D01*
X62745620Y-125868854D01*
X62566662Y-126047500D01*
X60833000Y-126047500D01*
X60468494Y-126120005D01*
X60159481Y-126326481D01*
X58381481Y-128104481D01*
X58175005Y-128413494D01*
X58102500Y-128778000D01*
X58102500Y-129751656D01*
X58065618Y-129714774D01*
X57950607Y-129829785D01*
X57881143Y-129587603D01*
X57357698Y-129400856D01*
X56802632Y-129428638D01*
X56418857Y-129587603D01*
X56349392Y-129829787D01*
X57150000Y-130630395D01*
X57164143Y-130616253D01*
X57343748Y-130795858D01*
X57329605Y-130810000D01*
X57343748Y-130824143D01*
X57164143Y-131003748D01*
X57150000Y-130989605D01*
X56349392Y-131790213D01*
X56418857Y-132032397D01*
X56942302Y-132219144D01*
X57497368Y-132191362D01*
X57881143Y-132032397D01*
X57950607Y-131790215D01*
X58065618Y-131905226D01*
X58102500Y-131868344D01*
X58102500Y-132922509D01*
X57923902Y-133100796D01*
X57720232Y-133591287D01*
X57719769Y-134122383D01*
X57922582Y-134613229D01*
X58297796Y-134989098D01*
X58788287Y-135192768D01*
X59319383Y-135193231D01*
X59810229Y-134990418D01*
X60186098Y-134615204D01*
X60232905Y-134502481D01*
X60388081Y-134734719D01*
X62278289Y-136624927D01*
X62166732Y-136893587D01*
X62166269Y-137424086D01*
X62368854Y-137914380D01*
X62743647Y-138289827D01*
X63081446Y-138430094D01*
X62745620Y-138568854D01*
X62370173Y-138943647D01*
X62166732Y-139433587D01*
X62166269Y-139964086D01*
X62368854Y-140454380D01*
X62743647Y-140829827D01*
X63233587Y-141033268D01*
X63613363Y-141033599D01*
X62597462Y-142049500D01*
X60137931Y-142049500D01*
X60042090Y-141900559D01*
X59829890Y-141755569D01*
X59578000Y-141704560D01*
X59415615Y-141704560D01*
X59591729Y-141631611D01*
X59647410Y-141401016D01*
X58928000Y-140681605D01*
X58913858Y-140695748D01*
X58734252Y-140516142D01*
X58748395Y-140502000D01*
X59107605Y-140502000D01*
X59827016Y-141221410D01*
X60057611Y-141165729D01*
X60225622Y-140682922D01*
X60196083Y-140172572D01*
X60057611Y-139838271D01*
X59827016Y-139782590D01*
X59107605Y-140502000D01*
X58748395Y-140502000D01*
X58028984Y-139782590D01*
X57798389Y-139838271D01*
X57638575Y-140297523D01*
X56944036Y-139602984D01*
X58208590Y-139602984D01*
X58928000Y-140322395D01*
X59647410Y-139602984D01*
X59591729Y-139372389D01*
X59108922Y-139204378D01*
X58598572Y-139233917D01*
X58264271Y-139372389D01*
X58208590Y-139602984D01*
X56944036Y-139602984D01*
X56397026Y-139055974D01*
X55985008Y-138780673D01*
X55499000Y-138683999D01*
X55498995Y-138684000D01*
X50945051Y-138684000D01*
X50605882Y-138344831D01*
X51064383Y-138345231D01*
X51555229Y-138142418D01*
X51931098Y-137767204D01*
X52134768Y-137276713D01*
X52135231Y-136745617D01*
X51932418Y-136254771D01*
X51557204Y-135878902D01*
X51066713Y-135675232D01*
X50535617Y-135674769D01*
X50044771Y-135877582D01*
X49668902Y-136252796D01*
X49465232Y-136743287D01*
X49464831Y-137203779D01*
X46383435Y-134122383D01*
X47559769Y-134122383D01*
X47762582Y-134613229D01*
X48137796Y-134989098D01*
X48628287Y-135192768D01*
X49159383Y-135193231D01*
X49650229Y-134990418D01*
X49830461Y-134810500D01*
X53326462Y-134810500D01*
X54347500Y-135831538D01*
X54347500Y-136074509D01*
X54168902Y-136252796D01*
X53965232Y-136743287D01*
X53964769Y-137274383D01*
X54167582Y-137765229D01*
X54542796Y-138141098D01*
X55033287Y-138344768D01*
X55564383Y-138345231D01*
X56055229Y-138142418D01*
X56431098Y-137767204D01*
X56634768Y-137276713D01*
X56635231Y-136745617D01*
X56432418Y-136254771D01*
X56252500Y-136074539D01*
X56252500Y-135437000D01*
X56179995Y-135072494D01*
X55973519Y-134763481D01*
X54394519Y-133184481D01*
X54085506Y-132978005D01*
X53721000Y-132905500D01*
X49830491Y-132905500D01*
X49652204Y-132726902D01*
X49161713Y-132523232D01*
X48630617Y-132522769D01*
X48139771Y-132725582D01*
X47763902Y-133100796D01*
X47560232Y-133591287D01*
X47559769Y-134122383D01*
X46383435Y-134122383D01*
X43815000Y-131553948D01*
X43815000Y-130048000D01*
X48120560Y-130048000D01*
X48120560Y-131572000D01*
X48164838Y-131807317D01*
X48303910Y-132023441D01*
X48516110Y-132168431D01*
X48768000Y-132219440D01*
X50292000Y-132219440D01*
X50527317Y-132175162D01*
X50743441Y-132036090D01*
X50888431Y-131823890D01*
X50939440Y-131572000D01*
X50939440Y-130602302D01*
X55740856Y-130602302D01*
X55768638Y-131157368D01*
X55927603Y-131541143D01*
X56169787Y-131610608D01*
X56970395Y-130810000D01*
X56169787Y-130009392D01*
X55927603Y-130078857D01*
X55740856Y-130602302D01*
X50939440Y-130602302D01*
X50939440Y-130048000D01*
X50895162Y-129812683D01*
X50756090Y-129596559D01*
X50543890Y-129451569D01*
X50292000Y-129400560D01*
X48768000Y-129400560D01*
X48532683Y-129444838D01*
X48316559Y-129583910D01*
X48171569Y-129796110D01*
X48120560Y-130048000D01*
X43815000Y-130048000D01*
X43815000Y-126589016D01*
X45000590Y-126589016D01*
X45056271Y-126819611D01*
X45539078Y-126987622D01*
X46049428Y-126958083D01*
X46383729Y-126819611D01*
X46439410Y-126589016D01*
X45720000Y-125869605D01*
X45000590Y-126589016D01*
X43815000Y-126589016D01*
X43815000Y-125509078D01*
X44422378Y-125509078D01*
X44451917Y-126019428D01*
X44590389Y-126353729D01*
X44820984Y-126409410D01*
X45540395Y-125690000D01*
X45899605Y-125690000D01*
X46619016Y-126409410D01*
X46849611Y-126353729D01*
X47017622Y-125870922D01*
X46988083Y-125360572D01*
X46849611Y-125026271D01*
X46619016Y-124970590D01*
X45899605Y-125690000D01*
X45540395Y-125690000D01*
X44820984Y-124970590D01*
X44590389Y-125026271D01*
X44422378Y-125509078D01*
X43815000Y-125509078D01*
X43815000Y-124986052D01*
X44341051Y-124460000D01*
X44934497Y-124460000D01*
X45070000Y-124487440D01*
X45232385Y-124487440D01*
X45056271Y-124560389D01*
X45000590Y-124790984D01*
X45720000Y-125510395D01*
X46439410Y-124790984D01*
X46383729Y-124560389D01*
X46174098Y-124487440D01*
X46370000Y-124487440D01*
X46515831Y-124460000D01*
X48945635Y-124460000D01*
X49250900Y-124586757D01*
X49806661Y-124587242D01*
X50320303Y-124375010D01*
X50713629Y-123982370D01*
X50926757Y-123469100D01*
X50927242Y-122913339D01*
X50715010Y-122399697D01*
X50322370Y-122006371D01*
X49809100Y-121793243D01*
X49253339Y-121792758D01*
X48945389Y-121920000D01*
X46505503Y-121920000D01*
X46370000Y-121892560D01*
X45070000Y-121892560D01*
X44924169Y-121920000D01*
X43815000Y-121920000D01*
X43815000Y-114397016D01*
X46270590Y-114397016D01*
X46326271Y-114627611D01*
X46809078Y-114795622D01*
X47319428Y-114766083D01*
X47653729Y-114627611D01*
X47709410Y-114397016D01*
X46990000Y-113677605D01*
X46270590Y-114397016D01*
X43815000Y-114397016D01*
X43815000Y-114191052D01*
X44688973Y-113317078D01*
X45692378Y-113317078D01*
X45721917Y-113827428D01*
X45860389Y-114161729D01*
X46090984Y-114217410D01*
X46810395Y-113498000D01*
X47169605Y-113498000D01*
X47889016Y-114217410D01*
X48119611Y-114161729D01*
X48287622Y-113678922D01*
X48258083Y-113168572D01*
X48119611Y-112834271D01*
X47889016Y-112778590D01*
X47169605Y-113498000D01*
X46810395Y-113498000D01*
X46090984Y-112778590D01*
X45860389Y-112834271D01*
X45692378Y-113317078D01*
X44688973Y-113317078D01*
X45738051Y-112268000D01*
X46204497Y-112268000D01*
X46340000Y-112295440D01*
X46340000Y-112295440D01*
G37*
X46340000Y-112295440D02*
X46502385Y-112295440D01*
X46326271Y-112368389D01*
X46270590Y-112598984D01*
X46990000Y-113318395D01*
X47709410Y-112598984D01*
X47660155Y-112395000D01*
X50800000Y-112395000D01*
X50800000Y-112643621D01*
X50500729Y-113091511D01*
X50386655Y-113665000D01*
X50500729Y-114238489D01*
X50800000Y-114686379D01*
X50800000Y-115183621D01*
X50500729Y-115631511D01*
X50386655Y-116205000D01*
X50500729Y-116778489D01*
X50800000Y-117226379D01*
X50800000Y-117723621D01*
X50500729Y-118171511D01*
X50386655Y-118745000D01*
X50500729Y-119318489D01*
X50825585Y-119804670D01*
X51311766Y-120129526D01*
X51885255Y-120243600D01*
X52254745Y-120243600D01*
X52828234Y-120129526D01*
X53314415Y-119804670D01*
X53639271Y-119318489D01*
X53659343Y-119217581D01*
X54368700Y-119926938D01*
X54368700Y-127812800D01*
X54386123Y-127900391D01*
X54386038Y-127997967D01*
X54423628Y-128088943D01*
X54441205Y-128177306D01*
X54490821Y-128251561D01*
X54528083Y-128341743D01*
X54597628Y-128411410D01*
X54647681Y-128486319D01*
X54721936Y-128535935D01*
X54790873Y-128604992D01*
X54881784Y-128642742D01*
X54956694Y-128692795D01*
X55044283Y-128710218D01*
X55134401Y-128747638D01*
X55232838Y-128747724D01*
X55321200Y-128765300D01*
X55408791Y-128747877D01*
X55506367Y-128747962D01*
X55597343Y-128710372D01*
X55685706Y-128692795D01*
X55759961Y-128643179D01*
X55850143Y-128605917D01*
X55919810Y-128536372D01*
X55994719Y-128486319D01*
X56044335Y-128412064D01*
X56113392Y-128343127D01*
X56151142Y-128252216D01*
X56201195Y-128177306D01*
X56218618Y-128089717D01*
X56256038Y-127999599D01*
X56256124Y-127901162D01*
X56273700Y-127812800D01*
X56273700Y-124289552D01*
X56357630Y-124373629D01*
X56870900Y-124586757D01*
X57426661Y-124587242D01*
X57940303Y-124375010D01*
X58173219Y-124142500D01*
X61835462Y-124142500D01*
X63359338Y-125666377D01*
X63235914Y-125666269D01*
X62745620Y-125868854D01*
X62566662Y-126047500D01*
X60833000Y-126047500D01*
X60468494Y-126120005D01*
X60159481Y-126326481D01*
X58381481Y-128104481D01*
X58175005Y-128413494D01*
X58102500Y-128778000D01*
X58102500Y-129751656D01*
X58065618Y-129714774D01*
X57950607Y-129829785D01*
X57881143Y-129587603D01*
X57357698Y-129400856D01*
X56802632Y-129428638D01*
X56418857Y-129587603D01*
X56349392Y-129829787D01*
X57150000Y-130630395D01*
X57164143Y-130616253D01*
X57343748Y-130795858D01*
X57329605Y-130810000D01*
X57343748Y-130824143D01*
X57164143Y-131003748D01*
X57150000Y-130989605D01*
X56349392Y-131790213D01*
X56418857Y-132032397D01*
X56942302Y-132219144D01*
X57497368Y-132191362D01*
X57881143Y-132032397D01*
X57950607Y-131790215D01*
X58065618Y-131905226D01*
X58102500Y-131868344D01*
X58102500Y-132922509D01*
X57923902Y-133100796D01*
X57720232Y-133591287D01*
X57719769Y-134122383D01*
X57922582Y-134613229D01*
X58297796Y-134989098D01*
X58788287Y-135192768D01*
X59319383Y-135193231D01*
X59810229Y-134990418D01*
X60186098Y-134615204D01*
X60232905Y-134502481D01*
X60388081Y-134734719D01*
X62278289Y-136624927D01*
X62166732Y-136893587D01*
X62166269Y-137424086D01*
X62368854Y-137914380D01*
X62743647Y-138289827D01*
X63081446Y-138430094D01*
X62745620Y-138568854D01*
X62370173Y-138943647D01*
X62166732Y-139433587D01*
X62166269Y-139964086D01*
X62368854Y-140454380D01*
X62743647Y-140829827D01*
X63233587Y-141033268D01*
X63613363Y-141033599D01*
X62597462Y-142049500D01*
X60137931Y-142049500D01*
X60042090Y-141900559D01*
X59829890Y-141755569D01*
X59578000Y-141704560D01*
X59415615Y-141704560D01*
X59591729Y-141631611D01*
X59647410Y-141401016D01*
X58928000Y-140681605D01*
X58913858Y-140695748D01*
X58734252Y-140516142D01*
X58748395Y-140502000D01*
X59107605Y-140502000D01*
X59827016Y-141221410D01*
X60057611Y-141165729D01*
X60225622Y-140682922D01*
X60196083Y-140172572D01*
X60057611Y-139838271D01*
X59827016Y-139782590D01*
X59107605Y-140502000D01*
X58748395Y-140502000D01*
X58028984Y-139782590D01*
X57798389Y-139838271D01*
X57638575Y-140297523D01*
X56944036Y-139602984D01*
X58208590Y-139602984D01*
X58928000Y-140322395D01*
X59647410Y-139602984D01*
X59591729Y-139372389D01*
X59108922Y-139204378D01*
X58598572Y-139233917D01*
X58264271Y-139372389D01*
X58208590Y-139602984D01*
X56944036Y-139602984D01*
X56397026Y-139055974D01*
X55985008Y-138780673D01*
X55499000Y-138683999D01*
X55498995Y-138684000D01*
X50945051Y-138684000D01*
X50605882Y-138344831D01*
X51064383Y-138345231D01*
X51555229Y-138142418D01*
X51931098Y-137767204D01*
X52134768Y-137276713D01*
X52135231Y-136745617D01*
X51932418Y-136254771D01*
X51557204Y-135878902D01*
X51066713Y-135675232D01*
X50535617Y-135674769D01*
X50044771Y-135877582D01*
X49668902Y-136252796D01*
X49465232Y-136743287D01*
X49464831Y-137203779D01*
X46383435Y-134122383D01*
X47559769Y-134122383D01*
X47762582Y-134613229D01*
X48137796Y-134989098D01*
X48628287Y-135192768D01*
X49159383Y-135193231D01*
X49650229Y-134990418D01*
X49830461Y-134810500D01*
X53326462Y-134810500D01*
X54347500Y-135831538D01*
X54347500Y-136074509D01*
X54168902Y-136252796D01*
X53965232Y-136743287D01*
X53964769Y-137274383D01*
X54167582Y-137765229D01*
X54542796Y-138141098D01*
X55033287Y-138344768D01*
X55564383Y-138345231D01*
X56055229Y-138142418D01*
X56431098Y-137767204D01*
X56634768Y-137276713D01*
X56635231Y-136745617D01*
X56432418Y-136254771D01*
X56252500Y-136074539D01*
X56252500Y-135437000D01*
X56179995Y-135072494D01*
X55973519Y-134763481D01*
X54394519Y-133184481D01*
X54085506Y-132978005D01*
X53721000Y-132905500D01*
X49830491Y-132905500D01*
X49652204Y-132726902D01*
X49161713Y-132523232D01*
X48630617Y-132522769D01*
X48139771Y-132725582D01*
X47763902Y-133100796D01*
X47560232Y-133591287D01*
X47559769Y-134122383D01*
X46383435Y-134122383D01*
X43815000Y-131553948D01*
X43815000Y-130048000D01*
X48120560Y-130048000D01*
X48120560Y-131572000D01*
X48164838Y-131807317D01*
X48303910Y-132023441D01*
X48516110Y-132168431D01*
X48768000Y-132219440D01*
X50292000Y-132219440D01*
X50527317Y-132175162D01*
X50743441Y-132036090D01*
X50888431Y-131823890D01*
X50939440Y-131572000D01*
X50939440Y-130602302D01*
X55740856Y-130602302D01*
X55768638Y-131157368D01*
X55927603Y-131541143D01*
X56169787Y-131610608D01*
X56970395Y-130810000D01*
X56169787Y-130009392D01*
X55927603Y-130078857D01*
X55740856Y-130602302D01*
X50939440Y-130602302D01*
X50939440Y-130048000D01*
X50895162Y-129812683D01*
X50756090Y-129596559D01*
X50543890Y-129451569D01*
X50292000Y-129400560D01*
X48768000Y-129400560D01*
X48532683Y-129444838D01*
X48316559Y-129583910D01*
X48171569Y-129796110D01*
X48120560Y-130048000D01*
X43815000Y-130048000D01*
X43815000Y-126589016D01*
X45000590Y-126589016D01*
X45056271Y-126819611D01*
X45539078Y-126987622D01*
X46049428Y-126958083D01*
X46383729Y-126819611D01*
X46439410Y-126589016D01*
X45720000Y-125869605D01*
X45000590Y-126589016D01*
X43815000Y-126589016D01*
X43815000Y-125509078D01*
X44422378Y-125509078D01*
X44451917Y-126019428D01*
X44590389Y-126353729D01*
X44820984Y-126409410D01*
X45540395Y-125690000D01*
X45899605Y-125690000D01*
X46619016Y-126409410D01*
X46849611Y-126353729D01*
X47017622Y-125870922D01*
X46988083Y-125360572D01*
X46849611Y-125026271D01*
X46619016Y-124970590D01*
X45899605Y-125690000D01*
X45540395Y-125690000D01*
X44820984Y-124970590D01*
X44590389Y-125026271D01*
X44422378Y-125509078D01*
X43815000Y-125509078D01*
X43815000Y-124986052D01*
X44341051Y-124460000D01*
X44934497Y-124460000D01*
X45070000Y-124487440D01*
X45232385Y-124487440D01*
X45056271Y-124560389D01*
X45000590Y-124790984D01*
X45720000Y-125510395D01*
X46439410Y-124790984D01*
X46383729Y-124560389D01*
X46174098Y-124487440D01*
X46370000Y-124487440D01*
X46515831Y-124460000D01*
X48945635Y-124460000D01*
X49250900Y-124586757D01*
X49806661Y-124587242D01*
X50320303Y-124375010D01*
X50713629Y-123982370D01*
X50926757Y-123469100D01*
X50927242Y-122913339D01*
X50715010Y-122399697D01*
X50322370Y-122006371D01*
X49809100Y-121793243D01*
X49253339Y-121792758D01*
X48945389Y-121920000D01*
X46505503Y-121920000D01*
X46370000Y-121892560D01*
X45070000Y-121892560D01*
X44924169Y-121920000D01*
X43815000Y-121920000D01*
X43815000Y-114397016D01*
X46270590Y-114397016D01*
X46326271Y-114627611D01*
X46809078Y-114795622D01*
X47319428Y-114766083D01*
X47653729Y-114627611D01*
X47709410Y-114397016D01*
X46990000Y-113677605D01*
X46270590Y-114397016D01*
X43815000Y-114397016D01*
X43815000Y-114191052D01*
X44688973Y-113317078D01*
X45692378Y-113317078D01*
X45721917Y-113827428D01*
X45860389Y-114161729D01*
X46090984Y-114217410D01*
X46810395Y-113498000D01*
X47169605Y-113498000D01*
X47889016Y-114217410D01*
X48119611Y-114161729D01*
X48287622Y-113678922D01*
X48258083Y-113168572D01*
X48119611Y-112834271D01*
X47889016Y-112778590D01*
X47169605Y-113498000D01*
X46810395Y-113498000D01*
X46090984Y-112778590D01*
X45860389Y-112834271D01*
X45692378Y-113317078D01*
X44688973Y-113317078D01*
X45738051Y-112268000D01*
X46204497Y-112268000D01*
X46340000Y-112295440D01*
G36*
X137145000Y-138144250D02*
X137303750Y-138303000D01*
X138303000Y-138303000D01*
X138303000Y-138283000D01*
X138557000Y-138283000D01*
X138557000Y-138303000D01*
X138577000Y-138303000D01*
X138577000Y-138557000D01*
X138557000Y-138557000D01*
X138557000Y-138577000D01*
X138303000Y-138577000D01*
X138303000Y-138557000D01*
X137303750Y-138557000D01*
X137145000Y-138715750D01*
X137145000Y-139206309D01*
X137241673Y-139439698D01*
X137420301Y-139618327D01*
X137520908Y-139660000D01*
X126317122Y-139660000D01*
X126016691Y-139535250D01*
X125445813Y-139534752D01*
X124918200Y-139752757D01*
X124514176Y-140156077D01*
X124460138Y-140286215D01*
X124407243Y-140158200D01*
X124005673Y-139755929D01*
X124904480Y-138857122D01*
X124949967Y-138857162D01*
X125293743Y-138715117D01*
X125556992Y-138452327D01*
X125699638Y-138108799D01*
X125699758Y-137970800D01*
X137145000Y-137970800D01*
X137145000Y-138144250D01*
X137145000Y-138144250D01*
G37*
X137145000Y-138144250D02*
X137303750Y-138303000D01*
X138303000Y-138303000D01*
X138303000Y-138283000D01*
X138557000Y-138283000D01*
X138557000Y-138303000D01*
X138577000Y-138303000D01*
X138577000Y-138557000D01*
X138557000Y-138557000D01*
X138557000Y-138577000D01*
X138303000Y-138577000D01*
X138303000Y-138557000D01*
X137303750Y-138557000D01*
X137145000Y-138715750D01*
X137145000Y-139206309D01*
X137241673Y-139439698D01*
X137420301Y-139618327D01*
X137520908Y-139660000D01*
X126317122Y-139660000D01*
X126016691Y-139535250D01*
X125445813Y-139534752D01*
X124918200Y-139752757D01*
X124514176Y-140156077D01*
X124460138Y-140286215D01*
X124407243Y-140158200D01*
X124005673Y-139755929D01*
X124904480Y-138857122D01*
X124949967Y-138857162D01*
X125293743Y-138715117D01*
X125556992Y-138452327D01*
X125699638Y-138108799D01*
X125699758Y-137970800D01*
X137145000Y-137970800D01*
X137145000Y-138144250D01*
G36*
X78933748Y-137145858D02*
X78919605Y-137160000D01*
X79674188Y-137914583D01*
X79909800Y-137852929D01*
X80008083Y-137573688D01*
X80148854Y-137914380D01*
X80523647Y-138289827D01*
X80861446Y-138430094D01*
X80525620Y-138568854D01*
X80150173Y-138943647D01*
X80009906Y-139281446D01*
X79871146Y-138945620D01*
X79496353Y-138570173D01*
X79174882Y-138436686D01*
X79432929Y-138329800D01*
X79494583Y-138094188D01*
X78740000Y-137339605D01*
X78725858Y-137353748D01*
X78546253Y-137174143D01*
X78560395Y-137160000D01*
X78546253Y-137145858D01*
X78725858Y-136966253D01*
X78740000Y-136980395D01*
X78754143Y-136966253D01*
X78933748Y-137145858D01*
X78933748Y-137145858D01*
G37*
X78933748Y-137145858D02*
X78919605Y-137160000D01*
X79674188Y-137914583D01*
X79909800Y-137852929D01*
X80008083Y-137573688D01*
X80148854Y-137914380D01*
X80523647Y-138289827D01*
X80861446Y-138430094D01*
X80525620Y-138568854D01*
X80150173Y-138943647D01*
X80009906Y-139281446D01*
X79871146Y-138945620D01*
X79496353Y-138570173D01*
X79174882Y-138436686D01*
X79432929Y-138329800D01*
X79494583Y-138094188D01*
X78740000Y-137339605D01*
X78725858Y-137353748D01*
X78546253Y-137174143D01*
X78560395Y-137160000D01*
X78546253Y-137145858D01*
X78725858Y-136966253D01*
X78740000Y-136980395D01*
X78754143Y-136966253D01*
X78933748Y-137145858D01*
G36*
X98979799Y-133379401D02*
X99226360Y-133544148D01*
X99517200Y-133602000D01*
X129489200Y-133602000D01*
X129780039Y-133544148D01*
X129812627Y-133522374D01*
X129997530Y-133707600D01*
X93598362Y-133707600D01*
X93307523Y-133765452D01*
X93060961Y-133930199D01*
X91831786Y-135159374D01*
X90110121Y-133437709D01*
X90244229Y-133527317D01*
X90283425Y-133553507D01*
X90599330Y-133616345D01*
X90599335Y-133616344D01*
X91165217Y-133616344D01*
X91428531Y-133725682D01*
X91800497Y-133726006D01*
X92144273Y-133583961D01*
X92407522Y-133321171D01*
X92550168Y-132977643D01*
X92550492Y-132605677D01*
X92408447Y-132261901D01*
X92188830Y-132041900D01*
X92811600Y-132041900D01*
X93127506Y-131979063D01*
X93395317Y-131800117D01*
X95159840Y-130035594D01*
X95423343Y-129926717D01*
X95475274Y-129874876D01*
X98979799Y-133379401D01*
X98979799Y-133379401D01*
G37*
X98979799Y-133379401D02*
X99226360Y-133544148D01*
X99517200Y-133602000D01*
X129489200Y-133602000D01*
X129780039Y-133544148D01*
X129812627Y-133522374D01*
X129997530Y-133707600D01*
X93598362Y-133707600D01*
X93307523Y-133765452D01*
X93060961Y-133930199D01*
X91831786Y-135159374D01*
X90110121Y-133437709D01*
X90244229Y-133527317D01*
X90283425Y-133553507D01*
X90599330Y-133616345D01*
X90599335Y-133616344D01*
X91165217Y-133616344D01*
X91428531Y-133725682D01*
X91800497Y-133726006D01*
X92144273Y-133583961D01*
X92407522Y-133321171D01*
X92550168Y-132977643D01*
X92550492Y-132605677D01*
X92408447Y-132261901D01*
X92188830Y-132041900D01*
X92811600Y-132041900D01*
X93127506Y-131979063D01*
X93395317Y-131800117D01*
X95159840Y-130035594D01*
X95423343Y-129926717D01*
X95475274Y-129874876D01*
X98979799Y-133379401D01*
G36*
X93227052Y-124321561D02*
X93214168Y-124386335D01*
X92926777Y-124283035D01*
X92356546Y-124310222D01*
X91955995Y-124476136D01*
X91881861Y-124722255D01*
X92710000Y-125550395D01*
X92724142Y-125536252D01*
X92903748Y-125715858D01*
X92889605Y-125730000D01*
X92903748Y-125744143D01*
X92724142Y-125923748D01*
X92710000Y-125909605D01*
X91881861Y-126737745D01*
X91955995Y-126983864D01*
X92493223Y-127176965D01*
X93063454Y-127149778D01*
X93169200Y-127105976D01*
X93169200Y-127254000D01*
X93227052Y-127544839D01*
X93391799Y-127791401D01*
X94152984Y-128552586D01*
X94102208Y-128603273D01*
X93992082Y-128868484D01*
X92469666Y-130390900D01*
X91321477Y-130390900D01*
X91439758Y-130106048D01*
X91440082Y-129734082D01*
X91298037Y-129390306D01*
X91035247Y-129127057D01*
X90770035Y-129016931D01*
X87266328Y-125513223D01*
X91263035Y-125513223D01*
X91290222Y-126083454D01*
X91456136Y-126484005D01*
X91702255Y-126558139D01*
X92530395Y-125730000D01*
X91702255Y-124901861D01*
X91456136Y-124975995D01*
X91263035Y-125513223D01*
X87266328Y-125513223D01*
X85949604Y-124196499D01*
X93310616Y-124196499D01*
X93227052Y-124321561D01*
X93227052Y-124321561D01*
G37*
X93227052Y-124321561D02*
X93214168Y-124386335D01*
X92926777Y-124283035D01*
X92356546Y-124310222D01*
X91955995Y-124476136D01*
X91881861Y-124722255D01*
X92710000Y-125550395D01*
X92724142Y-125536252D01*
X92903748Y-125715858D01*
X92889605Y-125730000D01*
X92903748Y-125744143D01*
X92724142Y-125923748D01*
X92710000Y-125909605D01*
X91881861Y-126737745D01*
X91955995Y-126983864D01*
X92493223Y-127176965D01*
X93063454Y-127149778D01*
X93169200Y-127105976D01*
X93169200Y-127254000D01*
X93227052Y-127544839D01*
X93391799Y-127791401D01*
X94152984Y-128552586D01*
X94102208Y-128603273D01*
X93992082Y-128868484D01*
X92469666Y-130390900D01*
X91321477Y-130390900D01*
X91439758Y-130106048D01*
X91440082Y-129734082D01*
X91298037Y-129390306D01*
X91035247Y-129127057D01*
X90770035Y-129016931D01*
X87266328Y-125513223D01*
X91263035Y-125513223D01*
X91290222Y-126083454D01*
X91456136Y-126484005D01*
X91702255Y-126558139D01*
X92530395Y-125730000D01*
X91702255Y-124901861D01*
X91456136Y-124975995D01*
X91263035Y-125513223D01*
X87266328Y-125513223D01*
X85949604Y-124196499D01*
X93310616Y-124196499D01*
X93227052Y-124321561D01*
G36*
X142433748Y-123810858D02*
X142419605Y-123825000D01*
X142433748Y-123839142D01*
X142254142Y-124018748D01*
X142240000Y-124004605D01*
X142225858Y-124018748D01*
X142046252Y-123839142D01*
X142060395Y-123825000D01*
X142046252Y-123810858D01*
X142225858Y-123631252D01*
X142240000Y-123645395D01*
X142254142Y-123631252D01*
X142433748Y-123810858D01*
X142433748Y-123810858D01*
G37*
X142433748Y-123810858D02*
X142419605Y-123825000D01*
X142433748Y-123839142D01*
X142254142Y-124018748D01*
X142240000Y-124004605D01*
X142225858Y-124018748D01*
X142046252Y-123839142D01*
X142060395Y-123825000D01*
X142046252Y-123810858D01*
X142225858Y-123631252D01*
X142240000Y-123645395D01*
X142254142Y-123631252D01*
X142433748Y-123810858D01*
G36*
X55455330Y-55854415D02*
X55562500Y-55926024D01*
X55562500Y-57554166D01*
X55554762Y-57572801D01*
X55554438Y-57944767D01*
X55562500Y-57964279D01*
X55562500Y-104216200D01*
X55635005Y-104580706D01*
X55841481Y-104889719D01*
X58577734Y-107625972D01*
X58563494Y-107628805D01*
X58489239Y-107678421D01*
X58399057Y-107715683D01*
X58329390Y-107785228D01*
X58254481Y-107835281D01*
X56476481Y-109613281D01*
X56270005Y-109922294D01*
X56197500Y-110286800D01*
X56197500Y-119162364D01*
X55994719Y-118858881D01*
X54927500Y-117791662D01*
X54927500Y-55926024D01*
X55034670Y-55854415D01*
X55245000Y-55539634D01*
X55455330Y-55854415D01*
X55455330Y-55854415D01*
G37*
X55455330Y-55854415D02*
X55562500Y-55926024D01*
X55562500Y-57554166D01*
X55554762Y-57572801D01*
X55554438Y-57944767D01*
X55562500Y-57964279D01*
X55562500Y-104216200D01*
X55635005Y-104580706D01*
X55841481Y-104889719D01*
X58577734Y-107625972D01*
X58563494Y-107628805D01*
X58489239Y-107678421D01*
X58399057Y-107715683D01*
X58329390Y-107785228D01*
X58254481Y-107835281D01*
X56476481Y-109613281D01*
X56270005Y-109922294D01*
X56197500Y-110286800D01*
X56197500Y-119162364D01*
X55994719Y-118858881D01*
X54927500Y-117791662D01*
X54927500Y-55926024D01*
X55034670Y-55854415D01*
X55245000Y-55539634D01*
X55455330Y-55854415D01*
G36*
X46441600Y-73687440D02*
X46603985Y-73687440D01*
X46427871Y-73760389D01*
X46372190Y-73990984D01*
X47091600Y-74710395D01*
X47811010Y-73990984D01*
X47755329Y-73760389D01*
X47545698Y-73687440D01*
X47741600Y-73687440D01*
X47887431Y-73660000D01*
X50541829Y-73660000D01*
X50800000Y-74046379D01*
X50800000Y-74543621D01*
X50500729Y-74991511D01*
X50386655Y-75565000D01*
X50500729Y-76138489D01*
X50800000Y-76586379D01*
X50800000Y-77083621D01*
X50500729Y-77531511D01*
X50386655Y-78105000D01*
X50500729Y-78678489D01*
X50825585Y-79164670D01*
X51140366Y-79375000D01*
X50825585Y-79585330D01*
X50500729Y-80071511D01*
X50386655Y-80645000D01*
X50500729Y-81218489D01*
X50825585Y-81704670D01*
X51140366Y-81915000D01*
X50825585Y-82125330D01*
X50500729Y-82611511D01*
X50386655Y-83185000D01*
X50500729Y-83758489D01*
X50825585Y-84244670D01*
X51140366Y-84455000D01*
X50825585Y-84665330D01*
X50500729Y-85151511D01*
X50386655Y-85725000D01*
X50500729Y-86298489D01*
X50825585Y-86784670D01*
X51140366Y-86995000D01*
X50825585Y-87205330D01*
X50500729Y-87691511D01*
X50386655Y-88265000D01*
X50500729Y-88838489D01*
X50825585Y-89324670D01*
X51140366Y-89535000D01*
X50825585Y-89745330D01*
X50500729Y-90231511D01*
X50386655Y-90805000D01*
X50500729Y-91378489D01*
X50825585Y-91864670D01*
X51140366Y-92075000D01*
X50825585Y-92285330D01*
X50500729Y-92771511D01*
X50386655Y-93345000D01*
X50500729Y-93918489D01*
X50825585Y-94404670D01*
X51135069Y-94611461D01*
X50719268Y-94982964D01*
X50465291Y-95510209D01*
X50462642Y-95525974D01*
X50583783Y-95758000D01*
X51943000Y-95758000D01*
X51943000Y-95738000D01*
X52197000Y-95738000D01*
X52197000Y-95758000D01*
X52217000Y-95758000D01*
X52217000Y-96012000D01*
X52197000Y-96012000D01*
X52197000Y-98298000D01*
X52217000Y-98298000D01*
X52217000Y-98552000D01*
X52197000Y-98552000D01*
X52197000Y-100838000D01*
X52217000Y-100838000D01*
X52217000Y-101092000D01*
X52197000Y-101092000D01*
X52197000Y-103378000D01*
X52217000Y-103378000D01*
X52217000Y-103632000D01*
X52197000Y-103632000D01*
X52197000Y-105918000D01*
X52217000Y-105918000D01*
X52217000Y-106172000D01*
X52197000Y-106172000D01*
X52197000Y-106192000D01*
X51943000Y-106192000D01*
X51943000Y-106172000D01*
X50583783Y-106172000D01*
X50462642Y-106404026D01*
X50465291Y-106419791D01*
X50719268Y-106947036D01*
X51135069Y-107318539D01*
X50825585Y-107525330D01*
X50500729Y-108011511D01*
X50386655Y-108585000D01*
X50500729Y-109158489D01*
X50800000Y-109606379D01*
X50800000Y-109855000D01*
X48043266Y-109855000D01*
X47891890Y-109751569D01*
X47640000Y-109700560D01*
X46340000Y-109700560D01*
X46194169Y-109728000D01*
X45212005Y-109728000D01*
X45212000Y-109727999D01*
X44725992Y-109824673D01*
X44313974Y-110099974D01*
X44313972Y-110099977D01*
X43815000Y-110598949D01*
X43815000Y-103864026D01*
X50462642Y-103864026D01*
X50465291Y-103879791D01*
X50719268Y-104407036D01*
X51131108Y-104775000D01*
X50719268Y-105142964D01*
X50465291Y-105670209D01*
X50462642Y-105685974D01*
X50583783Y-105918000D01*
X51943000Y-105918000D01*
X51943000Y-103632000D01*
X50583783Y-103632000D01*
X50462642Y-103864026D01*
X43815000Y-103864026D01*
X43815000Y-101324026D01*
X50462642Y-101324026D01*
X50465291Y-101339791D01*
X50719268Y-101867036D01*
X51131108Y-102235000D01*
X50719268Y-102602964D01*
X50465291Y-103130209D01*
X50462642Y-103145974D01*
X50583783Y-103378000D01*
X51943000Y-103378000D01*
X51943000Y-101092000D01*
X50583783Y-101092000D01*
X50462642Y-101324026D01*
X43815000Y-101324026D01*
X43815000Y-98784026D01*
X50462642Y-98784026D01*
X50465291Y-98799791D01*
X50719268Y-99327036D01*
X51131108Y-99695000D01*
X50719268Y-100062964D01*
X50465291Y-100590209D01*
X50462642Y-100605974D01*
X50583783Y-100838000D01*
X51943000Y-100838000D01*
X51943000Y-98552000D01*
X50583783Y-98552000D01*
X50462642Y-98784026D01*
X43815000Y-98784026D01*
X43815000Y-96244026D01*
X50462642Y-96244026D01*
X50465291Y-96259791D01*
X50719268Y-96787036D01*
X51131108Y-97155000D01*
X50719268Y-97522964D01*
X50465291Y-98050209D01*
X50462642Y-98065974D01*
X50583783Y-98298000D01*
X51943000Y-98298000D01*
X51943000Y-96012000D01*
X50583783Y-96012000D01*
X50462642Y-96244026D01*
X43815000Y-96244026D01*
X43815000Y-76091052D01*
X44117036Y-75789016D01*
X46372190Y-75789016D01*
X46427871Y-76019611D01*
X46910678Y-76187622D01*
X47421028Y-76158083D01*
X47755329Y-76019611D01*
X47811010Y-75789016D01*
X47091600Y-75069605D01*
X46372190Y-75789016D01*
X44117036Y-75789016D01*
X45196974Y-74709078D01*
X45793978Y-74709078D01*
X45823517Y-75219428D01*
X45961989Y-75553729D01*
X46192584Y-75609410D01*
X46911995Y-74890000D01*
X47271205Y-74890000D01*
X47990616Y-75609410D01*
X48221211Y-75553729D01*
X48389222Y-75070922D01*
X48359683Y-74560572D01*
X48221211Y-74226271D01*
X47990616Y-74170590D01*
X47271205Y-74890000D01*
X46911995Y-74890000D01*
X46192584Y-74170590D01*
X45961989Y-74226271D01*
X45793978Y-74709078D01*
X45196974Y-74709078D01*
X46246052Y-73660000D01*
X46306097Y-73660000D01*
X46441600Y-73687440D01*
X46441600Y-73687440D01*
G37*
X46441600Y-73687440D02*
X46603985Y-73687440D01*
X46427871Y-73760389D01*
X46372190Y-73990984D01*
X47091600Y-74710395D01*
X47811010Y-73990984D01*
X47755329Y-73760389D01*
X47545698Y-73687440D01*
X47741600Y-73687440D01*
X47887431Y-73660000D01*
X50541829Y-73660000D01*
X50800000Y-74046379D01*
X50800000Y-74543621D01*
X50500729Y-74991511D01*
X50386655Y-75565000D01*
X50500729Y-76138489D01*
X50800000Y-76586379D01*
X50800000Y-77083621D01*
X50500729Y-77531511D01*
X50386655Y-78105000D01*
X50500729Y-78678489D01*
X50825585Y-79164670D01*
X51140366Y-79375000D01*
X50825585Y-79585330D01*
X50500729Y-80071511D01*
X50386655Y-80645000D01*
X50500729Y-81218489D01*
X50825585Y-81704670D01*
X51140366Y-81915000D01*
X50825585Y-82125330D01*
X50500729Y-82611511D01*
X50386655Y-83185000D01*
X50500729Y-83758489D01*
X50825585Y-84244670D01*
X51140366Y-84455000D01*
X50825585Y-84665330D01*
X50500729Y-85151511D01*
X50386655Y-85725000D01*
X50500729Y-86298489D01*
X50825585Y-86784670D01*
X51140366Y-86995000D01*
X50825585Y-87205330D01*
X50500729Y-87691511D01*
X50386655Y-88265000D01*
X50500729Y-88838489D01*
X50825585Y-89324670D01*
X51140366Y-89535000D01*
X50825585Y-89745330D01*
X50500729Y-90231511D01*
X50386655Y-90805000D01*
X50500729Y-91378489D01*
X50825585Y-91864670D01*
X51140366Y-92075000D01*
X50825585Y-92285330D01*
X50500729Y-92771511D01*
X50386655Y-93345000D01*
X50500729Y-93918489D01*
X50825585Y-94404670D01*
X51135069Y-94611461D01*
X50719268Y-94982964D01*
X50465291Y-95510209D01*
X50462642Y-95525974D01*
X50583783Y-95758000D01*
X51943000Y-95758000D01*
X51943000Y-95738000D01*
X52197000Y-95738000D01*
X52197000Y-95758000D01*
X52217000Y-95758000D01*
X52217000Y-96012000D01*
X52197000Y-96012000D01*
X52197000Y-98298000D01*
X52217000Y-98298000D01*
X52217000Y-98552000D01*
X52197000Y-98552000D01*
X52197000Y-100838000D01*
X52217000Y-100838000D01*
X52217000Y-101092000D01*
X52197000Y-101092000D01*
X52197000Y-103378000D01*
X52217000Y-103378000D01*
X52217000Y-103632000D01*
X52197000Y-103632000D01*
X52197000Y-105918000D01*
X52217000Y-105918000D01*
X52217000Y-106172000D01*
X52197000Y-106172000D01*
X52197000Y-106192000D01*
X51943000Y-106192000D01*
X51943000Y-106172000D01*
X50583783Y-106172000D01*
X50462642Y-106404026D01*
X50465291Y-106419791D01*
X50719268Y-106947036D01*
X51135069Y-107318539D01*
X50825585Y-107525330D01*
X50500729Y-108011511D01*
X50386655Y-108585000D01*
X50500729Y-109158489D01*
X50800000Y-109606379D01*
X50800000Y-109855000D01*
X48043266Y-109855000D01*
X47891890Y-109751569D01*
X47640000Y-109700560D01*
X46340000Y-109700560D01*
X46194169Y-109728000D01*
X45212005Y-109728000D01*
X45212000Y-109727999D01*
X44725992Y-109824673D01*
X44313974Y-110099974D01*
X44313972Y-110099977D01*
X43815000Y-110598949D01*
X43815000Y-103864026D01*
X50462642Y-103864026D01*
X50465291Y-103879791D01*
X50719268Y-104407036D01*
X51131108Y-104775000D01*
X50719268Y-105142964D01*
X50465291Y-105670209D01*
X50462642Y-105685974D01*
X50583783Y-105918000D01*
X51943000Y-105918000D01*
X51943000Y-103632000D01*
X50583783Y-103632000D01*
X50462642Y-103864026D01*
X43815000Y-103864026D01*
X43815000Y-101324026D01*
X50462642Y-101324026D01*
X50465291Y-101339791D01*
X50719268Y-101867036D01*
X51131108Y-102235000D01*
X50719268Y-102602964D01*
X50465291Y-103130209D01*
X50462642Y-103145974D01*
X50583783Y-103378000D01*
X51943000Y-103378000D01*
X51943000Y-101092000D01*
X50583783Y-101092000D01*
X50462642Y-101324026D01*
X43815000Y-101324026D01*
X43815000Y-98784026D01*
X50462642Y-98784026D01*
X50465291Y-98799791D01*
X50719268Y-99327036D01*
X51131108Y-99695000D01*
X50719268Y-100062964D01*
X50465291Y-100590209D01*
X50462642Y-100605974D01*
X50583783Y-100838000D01*
X51943000Y-100838000D01*
X51943000Y-98552000D01*
X50583783Y-98552000D01*
X50462642Y-98784026D01*
X43815000Y-98784026D01*
X43815000Y-96244026D01*
X50462642Y-96244026D01*
X50465291Y-96259791D01*
X50719268Y-96787036D01*
X51131108Y-97155000D01*
X50719268Y-97522964D01*
X50465291Y-98050209D01*
X50462642Y-98065974D01*
X50583783Y-98298000D01*
X51943000Y-98298000D01*
X51943000Y-96012000D01*
X50583783Y-96012000D01*
X50462642Y-96244026D01*
X43815000Y-96244026D01*
X43815000Y-76091052D01*
X44117036Y-75789016D01*
X46372190Y-75789016D01*
X46427871Y-76019611D01*
X46910678Y-76187622D01*
X47421028Y-76158083D01*
X47755329Y-76019611D01*
X47811010Y-75789016D01*
X47091600Y-75069605D01*
X46372190Y-75789016D01*
X44117036Y-75789016D01*
X45196974Y-74709078D01*
X45793978Y-74709078D01*
X45823517Y-75219428D01*
X45961989Y-75553729D01*
X46192584Y-75609410D01*
X46911995Y-74890000D01*
X47271205Y-74890000D01*
X47990616Y-75609410D01*
X48221211Y-75553729D01*
X48389222Y-75070922D01*
X48359683Y-74560572D01*
X48221211Y-74226271D01*
X47990616Y-74170590D01*
X47271205Y-74890000D01*
X46911995Y-74890000D01*
X46192584Y-74170590D01*
X45961989Y-74226271D01*
X45793978Y-74709078D01*
X45196974Y-74709078D01*
X46246052Y-73660000D01*
X46306097Y-73660000D01*
X46441600Y-73687440D01*
G36*
X52590474Y-48136766D02*
X52476400Y-48710255D01*
X52476400Y-49079745D01*
X52590474Y-49653234D01*
X52915330Y-50139415D01*
X53022500Y-50211024D01*
X53022500Y-53293976D01*
X52915330Y-53365585D01*
X52590474Y-53851766D01*
X52476400Y-54425255D01*
X52476400Y-54794745D01*
X52590474Y-55368234D01*
X52915330Y-55854415D01*
X53022500Y-55926024D01*
X53022500Y-56527158D01*
X52984320Y-56493046D01*
X52431913Y-56299816D01*
X52197000Y-56444076D01*
X52197000Y-57658000D01*
X52217000Y-57658000D01*
X52217000Y-57912000D01*
X52197000Y-57912000D01*
X52197000Y-60198000D01*
X52217000Y-60198000D01*
X52217000Y-60452000D01*
X52197000Y-60452000D01*
X52197000Y-62738000D01*
X52217000Y-62738000D01*
X52217000Y-62992000D01*
X52197000Y-62992000D01*
X52197000Y-65278000D01*
X52217000Y-65278000D01*
X52217000Y-65532000D01*
X52197000Y-65532000D01*
X52197000Y-65552000D01*
X51943000Y-65552000D01*
X51943000Y-65532000D01*
X50583783Y-65532000D01*
X50462642Y-65764026D01*
X50465291Y-65779791D01*
X50719268Y-66307036D01*
X51135069Y-66678539D01*
X50825585Y-66885330D01*
X50500729Y-67371511D01*
X50386655Y-67945000D01*
X50500729Y-68518489D01*
X50800000Y-68966379D01*
X50800000Y-69463621D01*
X50500729Y-69911511D01*
X50386655Y-70485000D01*
X50500729Y-71058489D01*
X50541829Y-71120000D01*
X47877103Y-71120000D01*
X47741600Y-71092560D01*
X46441600Y-71092560D01*
X46295769Y-71120000D01*
X45720005Y-71120000D01*
X45720000Y-71119999D01*
X45233992Y-71216673D01*
X44821974Y-71491974D01*
X41646974Y-74666974D01*
X41371673Y-75078992D01*
X41325000Y-75313631D01*
X41325000Y-63224026D01*
X50462642Y-63224026D01*
X50465291Y-63239791D01*
X50719268Y-63767036D01*
X51131108Y-64135000D01*
X50719268Y-64502964D01*
X50465291Y-65030209D01*
X50462642Y-65045974D01*
X50583783Y-65278000D01*
X51943000Y-65278000D01*
X51943000Y-62992000D01*
X50583783Y-62992000D01*
X50462642Y-63224026D01*
X41325000Y-63224026D01*
X41325000Y-60684026D01*
X50462642Y-60684026D01*
X50465291Y-60699791D01*
X50719268Y-61227036D01*
X51131108Y-61595000D01*
X50719268Y-61962964D01*
X50465291Y-62490209D01*
X50462642Y-62505974D01*
X50583783Y-62738000D01*
X51943000Y-62738000D01*
X51943000Y-60452000D01*
X50583783Y-60452000D01*
X50462642Y-60684026D01*
X41325000Y-60684026D01*
X41325000Y-58144026D01*
X50462642Y-58144026D01*
X50465291Y-58159791D01*
X50719268Y-58687036D01*
X51131108Y-59055000D01*
X50719268Y-59422964D01*
X50465291Y-59950209D01*
X50462642Y-59965974D01*
X50583783Y-60198000D01*
X51943000Y-60198000D01*
X51943000Y-57912000D01*
X50583783Y-57912000D01*
X50462642Y-58144026D01*
X41325000Y-58144026D01*
X41325000Y-57425974D01*
X50462642Y-57425974D01*
X50583783Y-57658000D01*
X51943000Y-57658000D01*
X51943000Y-56444076D01*
X51708087Y-56299816D01*
X51155680Y-56493046D01*
X50719268Y-56882964D01*
X50465291Y-57410209D01*
X50462642Y-57425974D01*
X41325000Y-57425974D01*
X41325000Y-52690854D01*
X42584457Y-52690854D01*
X43060727Y-53843515D01*
X43941847Y-54726174D01*
X45093674Y-55204454D01*
X46340854Y-55205543D01*
X47493515Y-54729273D01*
X48376174Y-53848153D01*
X48854454Y-52696326D01*
X48855543Y-51449146D01*
X48379273Y-50296485D01*
X47498153Y-49413826D01*
X46346326Y-48935546D01*
X45099146Y-48934457D01*
X43946485Y-49410727D01*
X43063826Y-50291847D01*
X42585546Y-51443674D01*
X42584457Y-52690854D01*
X41325000Y-52690854D01*
X41325000Y-47675000D01*
X52899016Y-47675000D01*
X52590474Y-48136766D01*
X52590474Y-48136766D01*
G37*
X52590474Y-48136766D02*
X52476400Y-48710255D01*
X52476400Y-49079745D01*
X52590474Y-49653234D01*
X52915330Y-50139415D01*
X53022500Y-50211024D01*
X53022500Y-53293976D01*
X52915330Y-53365585D01*
X52590474Y-53851766D01*
X52476400Y-54425255D01*
X52476400Y-54794745D01*
X52590474Y-55368234D01*
X52915330Y-55854415D01*
X53022500Y-55926024D01*
X53022500Y-56527158D01*
X52984320Y-56493046D01*
X52431913Y-56299816D01*
X52197000Y-56444076D01*
X52197000Y-57658000D01*
X52217000Y-57658000D01*
X52217000Y-57912000D01*
X52197000Y-57912000D01*
X52197000Y-60198000D01*
X52217000Y-60198000D01*
X52217000Y-60452000D01*
X52197000Y-60452000D01*
X52197000Y-62738000D01*
X52217000Y-62738000D01*
X52217000Y-62992000D01*
X52197000Y-62992000D01*
X52197000Y-65278000D01*
X52217000Y-65278000D01*
X52217000Y-65532000D01*
X52197000Y-65532000D01*
X52197000Y-65552000D01*
X51943000Y-65552000D01*
X51943000Y-65532000D01*
X50583783Y-65532000D01*
X50462642Y-65764026D01*
X50465291Y-65779791D01*
X50719268Y-66307036D01*
X51135069Y-66678539D01*
X50825585Y-66885330D01*
X50500729Y-67371511D01*
X50386655Y-67945000D01*
X50500729Y-68518489D01*
X50800000Y-68966379D01*
X50800000Y-69463621D01*
X50500729Y-69911511D01*
X50386655Y-70485000D01*
X50500729Y-71058489D01*
X50541829Y-71120000D01*
X47877103Y-71120000D01*
X47741600Y-71092560D01*
X46441600Y-71092560D01*
X46295769Y-71120000D01*
X45720005Y-71120000D01*
X45720000Y-71119999D01*
X45233992Y-71216673D01*
X44821974Y-71491974D01*
X41646974Y-74666974D01*
X41371673Y-75078992D01*
X41325000Y-75313631D01*
X41325000Y-63224026D01*
X50462642Y-63224026D01*
X50465291Y-63239791D01*
X50719268Y-63767036D01*
X51131108Y-64135000D01*
X50719268Y-64502964D01*
X50465291Y-65030209D01*
X50462642Y-65045974D01*
X50583783Y-65278000D01*
X51943000Y-65278000D01*
X51943000Y-62992000D01*
X50583783Y-62992000D01*
X50462642Y-63224026D01*
X41325000Y-63224026D01*
X41325000Y-60684026D01*
X50462642Y-60684026D01*
X50465291Y-60699791D01*
X50719268Y-61227036D01*
X51131108Y-61595000D01*
X50719268Y-61962964D01*
X50465291Y-62490209D01*
X50462642Y-62505974D01*
X50583783Y-62738000D01*
X51943000Y-62738000D01*
X51943000Y-60452000D01*
X50583783Y-60452000D01*
X50462642Y-60684026D01*
X41325000Y-60684026D01*
X41325000Y-58144026D01*
X50462642Y-58144026D01*
X50465291Y-58159791D01*
X50719268Y-58687036D01*
X51131108Y-59055000D01*
X50719268Y-59422964D01*
X50465291Y-59950209D01*
X50462642Y-59965974D01*
X50583783Y-60198000D01*
X51943000Y-60198000D01*
X51943000Y-57912000D01*
X50583783Y-57912000D01*
X50462642Y-58144026D01*
X41325000Y-58144026D01*
X41325000Y-57425974D01*
X50462642Y-57425974D01*
X50583783Y-57658000D01*
X51943000Y-57658000D01*
X51943000Y-56444076D01*
X51708087Y-56299816D01*
X51155680Y-56493046D01*
X50719268Y-56882964D01*
X50465291Y-57410209D01*
X50462642Y-57425974D01*
X41325000Y-57425974D01*
X41325000Y-52690854D01*
X42584457Y-52690854D01*
X43060727Y-53843515D01*
X43941847Y-54726174D01*
X45093674Y-55204454D01*
X46340854Y-55205543D01*
X47493515Y-54729273D01*
X48376174Y-53848153D01*
X48854454Y-52696326D01*
X48855543Y-51449146D01*
X48379273Y-50296485D01*
X47498153Y-49413826D01*
X46346326Y-48935546D01*
X45099146Y-48934457D01*
X43946485Y-49410727D01*
X43063826Y-50291847D01*
X42585546Y-51443674D01*
X42584457Y-52690854D01*
X41325000Y-52690854D01*
X41325000Y-47675000D01*
X52899016Y-47675000D01*
X52590474Y-48136766D01*
M02*
