G04 #@! TF.FileFunction,Soldermask,Top*
%FSLAX46Y46*%
G04 Gerber Fmt 4.6, Leading zero omitted, Abs format (unit mm)*
G04 Created by KiCad (PCBNEW (2015-08-16 BZR 6097, Git b384c94)-product) date 10/3/2015 5:34:04 PM*
%MOMM*%
G01*
G04 APERTURE LIST*
%ADD10C,0.100000*%
%ADD11C,5.000000*%
%ADD12C,4.500000*%
%ADD13C,4.000000*%
%ADD14R,2.000000X1.900000*%
%ADD15C,1.900000*%
%ADD16C,1.400000*%
%ADD17C,1.300000*%
%ADD18C,1.800000*%
%ADD19R,1.524000X1.524000*%
%ADD20C,1.524000*%
%ADD21R,1.397000X1.397000*%
%ADD22C,1.397000*%
%ADD23R,1.300000X1.300000*%
%ADD24R,1.400000X1.400000*%
%ADD25C,1.699260*%
%ADD26R,1.699260X1.699260*%
%ADD27O,1.727200X2.032000*%
%ADD28R,1.600000X1.600000*%
%ADD29C,1.600000*%
%ADD30O,2.500000X1.600000*%
%ADD31O,1.600000X2.500000*%
%ADD32O,2.032000X1.727200*%
%ADD33C,1.501140*%
G04 APERTURE END LIST*
D10*
D11*
X45720000Y-52070000D03*
X45720000Y-140970000D03*
X233680000Y-140970000D03*
X233680000Y-52070000D03*
D12*
X229870000Y-130175000D03*
D13*
X235870000Y-130175000D03*
X232870000Y-125475000D03*
D14*
X205105000Y-127635000D03*
D15*
X205105000Y-125095000D03*
D16*
X50800000Y-143510000D03*
X50800000Y-137010000D03*
X55300000Y-143510000D03*
X55300000Y-137010000D03*
D17*
X221865000Y-142875000D03*
X225865000Y-142875000D03*
D18*
X219765000Y-142875000D03*
X227965000Y-142875000D03*
D17*
X223865000Y-142875000D03*
D19*
X49530000Y-130810000D03*
D20*
X57150000Y-130810000D03*
X49530000Y-123190000D03*
X57150000Y-123190000D03*
D21*
X66040000Y-132080000D03*
D22*
X63500000Y-134620000D03*
X66040000Y-134620000D03*
X63500000Y-137160000D03*
X66040000Y-137160000D03*
X63500000Y-139700000D03*
X66040000Y-142240000D03*
X66040000Y-139700000D03*
X68580000Y-142240000D03*
X68580000Y-139700000D03*
X71120000Y-142240000D03*
X71120000Y-139700000D03*
X73660000Y-142240000D03*
X73660000Y-139700000D03*
X76200000Y-142240000D03*
X76200000Y-139700000D03*
X78740000Y-142240000D03*
X81280000Y-139700000D03*
X78740000Y-139700000D03*
X81280000Y-137160000D03*
X78740000Y-137160000D03*
X81280000Y-134620000D03*
X78740000Y-134620000D03*
X81280000Y-132080000D03*
X78740000Y-132080000D03*
X81280000Y-129540000D03*
X78740000Y-129540000D03*
X81280000Y-127000000D03*
X78740000Y-124460000D03*
X78740000Y-127000000D03*
X76200000Y-124460000D03*
X76200000Y-127000000D03*
X73660000Y-124460000D03*
X73660000Y-127000000D03*
X71120000Y-124460000D03*
X71120000Y-127000000D03*
X68580000Y-124460000D03*
X68580000Y-127000000D03*
X66040000Y-124460000D03*
X63500000Y-127000000D03*
X66040000Y-127000000D03*
X63500000Y-129540000D03*
X66040000Y-129540000D03*
X63500000Y-132080000D03*
D23*
X58928000Y-143002000D03*
D17*
X58928000Y-140502000D03*
D24*
X215900000Y-131445000D03*
D16*
X210900000Y-131445000D03*
D23*
X138430000Y-138430000D03*
D17*
X138430000Y-140930000D03*
D23*
X206375000Y-142875000D03*
D17*
X203875000Y-142875000D03*
D23*
X45720000Y-123190000D03*
D17*
X45720000Y-125690000D03*
D23*
X172720000Y-142240000D03*
D17*
X175220000Y-142240000D03*
D23*
X233172000Y-113030000D03*
D17*
X233172000Y-110530000D03*
D23*
X46990000Y-110998000D03*
D17*
X46990000Y-113498000D03*
D23*
X47091600Y-72390000D03*
D17*
X47091600Y-74890000D03*
D23*
X154940000Y-48260000D03*
D17*
X154940000Y-50760000D03*
D25*
X208279480Y-137797540D03*
D26*
X218439480Y-137797540D03*
D27*
X109855000Y-54610000D03*
X112395000Y-54610000D03*
X114935000Y-54610000D03*
X117475000Y-54610000D03*
X120015000Y-54610000D03*
X122555000Y-54610000D03*
X125095000Y-54610000D03*
X127635000Y-54610000D03*
X130175000Y-54610000D03*
X132715000Y-54610000D03*
X135255000Y-54610000D03*
X137795000Y-54610000D03*
X140335000Y-54610000D03*
X142875000Y-54610000D03*
X145415000Y-54610000D03*
X147955000Y-54610000D03*
X150495000Y-54610000D03*
X153035000Y-54610000D03*
X155575000Y-54610000D03*
X158115000Y-54610000D03*
X160655000Y-54610000D03*
X163195000Y-54610000D03*
X165735000Y-54610000D03*
X168275000Y-54610000D03*
X170815000Y-54610000D03*
X173355000Y-54610000D03*
X175895000Y-54610000D03*
X178435000Y-54610000D03*
X180975000Y-54610000D03*
X183515000Y-54610000D03*
X186055000Y-54610000D03*
X188595000Y-54610000D03*
X191135000Y-54610000D03*
X193675000Y-54610000D03*
X196215000Y-54610000D03*
X221615000Y-54610000D03*
X219075000Y-54610000D03*
X216535000Y-54610000D03*
X213995000Y-54610000D03*
X211455000Y-54610000D03*
X208915000Y-54610000D03*
X206375000Y-54610000D03*
X203835000Y-54610000D03*
X201295000Y-54610000D03*
X198755000Y-54610000D03*
X196215000Y-54610000D03*
X193675000Y-54610000D03*
X191135000Y-54610000D03*
X188595000Y-54610000D03*
X186055000Y-54610000D03*
X183515000Y-54610000D03*
X180975000Y-54610000D03*
X178435000Y-54610000D03*
X175895000Y-54610000D03*
X173355000Y-54610000D03*
X170815000Y-54610000D03*
X168275000Y-54610000D03*
X165735000Y-54610000D03*
X163195000Y-54610000D03*
X160655000Y-54610000D03*
X158115000Y-54610000D03*
X155575000Y-54610000D03*
X153035000Y-54610000D03*
X150495000Y-54610000D03*
X147955000Y-54610000D03*
X145415000Y-54610000D03*
X142875000Y-54610000D03*
X140335000Y-54610000D03*
X137795000Y-54610000D03*
X135255000Y-54610000D03*
X132715000Y-54610000D03*
X130175000Y-54610000D03*
X127635000Y-54610000D03*
X125095000Y-54610000D03*
X107315000Y-54610000D03*
X104775000Y-54610000D03*
X102235000Y-54610000D03*
X99695000Y-54610000D03*
X97155000Y-54610000D03*
X94615000Y-54610000D03*
X92075000Y-54610000D03*
X89535000Y-54610000D03*
X86995000Y-54610000D03*
X84455000Y-54610000D03*
X81915000Y-54610000D03*
X79375000Y-54610000D03*
X76835000Y-54610000D03*
X74295000Y-54610000D03*
X71755000Y-54610000D03*
X69215000Y-54610000D03*
X66675000Y-54610000D03*
X64135000Y-54610000D03*
X61595000Y-54610000D03*
X59055000Y-54610000D03*
X56515000Y-54610000D03*
X53975000Y-54610000D03*
X224155000Y-54610000D03*
D28*
X175260000Y-123825000D03*
D29*
X172720000Y-123825000D03*
X170180000Y-123825000D03*
X167640000Y-123825000D03*
X165100000Y-123825000D03*
X162560000Y-123825000D03*
X160020000Y-123825000D03*
X157480000Y-123825000D03*
X154940000Y-123825000D03*
X152400000Y-123825000D03*
X149860000Y-123825000D03*
X147320000Y-123825000D03*
X144780000Y-123825000D03*
X142240000Y-123825000D03*
X142240000Y-139065000D03*
X144780000Y-139065000D03*
X147320000Y-139065000D03*
X149860000Y-139065000D03*
X152400000Y-139065000D03*
X154940000Y-139065000D03*
X157480000Y-139065000D03*
X160020000Y-139065000D03*
X162560000Y-139065000D03*
X165100000Y-139065000D03*
X167640000Y-139065000D03*
X170180000Y-139065000D03*
X172720000Y-139065000D03*
X175260000Y-139065000D03*
D28*
X125730000Y-125730000D03*
D29*
X123190000Y-125730000D03*
X120650000Y-125730000D03*
X118110000Y-125730000D03*
X115570000Y-125730000D03*
X113030000Y-125730000D03*
X110490000Y-125730000D03*
X107950000Y-125730000D03*
X105410000Y-125730000D03*
X102870000Y-125730000D03*
X100330000Y-125730000D03*
X97790000Y-125730000D03*
X95250000Y-125730000D03*
X92710000Y-125730000D03*
X92710000Y-140970000D03*
X95250000Y-140970000D03*
X97790000Y-140970000D03*
X100330000Y-140970000D03*
X102870000Y-140970000D03*
X105410000Y-140970000D03*
X107950000Y-140970000D03*
X110490000Y-140970000D03*
X113030000Y-140970000D03*
X115570000Y-140970000D03*
X118110000Y-140970000D03*
X120650000Y-140970000D03*
X123190000Y-140970000D03*
X125730000Y-140970000D03*
D30*
X221615000Y-131445000D03*
X221615000Y-128905000D03*
X221615000Y-133985000D03*
D31*
X213360000Y-142240000D03*
X215900000Y-142240000D03*
X210820000Y-142240000D03*
D32*
X227330000Y-119380000D03*
X227330000Y-116840000D03*
X227330000Y-114300000D03*
X227330000Y-111760000D03*
X227330000Y-109220000D03*
X227330000Y-106680000D03*
X227330000Y-104140000D03*
X227330000Y-101600000D03*
X227330000Y-99060000D03*
X227330000Y-96520000D03*
X227330000Y-93980000D03*
X227330000Y-91440000D03*
X227330000Y-88900000D03*
X227330000Y-86360000D03*
X227330000Y-83820000D03*
X227330000Y-81280000D03*
X227330000Y-78740000D03*
X227330000Y-76200000D03*
X227330000Y-73660000D03*
X227330000Y-71120000D03*
X227330000Y-68580000D03*
X227330000Y-66040000D03*
X227330000Y-63500000D03*
X227330000Y-60960000D03*
X227330000Y-58420000D03*
X52070000Y-118745000D03*
X52070000Y-116205000D03*
X52070000Y-113665000D03*
X52070000Y-111125000D03*
X52070000Y-108585000D03*
X52070000Y-106045000D03*
X52070000Y-103505000D03*
X52070000Y-100965000D03*
X52070000Y-98425000D03*
X52070000Y-95885000D03*
X52070000Y-93345000D03*
X52070000Y-90805000D03*
X52070000Y-88265000D03*
X52070000Y-85725000D03*
X52070000Y-83185000D03*
X52070000Y-80645000D03*
X52070000Y-78105000D03*
X52070000Y-75565000D03*
X52070000Y-73025000D03*
X52070000Y-70485000D03*
X52070000Y-67945000D03*
X52070000Y-65405000D03*
X52070000Y-62865000D03*
X52070000Y-60325000D03*
X52070000Y-57785000D03*
D27*
X150495000Y-48895000D03*
X147955000Y-48895000D03*
X145415000Y-48895000D03*
X142875000Y-48895000D03*
X140335000Y-48895000D03*
X137795000Y-48895000D03*
X135255000Y-48895000D03*
X132715000Y-48895000D03*
X130175000Y-48895000D03*
X127635000Y-48895000D03*
X125095000Y-48895000D03*
X122555000Y-48895000D03*
X120015000Y-48895000D03*
X117475000Y-48895000D03*
X114935000Y-48895000D03*
X112395000Y-48895000D03*
X109855000Y-48895000D03*
X107315000Y-48895000D03*
X104775000Y-48895000D03*
X102235000Y-48895000D03*
X99695000Y-48895000D03*
X97155000Y-48895000D03*
X94615000Y-48895000D03*
X92075000Y-48895000D03*
X89535000Y-48895000D03*
X86995000Y-48895000D03*
X84455000Y-48895000D03*
X81915000Y-48895000D03*
X79375000Y-48895000D03*
X76835000Y-48895000D03*
X74295000Y-48895000D03*
X71755000Y-48895000D03*
X69215000Y-48895000D03*
X66675000Y-48895000D03*
X64135000Y-48895000D03*
X61595000Y-48895000D03*
X59055000Y-48895000D03*
X56515000Y-48895000D03*
X53975000Y-48895000D03*
D24*
X194945000Y-126365000D03*
D16*
X192405000Y-126365000D03*
X189865000Y-126365000D03*
X187325000Y-126365000D03*
X184785000Y-126365000D03*
X182245000Y-126365000D03*
X179705000Y-126365000D03*
X179705000Y-133985000D03*
X182245000Y-133985000D03*
X184785000Y-133985000D03*
X187325000Y-133985000D03*
X189865000Y-133985000D03*
X192405000Y-133985000D03*
X194945000Y-133985000D03*
X179705000Y-139105640D03*
X179705000Y-141605000D03*
X182245000Y-139105640D03*
X182245000Y-141605000D03*
X184785000Y-139105640D03*
X184785000Y-141605000D03*
X187325000Y-139105640D03*
X187325000Y-141605000D03*
X189865000Y-139105640D03*
X189865000Y-141605000D03*
X192405000Y-139105640D03*
X192405000Y-141605000D03*
X194945000Y-139105640D03*
X194945000Y-141605000D03*
D33*
X202565000Y-137160000D03*
X202565000Y-133350000D03*
D16*
X59055000Y-133858000D03*
X48895000Y-133858000D03*
X210312000Y-125095000D03*
X220472000Y-125095000D03*
M02*
