G04 #@! TF.FileFunction,Legend,Top*
%FSLAX46Y46*%
G04 Gerber Fmt 4.6, Leading zero omitted, Abs format (unit mm)*
G04 Created by KiCad (PCBNEW (2015-08-16 BZR 6097, Git b384c94)-product) date 10/3/2015 5:34:04 PM*
%MOMM*%
G01*
G04 APERTURE LIST*
%ADD10C,0.100000*%
%ADD11C,0.150000*%
%ADD12C,0.250000*%
%ADD13C,0.200000*%
G04 APERTURE END LIST*
D10*
D11*
X141523981Y-128757276D02*
X141047790Y-129090610D01*
X141523981Y-129328705D02*
X140523981Y-129328705D01*
X140523981Y-128947752D01*
X140571600Y-128852514D01*
X140619219Y-128804895D01*
X140714457Y-128757276D01*
X140857314Y-128757276D01*
X140952552Y-128804895D01*
X141000171Y-128852514D01*
X141047790Y-128947752D01*
X141047790Y-129328705D01*
X141238267Y-128376324D02*
X141238267Y-127900133D01*
X141523981Y-128471562D02*
X140523981Y-128138229D01*
X141523981Y-127804895D01*
X141523981Y-127471562D02*
X140523981Y-127471562D01*
X141238267Y-127138228D01*
X140523981Y-126804895D01*
X141523981Y-126804895D01*
X85186781Y-129106514D02*
X84710590Y-129439848D01*
X85186781Y-129677943D02*
X84186781Y-129677943D01*
X84186781Y-129296990D01*
X84234400Y-129201752D01*
X84282019Y-129154133D01*
X84377257Y-129106514D01*
X84520114Y-129106514D01*
X84615352Y-129154133D01*
X84662971Y-129201752D01*
X84710590Y-129296990D01*
X84710590Y-129677943D01*
X84186781Y-128487467D02*
X84186781Y-128296990D01*
X84234400Y-128201752D01*
X84329638Y-128106514D01*
X84520114Y-128058895D01*
X84853448Y-128058895D01*
X85043924Y-128106514D01*
X85139162Y-128201752D01*
X85186781Y-128296990D01*
X85186781Y-128487467D01*
X85139162Y-128582705D01*
X85043924Y-128677943D01*
X84853448Y-128725562D01*
X84520114Y-128725562D01*
X84329638Y-128677943D01*
X84234400Y-128582705D01*
X84186781Y-128487467D01*
X85186781Y-127630324D02*
X84186781Y-127630324D01*
X84901067Y-127296990D01*
X84186781Y-126963657D01*
X85186781Y-126963657D01*
X59497981Y-129863695D02*
X59497981Y-130054172D01*
X59545600Y-130149410D01*
X59593219Y-130197029D01*
X59736076Y-130292267D01*
X59926552Y-130339886D01*
X60307505Y-130339886D01*
X60402743Y-130292267D01*
X60450362Y-130244648D01*
X60497981Y-130149410D01*
X60497981Y-129958933D01*
X60450362Y-129863695D01*
X60402743Y-129816076D01*
X60307505Y-129768457D01*
X60069410Y-129768457D01*
X59974171Y-129816076D01*
X59926552Y-129863695D01*
X59878933Y-129958933D01*
X59878933Y-130149410D01*
X59926552Y-130244648D01*
X59974171Y-130292267D01*
X60069410Y-130339886D01*
X59497981Y-128863695D02*
X59497981Y-129339886D01*
X59974171Y-129387505D01*
X59926552Y-129339886D01*
X59878933Y-129244648D01*
X59878933Y-129006552D01*
X59926552Y-128911314D01*
X59974171Y-128863695D01*
X60069410Y-128816076D01*
X60307505Y-128816076D01*
X60402743Y-128863695D01*
X60450362Y-128911314D01*
X60497981Y-129006552D01*
X60497981Y-129244648D01*
X60450362Y-129339886D01*
X60402743Y-129387505D01*
X59497981Y-128197029D02*
X59497981Y-128101790D01*
X59545600Y-128006552D01*
X59593219Y-127958933D01*
X59688457Y-127911314D01*
X59878933Y-127863695D01*
X60117029Y-127863695D01*
X60307505Y-127911314D01*
X60402743Y-127958933D01*
X60450362Y-128006552D01*
X60497981Y-128101790D01*
X60497981Y-128197029D01*
X60450362Y-128292267D01*
X60402743Y-128339886D01*
X60307505Y-128387505D01*
X60117029Y-128435124D01*
X59878933Y-128435124D01*
X59688457Y-128387505D01*
X59593219Y-128339886D01*
X59545600Y-128292267D01*
X59497981Y-128197029D01*
X59593219Y-127482743D02*
X59545600Y-127435124D01*
X59497981Y-127339886D01*
X59497981Y-127101790D01*
X59545600Y-127006552D01*
X59593219Y-126958933D01*
X59688457Y-126911314D01*
X59783695Y-126911314D01*
X59926552Y-126958933D01*
X60497981Y-127530362D01*
X60497981Y-126911314D01*
X229965714Y-135596381D02*
X230632381Y-135596381D01*
X230203809Y-136596381D01*
X231013333Y-136215429D02*
X231775238Y-136215429D01*
X232775238Y-136596381D02*
X232203809Y-136596381D01*
X232489523Y-136596381D02*
X232489523Y-135596381D01*
X232394285Y-135739238D01*
X232299047Y-135834476D01*
X232203809Y-135882095D01*
X233156190Y-135691619D02*
X233203809Y-135644000D01*
X233299047Y-135596381D01*
X233537143Y-135596381D01*
X233632381Y-135644000D01*
X233680000Y-135691619D01*
X233727619Y-135786857D01*
X233727619Y-135882095D01*
X233680000Y-136024952D01*
X233108571Y-136596381D01*
X233727619Y-136596381D01*
X234775238Y-135596381D02*
X235108571Y-136596381D01*
X235441905Y-135596381D01*
X235775238Y-136596381D02*
X235775238Y-135596381D01*
X236013333Y-135596381D01*
X236156191Y-135644000D01*
X236251429Y-135739238D01*
X236299048Y-135834476D01*
X236346667Y-136024952D01*
X236346667Y-136167810D01*
X236299048Y-136358286D01*
X236251429Y-136453524D01*
X236156191Y-136548762D01*
X236013333Y-136596381D01*
X235775238Y-136596381D01*
X237346667Y-136501143D02*
X237299048Y-136548762D01*
X237156191Y-136596381D01*
X237060953Y-136596381D01*
X236918095Y-136548762D01*
X236822857Y-136453524D01*
X236775238Y-136358286D01*
X236727619Y-136167810D01*
X236727619Y-136024952D01*
X236775238Y-135834476D01*
X236822857Y-135739238D01*
X236918095Y-135644000D01*
X237060953Y-135596381D01*
X237156191Y-135596381D01*
X237299048Y-135644000D01*
X237346667Y-135691619D01*
X234529381Y-64007809D02*
X235529381Y-63674476D01*
X234529381Y-63341142D01*
X235529381Y-62483999D02*
X235529381Y-63055428D01*
X235529381Y-62769714D02*
X234529381Y-62769714D01*
X234672238Y-62864952D01*
X234767476Y-62960190D01*
X234815095Y-63055428D01*
X235434143Y-62055428D02*
X235481762Y-62007809D01*
X235529381Y-62055428D01*
X235481762Y-62103047D01*
X235434143Y-62055428D01*
X235529381Y-62055428D01*
X234529381Y-61388762D02*
X234529381Y-61293523D01*
X234577000Y-61198285D01*
X234624619Y-61150666D01*
X234719857Y-61103047D01*
X234910333Y-61055428D01*
X235148429Y-61055428D01*
X235338905Y-61103047D01*
X235434143Y-61150666D01*
X235481762Y-61198285D01*
X235529381Y-61293523D01*
X235529381Y-61388762D01*
X235481762Y-61484000D01*
X235434143Y-61531619D01*
X235338905Y-61579238D01*
X235148429Y-61626857D01*
X234910333Y-61626857D01*
X234719857Y-61579238D01*
X234624619Y-61531619D01*
X234577000Y-61484000D01*
X234529381Y-61388762D01*
D12*
X234001571Y-93918714D02*
X234001571Y-94204428D01*
X234073000Y-94347285D01*
X234144429Y-94418714D01*
X234358714Y-94561571D01*
X234644429Y-94633000D01*
X235215857Y-94633000D01*
X235358714Y-94561571D01*
X235430143Y-94490143D01*
X235501571Y-94347285D01*
X235501571Y-94061571D01*
X235430143Y-93918714D01*
X235358714Y-93847285D01*
X235215857Y-93775857D01*
X234858714Y-93775857D01*
X234715857Y-93847285D01*
X234644429Y-93918714D01*
X234573000Y-94061571D01*
X234573000Y-94347285D01*
X234644429Y-94490143D01*
X234715857Y-94561571D01*
X234858714Y-94633000D01*
X234001571Y-92418714D02*
X234001571Y-93133000D01*
X234715857Y-93204429D01*
X234644429Y-93133000D01*
X234573000Y-92990143D01*
X234573000Y-92633000D01*
X234644429Y-92490143D01*
X234715857Y-92418714D01*
X234858714Y-92347286D01*
X235215857Y-92347286D01*
X235358714Y-92418714D01*
X235430143Y-92490143D01*
X235501571Y-92633000D01*
X235501571Y-92990143D01*
X235430143Y-93133000D01*
X235358714Y-93204429D01*
X234001571Y-91418715D02*
X234001571Y-91275858D01*
X234073000Y-91133001D01*
X234144429Y-91061572D01*
X234287286Y-90990143D01*
X234573000Y-90918715D01*
X234930143Y-90918715D01*
X235215857Y-90990143D01*
X235358714Y-91061572D01*
X235430143Y-91133001D01*
X235501571Y-91275858D01*
X235501571Y-91418715D01*
X235430143Y-91561572D01*
X235358714Y-91633001D01*
X235215857Y-91704429D01*
X234930143Y-91775858D01*
X234573000Y-91775858D01*
X234287286Y-91704429D01*
X234144429Y-91633001D01*
X234073000Y-91561572D01*
X234001571Y-91418715D01*
X234144429Y-90347287D02*
X234073000Y-90275858D01*
X234001571Y-90133001D01*
X234001571Y-89775858D01*
X234073000Y-89633001D01*
X234144429Y-89561572D01*
X234287286Y-89490144D01*
X234430143Y-89490144D01*
X234644429Y-89561572D01*
X235501571Y-90418715D01*
X235501571Y-89490144D01*
X235358714Y-88847287D02*
X235430143Y-88775859D01*
X235501571Y-88847287D01*
X235430143Y-88918716D01*
X235358714Y-88847287D01*
X235501571Y-88847287D01*
X235501571Y-88133001D02*
X234501571Y-88133001D01*
X234001571Y-88133001D02*
X234073000Y-88204430D01*
X234144429Y-88133001D01*
X234073000Y-88061573D01*
X234001571Y-88133001D01*
X234144429Y-88133001D01*
X235501571Y-87204429D02*
X235430143Y-87347287D01*
X235358714Y-87418715D01*
X235215857Y-87490144D01*
X234787286Y-87490144D01*
X234644429Y-87418715D01*
X234573000Y-87347287D01*
X234501571Y-87204429D01*
X234501571Y-86990144D01*
X234573000Y-86847287D01*
X234644429Y-86775858D01*
X234787286Y-86704429D01*
X235215857Y-86704429D01*
X235358714Y-86775858D01*
X235430143Y-86847287D01*
X235501571Y-86990144D01*
X235501571Y-87204429D01*
X235501571Y-84918715D02*
X234001571Y-84918715D01*
X234001571Y-84347287D01*
X234073000Y-84204429D01*
X234144429Y-84133001D01*
X234287286Y-84061572D01*
X234501571Y-84061572D01*
X234644429Y-84133001D01*
X234715857Y-84204429D01*
X234787286Y-84347287D01*
X234787286Y-84918715D01*
X235501571Y-83418715D02*
X234501571Y-83418715D01*
X234787286Y-83418715D02*
X234644429Y-83347287D01*
X234573000Y-83275858D01*
X234501571Y-83133001D01*
X234501571Y-82990144D01*
X235501571Y-82275858D02*
X235430143Y-82418716D01*
X235358714Y-82490144D01*
X235215857Y-82561573D01*
X234787286Y-82561573D01*
X234644429Y-82490144D01*
X234573000Y-82418716D01*
X234501571Y-82275858D01*
X234501571Y-82061573D01*
X234573000Y-81918716D01*
X234644429Y-81847287D01*
X234787286Y-81775858D01*
X235215857Y-81775858D01*
X235358714Y-81847287D01*
X235430143Y-81918716D01*
X235501571Y-82061573D01*
X235501571Y-82275858D01*
X234501571Y-81347287D02*
X234501571Y-80775858D01*
X234001571Y-81133001D02*
X235287286Y-81133001D01*
X235430143Y-81061573D01*
X235501571Y-80918715D01*
X235501571Y-80775858D01*
X235501571Y-80061572D02*
X235430143Y-80204430D01*
X235358714Y-80275858D01*
X235215857Y-80347287D01*
X234787286Y-80347287D01*
X234644429Y-80275858D01*
X234573000Y-80204430D01*
X234501571Y-80061572D01*
X234501571Y-79847287D01*
X234573000Y-79704430D01*
X234644429Y-79633001D01*
X234787286Y-79561572D01*
X235215857Y-79561572D01*
X235358714Y-79633001D01*
X235430143Y-79704430D01*
X235501571Y-79847287D01*
X235501571Y-80061572D01*
X234501571Y-79133001D02*
X234501571Y-78561572D01*
X234001571Y-78918715D02*
X235287286Y-78918715D01*
X235430143Y-78847287D01*
X235501571Y-78704429D01*
X235501571Y-78561572D01*
X234501571Y-78204429D02*
X235501571Y-77847286D01*
X234501571Y-77490144D02*
X235501571Y-77847286D01*
X235858714Y-77990144D01*
X235930143Y-78061572D01*
X236001571Y-78204429D01*
X234501571Y-76918715D02*
X236001571Y-76918715D01*
X234573000Y-76918715D02*
X234501571Y-76775858D01*
X234501571Y-76490144D01*
X234573000Y-76347287D01*
X234644429Y-76275858D01*
X234787286Y-76204429D01*
X235215857Y-76204429D01*
X235358714Y-76275858D01*
X235430143Y-76347287D01*
X235501571Y-76490144D01*
X235501571Y-76775858D01*
X235430143Y-76918715D01*
X235501571Y-75561572D02*
X234501571Y-75561572D01*
X234001571Y-75561572D02*
X234073000Y-75633001D01*
X234144429Y-75561572D01*
X234073000Y-75490144D01*
X234001571Y-75561572D01*
X234144429Y-75561572D01*
X234501571Y-74847286D02*
X235501571Y-74847286D01*
X234644429Y-74847286D02*
X234573000Y-74775858D01*
X234501571Y-74633000D01*
X234501571Y-74418715D01*
X234573000Y-74275858D01*
X234715857Y-74204429D01*
X235501571Y-74204429D01*
X234501571Y-72847286D02*
X235715857Y-72847286D01*
X235858714Y-72918715D01*
X235930143Y-72990143D01*
X236001571Y-73133000D01*
X236001571Y-73347286D01*
X235930143Y-73490143D01*
X235430143Y-72847286D02*
X235501571Y-72990143D01*
X235501571Y-73275857D01*
X235430143Y-73418715D01*
X235358714Y-73490143D01*
X235215857Y-73561572D01*
X234787286Y-73561572D01*
X234644429Y-73490143D01*
X234573000Y-73418715D01*
X234501571Y-73275857D01*
X234501571Y-72990143D01*
X234573000Y-72847286D01*
X234715857Y-70490143D02*
X234787286Y-70275857D01*
X234858714Y-70204429D01*
X235001571Y-70133000D01*
X235215857Y-70133000D01*
X235358714Y-70204429D01*
X235430143Y-70275857D01*
X235501571Y-70418715D01*
X235501571Y-70990143D01*
X234001571Y-70990143D01*
X234001571Y-70490143D01*
X234073000Y-70347286D01*
X234144429Y-70275857D01*
X234287286Y-70204429D01*
X234430143Y-70204429D01*
X234573000Y-70275857D01*
X234644429Y-70347286D01*
X234715857Y-70490143D01*
X234715857Y-70990143D01*
X235501571Y-69275857D02*
X235430143Y-69418715D01*
X235358714Y-69490143D01*
X235215857Y-69561572D01*
X234787286Y-69561572D01*
X234644429Y-69490143D01*
X234573000Y-69418715D01*
X234501571Y-69275857D01*
X234501571Y-69061572D01*
X234573000Y-68918715D01*
X234644429Y-68847286D01*
X234787286Y-68775857D01*
X235215857Y-68775857D01*
X235358714Y-68847286D01*
X235430143Y-68918715D01*
X235501571Y-69061572D01*
X235501571Y-69275857D01*
X235501571Y-67490143D02*
X234715857Y-67490143D01*
X234573000Y-67561572D01*
X234501571Y-67704429D01*
X234501571Y-67990143D01*
X234573000Y-68133000D01*
X235430143Y-67490143D02*
X235501571Y-67633000D01*
X235501571Y-67990143D01*
X235430143Y-68133000D01*
X235287286Y-68204429D01*
X235144429Y-68204429D01*
X235001571Y-68133000D01*
X234930143Y-67990143D01*
X234930143Y-67633000D01*
X234858714Y-67490143D01*
X235501571Y-66775857D02*
X234501571Y-66775857D01*
X234787286Y-66775857D02*
X234644429Y-66704429D01*
X234573000Y-66633000D01*
X234501571Y-66490143D01*
X234501571Y-66347286D01*
X235501571Y-65204429D02*
X234001571Y-65204429D01*
X235430143Y-65204429D02*
X235501571Y-65347286D01*
X235501571Y-65633000D01*
X235430143Y-65775858D01*
X235358714Y-65847286D01*
X235215857Y-65918715D01*
X234787286Y-65918715D01*
X234644429Y-65847286D01*
X234573000Y-65775858D01*
X234501571Y-65633000D01*
X234501571Y-65347286D01*
X234573000Y-65204429D01*
D11*
X195794381Y-125079143D02*
X196794381Y-124841048D01*
X196080095Y-124650571D01*
X196794381Y-124460095D01*
X195794381Y-124222000D01*
X196270571Y-123841048D02*
X196270571Y-123507714D01*
X196794381Y-123364857D02*
X196794381Y-123841048D01*
X195794381Y-123841048D01*
X195794381Y-123364857D01*
D13*
X50546000Y-87122000D02*
X47498000Y-87122000D01*
X47498000Y-84836000D02*
X47498000Y-89662000D01*
X47498000Y-79502000D02*
X47498000Y-81534000D01*
X50546000Y-79502000D02*
X47498000Y-79502000D01*
X47498000Y-94742000D02*
X47498000Y-92837000D01*
X50546000Y-94742000D02*
X47498000Y-94742000D01*
D11*
X179242381Y-136645714D02*
X179242381Y-137121905D01*
X179718571Y-137169524D01*
X179670952Y-137121905D01*
X179623333Y-137026667D01*
X179623333Y-136788571D01*
X179670952Y-136693333D01*
X179718571Y-136645714D01*
X179813810Y-136598095D01*
X180051905Y-136598095D01*
X180147143Y-136645714D01*
X180194762Y-136693333D01*
X180242381Y-136788571D01*
X180242381Y-137026667D01*
X180194762Y-137121905D01*
X180147143Y-137169524D01*
X179242381Y-136312381D02*
X180242381Y-135979048D01*
X179242381Y-135645714D01*
X181782381Y-136705714D02*
X181782381Y-137181905D01*
X182258571Y-137229524D01*
X182210952Y-137181905D01*
X182163333Y-137086667D01*
X182163333Y-136848571D01*
X182210952Y-136753333D01*
X182258571Y-136705714D01*
X182353810Y-136658095D01*
X182591905Y-136658095D01*
X182687143Y-136705714D01*
X182734762Y-136753333D01*
X182782381Y-136848571D01*
X182782381Y-137086667D01*
X182734762Y-137181905D01*
X182687143Y-137229524D01*
X181782381Y-136372381D02*
X182782381Y-136039048D01*
X181782381Y-135705714D01*
X184322381Y-136625714D02*
X184322381Y-137101905D01*
X184798571Y-137149524D01*
X184750952Y-137101905D01*
X184703333Y-137006667D01*
X184703333Y-136768571D01*
X184750952Y-136673333D01*
X184798571Y-136625714D01*
X184893810Y-136578095D01*
X185131905Y-136578095D01*
X185227143Y-136625714D01*
X185274762Y-136673333D01*
X185322381Y-136768571D01*
X185322381Y-137006667D01*
X185274762Y-137101905D01*
X185227143Y-137149524D01*
X184322381Y-136292381D02*
X185322381Y-135959048D01*
X184322381Y-135625714D01*
X186802381Y-136625714D02*
X186802381Y-137101905D01*
X187278571Y-137149524D01*
X187230952Y-137101905D01*
X187183333Y-137006667D01*
X187183333Y-136768571D01*
X187230952Y-136673333D01*
X187278571Y-136625714D01*
X187373810Y-136578095D01*
X187611905Y-136578095D01*
X187707143Y-136625714D01*
X187754762Y-136673333D01*
X187802381Y-136768571D01*
X187802381Y-137006667D01*
X187754762Y-137101905D01*
X187707143Y-137149524D01*
X186802381Y-136292381D02*
X187802381Y-135959048D01*
X186802381Y-135625714D01*
X189342381Y-136665714D02*
X189342381Y-137141905D01*
X189818571Y-137189524D01*
X189770952Y-137141905D01*
X189723333Y-137046667D01*
X189723333Y-136808571D01*
X189770952Y-136713333D01*
X189818571Y-136665714D01*
X189913810Y-136618095D01*
X190151905Y-136618095D01*
X190247143Y-136665714D01*
X190294762Y-136713333D01*
X190342381Y-136808571D01*
X190342381Y-137046667D01*
X190294762Y-137141905D01*
X190247143Y-137189524D01*
X189342381Y-136332381D02*
X190342381Y-135999048D01*
X189342381Y-135665714D01*
X191982381Y-136665714D02*
X191982381Y-137141905D01*
X192458571Y-137189524D01*
X192410952Y-137141905D01*
X192363333Y-137046667D01*
X192363333Y-136808571D01*
X192410952Y-136713333D01*
X192458571Y-136665714D01*
X192553810Y-136618095D01*
X192791905Y-136618095D01*
X192887143Y-136665714D01*
X192934762Y-136713333D01*
X192982381Y-136808571D01*
X192982381Y-137046667D01*
X192934762Y-137141905D01*
X192887143Y-137189524D01*
X191982381Y-136332381D02*
X192982381Y-135999048D01*
X191982381Y-135665714D01*
X194562381Y-136625714D02*
X194562381Y-137101905D01*
X195038571Y-137149524D01*
X194990952Y-137101905D01*
X194943333Y-137006667D01*
X194943333Y-136768571D01*
X194990952Y-136673333D01*
X195038571Y-136625714D01*
X195133810Y-136578095D01*
X195371905Y-136578095D01*
X195467143Y-136625714D01*
X195514762Y-136673333D01*
X195562381Y-136768571D01*
X195562381Y-137006667D01*
X195514762Y-137101905D01*
X195467143Y-137149524D01*
X194562381Y-136292381D02*
X195562381Y-135959048D01*
X194562381Y-135625714D01*
X197699381Y-129365429D02*
X197699381Y-129174952D01*
X197747000Y-129079714D01*
X197842238Y-128984476D01*
X198032714Y-128936857D01*
X198366048Y-128936857D01*
X198556524Y-128984476D01*
X198651762Y-129079714D01*
X198699381Y-129174952D01*
X198699381Y-129365429D01*
X198651762Y-129460667D01*
X198556524Y-129555905D01*
X198366048Y-129603524D01*
X198032714Y-129603524D01*
X197842238Y-129555905D01*
X197747000Y-129460667D01*
X197699381Y-129365429D01*
X198175571Y-128174952D02*
X198175571Y-128508286D01*
X198699381Y-128508286D02*
X197699381Y-128508286D01*
X197699381Y-128032095D01*
X198175571Y-127317809D02*
X198175571Y-127651143D01*
X198699381Y-127651143D02*
X197699381Y-127651143D01*
X197699381Y-127174952D01*
X197572381Y-132413429D02*
X197572381Y-132222952D01*
X197620000Y-132127714D01*
X197715238Y-132032476D01*
X197905714Y-131984857D01*
X198239048Y-131984857D01*
X198429524Y-132032476D01*
X198524762Y-132127714D01*
X198572381Y-132222952D01*
X198572381Y-132413429D01*
X198524762Y-132508667D01*
X198429524Y-132603905D01*
X198239048Y-132651524D01*
X197905714Y-132651524D01*
X197715238Y-132603905D01*
X197620000Y-132508667D01*
X197572381Y-132413429D01*
X198572381Y-131556286D02*
X197572381Y-131556286D01*
X198572381Y-130984857D01*
X197572381Y-130984857D01*
X226234571Y-139406381D02*
X226425048Y-139406381D01*
X226520286Y-139454000D01*
X226615524Y-139549238D01*
X226663143Y-139739714D01*
X226663143Y-140073048D01*
X226615524Y-140263524D01*
X226520286Y-140358762D01*
X226425048Y-140406381D01*
X226234571Y-140406381D01*
X226139333Y-140358762D01*
X226044095Y-140263524D01*
X225996476Y-140073048D01*
X225996476Y-139739714D01*
X226044095Y-139549238D01*
X226139333Y-139454000D01*
X226234571Y-139406381D01*
X227425048Y-139882571D02*
X227091714Y-139882571D01*
X227091714Y-140406381D02*
X227091714Y-139406381D01*
X227567905Y-139406381D01*
X228282191Y-139882571D02*
X227948857Y-139882571D01*
X227948857Y-140406381D02*
X227948857Y-139406381D01*
X228425048Y-139406381D01*
X220011571Y-139406381D02*
X220202048Y-139406381D01*
X220297286Y-139454000D01*
X220392524Y-139549238D01*
X220440143Y-139739714D01*
X220440143Y-140073048D01*
X220392524Y-140263524D01*
X220297286Y-140358762D01*
X220202048Y-140406381D01*
X220011571Y-140406381D01*
X219916333Y-140358762D01*
X219821095Y-140263524D01*
X219773476Y-140073048D01*
X219773476Y-139739714D01*
X219821095Y-139549238D01*
X219916333Y-139454000D01*
X220011571Y-139406381D01*
X220868714Y-140406381D02*
X220868714Y-139406381D01*
X221440143Y-140406381D01*
X221440143Y-139406381D01*
X195397381Y-124539476D02*
X194921190Y-124872810D01*
X195397381Y-125110905D02*
X194397381Y-125110905D01*
X194397381Y-124729952D01*
X194445000Y-124634714D01*
X194492619Y-124587095D01*
X194587857Y-124539476D01*
X194730714Y-124539476D01*
X194825952Y-124587095D01*
X194873571Y-124634714D01*
X194921190Y-124729952D01*
X194921190Y-125110905D01*
X194397381Y-123920429D02*
X194397381Y-123729952D01*
X194445000Y-123634714D01*
X194540238Y-123539476D01*
X194730714Y-123491857D01*
X195064048Y-123491857D01*
X195254524Y-123539476D01*
X195349762Y-123634714D01*
X195397381Y-123729952D01*
X195397381Y-123920429D01*
X195349762Y-124015667D01*
X195254524Y-124110905D01*
X195064048Y-124158524D01*
X194730714Y-124158524D01*
X194540238Y-124110905D01*
X194445000Y-124015667D01*
X194397381Y-123920429D01*
X195397381Y-123063286D02*
X194397381Y-123063286D01*
X195111667Y-122729952D01*
X194397381Y-122396619D01*
X195397381Y-122396619D01*
X192857381Y-125110905D02*
X191857381Y-125110905D01*
X192857381Y-124539476D01*
X191857381Y-124539476D01*
X192857381Y-124063286D02*
X191857381Y-124063286D01*
X192571667Y-123729952D01*
X191857381Y-123396619D01*
X192857381Y-123396619D01*
X192857381Y-122920429D02*
X191857381Y-122920429D01*
X192333571Y-122110905D02*
X192381190Y-121968048D01*
X192428810Y-121920429D01*
X192524048Y-121872810D01*
X192666905Y-121872810D01*
X192762143Y-121920429D01*
X192809762Y-121968048D01*
X192857381Y-122063286D01*
X192857381Y-122444239D01*
X191857381Y-122444239D01*
X191857381Y-122110905D01*
X191905000Y-122015667D01*
X191952619Y-121968048D01*
X192047857Y-121920429D01*
X192143095Y-121920429D01*
X192238333Y-121968048D01*
X192285952Y-122015667D01*
X192333571Y-122110905D01*
X192333571Y-122444239D01*
X190269762Y-125158524D02*
X190317381Y-125015667D01*
X190317381Y-124777571D01*
X190269762Y-124682333D01*
X190222143Y-124634714D01*
X190126905Y-124587095D01*
X190031667Y-124587095D01*
X189936429Y-124634714D01*
X189888810Y-124682333D01*
X189841190Y-124777571D01*
X189793571Y-124968048D01*
X189745952Y-125063286D01*
X189698333Y-125110905D01*
X189603095Y-125158524D01*
X189507857Y-125158524D01*
X189412619Y-125110905D01*
X189365000Y-125063286D01*
X189317381Y-124968048D01*
X189317381Y-124729952D01*
X189365000Y-124587095D01*
X189317381Y-123968048D02*
X189317381Y-123777571D01*
X189365000Y-123682333D01*
X189460238Y-123587095D01*
X189650714Y-123539476D01*
X189984048Y-123539476D01*
X190174524Y-123587095D01*
X190269762Y-123682333D01*
X190317381Y-123777571D01*
X190317381Y-123968048D01*
X190269762Y-124063286D01*
X190174524Y-124158524D01*
X189984048Y-124206143D01*
X189650714Y-124206143D01*
X189460238Y-124158524D01*
X189365000Y-124063286D01*
X189317381Y-123968048D01*
X189793571Y-122777571D02*
X189841190Y-122634714D01*
X189888810Y-122587095D01*
X189984048Y-122539476D01*
X190126905Y-122539476D01*
X190222143Y-122587095D01*
X190269762Y-122634714D01*
X190317381Y-122729952D01*
X190317381Y-123110905D01*
X189317381Y-123110905D01*
X189317381Y-122777571D01*
X189365000Y-122682333D01*
X189412619Y-122634714D01*
X189507857Y-122587095D01*
X189603095Y-122587095D01*
X189698333Y-122634714D01*
X189745952Y-122682333D01*
X189793571Y-122777571D01*
X189793571Y-123110905D01*
X187777381Y-124539476D02*
X187301190Y-124872810D01*
X187777381Y-125110905D02*
X186777381Y-125110905D01*
X186777381Y-124729952D01*
X186825000Y-124634714D01*
X186872619Y-124587095D01*
X186967857Y-124539476D01*
X187110714Y-124539476D01*
X187205952Y-124587095D01*
X187253571Y-124634714D01*
X187301190Y-124729952D01*
X187301190Y-125110905D01*
X187777381Y-124110905D02*
X186777381Y-124110905D01*
X186777381Y-123872810D01*
X186825000Y-123729952D01*
X186920238Y-123634714D01*
X187015476Y-123587095D01*
X187205952Y-123539476D01*
X187348810Y-123539476D01*
X187539286Y-123587095D01*
X187634524Y-123634714D01*
X187729762Y-123729952D01*
X187777381Y-123872810D01*
X187777381Y-124110905D01*
X187301190Y-122920429D02*
X187777381Y-122920429D01*
X186777381Y-123253762D02*
X187301190Y-122920429D01*
X186777381Y-122587095D01*
X185237381Y-124539476D02*
X184761190Y-124872810D01*
X185237381Y-125110905D02*
X184237381Y-125110905D01*
X184237381Y-124729952D01*
X184285000Y-124634714D01*
X184332619Y-124587095D01*
X184427857Y-124539476D01*
X184570714Y-124539476D01*
X184665952Y-124587095D01*
X184713571Y-124634714D01*
X184761190Y-124729952D01*
X184761190Y-125110905D01*
X184237381Y-124206143D02*
X185237381Y-123968048D01*
X184523095Y-123777571D01*
X185237381Y-123587095D01*
X184237381Y-123349000D01*
X184713571Y-122634714D02*
X184761190Y-122491857D01*
X184808810Y-122444238D01*
X184904048Y-122396619D01*
X185046905Y-122396619D01*
X185142143Y-122444238D01*
X185189762Y-122491857D01*
X185237381Y-122587095D01*
X185237381Y-122968048D01*
X184237381Y-122968048D01*
X184237381Y-122634714D01*
X184285000Y-122539476D01*
X184332619Y-122491857D01*
X184427857Y-122444238D01*
X184523095Y-122444238D01*
X184618333Y-122491857D01*
X184665952Y-122539476D01*
X184713571Y-122634714D01*
X184713571Y-122968048D01*
X182697381Y-125110905D02*
X181697381Y-125110905D01*
X182697381Y-124063286D02*
X182221190Y-124396620D01*
X182697381Y-124634715D02*
X181697381Y-124634715D01*
X181697381Y-124253762D01*
X181745000Y-124158524D01*
X181792619Y-124110905D01*
X181887857Y-124063286D01*
X182030714Y-124063286D01*
X182125952Y-124110905D01*
X182173571Y-124158524D01*
X182221190Y-124253762D01*
X182221190Y-124634715D01*
X182792619Y-122968048D02*
X182745000Y-123063286D01*
X182649762Y-123158524D01*
X182506905Y-123301381D01*
X182459286Y-123396620D01*
X182459286Y-123491858D01*
X182697381Y-123444239D02*
X182649762Y-123539477D01*
X182554524Y-123634715D01*
X182364048Y-123682334D01*
X182030714Y-123682334D01*
X181840238Y-123634715D01*
X181745000Y-123539477D01*
X181697381Y-123444239D01*
X181697381Y-123253762D01*
X181745000Y-123158524D01*
X181840238Y-123063286D01*
X182030714Y-123015667D01*
X182364048Y-123015667D01*
X182554524Y-123063286D01*
X182649762Y-123158524D01*
X182697381Y-123253762D01*
X182697381Y-123444239D01*
X182173571Y-122253762D02*
X182221190Y-122110905D01*
X182268810Y-122063286D01*
X182364048Y-122015667D01*
X182506905Y-122015667D01*
X182602143Y-122063286D01*
X182649762Y-122110905D01*
X182697381Y-122206143D01*
X182697381Y-122587096D01*
X181697381Y-122587096D01*
X181697381Y-122253762D01*
X181745000Y-122158524D01*
X181792619Y-122110905D01*
X181887857Y-122063286D01*
X181983095Y-122063286D01*
X182078333Y-122110905D01*
X182125952Y-122158524D01*
X182173571Y-122253762D01*
X182173571Y-122587096D01*
X179633571Y-124777571D02*
X179681190Y-124634714D01*
X179728810Y-124587095D01*
X179824048Y-124539476D01*
X179966905Y-124539476D01*
X180062143Y-124587095D01*
X180109762Y-124634714D01*
X180157381Y-124729952D01*
X180157381Y-125110905D01*
X179157381Y-125110905D01*
X179157381Y-124777571D01*
X179205000Y-124682333D01*
X179252619Y-124634714D01*
X179347857Y-124587095D01*
X179443095Y-124587095D01*
X179538333Y-124634714D01*
X179585952Y-124682333D01*
X179633571Y-124777571D01*
X179633571Y-125110905D01*
X179633571Y-124110905D02*
X179633571Y-123777571D01*
X180157381Y-123634714D02*
X180157381Y-124110905D01*
X179157381Y-124110905D01*
X179157381Y-123634714D01*
D13*
X230124000Y-111760000D02*
X230124000Y-112014000D01*
X230124000Y-111252000D02*
X230124000Y-111760000D01*
X230124000Y-120142000D02*
X228854000Y-120142000D01*
X230124000Y-114300000D02*
X230124000Y-120142000D01*
X230124000Y-105410000D02*
X230124000Y-111252000D01*
X228854000Y-105410000D02*
X230124000Y-105410000D01*
D11*
X230417619Y-112982286D02*
X230417619Y-112506095D01*
X229941429Y-112458476D01*
X229989048Y-112506095D01*
X230036667Y-112601333D01*
X230036667Y-112839429D01*
X229989048Y-112934667D01*
X229941429Y-112982286D01*
X229846190Y-113029905D01*
X229608095Y-113029905D01*
X229512857Y-112982286D01*
X229465238Y-112934667D01*
X229417619Y-112839429D01*
X229417619Y-112601333D01*
X229465238Y-112506095D01*
X229512857Y-112458476D01*
X230417619Y-113315619D02*
X229417619Y-113648952D01*
X230417619Y-113982286D01*
D13*
X230124000Y-104902000D02*
X228854000Y-104902000D01*
X230124000Y-100838000D02*
X230124000Y-104902000D01*
X230124000Y-93218000D02*
X228854000Y-93218000D01*
X230124000Y-97282000D02*
X230124000Y-93218000D01*
D11*
X230370000Y-98297905D02*
X230417619Y-98202667D01*
X230417619Y-98059810D01*
X230370000Y-97916952D01*
X230274762Y-97821714D01*
X230179524Y-97774095D01*
X229989048Y-97726476D01*
X229846190Y-97726476D01*
X229655714Y-97774095D01*
X229560476Y-97821714D01*
X229465238Y-97916952D01*
X229417619Y-98059810D01*
X229417619Y-98155048D01*
X229465238Y-98297905D01*
X229512857Y-98345524D01*
X229846190Y-98345524D01*
X229846190Y-98155048D01*
X229417619Y-98774095D02*
X230417619Y-98774095D01*
X229417619Y-99345524D01*
X230417619Y-99345524D01*
X229417619Y-99821714D02*
X230417619Y-99821714D01*
X230417619Y-100059809D01*
X230370000Y-100202667D01*
X230274762Y-100297905D01*
X230179524Y-100345524D01*
X229989048Y-100393143D01*
X229846190Y-100393143D01*
X229655714Y-100345524D01*
X229560476Y-100297905D01*
X229465238Y-100202667D01*
X229417619Y-100059809D01*
X229417619Y-99821714D01*
D13*
X229362000Y-92710000D02*
X228854000Y-92710000D01*
X231902000Y-77470000D02*
X228854000Y-77470000D01*
X231902000Y-79502000D02*
X231902000Y-77470000D01*
X231902000Y-85090000D02*
X231902000Y-83058000D01*
X228854000Y-85090000D02*
X231902000Y-85090000D01*
X231902000Y-85090000D02*
X228854000Y-85090000D01*
X231902000Y-86868000D02*
X231902000Y-85090000D01*
X231902000Y-92710000D02*
X231902000Y-90424000D01*
X229362000Y-92710000D02*
X231902000Y-92710000D01*
D11*
X231195619Y-80494286D02*
X231671810Y-80160952D01*
X231195619Y-79922857D02*
X232195619Y-79922857D01*
X232195619Y-80303810D01*
X232148000Y-80399048D01*
X232100381Y-80446667D01*
X232005143Y-80494286D01*
X231862286Y-80494286D01*
X231767048Y-80446667D01*
X231719429Y-80399048D01*
X231671810Y-80303810D01*
X231671810Y-79922857D01*
X232195619Y-81113333D02*
X232195619Y-81303810D01*
X232148000Y-81399048D01*
X232052762Y-81494286D01*
X231862286Y-81541905D01*
X231528952Y-81541905D01*
X231338476Y-81494286D01*
X231243238Y-81399048D01*
X231195619Y-81303810D01*
X231195619Y-81113333D01*
X231243238Y-81018095D01*
X231338476Y-80922857D01*
X231528952Y-80875238D01*
X231862286Y-80875238D01*
X232052762Y-80922857D01*
X232148000Y-81018095D01*
X232195619Y-81113333D01*
X231195619Y-81970476D02*
X232195619Y-81970476D01*
X231481333Y-82303810D01*
X232195619Y-82637143D01*
X231195619Y-82637143D01*
X231195619Y-87955524D02*
X231671810Y-87622190D01*
X231195619Y-87384095D02*
X232195619Y-87384095D01*
X232195619Y-87765048D01*
X232148000Y-87860286D01*
X232100381Y-87907905D01*
X232005143Y-87955524D01*
X231862286Y-87955524D01*
X231767048Y-87907905D01*
X231719429Y-87860286D01*
X231671810Y-87765048D01*
X231671810Y-87384095D01*
X231481333Y-88336476D02*
X231481333Y-88812667D01*
X231195619Y-88241238D02*
X232195619Y-88574571D01*
X231195619Y-88907905D01*
X231195619Y-89241238D02*
X232195619Y-89241238D01*
X231481333Y-89574572D01*
X232195619Y-89907905D01*
X231195619Y-89907905D01*
X230417619Y-90566857D02*
X229417619Y-90804952D01*
X230131905Y-90995429D01*
X229417619Y-91185905D01*
X230417619Y-91424000D01*
X229941429Y-91804952D02*
X229941429Y-92138286D01*
X229417619Y-92281143D02*
X229417619Y-91804952D01*
X230417619Y-91804952D01*
X230417619Y-92281143D01*
X230417619Y-88312571D02*
X230417619Y-88503048D01*
X230370000Y-88598286D01*
X230274762Y-88693524D01*
X230084286Y-88741143D01*
X229750952Y-88741143D01*
X229560476Y-88693524D01*
X229465238Y-88598286D01*
X229417619Y-88503048D01*
X229417619Y-88312571D01*
X229465238Y-88217333D01*
X229560476Y-88122095D01*
X229750952Y-88074476D01*
X230084286Y-88074476D01*
X230274762Y-88122095D01*
X230370000Y-88217333D01*
X230417619Y-88312571D01*
X229941429Y-89169714D02*
X229941429Y-89503048D01*
X229417619Y-89645905D02*
X229417619Y-89169714D01*
X230417619Y-89169714D01*
X230417619Y-89645905D01*
X229512857Y-86153524D02*
X229465238Y-86105905D01*
X229417619Y-85963048D01*
X229417619Y-85867810D01*
X229465238Y-85724952D01*
X229560476Y-85629714D01*
X229655714Y-85582095D01*
X229846190Y-85534476D01*
X229989048Y-85534476D01*
X230179524Y-85582095D01*
X230274762Y-85629714D01*
X230370000Y-85724952D01*
X230417619Y-85867810D01*
X230417619Y-85963048D01*
X230370000Y-86105905D01*
X230322381Y-86153524D01*
X229941429Y-86582095D02*
X229941429Y-86915429D01*
X229417619Y-87058286D02*
X229417619Y-86582095D01*
X230417619Y-86582095D01*
X230417619Y-87058286D01*
X230417619Y-82946857D02*
X229417619Y-83184952D01*
X230131905Y-83375429D01*
X229417619Y-83565905D01*
X230417619Y-83804000D01*
X229941429Y-84184952D02*
X229941429Y-84518286D01*
X229417619Y-84661143D02*
X229417619Y-84184952D01*
X230417619Y-84184952D01*
X230417619Y-84661143D01*
X230417619Y-80692571D02*
X230417619Y-80883048D01*
X230370000Y-80978286D01*
X230274762Y-81073524D01*
X230084286Y-81121143D01*
X229750952Y-81121143D01*
X229560476Y-81073524D01*
X229465238Y-80978286D01*
X229417619Y-80883048D01*
X229417619Y-80692571D01*
X229465238Y-80597333D01*
X229560476Y-80502095D01*
X229750952Y-80454476D01*
X230084286Y-80454476D01*
X230274762Y-80502095D01*
X230370000Y-80597333D01*
X230417619Y-80692571D01*
X229941429Y-81549714D02*
X229941429Y-81883048D01*
X229417619Y-82025905D02*
X229417619Y-81549714D01*
X230417619Y-81549714D01*
X230417619Y-82025905D01*
X229512857Y-78533524D02*
X229465238Y-78485905D01*
X229417619Y-78343048D01*
X229417619Y-78247810D01*
X229465238Y-78104952D01*
X229560476Y-78009714D01*
X229655714Y-77962095D01*
X229846190Y-77914476D01*
X229989048Y-77914476D01*
X230179524Y-77962095D01*
X230274762Y-78009714D01*
X230370000Y-78104952D01*
X230417619Y-78247810D01*
X230417619Y-78343048D01*
X230370000Y-78485905D01*
X230322381Y-78533524D01*
X229941429Y-78962095D02*
X229941429Y-79295429D01*
X229417619Y-79438286D02*
X229417619Y-78962095D01*
X230417619Y-78962095D01*
X230417619Y-79438286D01*
X49887143Y-80914857D02*
X49934762Y-80962476D01*
X49982381Y-81105333D01*
X49982381Y-81200571D01*
X49934762Y-81343429D01*
X49839524Y-81438667D01*
X49744286Y-81486286D01*
X49553810Y-81533905D01*
X49410952Y-81533905D01*
X49220476Y-81486286D01*
X49125238Y-81438667D01*
X49030000Y-81343429D01*
X48982381Y-81200571D01*
X48982381Y-81105333D01*
X49030000Y-80962476D01*
X49077619Y-80914857D01*
X49458571Y-80486286D02*
X49458571Y-80152952D01*
X49982381Y-80010095D02*
X49982381Y-80486286D01*
X48982381Y-80486286D01*
X48982381Y-80010095D01*
X48982381Y-83859619D02*
X48982381Y-83669142D01*
X49030000Y-83573904D01*
X49125238Y-83478666D01*
X49315714Y-83431047D01*
X49649048Y-83431047D01*
X49839524Y-83478666D01*
X49934762Y-83573904D01*
X49982381Y-83669142D01*
X49982381Y-83859619D01*
X49934762Y-83954857D01*
X49839524Y-84050095D01*
X49649048Y-84097714D01*
X49315714Y-84097714D01*
X49125238Y-84050095D01*
X49030000Y-83954857D01*
X48982381Y-83859619D01*
X49458571Y-83002476D02*
X49458571Y-82669142D01*
X49982381Y-82526285D02*
X49982381Y-83002476D01*
X48982381Y-83002476D01*
X48982381Y-82526285D01*
X48982381Y-86732952D02*
X49982381Y-86494857D01*
X49268095Y-86304380D01*
X49982381Y-86113904D01*
X48982381Y-85875809D01*
X49458571Y-85494857D02*
X49458571Y-85161523D01*
X49982381Y-85018666D02*
X49982381Y-85494857D01*
X48982381Y-85494857D01*
X48982381Y-85018666D01*
X48204381Y-91900476D02*
X47728190Y-92233810D01*
X48204381Y-92471905D02*
X47204381Y-92471905D01*
X47204381Y-92090952D01*
X47252000Y-91995714D01*
X47299619Y-91948095D01*
X47394857Y-91900476D01*
X47537714Y-91900476D01*
X47632952Y-91948095D01*
X47680571Y-91995714D01*
X47728190Y-92090952D01*
X47728190Y-92471905D01*
X47918667Y-91519524D02*
X47918667Y-91043333D01*
X48204381Y-91614762D02*
X47204381Y-91281429D01*
X48204381Y-90948095D01*
X48204381Y-90614762D02*
X47204381Y-90614762D01*
X47918667Y-90281428D01*
X47204381Y-89948095D01*
X48204381Y-89948095D01*
X49887143Y-88534857D02*
X49934762Y-88582476D01*
X49982381Y-88725333D01*
X49982381Y-88820571D01*
X49934762Y-88963429D01*
X49839524Y-89058667D01*
X49744286Y-89106286D01*
X49553810Y-89153905D01*
X49410952Y-89153905D01*
X49220476Y-89106286D01*
X49125238Y-89058667D01*
X49030000Y-88963429D01*
X48982381Y-88820571D01*
X48982381Y-88725333D01*
X49030000Y-88582476D01*
X49077619Y-88534857D01*
X49458571Y-88106286D02*
X49458571Y-87772952D01*
X49982381Y-87630095D02*
X49982381Y-88106286D01*
X48982381Y-88106286D01*
X48982381Y-87630095D01*
X48982381Y-91479619D02*
X48982381Y-91289142D01*
X49030000Y-91193904D01*
X49125238Y-91098666D01*
X49315714Y-91051047D01*
X49649048Y-91051047D01*
X49839524Y-91098666D01*
X49934762Y-91193904D01*
X49982381Y-91289142D01*
X49982381Y-91479619D01*
X49934762Y-91574857D01*
X49839524Y-91670095D01*
X49649048Y-91717714D01*
X49315714Y-91717714D01*
X49125238Y-91670095D01*
X49030000Y-91574857D01*
X48982381Y-91479619D01*
X49458571Y-90622476D02*
X49458571Y-90289142D01*
X49982381Y-90146285D02*
X49982381Y-90622476D01*
X48982381Y-90622476D01*
X48982381Y-90146285D01*
X48982381Y-94352952D02*
X49982381Y-94114857D01*
X49268095Y-93924380D01*
X49982381Y-93733904D01*
X48982381Y-93495809D01*
X49458571Y-93114857D02*
X49458571Y-92781523D01*
X49982381Y-92638666D02*
X49982381Y-93114857D01*
X48982381Y-93114857D01*
X48982381Y-92638666D01*
X229417619Y-75422095D02*
X230417619Y-75422095D01*
X230417619Y-75660190D01*
X230370000Y-75803048D01*
X230274762Y-75898286D01*
X230179524Y-75945905D01*
X229989048Y-75993524D01*
X229846190Y-75993524D01*
X229655714Y-75945905D01*
X229560476Y-75898286D01*
X229465238Y-75803048D01*
X229417619Y-75660190D01*
X229417619Y-75422095D01*
X230417619Y-76612571D02*
X230417619Y-76707810D01*
X230370000Y-76803048D01*
X230322381Y-76850667D01*
X230227143Y-76898286D01*
X230036667Y-76945905D01*
X229798571Y-76945905D01*
X229608095Y-76898286D01*
X229512857Y-76850667D01*
X229465238Y-76803048D01*
X229417619Y-76707810D01*
X229417619Y-76612571D01*
X229465238Y-76517333D01*
X229512857Y-76469714D01*
X229608095Y-76422095D01*
X229798571Y-76374476D01*
X230036667Y-76374476D01*
X230227143Y-76422095D01*
X230322381Y-76469714D01*
X230370000Y-76517333D01*
X230417619Y-76612571D01*
X229417619Y-72882095D02*
X230417619Y-72882095D01*
X230417619Y-73120190D01*
X230370000Y-73263048D01*
X230274762Y-73358286D01*
X230179524Y-73405905D01*
X229989048Y-73453524D01*
X229846190Y-73453524D01*
X229655714Y-73405905D01*
X229560476Y-73358286D01*
X229465238Y-73263048D01*
X229417619Y-73120190D01*
X229417619Y-72882095D01*
X229417619Y-74405905D02*
X229417619Y-73834476D01*
X229417619Y-74120190D02*
X230417619Y-74120190D01*
X230274762Y-74024952D01*
X230179524Y-73929714D01*
X230131905Y-73834476D01*
X229417619Y-70342095D02*
X230417619Y-70342095D01*
X230417619Y-70580190D01*
X230370000Y-70723048D01*
X230274762Y-70818286D01*
X230179524Y-70865905D01*
X229989048Y-70913524D01*
X229846190Y-70913524D01*
X229655714Y-70865905D01*
X229560476Y-70818286D01*
X229465238Y-70723048D01*
X229417619Y-70580190D01*
X229417619Y-70342095D01*
X230322381Y-71294476D02*
X230370000Y-71342095D01*
X230417619Y-71437333D01*
X230417619Y-71675429D01*
X230370000Y-71770667D01*
X230322381Y-71818286D01*
X230227143Y-71865905D01*
X230131905Y-71865905D01*
X229989048Y-71818286D01*
X229417619Y-71246857D01*
X229417619Y-71865905D01*
X229417619Y-67802095D02*
X230417619Y-67802095D01*
X230417619Y-68040190D01*
X230370000Y-68183048D01*
X230274762Y-68278286D01*
X230179524Y-68325905D01*
X229989048Y-68373524D01*
X229846190Y-68373524D01*
X229655714Y-68325905D01*
X229560476Y-68278286D01*
X229465238Y-68183048D01*
X229417619Y-68040190D01*
X229417619Y-67802095D01*
X230417619Y-68706857D02*
X230417619Y-69325905D01*
X230036667Y-68992571D01*
X230036667Y-69135429D01*
X229989048Y-69230667D01*
X229941429Y-69278286D01*
X229846190Y-69325905D01*
X229608095Y-69325905D01*
X229512857Y-69278286D01*
X229465238Y-69230667D01*
X229417619Y-69135429D01*
X229417619Y-68849714D01*
X229465238Y-68754476D01*
X229512857Y-68706857D01*
X229417619Y-65262095D02*
X230417619Y-65262095D01*
X230417619Y-65500190D01*
X230370000Y-65643048D01*
X230274762Y-65738286D01*
X230179524Y-65785905D01*
X229989048Y-65833524D01*
X229846190Y-65833524D01*
X229655714Y-65785905D01*
X229560476Y-65738286D01*
X229465238Y-65643048D01*
X229417619Y-65500190D01*
X229417619Y-65262095D01*
X230084286Y-66690667D02*
X229417619Y-66690667D01*
X230465238Y-66452571D02*
X229750952Y-66214476D01*
X229750952Y-66833524D01*
X229417619Y-62722095D02*
X230417619Y-62722095D01*
X230417619Y-62960190D01*
X230370000Y-63103048D01*
X230274762Y-63198286D01*
X230179524Y-63245905D01*
X229989048Y-63293524D01*
X229846190Y-63293524D01*
X229655714Y-63245905D01*
X229560476Y-63198286D01*
X229465238Y-63103048D01*
X229417619Y-62960190D01*
X229417619Y-62722095D01*
X230417619Y-64198286D02*
X230417619Y-63722095D01*
X229941429Y-63674476D01*
X229989048Y-63722095D01*
X230036667Y-63817333D01*
X230036667Y-64055429D01*
X229989048Y-64150667D01*
X229941429Y-64198286D01*
X229846190Y-64245905D01*
X229608095Y-64245905D01*
X229512857Y-64198286D01*
X229465238Y-64150667D01*
X229417619Y-64055429D01*
X229417619Y-63817333D01*
X229465238Y-63722095D01*
X229512857Y-63674476D01*
X229417619Y-60182095D02*
X230417619Y-60182095D01*
X230417619Y-60420190D01*
X230370000Y-60563048D01*
X230274762Y-60658286D01*
X230179524Y-60705905D01*
X229989048Y-60753524D01*
X229846190Y-60753524D01*
X229655714Y-60705905D01*
X229560476Y-60658286D01*
X229465238Y-60563048D01*
X229417619Y-60420190D01*
X229417619Y-60182095D01*
X230417619Y-61610667D02*
X230417619Y-61420190D01*
X230370000Y-61324952D01*
X230322381Y-61277333D01*
X230179524Y-61182095D01*
X229989048Y-61134476D01*
X229608095Y-61134476D01*
X229512857Y-61182095D01*
X229465238Y-61229714D01*
X229417619Y-61324952D01*
X229417619Y-61515429D01*
X229465238Y-61610667D01*
X229512857Y-61658286D01*
X229608095Y-61705905D01*
X229846190Y-61705905D01*
X229941429Y-61658286D01*
X229989048Y-61610667D01*
X230036667Y-61515429D01*
X230036667Y-61324952D01*
X229989048Y-61229714D01*
X229941429Y-61182095D01*
X229846190Y-61134476D01*
X229417619Y-57642095D02*
X230417619Y-57642095D01*
X230417619Y-57880190D01*
X230370000Y-58023048D01*
X230274762Y-58118286D01*
X230179524Y-58165905D01*
X229989048Y-58213524D01*
X229846190Y-58213524D01*
X229655714Y-58165905D01*
X229560476Y-58118286D01*
X229465238Y-58023048D01*
X229417619Y-57880190D01*
X229417619Y-57642095D01*
X230417619Y-58546857D02*
X230417619Y-59213524D01*
X229417619Y-58784952D01*
D13*
X50292000Y-119634000D02*
X50546000Y-119634000D01*
X49276000Y-112522000D02*
X49276000Y-111760000D01*
X49276000Y-119634000D02*
X49276000Y-115062000D01*
X50292000Y-119634000D02*
X49276000Y-119634000D01*
D11*
X48982381Y-113982476D02*
X48982381Y-114458667D01*
X49458571Y-114506286D01*
X49410952Y-114458667D01*
X49363333Y-114363429D01*
X49363333Y-114125333D01*
X49410952Y-114030095D01*
X49458571Y-113982476D01*
X49553810Y-113934857D01*
X49791905Y-113934857D01*
X49887143Y-113982476D01*
X49934762Y-114030095D01*
X49982381Y-114125333D01*
X49982381Y-114363429D01*
X49934762Y-114458667D01*
X49887143Y-114506286D01*
X48982381Y-113649143D02*
X49982381Y-113315810D01*
X48982381Y-112982476D01*
D13*
X49276000Y-107696000D02*
X49276000Y-111760000D01*
X50546000Y-107696000D02*
X49276000Y-107696000D01*
X49276000Y-107188000D02*
X49276000Y-102870000D01*
X50546000Y-107188000D02*
X49276000Y-107188000D01*
X49276000Y-95250000D02*
X49276000Y-99314000D01*
X50546000Y-95250000D02*
X49276000Y-95250000D01*
D11*
X49030000Y-101853904D02*
X48982381Y-101949142D01*
X48982381Y-102091999D01*
X49030000Y-102234857D01*
X49125238Y-102330095D01*
X49220476Y-102377714D01*
X49410952Y-102425333D01*
X49553810Y-102425333D01*
X49744286Y-102377714D01*
X49839524Y-102330095D01*
X49934762Y-102234857D01*
X49982381Y-102091999D01*
X49982381Y-101996761D01*
X49934762Y-101853904D01*
X49887143Y-101806285D01*
X49553810Y-101806285D01*
X49553810Y-101996761D01*
X49982381Y-101377714D02*
X48982381Y-101377714D01*
X49982381Y-100806285D01*
X48982381Y-100806285D01*
X49982381Y-100330095D02*
X48982381Y-100330095D01*
X48982381Y-100092000D01*
X49030000Y-99949142D01*
X49125238Y-99853904D01*
X49220476Y-99806285D01*
X49410952Y-99758666D01*
X49553810Y-99758666D01*
X49744286Y-99806285D01*
X49839524Y-99853904D01*
X49934762Y-99949142D01*
X49982381Y-100092000D01*
X49982381Y-100330095D01*
X48982381Y-94352952D02*
X49982381Y-94114857D01*
X49268095Y-93924380D01*
X49982381Y-93733904D01*
X48982381Y-93495809D01*
X49458571Y-93114857D02*
X49458571Y-92781523D01*
X49982381Y-92638666D02*
X49982381Y-93114857D01*
X48982381Y-93114857D01*
X48982381Y-92638666D01*
X48982381Y-91479619D02*
X48982381Y-91289142D01*
X49030000Y-91193904D01*
X49125238Y-91098666D01*
X49315714Y-91051047D01*
X49649048Y-91051047D01*
X49839524Y-91098666D01*
X49934762Y-91193904D01*
X49982381Y-91289142D01*
X49982381Y-91479619D01*
X49934762Y-91574857D01*
X49839524Y-91670095D01*
X49649048Y-91717714D01*
X49315714Y-91717714D01*
X49125238Y-91670095D01*
X49030000Y-91574857D01*
X48982381Y-91479619D01*
X49458571Y-90622476D02*
X49458571Y-90289142D01*
X49982381Y-90146285D02*
X49982381Y-90622476D01*
X48982381Y-90622476D01*
X48982381Y-90146285D01*
X49887143Y-88534857D02*
X49934762Y-88582476D01*
X49982381Y-88725333D01*
X49982381Y-88820571D01*
X49934762Y-88963429D01*
X49839524Y-89058667D01*
X49744286Y-89106286D01*
X49553810Y-89153905D01*
X49410952Y-89153905D01*
X49220476Y-89106286D01*
X49125238Y-89058667D01*
X49030000Y-88963429D01*
X48982381Y-88820571D01*
X48982381Y-88725333D01*
X49030000Y-88582476D01*
X49077619Y-88534857D01*
X49458571Y-88106286D02*
X49458571Y-87772952D01*
X49982381Y-87630095D02*
X49982381Y-88106286D01*
X48982381Y-88106286D01*
X48982381Y-87630095D01*
X48204381Y-84026476D02*
X47728190Y-84359810D01*
X48204381Y-84597905D02*
X47204381Y-84597905D01*
X47204381Y-84216952D01*
X47252000Y-84121714D01*
X47299619Y-84074095D01*
X47394857Y-84026476D01*
X47537714Y-84026476D01*
X47632952Y-84074095D01*
X47680571Y-84121714D01*
X47728190Y-84216952D01*
X47728190Y-84597905D01*
X47204381Y-83407429D02*
X47204381Y-83216952D01*
X47252000Y-83121714D01*
X47347238Y-83026476D01*
X47537714Y-82978857D01*
X47871048Y-82978857D01*
X48061524Y-83026476D01*
X48156762Y-83121714D01*
X48204381Y-83216952D01*
X48204381Y-83407429D01*
X48156762Y-83502667D01*
X48061524Y-83597905D01*
X47871048Y-83645524D01*
X47537714Y-83645524D01*
X47347238Y-83597905D01*
X47252000Y-83502667D01*
X47204381Y-83407429D01*
X48204381Y-82550286D02*
X47204381Y-82550286D01*
X47918667Y-82216952D01*
X47204381Y-81883619D01*
X48204381Y-81883619D01*
X224194667Y-52641524D02*
X224194667Y-52165333D01*
X224480381Y-52736762D02*
X223480381Y-52403429D01*
X224480381Y-52070095D01*
X223480381Y-51546286D02*
X223480381Y-51451047D01*
X223528000Y-51355809D01*
X223575619Y-51308190D01*
X223670857Y-51260571D01*
X223861333Y-51212952D01*
X224099429Y-51212952D01*
X224289905Y-51260571D01*
X224385143Y-51308190D01*
X224432762Y-51355809D01*
X224480381Y-51451047D01*
X224480381Y-51546286D01*
X224432762Y-51641524D01*
X224385143Y-51689143D01*
X224289905Y-51736762D01*
X224099429Y-51784381D01*
X223861333Y-51784381D01*
X223670857Y-51736762D01*
X223575619Y-51689143D01*
X223528000Y-51641524D01*
X223480381Y-51546286D01*
X221654667Y-52641524D02*
X221654667Y-52165333D01*
X221940381Y-52736762D02*
X220940381Y-52403429D01*
X221940381Y-52070095D01*
X221940381Y-51212952D02*
X221940381Y-51784381D01*
X221940381Y-51498667D02*
X220940381Y-51498667D01*
X221083238Y-51593905D01*
X221178476Y-51689143D01*
X221226095Y-51784381D01*
X219114667Y-52641524D02*
X219114667Y-52165333D01*
X219400381Y-52736762D02*
X218400381Y-52403429D01*
X219400381Y-52070095D01*
X218495619Y-51784381D02*
X218448000Y-51736762D01*
X218400381Y-51641524D01*
X218400381Y-51403428D01*
X218448000Y-51308190D01*
X218495619Y-51260571D01*
X218590857Y-51212952D01*
X218686095Y-51212952D01*
X218828952Y-51260571D01*
X219400381Y-51832000D01*
X219400381Y-51212952D01*
X216574667Y-52641524D02*
X216574667Y-52165333D01*
X216860381Y-52736762D02*
X215860381Y-52403429D01*
X216860381Y-52070095D01*
X215860381Y-51832000D02*
X215860381Y-51212952D01*
X216241333Y-51546286D01*
X216241333Y-51403428D01*
X216288952Y-51308190D01*
X216336571Y-51260571D01*
X216431810Y-51212952D01*
X216669905Y-51212952D01*
X216765143Y-51260571D01*
X216812762Y-51308190D01*
X216860381Y-51403428D01*
X216860381Y-51689143D01*
X216812762Y-51784381D01*
X216765143Y-51832000D01*
X214034667Y-52641524D02*
X214034667Y-52165333D01*
X214320381Y-52736762D02*
X213320381Y-52403429D01*
X214320381Y-52070095D01*
X213653714Y-51308190D02*
X214320381Y-51308190D01*
X213272762Y-51546286D02*
X213987048Y-51784381D01*
X213987048Y-51165333D01*
X211494667Y-52641524D02*
X211494667Y-52165333D01*
X211780381Y-52736762D02*
X210780381Y-52403429D01*
X211780381Y-52070095D01*
X210780381Y-51260571D02*
X210780381Y-51736762D01*
X211256571Y-51784381D01*
X211208952Y-51736762D01*
X211161333Y-51641524D01*
X211161333Y-51403428D01*
X211208952Y-51308190D01*
X211256571Y-51260571D01*
X211351810Y-51212952D01*
X211589905Y-51212952D01*
X211685143Y-51260571D01*
X211732762Y-51308190D01*
X211780381Y-51403428D01*
X211780381Y-51641524D01*
X211732762Y-51736762D01*
X211685143Y-51784381D01*
X208954667Y-52641524D02*
X208954667Y-52165333D01*
X209240381Y-52736762D02*
X208240381Y-52403429D01*
X209240381Y-52070095D01*
X208240381Y-51308190D02*
X208240381Y-51498667D01*
X208288000Y-51593905D01*
X208335619Y-51641524D01*
X208478476Y-51736762D01*
X208668952Y-51784381D01*
X209049905Y-51784381D01*
X209145143Y-51736762D01*
X209192762Y-51689143D01*
X209240381Y-51593905D01*
X209240381Y-51403428D01*
X209192762Y-51308190D01*
X209145143Y-51260571D01*
X209049905Y-51212952D01*
X208811810Y-51212952D01*
X208716571Y-51260571D01*
X208668952Y-51308190D01*
X208621333Y-51403428D01*
X208621333Y-51593905D01*
X208668952Y-51689143D01*
X208716571Y-51736762D01*
X208811810Y-51784381D01*
X206414667Y-52641524D02*
X206414667Y-52165333D01*
X206700381Y-52736762D02*
X205700381Y-52403429D01*
X206700381Y-52070095D01*
X205700381Y-51832000D02*
X205700381Y-51165333D01*
X206700381Y-51593905D01*
X203874667Y-52641524D02*
X203874667Y-52165333D01*
X204160381Y-52736762D02*
X203160381Y-52403429D01*
X204160381Y-52070095D01*
X203588952Y-51593905D02*
X203541333Y-51689143D01*
X203493714Y-51736762D01*
X203398476Y-51784381D01*
X203350857Y-51784381D01*
X203255619Y-51736762D01*
X203208000Y-51689143D01*
X203160381Y-51593905D01*
X203160381Y-51403428D01*
X203208000Y-51308190D01*
X203255619Y-51260571D01*
X203350857Y-51212952D01*
X203398476Y-51212952D01*
X203493714Y-51260571D01*
X203541333Y-51308190D01*
X203588952Y-51403428D01*
X203588952Y-51593905D01*
X203636571Y-51689143D01*
X203684190Y-51736762D01*
X203779429Y-51784381D01*
X203969905Y-51784381D01*
X204065143Y-51736762D01*
X204112762Y-51689143D01*
X204160381Y-51593905D01*
X204160381Y-51403428D01*
X204112762Y-51308190D01*
X204065143Y-51260571D01*
X203969905Y-51212952D01*
X203779429Y-51212952D01*
X203684190Y-51260571D01*
X203636571Y-51308190D01*
X203588952Y-51403428D01*
X201334667Y-52641524D02*
X201334667Y-52165333D01*
X201620381Y-52736762D02*
X200620381Y-52403429D01*
X201620381Y-52070095D01*
X201620381Y-51689143D02*
X201620381Y-51498667D01*
X201572762Y-51403428D01*
X201525143Y-51355809D01*
X201382286Y-51260571D01*
X201191810Y-51212952D01*
X200810857Y-51212952D01*
X200715619Y-51260571D01*
X200668000Y-51308190D01*
X200620381Y-51403428D01*
X200620381Y-51593905D01*
X200668000Y-51689143D01*
X200715619Y-51736762D01*
X200810857Y-51784381D01*
X201048952Y-51784381D01*
X201144190Y-51736762D01*
X201191810Y-51689143D01*
X201239429Y-51593905D01*
X201239429Y-51403428D01*
X201191810Y-51308190D01*
X201144190Y-51260571D01*
X201048952Y-51212952D01*
X198794667Y-52641524D02*
X198794667Y-52165333D01*
X199080381Y-52736762D02*
X198080381Y-52403429D01*
X199080381Y-52070095D01*
X199080381Y-51212952D02*
X199080381Y-51784381D01*
X199080381Y-51498667D02*
X198080381Y-51498667D01*
X198223238Y-51593905D01*
X198318476Y-51689143D01*
X198366095Y-51784381D01*
X198080381Y-50593905D02*
X198080381Y-50498666D01*
X198128000Y-50403428D01*
X198175619Y-50355809D01*
X198270857Y-50308190D01*
X198461333Y-50260571D01*
X198699429Y-50260571D01*
X198889905Y-50308190D01*
X198985143Y-50355809D01*
X199032762Y-50403428D01*
X199080381Y-50498666D01*
X199080381Y-50593905D01*
X199032762Y-50689143D01*
X198985143Y-50736762D01*
X198889905Y-50784381D01*
X198699429Y-50832000D01*
X198461333Y-50832000D01*
X198270857Y-50784381D01*
X198175619Y-50736762D01*
X198128000Y-50689143D01*
X198080381Y-50593905D01*
X196254667Y-52641524D02*
X196254667Y-52165333D01*
X196540381Y-52736762D02*
X195540381Y-52403429D01*
X196540381Y-52070095D01*
X196540381Y-51212952D02*
X196540381Y-51784381D01*
X196540381Y-51498667D02*
X195540381Y-51498667D01*
X195683238Y-51593905D01*
X195778476Y-51689143D01*
X195826095Y-51784381D01*
X196540381Y-50260571D02*
X196540381Y-50832000D01*
X196540381Y-50546286D02*
X195540381Y-50546286D01*
X195683238Y-50641524D01*
X195778476Y-50736762D01*
X195826095Y-50832000D01*
X193714667Y-52641524D02*
X193714667Y-52165333D01*
X194000381Y-52736762D02*
X193000381Y-52403429D01*
X194000381Y-52070095D01*
X194000381Y-51212952D02*
X194000381Y-51784381D01*
X194000381Y-51498667D02*
X193000381Y-51498667D01*
X193143238Y-51593905D01*
X193238476Y-51689143D01*
X193286095Y-51784381D01*
X193095619Y-50832000D02*
X193048000Y-50784381D01*
X193000381Y-50689143D01*
X193000381Y-50451047D01*
X193048000Y-50355809D01*
X193095619Y-50308190D01*
X193190857Y-50260571D01*
X193286095Y-50260571D01*
X193428952Y-50308190D01*
X194000381Y-50879619D01*
X194000381Y-50260571D01*
X191174667Y-52641524D02*
X191174667Y-52165333D01*
X191460381Y-52736762D02*
X190460381Y-52403429D01*
X191460381Y-52070095D01*
X191460381Y-51212952D02*
X191460381Y-51784381D01*
X191460381Y-51498667D02*
X190460381Y-51498667D01*
X190603238Y-51593905D01*
X190698476Y-51689143D01*
X190746095Y-51784381D01*
X190460381Y-50879619D02*
X190460381Y-50260571D01*
X190841333Y-50593905D01*
X190841333Y-50451047D01*
X190888952Y-50355809D01*
X190936571Y-50308190D01*
X191031810Y-50260571D01*
X191269905Y-50260571D01*
X191365143Y-50308190D01*
X191412762Y-50355809D01*
X191460381Y-50451047D01*
X191460381Y-50736762D01*
X191412762Y-50832000D01*
X191365143Y-50879619D01*
X188634667Y-52641524D02*
X188634667Y-52165333D01*
X188920381Y-52736762D02*
X187920381Y-52403429D01*
X188920381Y-52070095D01*
X188920381Y-51212952D02*
X188920381Y-51784381D01*
X188920381Y-51498667D02*
X187920381Y-51498667D01*
X188063238Y-51593905D01*
X188158476Y-51689143D01*
X188206095Y-51784381D01*
X188253714Y-50355809D02*
X188920381Y-50355809D01*
X187872762Y-50593905D02*
X188587048Y-50832000D01*
X188587048Y-50212952D01*
X186094667Y-52641524D02*
X186094667Y-52165333D01*
X186380381Y-52736762D02*
X185380381Y-52403429D01*
X186380381Y-52070095D01*
X186380381Y-51212952D02*
X186380381Y-51784381D01*
X186380381Y-51498667D02*
X185380381Y-51498667D01*
X185523238Y-51593905D01*
X185618476Y-51689143D01*
X185666095Y-51784381D01*
X185380381Y-50308190D02*
X185380381Y-50784381D01*
X185856571Y-50832000D01*
X185808952Y-50784381D01*
X185761333Y-50689143D01*
X185761333Y-50451047D01*
X185808952Y-50355809D01*
X185856571Y-50308190D01*
X185951810Y-50260571D01*
X186189905Y-50260571D01*
X186285143Y-50308190D01*
X186332762Y-50355809D01*
X186380381Y-50451047D01*
X186380381Y-50689143D01*
X186332762Y-50784381D01*
X186285143Y-50832000D01*
X183094381Y-52990762D02*
X184094381Y-52657429D01*
X183094381Y-52324095D01*
X184094381Y-51990762D02*
X183094381Y-51990762D01*
X183094381Y-51609809D01*
X183142000Y-51514571D01*
X183189619Y-51466952D01*
X183284857Y-51419333D01*
X183427714Y-51419333D01*
X183522952Y-51466952D01*
X183570571Y-51514571D01*
X183618190Y-51609809D01*
X183618190Y-51990762D01*
X183570571Y-50657428D02*
X183618190Y-50514571D01*
X183665810Y-50466952D01*
X183761048Y-50419333D01*
X183903905Y-50419333D01*
X183999143Y-50466952D01*
X184046762Y-50514571D01*
X184094381Y-50609809D01*
X184094381Y-50990762D01*
X183094381Y-50990762D01*
X183094381Y-50657428D01*
X183142000Y-50562190D01*
X183189619Y-50514571D01*
X183284857Y-50466952D01*
X183380095Y-50466952D01*
X183475333Y-50514571D01*
X183522952Y-50562190D01*
X183570571Y-50657428D01*
X183570571Y-50990762D01*
X181300381Y-52276476D02*
X180824190Y-52609810D01*
X181300381Y-52847905D02*
X180300381Y-52847905D01*
X180300381Y-52466952D01*
X180348000Y-52371714D01*
X180395619Y-52324095D01*
X180490857Y-52276476D01*
X180633714Y-52276476D01*
X180728952Y-52324095D01*
X180776571Y-52371714D01*
X180824190Y-52466952D01*
X180824190Y-52847905D01*
X181300381Y-51847905D02*
X180300381Y-51847905D01*
X180300381Y-51609810D01*
X180348000Y-51466952D01*
X180443238Y-51371714D01*
X180538476Y-51324095D01*
X180728952Y-51276476D01*
X180871810Y-51276476D01*
X181062286Y-51324095D01*
X181157524Y-51371714D01*
X181252762Y-51466952D01*
X181300381Y-51609810D01*
X181300381Y-51847905D01*
X180824190Y-50657429D02*
X181300381Y-50657429D01*
X180300381Y-50990762D02*
X180824190Y-50657429D01*
X180300381Y-50324095D01*
X178760381Y-52847905D02*
X177760381Y-52847905D01*
X177760381Y-52466952D01*
X177808000Y-52371714D01*
X177855619Y-52324095D01*
X177950857Y-52276476D01*
X178093714Y-52276476D01*
X178188952Y-52324095D01*
X178236571Y-52371714D01*
X178284190Y-52466952D01*
X178284190Y-52847905D01*
X178760381Y-51847905D02*
X177760381Y-51847905D01*
X178760381Y-50847905D02*
X178760381Y-51419334D01*
X178760381Y-51133620D02*
X177760381Y-51133620D01*
X177903238Y-51228858D01*
X177998476Y-51324096D01*
X178046095Y-51419334D01*
X176220381Y-52847905D02*
X175220381Y-52847905D01*
X176220381Y-51800286D02*
X175744190Y-52133620D01*
X176220381Y-52371715D02*
X175220381Y-52371715D01*
X175220381Y-51990762D01*
X175268000Y-51895524D01*
X175315619Y-51847905D01*
X175410857Y-51800286D01*
X175553714Y-51800286D01*
X175648952Y-51847905D01*
X175696571Y-51895524D01*
X175744190Y-51990762D01*
X175744190Y-52371715D01*
X176315619Y-50705048D02*
X176268000Y-50800286D01*
X176172762Y-50895524D01*
X176029905Y-51038381D01*
X175982286Y-51133620D01*
X175982286Y-51228858D01*
X176220381Y-51181239D02*
X176172762Y-51276477D01*
X176077524Y-51371715D01*
X175887048Y-51419334D01*
X175553714Y-51419334D01*
X175363238Y-51371715D01*
X175268000Y-51276477D01*
X175220381Y-51181239D01*
X175220381Y-50990762D01*
X175268000Y-50895524D01*
X175363238Y-50800286D01*
X175553714Y-50752667D01*
X175887048Y-50752667D01*
X176077524Y-50800286D01*
X176172762Y-50895524D01*
X176220381Y-50990762D01*
X176220381Y-51181239D01*
X173426381Y-52847905D02*
X172426381Y-52847905D01*
X173140667Y-52514571D01*
X172426381Y-52181238D01*
X173426381Y-52181238D01*
X173426381Y-51228857D02*
X173426381Y-51705048D01*
X172426381Y-51705048D01*
X172902571Y-50562190D02*
X172950190Y-50419333D01*
X172997810Y-50371714D01*
X173093048Y-50324095D01*
X173235905Y-50324095D01*
X173331143Y-50371714D01*
X173378762Y-50419333D01*
X173426381Y-50514571D01*
X173426381Y-50895524D01*
X172426381Y-50895524D01*
X172426381Y-50562190D01*
X172474000Y-50466952D01*
X172521619Y-50419333D01*
X172616857Y-50371714D01*
X172712095Y-50371714D01*
X172807333Y-50419333D01*
X172854952Y-50466952D01*
X172902571Y-50562190D01*
X172902571Y-50895524D01*
X171140381Y-52847905D02*
X170140381Y-52847905D01*
X171140381Y-52276476D01*
X170140381Y-52276476D01*
X171140381Y-51800286D02*
X170140381Y-51800286D01*
X170854667Y-51466952D01*
X170140381Y-51133619D01*
X171140381Y-51133619D01*
X171140381Y-50657429D02*
X170140381Y-50657429D01*
X168552762Y-52895524D02*
X168600381Y-52752667D01*
X168600381Y-52514571D01*
X168552762Y-52419333D01*
X168505143Y-52371714D01*
X168409905Y-52324095D01*
X168314667Y-52324095D01*
X168219429Y-52371714D01*
X168171810Y-52419333D01*
X168124190Y-52514571D01*
X168076571Y-52705048D01*
X168028952Y-52800286D01*
X167981333Y-52847905D01*
X167886095Y-52895524D01*
X167790857Y-52895524D01*
X167695619Y-52847905D01*
X167648000Y-52800286D01*
X167600381Y-52705048D01*
X167600381Y-52466952D01*
X167648000Y-52324095D01*
X168600381Y-51895524D02*
X167600381Y-51895524D01*
X168600381Y-51324095D01*
X167600381Y-51324095D01*
X168505143Y-50276476D02*
X168552762Y-50324095D01*
X168600381Y-50466952D01*
X168600381Y-50562190D01*
X168552762Y-50705048D01*
X168457524Y-50800286D01*
X168362286Y-50847905D01*
X168171810Y-50895524D01*
X168028952Y-50895524D01*
X167838476Y-50847905D01*
X167743238Y-50800286D01*
X167648000Y-50705048D01*
X167600381Y-50562190D01*
X167600381Y-50466952D01*
X167648000Y-50324095D01*
X167695619Y-50276476D01*
X166060381Y-52276476D02*
X165584190Y-52609810D01*
X166060381Y-52847905D02*
X165060381Y-52847905D01*
X165060381Y-52466952D01*
X165108000Y-52371714D01*
X165155619Y-52324095D01*
X165250857Y-52276476D01*
X165393714Y-52276476D01*
X165488952Y-52324095D01*
X165536571Y-52371714D01*
X165584190Y-52466952D01*
X165584190Y-52847905D01*
X166012762Y-51895524D02*
X166060381Y-51752667D01*
X166060381Y-51514571D01*
X166012762Y-51419333D01*
X165965143Y-51371714D01*
X165869905Y-51324095D01*
X165774667Y-51324095D01*
X165679429Y-51371714D01*
X165631810Y-51419333D01*
X165584190Y-51514571D01*
X165536571Y-51705048D01*
X165488952Y-51800286D01*
X165441333Y-51847905D01*
X165346095Y-51895524D01*
X165250857Y-51895524D01*
X165155619Y-51847905D01*
X165108000Y-51800286D01*
X165060381Y-51705048D01*
X165060381Y-51466952D01*
X165108000Y-51324095D01*
X165060381Y-51038381D02*
X165060381Y-50466952D01*
X166060381Y-50752667D02*
X165060381Y-50752667D01*
X163520381Y-52847905D02*
X162520381Y-52847905D01*
X162520381Y-52466952D01*
X162568000Y-52371714D01*
X162615619Y-52324095D01*
X162710857Y-52276476D01*
X162853714Y-52276476D01*
X162948952Y-52324095D01*
X162996571Y-52371714D01*
X163044190Y-52466952D01*
X163044190Y-52847905D01*
X163520381Y-51847905D02*
X162520381Y-51847905D01*
X162615619Y-51419334D02*
X162568000Y-51371715D01*
X162520381Y-51276477D01*
X162520381Y-51038381D01*
X162568000Y-50943143D01*
X162615619Y-50895524D01*
X162710857Y-50847905D01*
X162806095Y-50847905D01*
X162948952Y-50895524D01*
X163520381Y-51466953D01*
X163520381Y-50847905D01*
X160932762Y-52895524D02*
X160980381Y-52752667D01*
X160980381Y-52514571D01*
X160932762Y-52419333D01*
X160885143Y-52371714D01*
X160789905Y-52324095D01*
X160694667Y-52324095D01*
X160599429Y-52371714D01*
X160551810Y-52419333D01*
X160504190Y-52514571D01*
X160456571Y-52705048D01*
X160408952Y-52800286D01*
X160361333Y-52847905D01*
X160266095Y-52895524D01*
X160170857Y-52895524D01*
X160075619Y-52847905D01*
X160028000Y-52800286D01*
X159980381Y-52705048D01*
X159980381Y-52466952D01*
X160028000Y-52324095D01*
X160980381Y-51895524D02*
X159980381Y-51895524D01*
X159980381Y-51657429D01*
X160028000Y-51514571D01*
X160123238Y-51419333D01*
X160218476Y-51371714D01*
X160408952Y-51324095D01*
X160551810Y-51324095D01*
X160742286Y-51371714D01*
X160837524Y-51419333D01*
X160932762Y-51514571D01*
X160980381Y-51657429D01*
X160980381Y-51895524D01*
X160456571Y-50562190D02*
X160504190Y-50419333D01*
X160551810Y-50371714D01*
X160647048Y-50324095D01*
X160789905Y-50324095D01*
X160885143Y-50371714D01*
X160932762Y-50419333D01*
X160980381Y-50514571D01*
X160980381Y-50895524D01*
X159980381Y-50895524D01*
X159980381Y-50562190D01*
X160028000Y-50466952D01*
X160075619Y-50419333D01*
X160170857Y-50371714D01*
X160266095Y-50371714D01*
X160361333Y-50419333D01*
X160408952Y-50466952D01*
X160456571Y-50562190D01*
X160456571Y-50895524D01*
X158345143Y-52276476D02*
X158392762Y-52324095D01*
X158440381Y-52466952D01*
X158440381Y-52562190D01*
X158392762Y-52705048D01*
X158297524Y-52800286D01*
X158202286Y-52847905D01*
X158011810Y-52895524D01*
X157868952Y-52895524D01*
X157678476Y-52847905D01*
X157583238Y-52800286D01*
X157488000Y-52705048D01*
X157440381Y-52562190D01*
X157440381Y-52466952D01*
X157488000Y-52324095D01*
X157535619Y-52276476D01*
X158440381Y-51371714D02*
X158440381Y-51847905D01*
X157440381Y-51847905D01*
X158440381Y-51038381D02*
X157440381Y-51038381D01*
X158440381Y-50466952D02*
X157868952Y-50895524D01*
X157440381Y-50466952D02*
X158011810Y-51038381D01*
X155003429Y-52506571D02*
X155146286Y-52554190D01*
X155193905Y-52601810D01*
X155241524Y-52697048D01*
X155241524Y-52839905D01*
X155193905Y-52935143D01*
X155146286Y-52982762D01*
X155051048Y-53030381D01*
X154670095Y-53030381D01*
X154670095Y-52030381D01*
X155003429Y-52030381D01*
X155098667Y-52078000D01*
X155146286Y-52125619D01*
X155193905Y-52220857D01*
X155193905Y-52316095D01*
X155146286Y-52411333D01*
X155098667Y-52458952D01*
X155003429Y-52506571D01*
X154670095Y-52506571D01*
X155670095Y-52506571D02*
X156003429Y-52506571D01*
X156146286Y-53030381D02*
X155670095Y-53030381D01*
X155670095Y-52030381D01*
X156146286Y-52030381D01*
X153106381Y-52276476D02*
X152630190Y-52609810D01*
X153106381Y-52847905D02*
X152106381Y-52847905D01*
X152106381Y-52466952D01*
X152154000Y-52371714D01*
X152201619Y-52324095D01*
X152296857Y-52276476D01*
X152439714Y-52276476D01*
X152534952Y-52324095D01*
X152582571Y-52371714D01*
X152630190Y-52466952D01*
X152630190Y-52847905D01*
X152106381Y-51943143D02*
X153106381Y-51705048D01*
X152392095Y-51514571D01*
X153106381Y-51324095D01*
X152106381Y-51086000D01*
X152582571Y-50371714D02*
X152630190Y-50228857D01*
X152677810Y-50181238D01*
X152773048Y-50133619D01*
X152915905Y-50133619D01*
X153011143Y-50181238D01*
X153058762Y-50228857D01*
X153106381Y-50324095D01*
X153106381Y-50705048D01*
X152106381Y-50705048D01*
X152106381Y-50371714D01*
X152154000Y-50276476D01*
X152201619Y-50228857D01*
X152296857Y-50181238D01*
X152392095Y-50181238D01*
X152487333Y-50228857D01*
X152534952Y-50276476D01*
X152582571Y-50371714D01*
X152582571Y-50705048D01*
X149868000Y-52324095D02*
X149820381Y-52419333D01*
X149820381Y-52562190D01*
X149868000Y-52705048D01*
X149963238Y-52800286D01*
X150058476Y-52847905D01*
X150248952Y-52895524D01*
X150391810Y-52895524D01*
X150582286Y-52847905D01*
X150677524Y-52800286D01*
X150772762Y-52705048D01*
X150820381Y-52562190D01*
X150820381Y-52466952D01*
X150772762Y-52324095D01*
X150725143Y-52276476D01*
X150391810Y-52276476D01*
X150391810Y-52466952D01*
X150820381Y-51847905D02*
X149820381Y-51847905D01*
X150820381Y-51276476D01*
X149820381Y-51276476D01*
X150820381Y-50800286D02*
X149820381Y-50800286D01*
X149820381Y-50562191D01*
X149868000Y-50419333D01*
X149963238Y-50324095D01*
X150058476Y-50276476D01*
X150248952Y-50228857D01*
X150391810Y-50228857D01*
X150582286Y-50276476D01*
X150677524Y-50324095D01*
X150772762Y-50419333D01*
X150820381Y-50562191D01*
X150820381Y-50800286D01*
X147280381Y-52990762D02*
X148280381Y-52657429D01*
X147280381Y-52324095D01*
X148185143Y-51419333D02*
X148232762Y-51466952D01*
X148280381Y-51609809D01*
X148280381Y-51705047D01*
X148232762Y-51847905D01*
X148137524Y-51943143D01*
X148042286Y-51990762D01*
X147851810Y-52038381D01*
X147708952Y-52038381D01*
X147518476Y-51990762D01*
X147423238Y-51943143D01*
X147328000Y-51847905D01*
X147280381Y-51705047D01*
X147280381Y-51609809D01*
X147328000Y-51466952D01*
X147375619Y-51419333D01*
X148185143Y-50419333D02*
X148232762Y-50466952D01*
X148280381Y-50609809D01*
X148280381Y-50705047D01*
X148232762Y-50847905D01*
X148137524Y-50943143D01*
X148042286Y-50990762D01*
X147851810Y-51038381D01*
X147708952Y-51038381D01*
X147518476Y-50990762D01*
X147423238Y-50943143D01*
X147328000Y-50847905D01*
X147280381Y-50705047D01*
X147280381Y-50609809D01*
X147328000Y-50466952D01*
X147375619Y-50419333D01*
X145740381Y-52847905D02*
X144740381Y-52847905D01*
X144740381Y-52609810D01*
X144788000Y-52466952D01*
X144883238Y-52371714D01*
X144978476Y-52324095D01*
X145168952Y-52276476D01*
X145311810Y-52276476D01*
X145502286Y-52324095D01*
X145597524Y-52371714D01*
X145692762Y-52466952D01*
X145740381Y-52609810D01*
X145740381Y-52847905D01*
X144740381Y-51657429D02*
X144740381Y-51562190D01*
X144788000Y-51466952D01*
X144835619Y-51419333D01*
X144930857Y-51371714D01*
X145121333Y-51324095D01*
X145359429Y-51324095D01*
X145549905Y-51371714D01*
X145645143Y-51419333D01*
X145692762Y-51466952D01*
X145740381Y-51562190D01*
X145740381Y-51657429D01*
X145692762Y-51752667D01*
X145645143Y-51800286D01*
X145549905Y-51847905D01*
X145359429Y-51895524D01*
X145121333Y-51895524D01*
X144930857Y-51847905D01*
X144835619Y-51800286D01*
X144788000Y-51752667D01*
X144740381Y-51657429D01*
X143200381Y-52847905D02*
X142200381Y-52847905D01*
X142200381Y-52609810D01*
X142248000Y-52466952D01*
X142343238Y-52371714D01*
X142438476Y-52324095D01*
X142628952Y-52276476D01*
X142771810Y-52276476D01*
X142962286Y-52324095D01*
X143057524Y-52371714D01*
X143152762Y-52466952D01*
X143200381Y-52609810D01*
X143200381Y-52847905D01*
X143200381Y-51324095D02*
X143200381Y-51895524D01*
X143200381Y-51609810D02*
X142200381Y-51609810D01*
X142343238Y-51705048D01*
X142438476Y-51800286D01*
X142486095Y-51895524D01*
X140660381Y-52847905D02*
X139660381Y-52847905D01*
X139660381Y-52609810D01*
X139708000Y-52466952D01*
X139803238Y-52371714D01*
X139898476Y-52324095D01*
X140088952Y-52276476D01*
X140231810Y-52276476D01*
X140422286Y-52324095D01*
X140517524Y-52371714D01*
X140612762Y-52466952D01*
X140660381Y-52609810D01*
X140660381Y-52847905D01*
X139755619Y-51895524D02*
X139708000Y-51847905D01*
X139660381Y-51752667D01*
X139660381Y-51514571D01*
X139708000Y-51419333D01*
X139755619Y-51371714D01*
X139850857Y-51324095D01*
X139946095Y-51324095D01*
X140088952Y-51371714D01*
X140660381Y-51943143D01*
X140660381Y-51324095D01*
X138120381Y-52847905D02*
X137120381Y-52847905D01*
X137120381Y-52609810D01*
X137168000Y-52466952D01*
X137263238Y-52371714D01*
X137358476Y-52324095D01*
X137548952Y-52276476D01*
X137691810Y-52276476D01*
X137882286Y-52324095D01*
X137977524Y-52371714D01*
X138072762Y-52466952D01*
X138120381Y-52609810D01*
X138120381Y-52847905D01*
X137120381Y-51943143D02*
X137120381Y-51324095D01*
X137501333Y-51657429D01*
X137501333Y-51514571D01*
X137548952Y-51419333D01*
X137596571Y-51371714D01*
X137691810Y-51324095D01*
X137929905Y-51324095D01*
X138025143Y-51371714D01*
X138072762Y-51419333D01*
X138120381Y-51514571D01*
X138120381Y-51800286D01*
X138072762Y-51895524D01*
X138025143Y-51943143D01*
X135580381Y-52847905D02*
X134580381Y-52847905D01*
X134580381Y-52609810D01*
X134628000Y-52466952D01*
X134723238Y-52371714D01*
X134818476Y-52324095D01*
X135008952Y-52276476D01*
X135151810Y-52276476D01*
X135342286Y-52324095D01*
X135437524Y-52371714D01*
X135532762Y-52466952D01*
X135580381Y-52609810D01*
X135580381Y-52847905D01*
X134913714Y-51419333D02*
X135580381Y-51419333D01*
X134532762Y-51657429D02*
X135247048Y-51895524D01*
X135247048Y-51276476D01*
X133040381Y-52847905D02*
X132040381Y-52847905D01*
X132040381Y-52609810D01*
X132088000Y-52466952D01*
X132183238Y-52371714D01*
X132278476Y-52324095D01*
X132468952Y-52276476D01*
X132611810Y-52276476D01*
X132802286Y-52324095D01*
X132897524Y-52371714D01*
X132992762Y-52466952D01*
X133040381Y-52609810D01*
X133040381Y-52847905D01*
X132040381Y-51371714D02*
X132040381Y-51847905D01*
X132516571Y-51895524D01*
X132468952Y-51847905D01*
X132421333Y-51752667D01*
X132421333Y-51514571D01*
X132468952Y-51419333D01*
X132516571Y-51371714D01*
X132611810Y-51324095D01*
X132849905Y-51324095D01*
X132945143Y-51371714D01*
X132992762Y-51419333D01*
X133040381Y-51514571D01*
X133040381Y-51752667D01*
X132992762Y-51847905D01*
X132945143Y-51895524D01*
X130500381Y-52847905D02*
X129500381Y-52847905D01*
X129500381Y-52609810D01*
X129548000Y-52466952D01*
X129643238Y-52371714D01*
X129738476Y-52324095D01*
X129928952Y-52276476D01*
X130071810Y-52276476D01*
X130262286Y-52324095D01*
X130357524Y-52371714D01*
X130452762Y-52466952D01*
X130500381Y-52609810D01*
X130500381Y-52847905D01*
X129500381Y-51419333D02*
X129500381Y-51609810D01*
X129548000Y-51705048D01*
X129595619Y-51752667D01*
X129738476Y-51847905D01*
X129928952Y-51895524D01*
X130309905Y-51895524D01*
X130405143Y-51847905D01*
X130452762Y-51800286D01*
X130500381Y-51705048D01*
X130500381Y-51514571D01*
X130452762Y-51419333D01*
X130405143Y-51371714D01*
X130309905Y-51324095D01*
X130071810Y-51324095D01*
X129976571Y-51371714D01*
X129928952Y-51419333D01*
X129881333Y-51514571D01*
X129881333Y-51705048D01*
X129928952Y-51800286D01*
X129976571Y-51847905D01*
X130071810Y-51895524D01*
X127960381Y-52847905D02*
X126960381Y-52847905D01*
X126960381Y-52609810D01*
X127008000Y-52466952D01*
X127103238Y-52371714D01*
X127198476Y-52324095D01*
X127388952Y-52276476D01*
X127531810Y-52276476D01*
X127722286Y-52324095D01*
X127817524Y-52371714D01*
X127912762Y-52466952D01*
X127960381Y-52609810D01*
X127960381Y-52847905D01*
X126960381Y-51943143D02*
X126960381Y-51276476D01*
X127960381Y-51705048D01*
X125134667Y-52895524D02*
X125134667Y-52419333D01*
X125420381Y-52990762D02*
X124420381Y-52657429D01*
X125420381Y-52324095D01*
X124420381Y-51800286D02*
X124420381Y-51705047D01*
X124468000Y-51609809D01*
X124515619Y-51562190D01*
X124610857Y-51514571D01*
X124801333Y-51466952D01*
X125039429Y-51466952D01*
X125229905Y-51514571D01*
X125325143Y-51562190D01*
X125372762Y-51609809D01*
X125420381Y-51705047D01*
X125420381Y-51800286D01*
X125372762Y-51895524D01*
X125325143Y-51943143D01*
X125229905Y-51990762D01*
X125039429Y-52038381D01*
X124801333Y-52038381D01*
X124610857Y-51990762D01*
X124515619Y-51943143D01*
X124468000Y-51895524D01*
X124420381Y-51800286D01*
X122594667Y-52895524D02*
X122594667Y-52419333D01*
X122880381Y-52990762D02*
X121880381Y-52657429D01*
X122880381Y-52324095D01*
X122880381Y-51466952D02*
X122880381Y-52038381D01*
X122880381Y-51752667D02*
X121880381Y-51752667D01*
X122023238Y-51847905D01*
X122118476Y-51943143D01*
X122166095Y-52038381D01*
X120054667Y-52895524D02*
X120054667Y-52419333D01*
X120340381Y-52990762D02*
X119340381Y-52657429D01*
X120340381Y-52324095D01*
X119435619Y-52038381D02*
X119388000Y-51990762D01*
X119340381Y-51895524D01*
X119340381Y-51657428D01*
X119388000Y-51562190D01*
X119435619Y-51514571D01*
X119530857Y-51466952D01*
X119626095Y-51466952D01*
X119768952Y-51514571D01*
X120340381Y-52086000D01*
X120340381Y-51466952D01*
X117514667Y-52895524D02*
X117514667Y-52419333D01*
X117800381Y-52990762D02*
X116800381Y-52657429D01*
X117800381Y-52324095D01*
X116800381Y-52086000D02*
X116800381Y-51466952D01*
X117181333Y-51800286D01*
X117181333Y-51657428D01*
X117228952Y-51562190D01*
X117276571Y-51514571D01*
X117371810Y-51466952D01*
X117609905Y-51466952D01*
X117705143Y-51514571D01*
X117752762Y-51562190D01*
X117800381Y-51657428D01*
X117800381Y-51943143D01*
X117752762Y-52038381D01*
X117705143Y-52086000D01*
X114974667Y-52895524D02*
X114974667Y-52419333D01*
X115260381Y-52990762D02*
X114260381Y-52657429D01*
X115260381Y-52324095D01*
X114593714Y-51562190D02*
X115260381Y-51562190D01*
X114212762Y-51800286D02*
X114927048Y-52038381D01*
X114927048Y-51419333D01*
X112434667Y-52895524D02*
X112434667Y-52419333D01*
X112720381Y-52990762D02*
X111720381Y-52657429D01*
X112720381Y-52324095D01*
X111720381Y-51514571D02*
X111720381Y-51990762D01*
X112196571Y-52038381D01*
X112148952Y-51990762D01*
X112101333Y-51895524D01*
X112101333Y-51657428D01*
X112148952Y-51562190D01*
X112196571Y-51514571D01*
X112291810Y-51466952D01*
X112529905Y-51466952D01*
X112625143Y-51514571D01*
X112672762Y-51562190D01*
X112720381Y-51657428D01*
X112720381Y-51895524D01*
X112672762Y-51990762D01*
X112625143Y-52038381D01*
X109894667Y-52895524D02*
X109894667Y-52419333D01*
X110180381Y-52990762D02*
X109180381Y-52657429D01*
X110180381Y-52324095D01*
X109180381Y-51562190D02*
X109180381Y-51752667D01*
X109228000Y-51847905D01*
X109275619Y-51895524D01*
X109418476Y-51990762D01*
X109608952Y-52038381D01*
X109989905Y-52038381D01*
X110085143Y-51990762D01*
X110132762Y-51943143D01*
X110180381Y-51847905D01*
X110180381Y-51657428D01*
X110132762Y-51562190D01*
X110085143Y-51514571D01*
X109989905Y-51466952D01*
X109751810Y-51466952D01*
X109656571Y-51514571D01*
X109608952Y-51562190D01*
X109561333Y-51657428D01*
X109561333Y-51847905D01*
X109608952Y-51943143D01*
X109656571Y-51990762D01*
X109751810Y-52038381D01*
X107354667Y-52895524D02*
X107354667Y-52419333D01*
X107640381Y-52990762D02*
X106640381Y-52657429D01*
X107640381Y-52324095D01*
X106640381Y-52086000D02*
X106640381Y-51419333D01*
X107640381Y-51847905D01*
X104814667Y-52895524D02*
X104814667Y-52419333D01*
X105100381Y-52990762D02*
X104100381Y-52657429D01*
X105100381Y-52324095D01*
X104528952Y-51847905D02*
X104481333Y-51943143D01*
X104433714Y-51990762D01*
X104338476Y-52038381D01*
X104290857Y-52038381D01*
X104195619Y-51990762D01*
X104148000Y-51943143D01*
X104100381Y-51847905D01*
X104100381Y-51657428D01*
X104148000Y-51562190D01*
X104195619Y-51514571D01*
X104290857Y-51466952D01*
X104338476Y-51466952D01*
X104433714Y-51514571D01*
X104481333Y-51562190D01*
X104528952Y-51657428D01*
X104528952Y-51847905D01*
X104576571Y-51943143D01*
X104624190Y-51990762D01*
X104719429Y-52038381D01*
X104909905Y-52038381D01*
X105005143Y-51990762D01*
X105052762Y-51943143D01*
X105100381Y-51847905D01*
X105100381Y-51657428D01*
X105052762Y-51562190D01*
X105005143Y-51514571D01*
X104909905Y-51466952D01*
X104719429Y-51466952D01*
X104624190Y-51514571D01*
X104576571Y-51562190D01*
X104528952Y-51657428D01*
X102274667Y-52895524D02*
X102274667Y-52419333D01*
X102560381Y-52990762D02*
X101560381Y-52657429D01*
X102560381Y-52324095D01*
X102560381Y-51943143D02*
X102560381Y-51752667D01*
X102512762Y-51657428D01*
X102465143Y-51609809D01*
X102322286Y-51514571D01*
X102131810Y-51466952D01*
X101750857Y-51466952D01*
X101655619Y-51514571D01*
X101608000Y-51562190D01*
X101560381Y-51657428D01*
X101560381Y-51847905D01*
X101608000Y-51943143D01*
X101655619Y-51990762D01*
X101750857Y-52038381D01*
X101988952Y-52038381D01*
X102084190Y-51990762D01*
X102131810Y-51943143D01*
X102179429Y-51847905D01*
X102179429Y-51657428D01*
X102131810Y-51562190D01*
X102084190Y-51514571D01*
X101988952Y-51466952D01*
X99734667Y-52895524D02*
X99734667Y-52419333D01*
X100020381Y-52990762D02*
X99020381Y-52657429D01*
X100020381Y-52324095D01*
X100020381Y-51466952D02*
X100020381Y-52038381D01*
X100020381Y-51752667D02*
X99020381Y-51752667D01*
X99163238Y-51847905D01*
X99258476Y-51943143D01*
X99306095Y-52038381D01*
X99020381Y-50847905D02*
X99020381Y-50752666D01*
X99068000Y-50657428D01*
X99115619Y-50609809D01*
X99210857Y-50562190D01*
X99401333Y-50514571D01*
X99639429Y-50514571D01*
X99829905Y-50562190D01*
X99925143Y-50609809D01*
X99972762Y-50657428D01*
X100020381Y-50752666D01*
X100020381Y-50847905D01*
X99972762Y-50943143D01*
X99925143Y-50990762D01*
X99829905Y-51038381D01*
X99639429Y-51086000D01*
X99401333Y-51086000D01*
X99210857Y-51038381D01*
X99115619Y-50990762D01*
X99068000Y-50943143D01*
X99020381Y-50847905D01*
X97194667Y-52895524D02*
X97194667Y-52419333D01*
X97480381Y-52990762D02*
X96480381Y-52657429D01*
X97480381Y-52324095D01*
X97480381Y-51466952D02*
X97480381Y-52038381D01*
X97480381Y-51752667D02*
X96480381Y-51752667D01*
X96623238Y-51847905D01*
X96718476Y-51943143D01*
X96766095Y-52038381D01*
X97480381Y-50514571D02*
X97480381Y-51086000D01*
X97480381Y-50800286D02*
X96480381Y-50800286D01*
X96623238Y-50895524D01*
X96718476Y-50990762D01*
X96766095Y-51086000D01*
X94654667Y-52895524D02*
X94654667Y-52419333D01*
X94940381Y-52990762D02*
X93940381Y-52657429D01*
X94940381Y-52324095D01*
X94940381Y-51466952D02*
X94940381Y-52038381D01*
X94940381Y-51752667D02*
X93940381Y-51752667D01*
X94083238Y-51847905D01*
X94178476Y-51943143D01*
X94226095Y-52038381D01*
X94035619Y-51086000D02*
X93988000Y-51038381D01*
X93940381Y-50943143D01*
X93940381Y-50705047D01*
X93988000Y-50609809D01*
X94035619Y-50562190D01*
X94130857Y-50514571D01*
X94226095Y-50514571D01*
X94368952Y-50562190D01*
X94940381Y-51133619D01*
X94940381Y-50514571D01*
X92114667Y-52895524D02*
X92114667Y-52419333D01*
X92400381Y-52990762D02*
X91400381Y-52657429D01*
X92400381Y-52324095D01*
X92400381Y-51466952D02*
X92400381Y-52038381D01*
X92400381Y-51752667D02*
X91400381Y-51752667D01*
X91543238Y-51847905D01*
X91638476Y-51943143D01*
X91686095Y-52038381D01*
X91400381Y-51133619D02*
X91400381Y-50514571D01*
X91781333Y-50847905D01*
X91781333Y-50705047D01*
X91828952Y-50609809D01*
X91876571Y-50562190D01*
X91971810Y-50514571D01*
X92209905Y-50514571D01*
X92305143Y-50562190D01*
X92352762Y-50609809D01*
X92400381Y-50705047D01*
X92400381Y-50990762D01*
X92352762Y-51086000D01*
X92305143Y-51133619D01*
X89574667Y-52895524D02*
X89574667Y-52419333D01*
X89860381Y-52990762D02*
X88860381Y-52657429D01*
X89860381Y-52324095D01*
X89860381Y-51466952D02*
X89860381Y-52038381D01*
X89860381Y-51752667D02*
X88860381Y-51752667D01*
X89003238Y-51847905D01*
X89098476Y-51943143D01*
X89146095Y-52038381D01*
X89193714Y-50609809D02*
X89860381Y-50609809D01*
X88812762Y-50847905D02*
X89527048Y-51086000D01*
X89527048Y-50466952D01*
X87034667Y-52895524D02*
X87034667Y-52419333D01*
X87320381Y-52990762D02*
X86320381Y-52657429D01*
X87320381Y-52324095D01*
X87320381Y-51466952D02*
X87320381Y-52038381D01*
X87320381Y-51752667D02*
X86320381Y-51752667D01*
X86463238Y-51847905D01*
X86558476Y-51943143D01*
X86606095Y-52038381D01*
X86320381Y-50562190D02*
X86320381Y-51038381D01*
X86796571Y-51086000D01*
X86748952Y-51038381D01*
X86701333Y-50943143D01*
X86701333Y-50705047D01*
X86748952Y-50609809D01*
X86796571Y-50562190D01*
X86891810Y-50514571D01*
X87129905Y-50514571D01*
X87225143Y-50562190D01*
X87272762Y-50609809D01*
X87320381Y-50705047D01*
X87320381Y-50943143D01*
X87272762Y-51038381D01*
X87225143Y-51086000D01*
X83780381Y-53244762D02*
X84780381Y-52911429D01*
X83780381Y-52578095D01*
X84780381Y-52244762D02*
X83780381Y-52244762D01*
X83780381Y-51863809D01*
X83828000Y-51768571D01*
X83875619Y-51720952D01*
X83970857Y-51673333D01*
X84113714Y-51673333D01*
X84208952Y-51720952D01*
X84256571Y-51768571D01*
X84304190Y-51863809D01*
X84304190Y-52244762D01*
X84256571Y-50911428D02*
X84304190Y-50768571D01*
X84351810Y-50720952D01*
X84447048Y-50673333D01*
X84589905Y-50673333D01*
X84685143Y-50720952D01*
X84732762Y-50768571D01*
X84780381Y-50863809D01*
X84780381Y-51244762D01*
X83780381Y-51244762D01*
X83780381Y-50911428D01*
X83828000Y-50816190D01*
X83875619Y-50768571D01*
X83970857Y-50720952D01*
X84066095Y-50720952D01*
X84161333Y-50768571D01*
X84208952Y-50816190D01*
X84256571Y-50911428D01*
X84256571Y-51244762D01*
X82240381Y-52530476D02*
X81764190Y-52863810D01*
X82240381Y-53101905D02*
X81240381Y-53101905D01*
X81240381Y-52720952D01*
X81288000Y-52625714D01*
X81335619Y-52578095D01*
X81430857Y-52530476D01*
X81573714Y-52530476D01*
X81668952Y-52578095D01*
X81716571Y-52625714D01*
X81764190Y-52720952D01*
X81764190Y-53101905D01*
X82240381Y-52101905D02*
X81240381Y-52101905D01*
X81240381Y-51863810D01*
X81288000Y-51720952D01*
X81383238Y-51625714D01*
X81478476Y-51578095D01*
X81668952Y-51530476D01*
X81811810Y-51530476D01*
X82002286Y-51578095D01*
X82097524Y-51625714D01*
X82192762Y-51720952D01*
X82240381Y-51863810D01*
X82240381Y-52101905D01*
X81764190Y-50911429D02*
X82240381Y-50911429D01*
X81240381Y-51244762D02*
X81764190Y-50911429D01*
X81240381Y-50578095D01*
X79700381Y-53046190D02*
X78700381Y-53046190D01*
X78700381Y-52665237D01*
X78748000Y-52569999D01*
X78795619Y-52522380D01*
X78890857Y-52474761D01*
X79033714Y-52474761D01*
X79128952Y-52522380D01*
X79176571Y-52569999D01*
X79224190Y-52665237D01*
X79224190Y-53046190D01*
X79700381Y-52046190D02*
X78700381Y-52046190D01*
X79700381Y-51046190D02*
X79700381Y-51617619D01*
X79700381Y-51331905D02*
X78700381Y-51331905D01*
X78843238Y-51427143D01*
X78938476Y-51522381D01*
X78986095Y-51617619D01*
X77160381Y-53101905D02*
X76160381Y-53101905D01*
X77160381Y-52054286D02*
X76684190Y-52387620D01*
X77160381Y-52625715D02*
X76160381Y-52625715D01*
X76160381Y-52244762D01*
X76208000Y-52149524D01*
X76255619Y-52101905D01*
X76350857Y-52054286D01*
X76493714Y-52054286D01*
X76588952Y-52101905D01*
X76636571Y-52149524D01*
X76684190Y-52244762D01*
X76684190Y-52625715D01*
X77255619Y-50959048D02*
X77208000Y-51054286D01*
X77112762Y-51149524D01*
X76969905Y-51292381D01*
X76922286Y-51387620D01*
X76922286Y-51482858D01*
X77160381Y-51435239D02*
X77112762Y-51530477D01*
X77017524Y-51625715D01*
X76827048Y-51673334D01*
X76493714Y-51673334D01*
X76303238Y-51625715D01*
X76208000Y-51530477D01*
X76160381Y-51435239D01*
X76160381Y-51244762D01*
X76208000Y-51149524D01*
X76303238Y-51054286D01*
X76493714Y-51006667D01*
X76827048Y-51006667D01*
X77017524Y-51054286D01*
X77112762Y-51149524D01*
X77160381Y-51244762D01*
X77160381Y-51435239D01*
X74620381Y-53101905D02*
X73620381Y-53101905D01*
X74334667Y-52768571D01*
X73620381Y-52435238D01*
X74620381Y-52435238D01*
X74620381Y-51482857D02*
X74620381Y-51959048D01*
X73620381Y-51959048D01*
X74096571Y-50816190D02*
X74144190Y-50673333D01*
X74191810Y-50625714D01*
X74287048Y-50578095D01*
X74429905Y-50578095D01*
X74525143Y-50625714D01*
X74572762Y-50673333D01*
X74620381Y-50768571D01*
X74620381Y-51149524D01*
X73620381Y-51149524D01*
X73620381Y-50816190D01*
X73668000Y-50720952D01*
X73715619Y-50673333D01*
X73810857Y-50625714D01*
X73906095Y-50625714D01*
X74001333Y-50673333D01*
X74048952Y-50720952D01*
X74096571Y-50816190D01*
X74096571Y-51149524D01*
X72080381Y-53101905D02*
X71080381Y-53101905D01*
X72080381Y-52530476D01*
X71080381Y-52530476D01*
X72080381Y-52054286D02*
X71080381Y-52054286D01*
X71794667Y-51720952D01*
X71080381Y-51387619D01*
X72080381Y-51387619D01*
X72080381Y-50911429D02*
X71080381Y-50911429D01*
X69492762Y-53125524D02*
X69540381Y-52982667D01*
X69540381Y-52744571D01*
X69492762Y-52649333D01*
X69445143Y-52601714D01*
X69349905Y-52554095D01*
X69254667Y-52554095D01*
X69159429Y-52601714D01*
X69111810Y-52649333D01*
X69064190Y-52744571D01*
X69016571Y-52935048D01*
X68968952Y-53030286D01*
X68921333Y-53077905D01*
X68826095Y-53125524D01*
X68730857Y-53125524D01*
X68635619Y-53077905D01*
X68588000Y-53030286D01*
X68540381Y-52935048D01*
X68540381Y-52696952D01*
X68588000Y-52554095D01*
X69540381Y-52125524D02*
X68540381Y-52125524D01*
X69540381Y-51554095D01*
X68540381Y-51554095D01*
X69445143Y-50506476D02*
X69492762Y-50554095D01*
X69540381Y-50696952D01*
X69540381Y-50792190D01*
X69492762Y-50935048D01*
X69397524Y-51030286D01*
X69302286Y-51077905D01*
X69111810Y-51125524D01*
X68968952Y-51125524D01*
X68778476Y-51077905D01*
X68683238Y-51030286D01*
X68588000Y-50935048D01*
X68540381Y-50792190D01*
X68540381Y-50696952D01*
X68588000Y-50554095D01*
X68635619Y-50506476D01*
X67000381Y-52530476D02*
X66524190Y-52863810D01*
X67000381Y-53101905D02*
X66000381Y-53101905D01*
X66000381Y-52720952D01*
X66048000Y-52625714D01*
X66095619Y-52578095D01*
X66190857Y-52530476D01*
X66333714Y-52530476D01*
X66428952Y-52578095D01*
X66476571Y-52625714D01*
X66524190Y-52720952D01*
X66524190Y-53101905D01*
X66952762Y-52149524D02*
X67000381Y-52006667D01*
X67000381Y-51768571D01*
X66952762Y-51673333D01*
X66905143Y-51625714D01*
X66809905Y-51578095D01*
X66714667Y-51578095D01*
X66619429Y-51625714D01*
X66571810Y-51673333D01*
X66524190Y-51768571D01*
X66476571Y-51959048D01*
X66428952Y-52054286D01*
X66381333Y-52101905D01*
X66286095Y-52149524D01*
X66190857Y-52149524D01*
X66095619Y-52101905D01*
X66048000Y-52054286D01*
X66000381Y-51959048D01*
X66000381Y-51720952D01*
X66048000Y-51578095D01*
X66000381Y-51292381D02*
X66000381Y-50720952D01*
X67000381Y-51006667D02*
X66000381Y-51006667D01*
X64714381Y-53046190D02*
X63714381Y-53046190D01*
X63714381Y-52665237D01*
X63762000Y-52569999D01*
X63809619Y-52522380D01*
X63904857Y-52474761D01*
X64047714Y-52474761D01*
X64142952Y-52522380D01*
X64190571Y-52569999D01*
X64238190Y-52665237D01*
X64238190Y-53046190D01*
X64714381Y-52046190D02*
X63714381Y-52046190D01*
X63809619Y-51617619D02*
X63762000Y-51570000D01*
X63714381Y-51474762D01*
X63714381Y-51236666D01*
X63762000Y-51141428D01*
X63809619Y-51093809D01*
X63904857Y-51046190D01*
X64000095Y-51046190D01*
X64142952Y-51093809D01*
X64714381Y-51665238D01*
X64714381Y-51046190D01*
X62126762Y-53125524D02*
X62174381Y-52982667D01*
X62174381Y-52744571D01*
X62126762Y-52649333D01*
X62079143Y-52601714D01*
X61983905Y-52554095D01*
X61888667Y-52554095D01*
X61793429Y-52601714D01*
X61745810Y-52649333D01*
X61698190Y-52744571D01*
X61650571Y-52935048D01*
X61602952Y-53030286D01*
X61555333Y-53077905D01*
X61460095Y-53125524D01*
X61364857Y-53125524D01*
X61269619Y-53077905D01*
X61222000Y-53030286D01*
X61174381Y-52935048D01*
X61174381Y-52696952D01*
X61222000Y-52554095D01*
X61174381Y-51935048D02*
X61174381Y-51744571D01*
X61222000Y-51649333D01*
X61317238Y-51554095D01*
X61507714Y-51506476D01*
X61841048Y-51506476D01*
X62031524Y-51554095D01*
X62126762Y-51649333D01*
X62174381Y-51744571D01*
X62174381Y-51935048D01*
X62126762Y-52030286D01*
X62031524Y-52125524D01*
X61841048Y-52173143D01*
X61507714Y-52173143D01*
X61317238Y-52125524D01*
X61222000Y-52030286D01*
X61174381Y-51935048D01*
X61650571Y-50744571D02*
X61698190Y-50601714D01*
X61745810Y-50554095D01*
X61841048Y-50506476D01*
X61983905Y-50506476D01*
X62079143Y-50554095D01*
X62126762Y-50601714D01*
X62174381Y-50696952D01*
X62174381Y-51077905D01*
X61174381Y-51077905D01*
X61174381Y-50744571D01*
X61222000Y-50649333D01*
X61269619Y-50601714D01*
X61364857Y-50554095D01*
X61460095Y-50554095D01*
X61555333Y-50601714D01*
X61602952Y-50649333D01*
X61650571Y-50744571D01*
X61650571Y-51077905D01*
X59539143Y-52530476D02*
X59586762Y-52578095D01*
X59634381Y-52720952D01*
X59634381Y-52816190D01*
X59586762Y-52959048D01*
X59491524Y-53054286D01*
X59396286Y-53101905D01*
X59205810Y-53149524D01*
X59062952Y-53149524D01*
X58872476Y-53101905D01*
X58777238Y-53054286D01*
X58682000Y-52959048D01*
X58634381Y-52816190D01*
X58634381Y-52720952D01*
X58682000Y-52578095D01*
X58729619Y-52530476D01*
X59634381Y-51625714D02*
X59634381Y-52101905D01*
X58634381Y-52101905D01*
X59634381Y-51292381D02*
X58634381Y-51292381D01*
X59634381Y-50720952D02*
X59062952Y-51149524D01*
X58634381Y-50720952D02*
X59205810Y-51292381D01*
X56570571Y-52768571D02*
X56618190Y-52625714D01*
X56665810Y-52578095D01*
X56761048Y-52530476D01*
X56903905Y-52530476D01*
X56999143Y-52578095D01*
X57046762Y-52625714D01*
X57094381Y-52720952D01*
X57094381Y-53101905D01*
X56094381Y-53101905D01*
X56094381Y-52768571D01*
X56142000Y-52673333D01*
X56189619Y-52625714D01*
X56284857Y-52578095D01*
X56380095Y-52578095D01*
X56475333Y-52625714D01*
X56522952Y-52673333D01*
X56570571Y-52768571D01*
X56570571Y-53101905D01*
X56570571Y-52101905D02*
X56570571Y-51768571D01*
X57094381Y-51625714D02*
X57094381Y-52101905D01*
X56094381Y-52101905D01*
X56094381Y-51625714D01*
X54300381Y-52577904D02*
X53824190Y-52911238D01*
X54300381Y-53149333D02*
X53300381Y-53149333D01*
X53300381Y-52768380D01*
X53348000Y-52673142D01*
X53395619Y-52625523D01*
X53490857Y-52577904D01*
X53633714Y-52577904D01*
X53728952Y-52625523D01*
X53776571Y-52673142D01*
X53824190Y-52768380D01*
X53824190Y-53149333D01*
X53300381Y-52244571D02*
X54300381Y-52006476D01*
X53586095Y-51815999D01*
X54300381Y-51625523D01*
X53300381Y-51387428D01*
X53776571Y-50673142D02*
X53824190Y-50530285D01*
X53871810Y-50482666D01*
X53967048Y-50435047D01*
X54109905Y-50435047D01*
X54205143Y-50482666D01*
X54252762Y-50530285D01*
X54300381Y-50625523D01*
X54300381Y-51006476D01*
X53300381Y-51006476D01*
X53300381Y-50673142D01*
X53348000Y-50577904D01*
X53395619Y-50530285D01*
X53490857Y-50482666D01*
X53586095Y-50482666D01*
X53681333Y-50530285D01*
X53728952Y-50577904D01*
X53776571Y-50673142D01*
X53776571Y-51006476D01*
D13*
X49276000Y-78994000D02*
X50546000Y-78994000D01*
X49276000Y-74168000D02*
X49276000Y-78994000D01*
X49276000Y-67056000D02*
X49276000Y-71882000D01*
X50546000Y-67056000D02*
X49276000Y-67056000D01*
X49276000Y-56642000D02*
X50546000Y-56642000D01*
X49276000Y-59944000D02*
X49276000Y-56642000D01*
X49276000Y-66548000D02*
X50546000Y-66548000D01*
X49276000Y-63246000D02*
X49276000Y-66548000D01*
D11*
X49284000Y-62483904D02*
X49236381Y-62579142D01*
X49236381Y-62721999D01*
X49284000Y-62864857D01*
X49379238Y-62960095D01*
X49474476Y-63007714D01*
X49664952Y-63055333D01*
X49807810Y-63055333D01*
X49998286Y-63007714D01*
X50093524Y-62960095D01*
X50188762Y-62864857D01*
X50236381Y-62721999D01*
X50236381Y-62626761D01*
X50188762Y-62483904D01*
X50141143Y-62436285D01*
X49807810Y-62436285D01*
X49807810Y-62626761D01*
X50236381Y-62007714D02*
X49236381Y-62007714D01*
X50236381Y-61436285D01*
X49236381Y-61436285D01*
X50236381Y-60960095D02*
X49236381Y-60960095D01*
X49236381Y-60722000D01*
X49284000Y-60579142D01*
X49379238Y-60483904D01*
X49474476Y-60436285D01*
X49664952Y-60388666D01*
X49807810Y-60388666D01*
X49998286Y-60436285D01*
X50093524Y-60483904D01*
X50188762Y-60579142D01*
X50236381Y-60722000D01*
X50236381Y-60960095D01*
X48982381Y-73342476D02*
X48982381Y-73818667D01*
X49458571Y-73866286D01*
X49410952Y-73818667D01*
X49363333Y-73723429D01*
X49363333Y-73485333D01*
X49410952Y-73390095D01*
X49458571Y-73342476D01*
X49553810Y-73294857D01*
X49791905Y-73294857D01*
X49887143Y-73342476D01*
X49934762Y-73390095D01*
X49982381Y-73485333D01*
X49982381Y-73723429D01*
X49934762Y-73818667D01*
X49887143Y-73866286D01*
X48982381Y-73009143D02*
X49982381Y-72675810D01*
X48982381Y-72342476D01*
X48006000Y-52070000D02*
G75*
G03X48006000Y-52070000I-2286000J0D01*
G01*
X48006000Y-140970000D02*
G75*
G03X48006000Y-140970000I-2286000J0D01*
G01*
X235966000Y-140970000D02*
G75*
G03X235966000Y-140970000I-2286000J0D01*
G01*
X235966000Y-52070000D02*
G75*
G03X235966000Y-52070000I-2286000J0D01*
G01*
X229870000Y-134493000D02*
X244348000Y-134493000D01*
X244348000Y-134493000D02*
X244348000Y-125603000D01*
X244348000Y-125603000D02*
X229870000Y-125603000D01*
X229870000Y-134493000D02*
X229870000Y-125603000D01*
X206629904Y-128849888D02*
G75*
G03X203605000Y-128865000I-1524904J2484888D01*
G01*
X206605000Y-128865000D02*
X203605000Y-128865000D01*
X207622936Y-126365000D02*
G75*
G03X207622936Y-126365000I-2517936J0D01*
G01*
X228219000Y-140843000D02*
X228219000Y-145161000D01*
X228219000Y-140843000D02*
X219583000Y-140843000D01*
X219583000Y-140843000D02*
X219583000Y-145161000D01*
X219583000Y-145161000D02*
X228219000Y-145161000D01*
X49225200Y-127863600D02*
X49250600Y-128270000D01*
X49250600Y-128270000D02*
X49149000Y-127685800D01*
X49149000Y-127685800D02*
X49149000Y-128346200D01*
X49149000Y-128346200D02*
X49022000Y-127736600D01*
X49022000Y-127736600D02*
X48996600Y-128397000D01*
X48996600Y-128397000D02*
X48895000Y-127635000D01*
X48895000Y-127635000D02*
X48895000Y-128371600D01*
X48895000Y-128371600D02*
X48717200Y-127812800D01*
X48717200Y-127812800D02*
X48615600Y-128041400D01*
X48615600Y-128041400D02*
X48742600Y-128295400D01*
X48742600Y-128295400D02*
X48742600Y-128447800D01*
X48742600Y-128447800D02*
X48793400Y-127685800D01*
X49414792Y-128066800D02*
G75*
G03X49414792Y-128066800I-443592J0D01*
G01*
X48230000Y-121910000D02*
X58330000Y-121910000D01*
X48230000Y-132010000D02*
X58330000Y-132010000D01*
X58330000Y-121910000D02*
X58330000Y-132010000D01*
X48230000Y-121910000D02*
X48230000Y-132010000D01*
X60960000Y-140970000D02*
X64770000Y-144780000D01*
X64770000Y-144780000D02*
X83820000Y-144780000D01*
X83820000Y-144780000D02*
X83820000Y-121920000D01*
X83820000Y-121920000D02*
X60960000Y-121920000D01*
X60960000Y-121920000D02*
X60960000Y-140970000D01*
X57678000Y-143252000D02*
X57678000Y-140252000D01*
X60178000Y-140252000D02*
X60178000Y-143252000D01*
X216400000Y-133695000D02*
X210400000Y-133695000D01*
X210400000Y-129195000D02*
X216400000Y-129195000D01*
X139680000Y-138180000D02*
X139680000Y-141180000D01*
X137180000Y-141180000D02*
X137180000Y-138180000D01*
X206625000Y-144125000D02*
X203625000Y-144125000D01*
X203625000Y-141625000D02*
X206625000Y-141625000D01*
X46970000Y-122940000D02*
X46970000Y-125940000D01*
X44470000Y-125940000D02*
X44470000Y-122940000D01*
X172470000Y-140990000D02*
X175470000Y-140990000D01*
X175470000Y-143490000D02*
X172470000Y-143490000D01*
X231922000Y-113280000D02*
X231922000Y-110280000D01*
X234422000Y-110280000D02*
X234422000Y-113280000D01*
X48240000Y-110748000D02*
X48240000Y-113748000D01*
X45740000Y-113748000D02*
X45740000Y-110748000D01*
X48341600Y-72140000D02*
X48341600Y-75140000D01*
X45841600Y-75140000D02*
X45841600Y-72140000D01*
X156190000Y-48010000D02*
X156190000Y-51010000D01*
X153690000Y-51010000D02*
X153690000Y-48010000D01*
X211073480Y-137797540D02*
X209676480Y-137797540D01*
X215518480Y-137797540D02*
X217042480Y-137797540D01*
X215137480Y-138559540D02*
X215137480Y-137035540D01*
X215391480Y-138559540D02*
X215391480Y-137035540D01*
X215645480Y-137797540D02*
X215645480Y-137035540D01*
X215645480Y-137035540D02*
X211073480Y-137035540D01*
X211073480Y-137035540D02*
X211073480Y-138559540D01*
X211073480Y-138559540D02*
X215645480Y-138559540D01*
X215645480Y-138559540D02*
X215645480Y-137797540D01*
X225552000Y-55880000D02*
X225552000Y-53340000D01*
X222885000Y-55880000D02*
X225552000Y-55880000D01*
X222885000Y-53340000D02*
X225552000Y-53340000D01*
X123317000Y-53340000D02*
X124333000Y-53340000D01*
X124333000Y-53340000D02*
X122682000Y-53340000D01*
X123825000Y-55880000D02*
X106934000Y-55880000D01*
X106934000Y-55880000D02*
X101981000Y-55880000D01*
X101981000Y-55880000D02*
X94361000Y-55880000D01*
X94361000Y-55880000D02*
X84074000Y-55880000D01*
X84074000Y-55880000D02*
X76581000Y-55880000D01*
X76581000Y-55880000D02*
X66294000Y-55880000D01*
X66294000Y-55880000D02*
X58801000Y-55880000D01*
X58801000Y-55880000D02*
X52832000Y-55880000D01*
X52832000Y-55880000D02*
X52832000Y-53340000D01*
X52832000Y-53340000D02*
X123698000Y-53340000D01*
X222885000Y-53340000D02*
X123825000Y-53340000D01*
X123825000Y-55880000D02*
X222885000Y-55880000D01*
X176047400Y-133451600D02*
X174650400Y-133451600D01*
X174650400Y-133451600D02*
X174650400Y-129565400D01*
X174650400Y-129565400D02*
X175971200Y-129565400D01*
X176022000Y-137541000D02*
X141986000Y-137541000D01*
X141986000Y-137541000D02*
X141986000Y-125349000D01*
X141986000Y-125349000D02*
X176022000Y-125349000D01*
X176022000Y-125349000D02*
X176022000Y-137541000D01*
X136271000Y-124739400D02*
X136271000Y-124104400D01*
X134874000Y-121945400D02*
X137820400Y-121691400D01*
X134848600Y-123977400D02*
X137795000Y-124206000D01*
X137820400Y-124206000D02*
G75*
G03X137820400Y-121666000I-1270000J1270000D01*
G01*
X134899400Y-123926600D02*
X134899400Y-121970800D01*
X136271000Y-142214600D02*
X136271000Y-124764800D01*
X130784600Y-123952000D02*
X134899400Y-123952000D01*
X133731000Y-121920000D02*
X134874000Y-121920000D01*
X130810000Y-123952000D02*
X130810000Y-121920000D01*
X88011000Y-121920000D02*
X133731000Y-121920000D01*
X85471000Y-123952000D02*
X85471000Y-142240000D01*
X88011000Y-121920000D02*
G75*
G03X85471000Y-123952000I-254000J-2286000D01*
G01*
X85471000Y-142240000D02*
G75*
G03X88011000Y-144780000I2540000J0D01*
G01*
X133731000Y-144780000D02*
G75*
G03X136271000Y-142240000I0J2540000D01*
G01*
X133731000Y-144780000D02*
X88011000Y-144780000D01*
X133731000Y-144780000D02*
X88011000Y-144780000D01*
X133731000Y-144780000D02*
G75*
G03X136271000Y-142240000I0J2540000D01*
G01*
X85471000Y-142240000D02*
G75*
G03X88011000Y-144780000I2540000J0D01*
G01*
X85471000Y-142240000D02*
G75*
G03X88011000Y-144780000I2540000J0D01*
G01*
X133731000Y-144780000D02*
G75*
G03X136271000Y-142240000I0J2540000D01*
G01*
X133731000Y-144780000D02*
X88011000Y-144780000D01*
X133731000Y-144780000D02*
X88011000Y-144780000D01*
X133731000Y-144780000D02*
G75*
G03X136271000Y-142240000I0J2540000D01*
G01*
X85471000Y-142240000D02*
G75*
G03X88011000Y-144780000I2540000J0D01*
G01*
X85471000Y-142240000D02*
G75*
G03X88011000Y-144780000I2540000J0D01*
G01*
X133731000Y-144780000D02*
G75*
G03X136271000Y-142240000I0J2540000D01*
G01*
X133731000Y-144780000D02*
X88011000Y-144780000D01*
X133731000Y-144780000D02*
X88011000Y-144780000D01*
X133731000Y-144780000D02*
G75*
G03X136271000Y-142240000I0J2540000D01*
G01*
X85471000Y-142240000D02*
G75*
G03X88011000Y-144780000I2540000J0D01*
G01*
X85471000Y-142240000D02*
G75*
G03X88011000Y-144780000I2540000J0D01*
G01*
X133731000Y-144780000D02*
G75*
G03X136271000Y-142240000I0J2540000D01*
G01*
X133731000Y-144780000D02*
X88011000Y-144780000D01*
X133731000Y-144780000D02*
X88011000Y-144780000D01*
X133731000Y-144780000D02*
G75*
G03X136271000Y-142240000I0J2540000D01*
G01*
X85471000Y-142240000D02*
G75*
G03X88011000Y-144780000I2540000J0D01*
G01*
X223829880Y-127167640D02*
X223840040Y-131612640D01*
X223367600Y-127066040D02*
X223367600Y-135803640D01*
X224033080Y-127086360D02*
X224022920Y-135773160D01*
X224022920Y-135773160D02*
X223626680Y-135803640D01*
X223626680Y-135803640D02*
X223611440Y-127111760D01*
X223611440Y-127111760D02*
X223901000Y-127096520D01*
X223901000Y-127096520D02*
X223885760Y-135727440D01*
X223885760Y-135727440D02*
X223733360Y-135712200D01*
X223733360Y-135712200D02*
X223733360Y-127172720D01*
X223520000Y-127000000D02*
X223520000Y-135890000D01*
X219710000Y-135890000D02*
X224155000Y-135890000D01*
X224155000Y-135890000D02*
X224155000Y-127000000D01*
X224155000Y-127000000D02*
X219710000Y-127000000D01*
X219710000Y-127000000D02*
X219710000Y-135890000D01*
X217637360Y-144454880D02*
X213192360Y-144465040D01*
X217738960Y-143992600D02*
X209001360Y-143992600D01*
X217718640Y-144658080D02*
X209031840Y-144647920D01*
X209031840Y-144647920D02*
X209001360Y-144251680D01*
X209001360Y-144251680D02*
X217693240Y-144236440D01*
X217693240Y-144236440D02*
X217708480Y-144526000D01*
X217708480Y-144526000D02*
X209077560Y-144510760D01*
X209077560Y-144510760D02*
X209092800Y-144358360D01*
X209092800Y-144358360D02*
X217632280Y-144358360D01*
X217805000Y-144145000D02*
X208915000Y-144145000D01*
X208915000Y-140335000D02*
X208915000Y-144780000D01*
X208915000Y-144780000D02*
X217805000Y-144780000D01*
X217805000Y-144780000D02*
X217805000Y-140335000D01*
X217805000Y-140335000D02*
X208915000Y-140335000D01*
X226060000Y-118110000D02*
X226060000Y-120650000D01*
X226060000Y-120650000D02*
X228600000Y-120650000D01*
X228600000Y-120650000D02*
X228600000Y-118110000D01*
X228600000Y-118110000D02*
X228600000Y-57150000D01*
X228600000Y-57150000D02*
X226060000Y-57150000D01*
X226060000Y-57150000D02*
X226060000Y-118110000D01*
X50800000Y-117475000D02*
X50800000Y-120015000D01*
X50800000Y-120015000D02*
X53340000Y-120015000D01*
X53340000Y-120015000D02*
X53340000Y-117475000D01*
X53340000Y-117475000D02*
X53340000Y-56515000D01*
X53340000Y-56515000D02*
X50800000Y-56515000D01*
X50800000Y-56515000D02*
X50800000Y-117475000D01*
X149225000Y-50165000D02*
X151765000Y-50165000D01*
X151765000Y-50165000D02*
X151765000Y-47625000D01*
X151765000Y-47625000D02*
X149225000Y-47625000D01*
X149225000Y-47625000D02*
X52705000Y-47625000D01*
X52705000Y-47625000D02*
X52705000Y-50165000D01*
X52705000Y-50165000D02*
X149225000Y-50165000D01*
X196430900Y-129159000D02*
X196430900Y-128638300D01*
X196430900Y-128638300D02*
X196532500Y-129108200D01*
X196532500Y-129108200D02*
X196532500Y-128600200D01*
X196532500Y-128600200D02*
X196646800Y-129082800D01*
X196646800Y-129082800D02*
X196646800Y-128663700D01*
X196646800Y-128663700D02*
X196761100Y-129082800D01*
X196761100Y-129082800D02*
X196761100Y-128638300D01*
X196761100Y-128638300D02*
X196875400Y-129082800D01*
X196875400Y-129082800D02*
X196875400Y-128663700D01*
X196875400Y-128663700D02*
X196926200Y-128689100D01*
X196926200Y-128689100D02*
X196875400Y-128689100D01*
X196989700Y-128524000D02*
X196316600Y-128524000D01*
X196316600Y-128524000D02*
X196316600Y-129197100D01*
X196316600Y-129197100D02*
X197015100Y-129197100D01*
X196456300Y-127571500D02*
X197015100Y-128219200D01*
X197015100Y-127546100D02*
X197015100Y-132689600D01*
X177355500Y-127558800D02*
X177355500Y-132740400D01*
X177355500Y-132740400D02*
X177380900Y-132715000D01*
X177393600Y-127558800D02*
X196989700Y-127546100D01*
X196977000Y-132715000D02*
X177419000Y-132715000D01*
X178562000Y-141427200D02*
X178562000Y-139471400D01*
X178562000Y-141452600D02*
G75*
G03X178765200Y-141655800I203200J0D01*
G01*
X180905000Y-139135000D02*
G75*
G03X180905000Y-139135000I-1200000J0D01*
G01*
X181102000Y-141427200D02*
X181102000Y-139471400D01*
X181102000Y-141452600D02*
G75*
G03X181305200Y-141655800I203200J0D01*
G01*
X183445000Y-139135000D02*
G75*
G03X183445000Y-139135000I-1200000J0D01*
G01*
X183642000Y-141427200D02*
X183642000Y-139471400D01*
X183642000Y-141452600D02*
G75*
G03X183845200Y-141655800I203200J0D01*
G01*
X185985000Y-139135000D02*
G75*
G03X185985000Y-139135000I-1200000J0D01*
G01*
X186182000Y-141427200D02*
X186182000Y-139471400D01*
X186182000Y-141452600D02*
G75*
G03X186385200Y-141655800I203200J0D01*
G01*
X188525000Y-139135000D02*
G75*
G03X188525000Y-139135000I-1200000J0D01*
G01*
X188722000Y-141427200D02*
X188722000Y-139471400D01*
X188722000Y-141452600D02*
G75*
G03X188925200Y-141655800I203200J0D01*
G01*
X191065000Y-139135000D02*
G75*
G03X191065000Y-139135000I-1200000J0D01*
G01*
X191262000Y-141427200D02*
X191262000Y-139471400D01*
X191262000Y-141452600D02*
G75*
G03X191465200Y-141655800I203200J0D01*
G01*
X193605000Y-139135000D02*
G75*
G03X193605000Y-139135000I-1200000J0D01*
G01*
X193802000Y-141427200D02*
X193802000Y-139471400D01*
X193802000Y-141452600D02*
G75*
G03X194005200Y-141655800I203200J0D01*
G01*
X196145000Y-139135000D02*
G75*
G03X196145000Y-139135000I-1200000J0D01*
G01*
X205859380Y-130914140D02*
X205859380Y-131940300D01*
X206410560Y-131439920D02*
X205359000Y-131439920D01*
X206565500Y-135255000D02*
G75*
G03X206565500Y-135255000I-4000500J0D01*
G01*
X225319000Y-121353000D02*
X225319000Y-56353000D01*
X225319000Y-56353000D02*
X224069000Y-56353000D01*
X54069000Y-56353000D02*
X224069000Y-56353000D01*
X54069000Y-121353000D02*
X225319000Y-121353000D01*
X54069000Y-56353000D02*
X54069000Y-121353000D01*
X57725000Y-133858000D02*
X57975000Y-133858000D01*
X50225000Y-133858000D02*
X49975000Y-133858000D01*
X51475000Y-133108000D02*
X51475000Y-134608000D01*
X51475000Y-134608000D02*
X56475000Y-134608000D01*
X56475000Y-134608000D02*
X56475000Y-133108000D01*
X56475000Y-133108000D02*
X51475000Y-133108000D01*
X56515000Y-133858000D02*
X57785000Y-133858000D01*
X51435000Y-133858000D02*
X50165000Y-133858000D01*
X211642000Y-125095000D02*
X211392000Y-125095000D01*
X219142000Y-125095000D02*
X219392000Y-125095000D01*
X217892000Y-125845000D02*
X217892000Y-124345000D01*
X217892000Y-124345000D02*
X212892000Y-124345000D01*
X212892000Y-124345000D02*
X212892000Y-125845000D01*
X212892000Y-125845000D02*
X217892000Y-125845000D01*
X212852000Y-125095000D02*
X211582000Y-125095000D01*
X217932000Y-125095000D02*
X219202000Y-125095000D01*
X235886667Y-122769381D02*
X235886667Y-123483667D01*
X235839047Y-123626524D01*
X235743809Y-123721762D01*
X235600952Y-123769381D01*
X235505714Y-123769381D01*
X236886667Y-123769381D02*
X236315238Y-123769381D01*
X236600952Y-123769381D02*
X236600952Y-122769381D01*
X236505714Y-122912238D01*
X236410476Y-123007476D01*
X236315238Y-123055095D01*
X201445953Y-123007381D02*
X200969762Y-123007381D01*
X200969762Y-122007381D01*
X201779286Y-122483571D02*
X202112620Y-122483571D01*
X202255477Y-123007381D02*
X201779286Y-123007381D01*
X201779286Y-122007381D01*
X202255477Y-122007381D01*
X202684048Y-123007381D02*
X202684048Y-122007381D01*
X202922143Y-122007381D01*
X203065001Y-122055000D01*
X203160239Y-122150238D01*
X203207858Y-122245476D01*
X203255477Y-122435952D01*
X203255477Y-122578810D01*
X203207858Y-122769286D01*
X203160239Y-122864524D01*
X203065001Y-122959762D01*
X202922143Y-123007381D01*
X202684048Y-123007381D01*
X204207858Y-123007381D02*
X203636429Y-123007381D01*
X203922143Y-123007381D02*
X203922143Y-122007381D01*
X203826905Y-122150238D01*
X203731667Y-122245476D01*
X203636429Y-122293095D01*
X49384762Y-139043333D02*
X49432381Y-138900476D01*
X49432381Y-138662380D01*
X49384762Y-138567142D01*
X49337143Y-138519523D01*
X49241905Y-138471904D01*
X49146667Y-138471904D01*
X49051429Y-138519523D01*
X49003810Y-138567142D01*
X48956190Y-138662380D01*
X48908571Y-138852857D01*
X48860952Y-138948095D01*
X48813333Y-138995714D01*
X48718095Y-139043333D01*
X48622857Y-139043333D01*
X48527619Y-138995714D01*
X48480000Y-138948095D01*
X48432381Y-138852857D01*
X48432381Y-138614761D01*
X48480000Y-138471904D01*
X48432381Y-138138571D02*
X49432381Y-137900476D01*
X48718095Y-137709999D01*
X49432381Y-137519523D01*
X48432381Y-137281428D01*
X48527619Y-136948095D02*
X48480000Y-136900476D01*
X48432381Y-136805238D01*
X48432381Y-136567142D01*
X48480000Y-136471904D01*
X48527619Y-136424285D01*
X48622857Y-136376666D01*
X48718095Y-136376666D01*
X48860952Y-136424285D01*
X49432381Y-136995714D01*
X49432381Y-136376666D01*
X229171667Y-144549762D02*
X229314524Y-144597381D01*
X229552620Y-144597381D01*
X229647858Y-144549762D01*
X229695477Y-144502143D01*
X229743096Y-144406905D01*
X229743096Y-144311667D01*
X229695477Y-144216429D01*
X229647858Y-144168810D01*
X229552620Y-144121190D01*
X229362143Y-144073571D01*
X229266905Y-144025952D01*
X229219286Y-143978333D01*
X229171667Y-143883095D01*
X229171667Y-143787857D01*
X229219286Y-143692619D01*
X229266905Y-143645000D01*
X229362143Y-143597381D01*
X229600239Y-143597381D01*
X229743096Y-143645000D01*
X230076429Y-143597381D02*
X230314524Y-144597381D01*
X230505001Y-143883095D01*
X230695477Y-144597381D01*
X230933572Y-143597381D01*
X231219286Y-143597381D02*
X231838334Y-143597381D01*
X231505000Y-143978333D01*
X231647858Y-143978333D01*
X231743096Y-144025952D01*
X231790715Y-144073571D01*
X231838334Y-144168810D01*
X231838334Y-144406905D01*
X231790715Y-144502143D01*
X231743096Y-144549762D01*
X231647858Y-144597381D01*
X231362143Y-144597381D01*
X231266905Y-144549762D01*
X231219286Y-144502143D01*
X47006190Y-129556191D02*
X47482381Y-129556191D01*
X46482381Y-129889524D02*
X47006190Y-129556191D01*
X46482381Y-129222857D01*
X47482381Y-128365714D02*
X47482381Y-128937143D01*
X47482381Y-128651429D02*
X46482381Y-128651429D01*
X46625238Y-128746667D01*
X46720476Y-128841905D01*
X46768095Y-128937143D01*
X59282381Y-138471905D02*
X60091905Y-138471905D01*
X60187143Y-138424286D01*
X60234762Y-138376667D01*
X60282381Y-138281429D01*
X60282381Y-138090952D01*
X60234762Y-137995714D01*
X60187143Y-137948095D01*
X60091905Y-137900476D01*
X59282381Y-137900476D01*
X60282381Y-136900476D02*
X60282381Y-137471905D01*
X60282381Y-137186191D02*
X59282381Y-137186191D01*
X59425238Y-137281429D01*
X59520476Y-137376667D01*
X59568095Y-137471905D01*
X57126143Y-141771666D02*
X57173762Y-141819285D01*
X57221381Y-141962142D01*
X57221381Y-142057380D01*
X57173762Y-142200238D01*
X57078524Y-142295476D01*
X56983286Y-142343095D01*
X56792810Y-142390714D01*
X56649952Y-142390714D01*
X56459476Y-142343095D01*
X56364238Y-142295476D01*
X56269000Y-142200238D01*
X56221381Y-142057380D01*
X56221381Y-141962142D01*
X56269000Y-141819285D01*
X56316619Y-141771666D01*
X57221381Y-140819285D02*
X57221381Y-141390714D01*
X57221381Y-141105000D02*
X56221381Y-141105000D01*
X56364238Y-141200238D01*
X56459476Y-141295476D01*
X56507095Y-141390714D01*
X213447334Y-128500143D02*
X213399715Y-128547762D01*
X213256858Y-128595381D01*
X213161620Y-128595381D01*
X213018762Y-128547762D01*
X212923524Y-128452524D01*
X212875905Y-128357286D01*
X212828286Y-128166810D01*
X212828286Y-128023952D01*
X212875905Y-127833476D01*
X212923524Y-127738238D01*
X213018762Y-127643000D01*
X213161620Y-127595381D01*
X213256858Y-127595381D01*
X213399715Y-127643000D01*
X213447334Y-127690619D01*
X213828286Y-127690619D02*
X213875905Y-127643000D01*
X213971143Y-127595381D01*
X214209239Y-127595381D01*
X214304477Y-127643000D01*
X214352096Y-127690619D01*
X214399715Y-127785857D01*
X214399715Y-127881095D01*
X214352096Y-128023952D01*
X213780667Y-128595381D01*
X214399715Y-128595381D01*
X138787143Y-136056666D02*
X138834762Y-136104285D01*
X138882381Y-136247142D01*
X138882381Y-136342380D01*
X138834762Y-136485238D01*
X138739524Y-136580476D01*
X138644286Y-136628095D01*
X138453810Y-136675714D01*
X138310952Y-136675714D01*
X138120476Y-136628095D01*
X138025238Y-136580476D01*
X137930000Y-136485238D01*
X137882381Y-136342380D01*
X137882381Y-136247142D01*
X137930000Y-136104285D01*
X137977619Y-136056666D01*
X137882381Y-135723333D02*
X137882381Y-135104285D01*
X138263333Y-135437619D01*
X138263333Y-135294761D01*
X138310952Y-135199523D01*
X138358571Y-135151904D01*
X138453810Y-135104285D01*
X138691905Y-135104285D01*
X138787143Y-135151904D01*
X138834762Y-135199523D01*
X138882381Y-135294761D01*
X138882381Y-135580476D01*
X138834762Y-135675714D01*
X138787143Y-135723333D01*
X204923334Y-140637143D02*
X204875715Y-140684762D01*
X204732858Y-140732381D01*
X204637620Y-140732381D01*
X204494762Y-140684762D01*
X204399524Y-140589524D01*
X204351905Y-140494286D01*
X204304286Y-140303810D01*
X204304286Y-140160952D01*
X204351905Y-139970476D01*
X204399524Y-139875238D01*
X204494762Y-139780000D01*
X204637620Y-139732381D01*
X204732858Y-139732381D01*
X204875715Y-139780000D01*
X204923334Y-139827619D01*
X205780477Y-140065714D02*
X205780477Y-140732381D01*
X205542381Y-139684762D02*
X205304286Y-140399048D01*
X205923334Y-140399048D01*
X43647143Y-124806666D02*
X43694762Y-124854285D01*
X43742381Y-124997142D01*
X43742381Y-125092380D01*
X43694762Y-125235238D01*
X43599524Y-125330476D01*
X43504286Y-125378095D01*
X43313810Y-125425714D01*
X43170952Y-125425714D01*
X42980476Y-125378095D01*
X42885238Y-125330476D01*
X42790000Y-125235238D01*
X42742381Y-125092380D01*
X42742381Y-124997142D01*
X42790000Y-124854285D01*
X42837619Y-124806666D01*
X42742381Y-123949523D02*
X42742381Y-124140000D01*
X42790000Y-124235238D01*
X42837619Y-124282857D01*
X42980476Y-124378095D01*
X43170952Y-124425714D01*
X43551905Y-124425714D01*
X43647143Y-124378095D01*
X43694762Y-124330476D01*
X43742381Y-124235238D01*
X43742381Y-124044761D01*
X43694762Y-123949523D01*
X43647143Y-123901904D01*
X43551905Y-123854285D01*
X43313810Y-123854285D01*
X43218571Y-123901904D01*
X43170952Y-123949523D01*
X43123333Y-124044761D01*
X43123333Y-124235238D01*
X43170952Y-124330476D01*
X43218571Y-124378095D01*
X43313810Y-124425714D01*
X170013334Y-142597143D02*
X169965715Y-142644762D01*
X169822858Y-142692381D01*
X169727620Y-142692381D01*
X169584762Y-142644762D01*
X169489524Y-142549524D01*
X169441905Y-142454286D01*
X169394286Y-142263810D01*
X169394286Y-142120952D01*
X169441905Y-141930476D01*
X169489524Y-141835238D01*
X169584762Y-141740000D01*
X169727620Y-141692381D01*
X169822858Y-141692381D01*
X169965715Y-141740000D01*
X170013334Y-141787619D01*
X170346667Y-141692381D02*
X171013334Y-141692381D01*
X170584762Y-142692381D01*
X233005334Y-115292143D02*
X232957715Y-115339762D01*
X232814858Y-115387381D01*
X232719620Y-115387381D01*
X232576762Y-115339762D01*
X232481524Y-115244524D01*
X232433905Y-115149286D01*
X232386286Y-114958810D01*
X232386286Y-114815952D01*
X232433905Y-114625476D01*
X232481524Y-114530238D01*
X232576762Y-114435000D01*
X232719620Y-114387381D01*
X232814858Y-114387381D01*
X232957715Y-114435000D01*
X233005334Y-114482619D01*
X233481524Y-115387381D02*
X233672000Y-115387381D01*
X233767239Y-115339762D01*
X233814858Y-115292143D01*
X233910096Y-115149286D01*
X233957715Y-114958810D01*
X233957715Y-114577857D01*
X233910096Y-114482619D01*
X233862477Y-114435000D01*
X233767239Y-114387381D01*
X233576762Y-114387381D01*
X233481524Y-114435000D01*
X233433905Y-114482619D01*
X233386286Y-114577857D01*
X233386286Y-114815952D01*
X233433905Y-114911190D01*
X233481524Y-114958810D01*
X233576762Y-115006429D01*
X233767239Y-115006429D01*
X233862477Y-114958810D01*
X233910096Y-114911190D01*
X233957715Y-114815952D01*
X44807143Y-112910857D02*
X44854762Y-112958476D01*
X44902381Y-113101333D01*
X44902381Y-113196571D01*
X44854762Y-113339429D01*
X44759524Y-113434667D01*
X44664286Y-113482286D01*
X44473810Y-113529905D01*
X44330952Y-113529905D01*
X44140476Y-113482286D01*
X44045238Y-113434667D01*
X43950000Y-113339429D01*
X43902381Y-113196571D01*
X43902381Y-113101333D01*
X43950000Y-112958476D01*
X43997619Y-112910857D01*
X44902381Y-111958476D02*
X44902381Y-112529905D01*
X44902381Y-112244191D02*
X43902381Y-112244191D01*
X44045238Y-112339429D01*
X44140476Y-112434667D01*
X44188095Y-112529905D01*
X43902381Y-111339429D02*
X43902381Y-111244190D01*
X43950000Y-111148952D01*
X43997619Y-111101333D01*
X44092857Y-111053714D01*
X44283333Y-111006095D01*
X44521429Y-111006095D01*
X44711905Y-111053714D01*
X44807143Y-111101333D01*
X44854762Y-111148952D01*
X44902381Y-111244190D01*
X44902381Y-111339429D01*
X44854762Y-111434667D01*
X44807143Y-111482286D01*
X44711905Y-111529905D01*
X44521429Y-111577524D01*
X44283333Y-111577524D01*
X44092857Y-111529905D01*
X43997619Y-111482286D01*
X43950000Y-111434667D01*
X43902381Y-111339429D01*
X44908743Y-74302857D02*
X44956362Y-74350476D01*
X45003981Y-74493333D01*
X45003981Y-74588571D01*
X44956362Y-74731429D01*
X44861124Y-74826667D01*
X44765886Y-74874286D01*
X44575410Y-74921905D01*
X44432552Y-74921905D01*
X44242076Y-74874286D01*
X44146838Y-74826667D01*
X44051600Y-74731429D01*
X44003981Y-74588571D01*
X44003981Y-74493333D01*
X44051600Y-74350476D01*
X44099219Y-74302857D01*
X45003981Y-73350476D02*
X45003981Y-73921905D01*
X45003981Y-73636191D02*
X44003981Y-73636191D01*
X44146838Y-73731429D01*
X44242076Y-73826667D01*
X44289695Y-73921905D01*
X45003981Y-72398095D02*
X45003981Y-72969524D01*
X45003981Y-72683810D02*
X44003981Y-72683810D01*
X44146838Y-72779048D01*
X44242076Y-72874286D01*
X44289695Y-72969524D01*
X157218143Y-49633143D02*
X157170524Y-49680762D01*
X157027667Y-49728381D01*
X156932429Y-49728381D01*
X156789571Y-49680762D01*
X156694333Y-49585524D01*
X156646714Y-49490286D01*
X156599095Y-49299810D01*
X156599095Y-49156952D01*
X156646714Y-48966476D01*
X156694333Y-48871238D01*
X156789571Y-48776000D01*
X156932429Y-48728381D01*
X157027667Y-48728381D01*
X157170524Y-48776000D01*
X157218143Y-48823619D01*
X158170524Y-49728381D02*
X157599095Y-49728381D01*
X157884809Y-49728381D02*
X157884809Y-48728381D01*
X157789571Y-48871238D01*
X157694333Y-48966476D01*
X157599095Y-49014095D01*
X158551476Y-48823619D02*
X158599095Y-48776000D01*
X158694333Y-48728381D01*
X158932429Y-48728381D01*
X159027667Y-48776000D01*
X159075286Y-48823619D01*
X159122905Y-48918857D01*
X159122905Y-49014095D01*
X159075286Y-49156952D01*
X158503857Y-49728381D01*
X159122905Y-49728381D01*
X212621905Y-136342381D02*
X212621905Y-135342381D01*
X212860000Y-135342381D01*
X213002858Y-135390000D01*
X213098096Y-135485238D01*
X213145715Y-135580476D01*
X213193334Y-135770952D01*
X213193334Y-135913810D01*
X213145715Y-136104286D01*
X213098096Y-136199524D01*
X213002858Y-136294762D01*
X212860000Y-136342381D01*
X212621905Y-136342381D01*
X213574286Y-135437619D02*
X213621905Y-135390000D01*
X213717143Y-135342381D01*
X213955239Y-135342381D01*
X214050477Y-135390000D01*
X214098096Y-135437619D01*
X214145715Y-135532857D01*
X214145715Y-135628095D01*
X214098096Y-135770952D01*
X213526667Y-136342381D01*
X214145715Y-136342381D01*
X52462381Y-54378095D02*
X51462381Y-54378095D01*
X51462381Y-53997142D01*
X51510000Y-53901904D01*
X51557619Y-53854285D01*
X51652857Y-53806666D01*
X51795714Y-53806666D01*
X51890952Y-53854285D01*
X51938571Y-53901904D01*
X51986190Y-53997142D01*
X51986190Y-54378095D01*
X51462381Y-53473333D02*
X51462381Y-52854285D01*
X51843333Y-53187619D01*
X51843333Y-53044761D01*
X51890952Y-52949523D01*
X51938571Y-52901904D01*
X52033810Y-52854285D01*
X52271905Y-52854285D01*
X52367143Y-52901904D01*
X52414762Y-52949523D01*
X52462381Y-53044761D01*
X52462381Y-53330476D01*
X52414762Y-53425714D01*
X52367143Y-53473333D01*
X140523981Y-135839105D02*
X141333505Y-135839105D01*
X141428743Y-135791486D01*
X141476362Y-135743867D01*
X141523981Y-135648629D01*
X141523981Y-135458152D01*
X141476362Y-135362914D01*
X141428743Y-135315295D01*
X141333505Y-135267676D01*
X140523981Y-135267676D01*
X140857314Y-134362914D02*
X141523981Y-134362914D01*
X140476362Y-134601010D02*
X141190648Y-134839105D01*
X141190648Y-134220057D01*
X84186781Y-139242705D02*
X84996305Y-139242705D01*
X85091543Y-139195086D01*
X85139162Y-139147467D01*
X85186781Y-139052229D01*
X85186781Y-138861752D01*
X85139162Y-138766514D01*
X85091543Y-138718895D01*
X84996305Y-138671276D01*
X84186781Y-138671276D01*
X84186781Y-138290324D02*
X84186781Y-137671276D01*
X84567733Y-138004610D01*
X84567733Y-137861752D01*
X84615352Y-137766514D01*
X84662971Y-137718895D01*
X84758210Y-137671276D01*
X84996305Y-137671276D01*
X85091543Y-137718895D01*
X85139162Y-137766514D01*
X85186781Y-137861752D01*
X85186781Y-138147467D01*
X85139162Y-138242705D01*
X85091543Y-138290324D01*
X219368619Y-129000238D02*
X219321000Y-129095476D01*
X219225762Y-129190714D01*
X219082905Y-129333571D01*
X219035286Y-129428810D01*
X219035286Y-129524048D01*
X219273381Y-129476429D02*
X219225762Y-129571667D01*
X219130524Y-129666905D01*
X218940048Y-129714524D01*
X218606714Y-129714524D01*
X218416238Y-129666905D01*
X218321000Y-129571667D01*
X218273381Y-129476429D01*
X218273381Y-129285952D01*
X218321000Y-129190714D01*
X218416238Y-129095476D01*
X218606714Y-129047857D01*
X218940048Y-129047857D01*
X219130524Y-129095476D01*
X219225762Y-129190714D01*
X219273381Y-129285952D01*
X219273381Y-129476429D01*
X219273381Y-128095476D02*
X219273381Y-128666905D01*
X219273381Y-128381191D02*
X218273381Y-128381191D01*
X218416238Y-128476429D01*
X218511476Y-128571667D01*
X218559095Y-128666905D01*
X208788095Y-139152381D02*
X208788095Y-139961905D01*
X208835714Y-140057143D01*
X208883333Y-140104762D01*
X208978571Y-140152381D01*
X209169048Y-140152381D01*
X209264286Y-140104762D01*
X209311905Y-140057143D01*
X209359524Y-139961905D01*
X209359524Y-139152381D01*
X209788095Y-139247619D02*
X209835714Y-139200000D01*
X209930952Y-139152381D01*
X210169048Y-139152381D01*
X210264286Y-139200000D01*
X210311905Y-139247619D01*
X210359524Y-139342857D01*
X210359524Y-139438095D01*
X210311905Y-139580952D01*
X209740476Y-140152381D01*
X210359524Y-140152381D01*
X226972905Y-56332381D02*
X226972905Y-55332381D01*
X227353858Y-55332381D01*
X227449096Y-55380000D01*
X227496715Y-55427619D01*
X227544334Y-55522857D01*
X227544334Y-55665714D01*
X227496715Y-55760952D01*
X227449096Y-55808571D01*
X227353858Y-55856190D01*
X226972905Y-55856190D01*
X227925286Y-55427619D02*
X227972905Y-55380000D01*
X228068143Y-55332381D01*
X228306239Y-55332381D01*
X228401477Y-55380000D01*
X228449096Y-55427619D01*
X228496715Y-55522857D01*
X228496715Y-55618095D01*
X228449096Y-55760952D01*
X227877667Y-56332381D01*
X228496715Y-56332381D01*
X49741905Y-55732381D02*
X49741905Y-54732381D01*
X50122858Y-54732381D01*
X50218096Y-54780000D01*
X50265715Y-54827619D01*
X50313334Y-54922857D01*
X50313334Y-55065714D01*
X50265715Y-55160952D01*
X50218096Y-55208571D01*
X50122858Y-55256190D01*
X49741905Y-55256190D01*
X51170477Y-55065714D02*
X51170477Y-55732381D01*
X50932381Y-54684762D02*
X50694286Y-55399048D01*
X51313334Y-55399048D01*
X51760381Y-49760095D02*
X50760381Y-49760095D01*
X50760381Y-49379142D01*
X50808000Y-49283904D01*
X50855619Y-49236285D01*
X50950857Y-49188666D01*
X51093714Y-49188666D01*
X51188952Y-49236285D01*
X51236571Y-49283904D01*
X51284190Y-49379142D01*
X51284190Y-49760095D01*
X51760381Y-48236285D02*
X51760381Y-48807714D01*
X51760381Y-48522000D02*
X50760381Y-48522000D01*
X50903238Y-48617238D01*
X50998476Y-48712476D01*
X51046095Y-48807714D01*
X177188762Y-131254333D02*
X177236381Y-131111476D01*
X177236381Y-130873380D01*
X177188762Y-130778142D01*
X177141143Y-130730523D01*
X177045905Y-130682904D01*
X176950667Y-130682904D01*
X176855429Y-130730523D01*
X176807810Y-130778142D01*
X176760190Y-130873380D01*
X176712571Y-131063857D01*
X176664952Y-131159095D01*
X176617333Y-131206714D01*
X176522095Y-131254333D01*
X176426857Y-131254333D01*
X176331619Y-131206714D01*
X176284000Y-131159095D01*
X176236381Y-131063857D01*
X176236381Y-130825761D01*
X176284000Y-130682904D01*
X176236381Y-130349571D02*
X177236381Y-130111476D01*
X176522095Y-129920999D01*
X177236381Y-129730523D01*
X176236381Y-129492428D01*
X177236381Y-128587666D02*
X177236381Y-129159095D01*
X177236381Y-128873381D02*
X176236381Y-128873381D01*
X176379238Y-128968619D01*
X176474476Y-129063857D01*
X176522095Y-129159095D01*
X180157381Y-144311666D02*
X179681190Y-144645000D01*
X180157381Y-144883095D02*
X179157381Y-144883095D01*
X179157381Y-144502142D01*
X179205000Y-144406904D01*
X179252619Y-144359285D01*
X179347857Y-144311666D01*
X179490714Y-144311666D01*
X179585952Y-144359285D01*
X179633571Y-144406904D01*
X179681190Y-144502142D01*
X179681190Y-144883095D01*
X180157381Y-143359285D02*
X180157381Y-143930714D01*
X180157381Y-143645000D02*
X179157381Y-143645000D01*
X179300238Y-143740238D01*
X179395476Y-143835476D01*
X179443095Y-143930714D01*
X182697381Y-144311666D02*
X182221190Y-144645000D01*
X182697381Y-144883095D02*
X181697381Y-144883095D01*
X181697381Y-144502142D01*
X181745000Y-144406904D01*
X181792619Y-144359285D01*
X181887857Y-144311666D01*
X182030714Y-144311666D01*
X182125952Y-144359285D01*
X182173571Y-144406904D01*
X182221190Y-144502142D01*
X182221190Y-144883095D01*
X181792619Y-143930714D02*
X181745000Y-143883095D01*
X181697381Y-143787857D01*
X181697381Y-143549761D01*
X181745000Y-143454523D01*
X181792619Y-143406904D01*
X181887857Y-143359285D01*
X181983095Y-143359285D01*
X182125952Y-143406904D01*
X182697381Y-143978333D01*
X182697381Y-143359285D01*
X185237381Y-144311666D02*
X184761190Y-144645000D01*
X185237381Y-144883095D02*
X184237381Y-144883095D01*
X184237381Y-144502142D01*
X184285000Y-144406904D01*
X184332619Y-144359285D01*
X184427857Y-144311666D01*
X184570714Y-144311666D01*
X184665952Y-144359285D01*
X184713571Y-144406904D01*
X184761190Y-144502142D01*
X184761190Y-144883095D01*
X184237381Y-143978333D02*
X184237381Y-143359285D01*
X184618333Y-143692619D01*
X184618333Y-143549761D01*
X184665952Y-143454523D01*
X184713571Y-143406904D01*
X184808810Y-143359285D01*
X185046905Y-143359285D01*
X185142143Y-143406904D01*
X185189762Y-143454523D01*
X185237381Y-143549761D01*
X185237381Y-143835476D01*
X185189762Y-143930714D01*
X185142143Y-143978333D01*
X187777381Y-144311666D02*
X187301190Y-144645000D01*
X187777381Y-144883095D02*
X186777381Y-144883095D01*
X186777381Y-144502142D01*
X186825000Y-144406904D01*
X186872619Y-144359285D01*
X186967857Y-144311666D01*
X187110714Y-144311666D01*
X187205952Y-144359285D01*
X187253571Y-144406904D01*
X187301190Y-144502142D01*
X187301190Y-144883095D01*
X187110714Y-143454523D02*
X187777381Y-143454523D01*
X186729762Y-143692619D02*
X187444048Y-143930714D01*
X187444048Y-143311666D01*
X190317381Y-144311666D02*
X189841190Y-144645000D01*
X190317381Y-144883095D02*
X189317381Y-144883095D01*
X189317381Y-144502142D01*
X189365000Y-144406904D01*
X189412619Y-144359285D01*
X189507857Y-144311666D01*
X189650714Y-144311666D01*
X189745952Y-144359285D01*
X189793571Y-144406904D01*
X189841190Y-144502142D01*
X189841190Y-144883095D01*
X189317381Y-143406904D02*
X189317381Y-143883095D01*
X189793571Y-143930714D01*
X189745952Y-143883095D01*
X189698333Y-143787857D01*
X189698333Y-143549761D01*
X189745952Y-143454523D01*
X189793571Y-143406904D01*
X189888810Y-143359285D01*
X190126905Y-143359285D01*
X190222143Y-143406904D01*
X190269762Y-143454523D01*
X190317381Y-143549761D01*
X190317381Y-143787857D01*
X190269762Y-143883095D01*
X190222143Y-143930714D01*
X192857381Y-144311666D02*
X192381190Y-144645000D01*
X192857381Y-144883095D02*
X191857381Y-144883095D01*
X191857381Y-144502142D01*
X191905000Y-144406904D01*
X191952619Y-144359285D01*
X192047857Y-144311666D01*
X192190714Y-144311666D01*
X192285952Y-144359285D01*
X192333571Y-144406904D01*
X192381190Y-144502142D01*
X192381190Y-144883095D01*
X191857381Y-143454523D02*
X191857381Y-143645000D01*
X191905000Y-143740238D01*
X191952619Y-143787857D01*
X192095476Y-143883095D01*
X192285952Y-143930714D01*
X192666905Y-143930714D01*
X192762143Y-143883095D01*
X192809762Y-143835476D01*
X192857381Y-143740238D01*
X192857381Y-143549761D01*
X192809762Y-143454523D01*
X192762143Y-143406904D01*
X192666905Y-143359285D01*
X192428810Y-143359285D01*
X192333571Y-143406904D01*
X192285952Y-143454523D01*
X192238333Y-143549761D01*
X192238333Y-143740238D01*
X192285952Y-143835476D01*
X192333571Y-143883095D01*
X192428810Y-143930714D01*
X195397381Y-144311666D02*
X194921190Y-144645000D01*
X195397381Y-144883095D02*
X194397381Y-144883095D01*
X194397381Y-144502142D01*
X194445000Y-144406904D01*
X194492619Y-144359285D01*
X194587857Y-144311666D01*
X194730714Y-144311666D01*
X194825952Y-144359285D01*
X194873571Y-144406904D01*
X194921190Y-144502142D01*
X194921190Y-144883095D01*
X194397381Y-143978333D02*
X194397381Y-143311666D01*
X195397381Y-143740238D01*
X199112143Y-139231666D02*
X199159762Y-139279285D01*
X199207381Y-139422142D01*
X199207381Y-139517380D01*
X199159762Y-139660238D01*
X199064524Y-139755476D01*
X198969286Y-139803095D01*
X198778810Y-139850714D01*
X198635952Y-139850714D01*
X198445476Y-139803095D01*
X198350238Y-139755476D01*
X198255000Y-139660238D01*
X198207381Y-139517380D01*
X198207381Y-139422142D01*
X198255000Y-139279285D01*
X198302619Y-139231666D01*
X198207381Y-138326904D02*
X198207381Y-138803095D01*
X198683571Y-138850714D01*
X198635952Y-138803095D01*
X198588333Y-138707857D01*
X198588333Y-138469761D01*
X198635952Y-138374523D01*
X198683571Y-138326904D01*
X198778810Y-138279285D01*
X199016905Y-138279285D01*
X199112143Y-138326904D01*
X199159762Y-138374523D01*
X199207381Y-138469761D01*
X199207381Y-138707857D01*
X199159762Y-138803095D01*
X199112143Y-138850714D01*
X138922239Y-87304571D02*
X139065096Y-87352190D01*
X139112715Y-87399810D01*
X139160334Y-87495048D01*
X139160334Y-87637905D01*
X139112715Y-87733143D01*
X139065096Y-87780762D01*
X138969858Y-87828381D01*
X138588905Y-87828381D01*
X138588905Y-86828381D01*
X138922239Y-86828381D01*
X139017477Y-86876000D01*
X139065096Y-86923619D01*
X139112715Y-87018857D01*
X139112715Y-87114095D01*
X139065096Y-87209333D01*
X139017477Y-87256952D01*
X138922239Y-87304571D01*
X138588905Y-87304571D01*
X139922239Y-87304571D02*
X140065096Y-87352190D01*
X140112715Y-87399810D01*
X140160334Y-87495048D01*
X140160334Y-87637905D01*
X140112715Y-87733143D01*
X140065096Y-87780762D01*
X139969858Y-87828381D01*
X139588905Y-87828381D01*
X139588905Y-86828381D01*
X139922239Y-86828381D01*
X140017477Y-86876000D01*
X140065096Y-86923619D01*
X140112715Y-87018857D01*
X140112715Y-87114095D01*
X140065096Y-87209333D01*
X140017477Y-87256952D01*
X139922239Y-87304571D01*
X139588905Y-87304571D01*
X141112715Y-87828381D02*
X140541286Y-87828381D01*
X140827000Y-87828381D02*
X140827000Y-86828381D01*
X140731762Y-86971238D01*
X140636524Y-87066476D01*
X140541286Y-87114095D01*
X53808334Y-135961381D02*
X53475000Y-135485190D01*
X53236905Y-135961381D02*
X53236905Y-134961381D01*
X53617858Y-134961381D01*
X53713096Y-135009000D01*
X53760715Y-135056619D01*
X53808334Y-135151857D01*
X53808334Y-135294714D01*
X53760715Y-135389952D01*
X53713096Y-135437571D01*
X53617858Y-135485190D01*
X53236905Y-135485190D01*
X54379762Y-135389952D02*
X54284524Y-135342333D01*
X54236905Y-135294714D01*
X54189286Y-135199476D01*
X54189286Y-135151857D01*
X54236905Y-135056619D01*
X54284524Y-135009000D01*
X54379762Y-134961381D01*
X54570239Y-134961381D01*
X54665477Y-135009000D01*
X54713096Y-135056619D01*
X54760715Y-135151857D01*
X54760715Y-135199476D01*
X54713096Y-135294714D01*
X54665477Y-135342333D01*
X54570239Y-135389952D01*
X54379762Y-135389952D01*
X54284524Y-135437571D01*
X54236905Y-135485190D01*
X54189286Y-135580429D01*
X54189286Y-135770905D01*
X54236905Y-135866143D01*
X54284524Y-135913762D01*
X54379762Y-135961381D01*
X54570239Y-135961381D01*
X54665477Y-135913762D01*
X54713096Y-135866143D01*
X54760715Y-135770905D01*
X54760715Y-135580429D01*
X54713096Y-135485190D01*
X54665477Y-135437571D01*
X54570239Y-135389952D01*
X214971334Y-123896381D02*
X214638000Y-123420190D01*
X214399905Y-123896381D02*
X214399905Y-122896381D01*
X214780858Y-122896381D01*
X214876096Y-122944000D01*
X214923715Y-122991619D01*
X214971334Y-123086857D01*
X214971334Y-123229714D01*
X214923715Y-123324952D01*
X214876096Y-123372571D01*
X214780858Y-123420190D01*
X214399905Y-123420190D01*
X215447524Y-123896381D02*
X215638000Y-123896381D01*
X215733239Y-123848762D01*
X215780858Y-123801143D01*
X215876096Y-123658286D01*
X215923715Y-123467810D01*
X215923715Y-123086857D01*
X215876096Y-122991619D01*
X215828477Y-122944000D01*
X215733239Y-122896381D01*
X215542762Y-122896381D01*
X215447524Y-122944000D01*
X215399905Y-122991619D01*
X215352286Y-123086857D01*
X215352286Y-123324952D01*
X215399905Y-123420190D01*
X215447524Y-123467810D01*
X215542762Y-123515429D01*
X215733239Y-123515429D01*
X215828477Y-123467810D01*
X215876096Y-123420190D01*
X215923715Y-123324952D01*
M02*
